  0
SECTION
  2
HEADER
  9
$ANGBASE
  50
0.0
  9
$ANGDIR
  70
  1
  9
$MEASUREMENT
  70
0
  0
ENDSEC
  0
SECTION
  2
TABLES
  0
TABLE
  2
LTYPE
  70
1
  0
LTYPE
  2
CONTINUOUS
  70
0
  3
Solid line
  72
65
  73
0
  40
0.0
  0
ENDTAB
  0
TABLE
  2
STYLE
  70
4
  0
STYLE
  2
KICAD
  70
0
  40
0
  41
1
  42
1
  50
0
  71
0
  3
isocp.shx
  0
STYLE
  2
KICADB
  70
0
  40
0
  41
1
  42
1
  50
0
  71
0
  3
isocp.shx
  0
STYLE
  2
KICADI
  70
0
  40
0
  41
1
  42
1
  50
15
  71
0
  3
isocp.shx
  0
STYLE
  2
KICADBI
  70
0
  40
0
  41
1
  42
1
  50
15
  71
0
  3
isocp.shx
  0
ENDTAB
  0
TABLE
  2
LAYER
  70
30
  0
LAYER
  2
BLACK
  70
0
  62
7
  6
CONTINUOUS
  0
LAYER
  2
GRAY1
  70
0
  62
251
  6
CONTINUOUS
  0
LAYER
  2
GRAY2
  70
0
  62
8
  6
CONTINUOUS
  0
LAYER
  2
GRAY3
  70
0
  62
9
  6
CONTINUOUS
  0
LAYER
  2
WHITE
  70
0
  62
7
  6
CONTINUOUS
  0
LAYER
  2
LYELLOW
  70
0
  62
51
  6
CONTINUOUS
  0
LAYER
  2
BLUE1
  70
0
  62
178
  6
CONTINUOUS
  0
LAYER
  2
GREEN1
  70
0
  62
98
  6
CONTINUOUS
  0
LAYER
  2
CYAN1
  70
0
  62
138
  6
CONTINUOUS
  0
LAYER
  2
RED1
  70
0
  62
18
  6
CONTINUOUS
  0
LAYER
  2
MAGENTA1
  70
0
  62
228
  6
CONTINUOUS
  0
LAYER
  2
BROWN1
  70
0
  62
58
  6
CONTINUOUS
  0
LAYER
  2
BLUE2
  70
0
  62
5
  6
CONTINUOUS
  0
LAYER
  2
GREEN2
  70
0
  62
3
  6
CONTINUOUS
  0
LAYER
  2
CYAN2
  70
0
  62
4
  6
CONTINUOUS
  0
LAYER
  2
RED2
  70
0
  62
1
  6
CONTINUOUS
  0
LAYER
  2
MAGENTA2
  70
0
  62
6
  6
CONTINUOUS
  0
LAYER
  2
BROWN2
  70
0
  62
54
  6
CONTINUOUS
  0
LAYER
  2
BLUE3
  70
0
  62
171
  6
CONTINUOUS
  0
LAYER
  2
GREEN3
  70
0
  62
91
  6
CONTINUOUS
  0
LAYER
  2
CYAN3
  70
0
  62
131
  6
CONTINUOUS
  0
LAYER
  2
RED3
  70
0
  62
11
  6
CONTINUOUS
  0
LAYER
  2
MAGENTA3
  70
0
  62
221
  6
CONTINUOUS
  0
LAYER
  2
YELLOW3
  70
0
  62
2
  6
CONTINUOUS
  0
LAYER
  2
BLUE4
  70
0
  62
5
  6
CONTINUOUS
  0
LAYER
  2
GREEN4
  70
0
  62
3
  6
CONTINUOUS
  0
LAYER
  2
CYAN4
  70
0
  62
4
  6
CONTINUOUS
  0
LAYER
  2
RED4
  70
0
  62
1
  6
CONTINUOUS
  0
LAYER
  2
MAGENTA4
  70
0
  62
6
  6
CONTINUOUS
  0
LAYER
  2
YELLOW4
  70
0
  62
2
  6
CONTINUOUS
  0
ENDTAB
  0
ENDSEC
  0
SECTION
  2
ENTITIES
0
LINE
8
Black
10
12.0194
20
-57.4578
11
12.0327
21
-57.469
0
LINE
8
Black
10
12.0327
20
-57.469
11
12.0414
21
-57.484
0
LINE
8
Black
10
12.0414
20
-57.484
11
12.0444
21
-57.5011
0
LINE
8
Black
10
12.0444
20
-57.5011
11
12.0444
21
-95.5011
0
LINE
8
Black
10
12.0444
20
-95.5011
11
12.0414
21
-95.5182
0
LINE
8
Black
10
12.0414
20
-95.5182
11
12.0327
21
-95.5333
0
LINE
8
Black
10
12.0327
20
-95.5333
11
12.0194
21
-95.5444
0
LINE
8
Black
10
12.0194
20
-95.5444
11
12.0031
21
-95.5504
0
LINE
8
Black
10
12.0031
20
-95.5504
11
11.9857
21
-95.5504
0
LINE
8
Black
10
11.9857
20
-95.5504
11
11.9694
21
-95.5444
0
LINE
8
Black
10
11.9694
20
-95.5444
11
11.9561
21
-95.5333
0
LINE
8
Black
10
11.9561
20
-95.5333
11
11.9474
21
-95.5182
0
LINE
8
Black
10
11.9474
20
-95.5182
11
11.9444
21
-95.5011
0
LINE
8
Black
10
11.9444
20
-95.5011
11
11.9444
21
-57.5011
0
LINE
8
Black
10
11.9444
20
-57.5011
11
11.9474
21
-57.484
0
LINE
8
Black
10
11.9474
20
-57.484
11
11.9561
21
-57.469
0
LINE
8
Black
10
11.9561
20
-57.469
11
11.9694
21
-57.4578
0
LINE
8
Black
10
11.9694
20
-57.4578
11
11.9857
21
-57.4519
0
LINE
8
Black
10
11.9857
20
-57.4519
11
12.0031
21
-57.4519
0
LINE
8
Black
10
12.0031
20
-57.4519
11
12.0194
21
-57.4578
0
LINE
8
Black
10
60.3442
20
-83.7254
11
60.3463
21
-83.7254
0
LINE
8
Black
10
60.3463
20
-83.7254
11
60.3484
21
-83.7261
0
LINE
8
Black
10
60.3484
20
-83.7261
11
60.3506
21
-83.7265
0
LINE
8
Black
10
60.3506
20
-83.7265
11
60.3524
21
-83.7276
0
LINE
8
Black
10
60.3524
20
-83.7276
11
60.3545
21
-83.7283
0
LINE
8
Black
10
60.3545
20
-83.7283
11
60.3562
21
-83.7298
0
LINE
8
Black
10
60.3562
20
-83.7298
11
60.3581
21
-83.7308
0
LINE
8
Black
10
60.3581
20
-83.7308
11
60.3595
21
-83.7325
0
LINE
8
Black
10
60.3595
20
-83.7325
11
60.3612
21
-83.7339
0
LINE
8
Black
10
60.3612
20
-83.7339
11
60.3622
21
-83.7358
0
LINE
8
Black
10
60.3622
20
-83.7358
11
60.3637
21
-83.7375
0
LINE
8
Black
10
60.3637
20
-83.7375
11
60.3644
21
-83.7396
0
LINE
8
Black
10
60.3644
20
-83.7396
11
60.3655
21
-83.7414
0
LINE
8
Black
10
60.3655
20
-83.7414
11
60.3659
21
-83.7436
0
LINE
8
Black
10
60.3659
20
-83.7436
11
60.3666
21
-83.7457
0
LINE
8
Black
10
60.3666
20
-83.7457
11
60.3666
21
-83.7478
0
LINE
8
Black
10
60.3666
20
-83.7478
11
60.367
21
-83.75
0
LINE
8
Black
10
60.367
20
-83.75
11
60.367
21
-94.25
0
LINE
8
Black
10
60.367
20
-94.25
11
60.3666
21
-94.2522
0
LINE
8
Black
10
60.3666
20
-94.2522
11
60.3666
21
-94.2543
0
LINE
8
Black
10
60.3666
20
-94.2543
11
60.3659
21
-94.2564
0
LINE
8
Black
10
60.3659
20
-94.2564
11
60.3655
21
-94.2586
0
LINE
8
Black
10
60.3655
20
-94.2586
11
60.3644
21
-94.2604
0
LINE
8
Black
10
60.3644
20
-94.2604
11
60.3637
21
-94.2625
0
LINE
8
Black
10
60.3637
20
-94.2625
11
60.3622
21
-94.2642
0
LINE
8
Black
10
60.3622
20
-94.2642
11
60.3612
21
-94.2661
0
LINE
8
Black
10
60.3612
20
-94.2661
11
60.3595
21
-94.2675
0
LINE
8
Black
10
60.3595
20
-94.2675
11
60.3581
21
-94.2692
0
LINE
8
Black
10
60.3581
20
-94.2692
11
60.3562
21
-94.2702
0
LINE
8
Black
10
60.3562
20
-94.2702
11
60.3545
21
-94.2717
0
LINE
8
Black
10
60.3545
20
-94.2717
11
60.3524
21
-94.2724
0
LINE
8
Black
10
60.3524
20
-94.2724
11
60.3506
21
-94.2735
0
LINE
8
Black
10
60.3506
20
-94.2735
11
60.3484
21
-94.2739
0
LINE
8
Black
10
60.3484
20
-94.2739
11
60.3463
21
-94.2746
0
LINE
8
Black
10
60.3463
20
-94.2746
11
60.3442
21
-94.2746
0
LINE
8
Black
10
60.3442
20
-94.2746
11
60.342
21
-94.275
0
LINE
8
Black
10
60.342
20
-94.275
11
52.342
21
-94.275
0
LINE
8
Black
10
52.342
20
-94.275
11
52.3398
21
-94.2746
0
LINE
8
Black
10
52.3398
20
-94.2746
11
52.3377
21
-94.2746
0
LINE
8
Black
10
52.3377
20
-94.2746
11
52.3356
21
-94.2739
0
LINE
8
Black
10
52.3356
20
-94.2739
11
52.3334
21
-94.2735
0
LINE
8
Black
10
52.3334
20
-94.2735
11
52.3316
21
-94.2724
0
LINE
8
Black
10
52.3316
20
-94.2724
11
52.3295
21
-94.2717
0
LINE
8
Black
10
52.3295
20
-94.2717
11
52.3278
21
-94.2702
0
LINE
8
Black
10
52.3278
20
-94.2702
11
52.3259
21
-94.2692
0
LINE
8
Black
10
52.3259
20
-94.2692
11
52.3245
21
-94.2675
0
LINE
8
Black
10
52.3245
20
-94.2675
11
52.3228
21
-94.2661
0
LINE
8
Black
10
52.3228
20
-94.2661
11
52.3218
21
-94.2642
0
LINE
8
Black
10
52.3218
20
-94.2642
11
52.3203
21
-94.2625
0
LINE
8
Black
10
52.3203
20
-94.2625
11
52.3196
21
-94.2604
0
LINE
8
Black
10
52.3196
20
-94.2604
11
52.3185
21
-94.2586
0
LINE
8
Black
10
52.3185
20
-94.2586
11
52.3181
21
-94.2564
0
LINE
8
Black
10
52.3181
20
-94.2564
11
52.3174
21
-94.2543
0
LINE
8
Black
10
52.3174
20
-94.2543
11
52.3174
21
-94.2522
0
LINE
8
Black
10
52.3174
20
-94.2522
11
52.317
21
-94.25
0
LINE
8
Black
10
52.317
20
-94.25
11
52.317
21
-83.75
0
LINE
8
Black
10
52.317
20
-83.75
11
52.3174
21
-83.7478
0
LINE
8
Black
10
52.3174
20
-83.7478
11
52.3174
21
-83.7457
0
LINE
8
Black
10
52.3174
20
-83.7457
11
52.3181
21
-83.7436
0
LINE
8
Black
10
52.3181
20
-83.7436
11
52.3185
21
-83.7414
0
LINE
8
Black
10
52.3185
20
-83.7414
11
52.3196
21
-83.7396
0
LINE
8
Black
10
52.3196
20
-83.7396
11
52.3203
21
-83.7375
0
LINE
8
Black
10
52.3203
20
-83.7375
11
52.3218
21
-83.7358
0
LINE
8
Black
10
52.3218
20
-83.7358
11
52.3228
21
-83.7339
0
LINE
8
Black
10
52.3228
20
-83.7339
11
52.3245
21
-83.7325
0
LINE
8
Black
10
52.3245
20
-83.7325
11
52.3259
21
-83.7308
0
LINE
8
Black
10
52.3259
20
-83.7308
11
52.3278
21
-83.7298
0
LINE
8
Black
10
52.3278
20
-83.7298
11
52.3295
21
-83.7283
0
LINE
8
Black
10
52.3295
20
-83.7283
11
52.3316
21
-83.7276
0
LINE
8
Black
10
52.3316
20
-83.7276
11
52.3334
21
-83.7265
0
LINE
8
Black
10
52.3334
20
-83.7265
11
52.3356
21
-83.7261
0
LINE
8
Black
10
52.3356
20
-83.7261
11
52.3377
21
-83.7254
0
LINE
8
Black
10
52.3377
20
-83.7254
11
52.3398
21
-83.7254
0
LINE
8
Black
10
52.3398
20
-83.7254
11
52.342
21
-83.725
0
LINE
8
Black
10
52.342
20
-83.725
11
60.342
21
-83.725
0
LINE
8
Black
10
60.342
20
-83.725
11
60.3442
21
-83.7254
0
LINE
8
Black
10
52.367
20
-83.775
11
52.367
21
-94.225
0
LINE
8
Black
10
52.367
20
-94.225
11
60.317
21
-94.225
0
LINE
8
Black
10
60.317
20
-94.225
11
60.317
21
-83.775
0
LINE
8
Black
10
60.317
20
-83.775
11
52.367
21
-83.775
0
LINE
8
Black
10
20.8442
20
-83.7254
11
20.8463
21
-83.7254
0
LINE
8
Black
10
20.8463
20
-83.7254
11
20.8484
21
-83.7261
0
LINE
8
Black
10
20.8484
20
-83.7261
11
20.8506
21
-83.7265
0
LINE
8
Black
10
20.8506
20
-83.7265
11
20.8524
21
-83.7276
0
LINE
8
Black
10
20.8524
20
-83.7276
11
20.8545
21
-83.7283
0
LINE
8
Black
10
20.8545
20
-83.7283
11
20.8562
21
-83.7298
0
LINE
8
Black
10
20.8562
20
-83.7298
11
20.8581
21
-83.7308
0
LINE
8
Black
10
20.8581
20
-83.7308
11
20.8595
21
-83.7325
0
LINE
8
Black
10
20.8595
20
-83.7325
11
20.8612
21
-83.7339
0
LINE
8
Black
10
20.8612
20
-83.7339
11
20.8622
21
-83.7358
0
LINE
8
Black
10
20.8622
20
-83.7358
11
20.8637
21
-83.7375
0
LINE
8
Black
10
20.8637
20
-83.7375
11
20.8644
21
-83.7396
0
LINE
8
Black
10
20.8644
20
-83.7396
11
20.8655
21
-83.7414
0
LINE
8
Black
10
20.8655
20
-83.7414
11
20.8659
21
-83.7436
0
LINE
8
Black
10
20.8659
20
-83.7436
11
20.8666
21
-83.7457
0
LINE
8
Black
10
20.8666
20
-83.7457
11
20.8666
21
-83.7478
0
LINE
8
Black
10
20.8666
20
-83.7478
11
20.867
21
-83.75
0
LINE
8
Black
10
20.867
20
-83.75
11
20.867
21
-94.25
0
LINE
8
Black
10
20.867
20
-94.25
11
20.8666
21
-94.2522
0
LINE
8
Black
10
20.8666
20
-94.2522
11
20.8666
21
-94.2543
0
LINE
8
Black
10
20.8666
20
-94.2543
11
20.8659
21
-94.2564
0
LINE
8
Black
10
20.8659
20
-94.2564
11
20.8655
21
-94.2586
0
LINE
8
Black
10
20.8655
20
-94.2586
11
20.8644
21
-94.2604
0
LINE
8
Black
10
20.8644
20
-94.2604
11
20.8637
21
-94.2625
0
LINE
8
Black
10
20.8637
20
-94.2625
11
20.8622
21
-94.2642
0
LINE
8
Black
10
20.8622
20
-94.2642
11
20.8612
21
-94.2661
0
LINE
8
Black
10
20.8612
20
-94.2661
11
20.8595
21
-94.2675
0
LINE
8
Black
10
20.8595
20
-94.2675
11
20.8581
21
-94.2692
0
LINE
8
Black
10
20.8581
20
-94.2692
11
20.8562
21
-94.2702
0
LINE
8
Black
10
20.8562
20
-94.2702
11
20.8545
21
-94.2717
0
LINE
8
Black
10
20.8545
20
-94.2717
11
20.8524
21
-94.2724
0
LINE
8
Black
10
20.8524
20
-94.2724
11
20.8506
21
-94.2735
0
LINE
8
Black
10
20.8506
20
-94.2735
11
20.8484
21
-94.2739
0
LINE
8
Black
10
20.8484
20
-94.2739
11
20.8463
21
-94.2746
0
LINE
8
Black
10
20.8463
20
-94.2746
11
20.8442
21
-94.2746
0
LINE
8
Black
10
20.8442
20
-94.2746
11
20.842
21
-94.275
0
LINE
8
Black
10
20.842
20
-94.275
11
12.842
21
-94.275
0
LINE
8
Black
10
12.842
20
-94.275
11
12.8398
21
-94.2746
0
LINE
8
Black
10
12.8398
20
-94.2746
11
12.8377
21
-94.2746
0
LINE
8
Black
10
12.8377
20
-94.2746
11
12.8356
21
-94.2739
0
LINE
8
Black
10
12.8356
20
-94.2739
11
12.8334
21
-94.2735
0
LINE
8
Black
10
12.8334
20
-94.2735
11
12.8316
21
-94.2724
0
LINE
8
Black
10
12.8316
20
-94.2724
11
12.8295
21
-94.2717
0
LINE
8
Black
10
12.8295
20
-94.2717
11
12.8278
21
-94.2702
0
LINE
8
Black
10
12.8278
20
-94.2702
11
12.8259
21
-94.2692
0
LINE
8
Black
10
12.8259
20
-94.2692
11
12.8245
21
-94.2675
0
LINE
8
Black
10
12.8245
20
-94.2675
11
12.8228
21
-94.2661
0
LINE
8
Black
10
12.8228
20
-94.2661
11
12.8218
21
-94.2642
0
LINE
8
Black
10
12.8218
20
-94.2642
11
12.8203
21
-94.2625
0
LINE
8
Black
10
12.8203
20
-94.2625
11
12.8196
21
-94.2604
0
LINE
8
Black
10
12.8196
20
-94.2604
11
12.8185
21
-94.2586
0
LINE
8
Black
10
12.8185
20
-94.2586
11
12.8181
21
-94.2564
0
LINE
8
Black
10
12.8181
20
-94.2564
11
12.8174
21
-94.2543
0
LINE
8
Black
10
12.8174
20
-94.2543
11
12.8174
21
-94.2522
0
LINE
8
Black
10
12.8174
20
-94.2522
11
12.817
21
-94.25
0
LINE
8
Black
10
12.817
20
-94.25
11
12.817
21
-83.75
0
LINE
8
Black
10
12.817
20
-83.75
11
12.8174
21
-83.7478
0
LINE
8
Black
10
12.8174
20
-83.7478
11
12.8174
21
-83.7457
0
LINE
8
Black
10
12.8174
20
-83.7457
11
12.8181
21
-83.7436
0
LINE
8
Black
10
12.8181
20
-83.7436
11
12.8185
21
-83.7414
0
LINE
8
Black
10
12.8185
20
-83.7414
11
12.8196
21
-83.7396
0
LINE
8
Black
10
12.8196
20
-83.7396
11
12.8203
21
-83.7375
0
LINE
8
Black
10
12.8203
20
-83.7375
11
12.8218
21
-83.7358
0
LINE
8
Black
10
12.8218
20
-83.7358
11
12.8228
21
-83.7339
0
LINE
8
Black
10
12.8228
20
-83.7339
11
12.8245
21
-83.7325
0
LINE
8
Black
10
12.8245
20
-83.7325
11
12.8259
21
-83.7308
0
LINE
8
Black
10
12.8259
20
-83.7308
11
12.8278
21
-83.7298
0
LINE
8
Black
10
12.8278
20
-83.7298
11
12.8295
21
-83.7283
0
LINE
8
Black
10
12.8295
20
-83.7283
11
12.8316
21
-83.7276
0
LINE
8
Black
10
12.8316
20
-83.7276
11
12.8334
21
-83.7265
0
LINE
8
Black
10
12.8334
20
-83.7265
11
12.8356
21
-83.7261
0
LINE
8
Black
10
12.8356
20
-83.7261
11
12.8377
21
-83.7254
0
LINE
8
Black
10
12.8377
20
-83.7254
11
12.8398
21
-83.7254
0
LINE
8
Black
10
12.8398
20
-83.7254
11
12.842
21
-83.725
0
LINE
8
Black
10
12.842
20
-83.725
11
20.842
21
-83.725
0
LINE
8
Black
10
20.842
20
-83.725
11
20.8442
21
-83.7254
0
LINE
8
Black
10
12.867
20
-83.775
11
12.867
21
-94.225
0
LINE
8
Black
10
12.867
20
-94.225
11
20.817
21
-94.225
0
LINE
8
Black
10
20.817
20
-94.225
11
20.817
21
-83.775
0
LINE
8
Black
10
20.817
20
-83.775
11
12.867
21
-83.775
0
LINE
8
Black
10
187.021
20
-73.9249
11
187.035
21
-73.9361
0
LINE
8
Black
10
187.035
20
-73.9361
11
187.043
21
-73.9511
0
LINE
8
Black
10
187.043
20
-73.9511
11
187.046
21
-73.9682
0
LINE
8
Black
10
187.046
20
-73.9682
11
187.046
21
-76.9932
0
LINE
8
Black
10
187.046
20
-76.9932
11
190.071
21
-76.9932
0
LINE
8
Black
10
190.071
20
-76.9932
11
190.088
21
-76.9963
0
LINE
8
Black
10
190.088
20
-76.9963
11
190.103
21
-77.0049
0
LINE
8
Black
10
190.103
20
-77.0049
11
190.115
21
-77.0182
0
LINE
8
Black
10
190.115
20
-77.0182
11
190.12
21
-77.0346
0
LINE
8
Black
10
190.12
20
-77.0346
11
190.12
21
-77.0519
0
LINE
8
Black
10
190.12
20
-77.0519
11
190.115
21
-77.0682
0
LINE
8
Black
10
190.115
20
-77.0682
11
190.103
21
-77.0815
0
LINE
8
Black
10
190.103
20
-77.0815
11
190.088
21
-77.0902
0
LINE
8
Black
10
190.088
20
-77.0902
11
190.071
21
-77.0932
0
LINE
8
Black
10
190.071
20
-77.0932
11
187.046
21
-77.0932
0
LINE
8
Black
10
187.046
20
-77.0932
11
187.046
21
-80.1182
0
LINE
8
Black
10
187.046
20
-80.1182
11
187.043
21
-80.1353
0
LINE
8
Black
10
187.043
20
-80.1353
11
187.035
21
-80.1504
0
LINE
8
Black
10
187.035
20
-80.1504
11
187.021
21
-80.1615
0
LINE
8
Black
10
187.021
20
-80.1615
11
187.005
21
-80.1675
0
LINE
8
Black
10
187.005
20
-80.1675
11
186.988
21
-80.1675
0
LINE
8
Black
10
186.988
20
-80.1675
11
186.971
21
-80.1615
0
LINE
8
Black
10
186.971
20
-80.1615
11
186.958
21
-80.1504
0
LINE
8
Black
10
186.958
20
-80.1504
11
186.949
21
-80.1353
0
LINE
8
Black
10
186.949
20
-80.1353
11
186.946
21
-80.1182
0
LINE
8
Black
10
186.946
20
-80.1182
11
186.946
21
-77.0932
0
LINE
8
Black
10
186.946
20
-77.0932
11
183.921
21
-77.0932
0
LINE
8
Black
10
183.921
20
-77.0932
11
183.904
21
-77.0902
0
LINE
8
Black
10
183.904
20
-77.0902
11
183.889
21
-77.0815
0
LINE
8
Black
10
183.889
20
-77.0815
11
183.878
21
-77.0682
0
LINE
8
Black
10
183.878
20
-77.0682
11
183.872
21
-77.0519
0
LINE
8
Black
10
183.872
20
-77.0519
11
183.872
21
-77.0346
0
LINE
8
Black
10
183.872
20
-77.0346
11
183.878
21
-77.0182
0
LINE
8
Black
10
183.878
20
-77.0182
11
183.889
21
-77.0049
0
LINE
8
Black
10
183.889
20
-77.0049
11
183.904
21
-76.9963
0
LINE
8
Black
10
183.904
20
-76.9963
11
183.921
21
-76.9932
0
LINE
8
Black
10
183.921
20
-76.9932
11
186.946
21
-76.9932
0
LINE
8
Black
10
186.946
20
-76.9932
11
186.946
21
-73.9682
0
LINE
8
Black
10
186.946
20
-73.9682
11
186.949
21
-73.9511
0
LINE
8
Black
10
186.949
20
-73.9511
11
186.958
21
-73.9361
0
LINE
8
Black
10
186.958
20
-73.9361
11
186.971
21
-73.9249
0
LINE
8
Black
10
186.971
20
-73.9249
11
186.988
21
-73.919
0
LINE
8
Black
10
186.988
20
-73.919
11
187.005
21
-73.919
0
LINE
8
Black
10
187.005
20
-73.919
11
187.021
21
-73.9249
0
LINE
8
Black
10
151.021
20
-73.9037
11
151.035
21
-73.9149
0
LINE
8
Black
10
151.035
20
-73.9149
11
151.043
21
-73.9299
0
LINE
8
Black
10
151.043
20
-73.9299
11
151.046
21
-73.947
0
LINE
8
Black
10
151.046
20
-73.947
11
151.046
21
-76.972
0
LINE
8
Black
10
151.046
20
-76.972
11
154.071
21
-76.972
0
LINE
8
Black
10
154.071
20
-76.972
11
154.088
21
-76.9751
0
LINE
8
Black
10
154.088
20
-76.9751
11
154.103
21
-76.9837
0
LINE
8
Black
10
154.103
20
-76.9837
11
154.115
21
-76.997
0
LINE
8
Black
10
154.115
20
-76.997
11
154.12
21
-77.0134
0
LINE
8
Black
10
154.12
20
-77.0134
11
154.12
21
-77.0307
0
LINE
8
Black
10
154.12
20
-77.0307
11
154.115
21
-77.047
0
LINE
8
Black
10
154.115
20
-77.047
11
154.103
21
-77.0603
0
LINE
8
Black
10
154.103
20
-77.0603
11
154.088
21
-77.069
0
LINE
8
Black
10
154.088
20
-77.069
11
154.071
21
-77.072
0
LINE
8
Black
10
154.071
20
-77.072
11
151.046
21
-77.072
0
LINE
8
Black
10
151.046
20
-77.072
11
151.046
21
-80.097
0
LINE
8
Black
10
151.046
20
-80.097
11
151.043
21
-80.1141
0
LINE
8
Black
10
151.043
20
-80.1141
11
151.035
21
-80.1292
0
LINE
8
Black
10
151.035
20
-80.1292
11
151.021
21
-80.1403
0
LINE
8
Black
10
151.021
20
-80.1403
11
151.005
21
-80.1463
0
LINE
8
Black
10
151.005
20
-80.1463
11
150.988
21
-80.1463
0
LINE
8
Black
10
150.988
20
-80.1463
11
150.971
21
-80.1403
0
LINE
8
Black
10
150.971
20
-80.1403
11
150.958
21
-80.1292
0
LINE
8
Black
10
150.958
20
-80.1292
11
150.949
21
-80.1141
0
LINE
8
Black
10
150.949
20
-80.1141
11
150.946
21
-80.097
0
LINE
8
Black
10
150.946
20
-80.097
11
150.946
21
-77.072
0
LINE
8
Black
10
150.946
20
-77.072
11
147.921
21
-77.072
0
LINE
8
Black
10
147.921
20
-77.072
11
147.904
21
-77.069
0
LINE
8
Black
10
147.904
20
-77.069
11
147.889
21
-77.0603
0
LINE
8
Black
10
147.889
20
-77.0603
11
147.878
21
-77.047
0
LINE
8
Black
10
147.878
20
-77.047
11
147.872
21
-77.0307
0
LINE
8
Black
10
147.872
20
-77.0307
11
147.872
21
-77.0134
0
LINE
8
Black
10
147.872
20
-77.0134
11
147.878
21
-76.997
0
LINE
8
Black
10
147.878
20
-76.997
11
147.889
21
-76.9837
0
LINE
8
Black
10
147.889
20
-76.9837
11
147.904
21
-76.9751
0
LINE
8
Black
10
147.904
20
-76.9751
11
147.921
21
-76.972
0
LINE
8
Black
10
147.921
20
-76.972
11
150.946
21
-76.972
0
LINE
8
Black
10
150.946
20
-76.972
11
150.946
21
-73.947
0
LINE
8
Black
10
150.946
20
-73.947
11
150.949
21
-73.9299
0
LINE
8
Black
10
150.949
20
-73.9299
11
150.958
21
-73.9149
0
LINE
8
Black
10
150.958
20
-73.9149
11
150.971
21
-73.9037
0
LINE
8
Black
10
150.971
20
-73.9037
11
150.988
21
-73.8978
0
LINE
8
Black
10
150.988
20
-73.8978
11
151.005
21
-73.8978
0
LINE
8
Black
10
151.005
20
-73.8978
11
151.021
21
-73.9037
0
LINE
8
Black
10
133.021
20
-73.9037
11
133.035
21
-73.9149
0
LINE
8
Black
10
133.035
20
-73.9149
11
133.043
21
-73.9299
0
LINE
8
Black
10
133.043
20
-73.9299
11
133.046
21
-73.947
0
LINE
8
Black
10
133.046
20
-73.947
11
133.046
21
-76.972
0
LINE
8
Black
10
133.046
20
-76.972
11
136.071
21
-76.972
0
LINE
8
Black
10
136.071
20
-76.972
11
136.088
21
-76.9751
0
LINE
8
Black
10
136.088
20
-76.9751
11
136.103
21
-76.9837
0
LINE
8
Black
10
136.103
20
-76.9837
11
136.115
21
-76.997
0
LINE
8
Black
10
136.115
20
-76.997
11
136.12
21
-77.0134
0
LINE
8
Black
10
136.12
20
-77.0134
11
136.12
21
-77.0307
0
LINE
8
Black
10
136.12
20
-77.0307
11
136.115
21
-77.047
0
LINE
8
Black
10
136.115
20
-77.047
11
136.103
21
-77.0603
0
LINE
8
Black
10
136.103
20
-77.0603
11
136.088
21
-77.069
0
LINE
8
Black
10
136.088
20
-77.069
11
136.071
21
-77.072
0
LINE
8
Black
10
136.071
20
-77.072
11
133.046
21
-77.072
0
LINE
8
Black
10
133.046
20
-77.072
11
133.046
21
-80.097
0
LINE
8
Black
10
133.046
20
-80.097
11
133.043
21
-80.1141
0
LINE
8
Black
10
133.043
20
-80.1141
11
133.035
21
-80.1292
0
LINE
8
Black
10
133.035
20
-80.1292
11
133.021
21
-80.1403
0
LINE
8
Black
10
133.021
20
-80.1403
11
133.005
21
-80.1463
0
LINE
8
Black
10
133.005
20
-80.1463
11
132.988
21
-80.1463
0
LINE
8
Black
10
132.988
20
-80.1463
11
132.971
21
-80.1403
0
LINE
8
Black
10
132.971
20
-80.1403
11
132.958
21
-80.1292
0
LINE
8
Black
10
132.958
20
-80.1292
11
132.949
21
-80.1141
0
LINE
8
Black
10
132.949
20
-80.1141
11
132.946
21
-80.097
0
LINE
8
Black
10
132.946
20
-80.097
11
132.946
21
-77.072
0
LINE
8
Black
10
132.946
20
-77.072
11
129.921
21
-77.072
0
LINE
8
Black
10
129.921
20
-77.072
11
129.904
21
-77.069
0
LINE
8
Black
10
129.904
20
-77.069
11
129.889
21
-77.0603
0
LINE
8
Black
10
129.889
20
-77.0603
11
129.878
21
-77.047
0
LINE
8
Black
10
129.878
20
-77.047
11
129.872
21
-77.0307
0
LINE
8
Black
10
129.872
20
-77.0307
11
129.872
21
-77.0134
0
LINE
8
Black
10
129.872
20
-77.0134
11
129.878
21
-76.997
0
LINE
8
Black
10
129.878
20
-76.997
11
129.889
21
-76.9837
0
LINE
8
Black
10
129.889
20
-76.9837
11
129.904
21
-76.9751
0
LINE
8
Black
10
129.904
20
-76.9751
11
129.921
21
-76.972
0
LINE
8
Black
10
129.921
20
-76.972
11
132.946
21
-76.972
0
LINE
8
Black
10
132.946
20
-76.972
11
132.946
21
-73.947
0
LINE
8
Black
10
132.946
20
-73.947
11
132.949
21
-73.9299
0
LINE
8
Black
10
132.949
20
-73.9299
11
132.958
21
-73.9149
0
LINE
8
Black
10
132.958
20
-73.9149
11
132.971
21
-73.9037
0
LINE
8
Black
10
132.971
20
-73.9037
11
132.988
21
-73.8978
0
LINE
8
Black
10
132.988
20
-73.8978
11
133.005
21
-73.8978
0
LINE
8
Black
10
133.005
20
-73.8978
11
133.021
21
-73.9037
0
LINE
8
Black
10
169.021
20
-73.9037
11
169.035
21
-73.9149
0
LINE
8
Black
10
169.035
20
-73.9149
11
169.043
21
-73.9299
0
LINE
8
Black
10
169.043
20
-73.9299
11
169.046
21
-73.947
0
LINE
8
Black
10
169.046
20
-73.947
11
169.046
21
-76.972
0
LINE
8
Black
10
169.046
20
-76.972
11
172.071
21
-76.972
0
LINE
8
Black
10
172.071
20
-76.972
11
172.088
21
-76.9751
0
LINE
8
Black
10
172.088
20
-76.9751
11
172.103
21
-76.9837
0
LINE
8
Black
10
172.103
20
-76.9837
11
172.115
21
-76.997
0
LINE
8
Black
10
172.115
20
-76.997
11
172.12
21
-77.0134
0
LINE
8
Black
10
172.12
20
-77.0134
11
172.12
21
-77.0307
0
LINE
8
Black
10
172.12
20
-77.0307
11
172.115
21
-77.047
0
LINE
8
Black
10
172.115
20
-77.047
11
172.103
21
-77.0603
0
LINE
8
Black
10
172.103
20
-77.0603
11
172.088
21
-77.069
0
LINE
8
Black
10
172.088
20
-77.069
11
172.071
21
-77.072
0
LINE
8
Black
10
172.071
20
-77.072
11
169.046
21
-77.072
0
LINE
8
Black
10
169.046
20
-77.072
11
169.046
21
-80.097
0
LINE
8
Black
10
169.046
20
-80.097
11
169.043
21
-80.1141
0
LINE
8
Black
10
169.043
20
-80.1141
11
169.035
21
-80.1292
0
LINE
8
Black
10
169.035
20
-80.1292
11
169.021
21
-80.1403
0
LINE
8
Black
10
169.021
20
-80.1403
11
169.005
21
-80.1463
0
LINE
8
Black
10
169.005
20
-80.1463
11
168.988
21
-80.1463
0
LINE
8
Black
10
168.988
20
-80.1463
11
168.971
21
-80.1403
0
LINE
8
Black
10
168.971
20
-80.1403
11
168.958
21
-80.1292
0
LINE
8
Black
10
168.958
20
-80.1292
11
168.949
21
-80.1141
0
LINE
8
Black
10
168.949
20
-80.1141
11
168.946
21
-80.097
0
LINE
8
Black
10
168.946
20
-80.097
11
168.946
21
-77.072
0
LINE
8
Black
10
168.946
20
-77.072
11
165.921
21
-77.072
0
LINE
8
Black
10
165.921
20
-77.072
11
165.904
21
-77.069
0
LINE
8
Black
10
165.904
20
-77.069
11
165.889
21
-77.0603
0
LINE
8
Black
10
165.889
20
-77.0603
11
165.878
21
-77.047
0
LINE
8
Black
10
165.878
20
-77.047
11
165.872
21
-77.0307
0
LINE
8
Black
10
165.872
20
-77.0307
11
165.872
21
-77.0134
0
LINE
8
Black
10
165.872
20
-77.0134
11
165.878
21
-76.997
0
LINE
8
Black
10
165.878
20
-76.997
11
165.889
21
-76.9837
0
LINE
8
Black
10
165.889
20
-76.9837
11
165.904
21
-76.9751
0
LINE
8
Black
10
165.904
20
-76.9751
11
165.921
21
-76.972
0
LINE
8
Black
10
165.921
20
-76.972
11
168.946
21
-76.972
0
LINE
8
Black
10
168.946
20
-76.972
11
168.946
21
-73.947
0
LINE
8
Black
10
168.946
20
-73.947
11
168.949
21
-73.9299
0
LINE
8
Black
10
168.949
20
-73.9299
11
168.958
21
-73.9149
0
LINE
8
Black
10
168.958
20
-73.9149
11
168.971
21
-73.9037
0
LINE
8
Black
10
168.971
20
-73.9037
11
168.988
21
-73.8978
0
LINE
8
Black
10
168.988
20
-73.8978
11
169.005
21
-73.8978
0
LINE
8
Black
10
169.005
20
-73.8978
11
169.021
21
-73.9037
0
LINE
8
Black
10
115.021
20
-73.9037
11
115.035
21
-73.9149
0
LINE
8
Black
10
115.035
20
-73.9149
11
115.043
21
-73.9299
0
LINE
8
Black
10
115.043
20
-73.9299
11
115.046
21
-73.947
0
LINE
8
Black
10
115.046
20
-73.947
11
115.046
21
-76.972
0
LINE
8
Black
10
115.046
20
-76.972
11
118.071
21
-76.972
0
LINE
8
Black
10
118.071
20
-76.972
11
118.088
21
-76.9751
0
LINE
8
Black
10
118.088
20
-76.9751
11
118.103
21
-76.9837
0
LINE
8
Black
10
118.103
20
-76.9837
11
118.115
21
-76.997
0
LINE
8
Black
10
118.115
20
-76.997
11
118.12
21
-77.0134
0
LINE
8
Black
10
118.12
20
-77.0134
11
118.12
21
-77.0307
0
LINE
8
Black
10
118.12
20
-77.0307
11
118.115
21
-77.047
0
LINE
8
Black
10
118.115
20
-77.047
11
118.103
21
-77.0603
0
LINE
8
Black
10
118.103
20
-77.0603
11
118.088
21
-77.069
0
LINE
8
Black
10
118.088
20
-77.069
11
118.071
21
-77.072
0
LINE
8
Black
10
118.071
20
-77.072
11
115.046
21
-77.072
0
LINE
8
Black
10
115.046
20
-77.072
11
115.046
21
-80.097
0
LINE
8
Black
10
115.046
20
-80.097
11
115.043
21
-80.1141
0
LINE
8
Black
10
115.043
20
-80.1141
11
115.035
21
-80.1292
0
LINE
8
Black
10
115.035
20
-80.1292
11
115.021
21
-80.1403
0
LINE
8
Black
10
115.021
20
-80.1403
11
115.005
21
-80.1463
0
LINE
8
Black
10
115.005
20
-80.1463
11
114.988
21
-80.1463
0
LINE
8
Black
10
114.988
20
-80.1463
11
114.971
21
-80.1403
0
LINE
8
Black
10
114.971
20
-80.1403
11
114.958
21
-80.1292
0
LINE
8
Black
10
114.958
20
-80.1292
11
114.949
21
-80.1141
0
LINE
8
Black
10
114.949
20
-80.1141
11
114.946
21
-80.097
0
LINE
8
Black
10
114.946
20
-80.097
11
114.946
21
-77.072
0
LINE
8
Black
10
114.946
20
-77.072
11
111.921
21
-77.072
0
LINE
8
Black
10
111.921
20
-77.072
11
111.904
21
-77.069
0
LINE
8
Black
10
111.904
20
-77.069
11
111.889
21
-77.0603
0
LINE
8
Black
10
111.889
20
-77.0603
11
111.878
21
-77.047
0
LINE
8
Black
10
111.878
20
-77.047
11
111.872
21
-77.0307
0
LINE
8
Black
10
111.872
20
-77.0307
11
111.872
21
-77.0134
0
LINE
8
Black
10
111.872
20
-77.0134
11
111.878
21
-76.997
0
LINE
8
Black
10
111.878
20
-76.997
11
111.889
21
-76.9837
0
LINE
8
Black
10
111.889
20
-76.9837
11
111.904
21
-76.9751
0
LINE
8
Black
10
111.904
20
-76.9751
11
111.921
21
-76.972
0
LINE
8
Black
10
111.921
20
-76.972
11
114.946
21
-76.972
0
LINE
8
Black
10
114.946
20
-76.972
11
114.946
21
-73.947
0
LINE
8
Black
10
114.946
20
-73.947
11
114.949
21
-73.9299
0
LINE
8
Black
10
114.949
20
-73.9299
11
114.958
21
-73.9149
0
LINE
8
Black
10
114.958
20
-73.9149
11
114.971
21
-73.9037
0
LINE
8
Black
10
114.971
20
-73.9037
11
114.988
21
-73.8978
0
LINE
8
Black
10
114.988
20
-73.8978
11
115.005
21
-73.8978
0
LINE
8
Black
10
115.005
20
-73.8978
11
115.021
21
-73.9037
0
LINE
8
Black
10
205.021
20
-73.9037
11
205.035
21
-73.9149
0
LINE
8
Black
10
205.035
20
-73.9149
11
205.043
21
-73.9299
0
LINE
8
Black
10
205.043
20
-73.9299
11
205.046
21
-73.947
0
LINE
8
Black
10
205.046
20
-73.947
11
205.046
21
-76.972
0
LINE
8
Black
10
205.046
20
-76.972
11
208.071
21
-76.972
0
LINE
8
Black
10
208.071
20
-76.972
11
208.088
21
-76.9751
0
LINE
8
Black
10
208.088
20
-76.9751
11
208.103
21
-76.9837
0
LINE
8
Black
10
208.103
20
-76.9837
11
208.115
21
-76.997
0
LINE
8
Black
10
208.115
20
-76.997
11
208.12
21
-77.0134
0
LINE
8
Black
10
208.12
20
-77.0134
11
208.12
21
-77.0307
0
LINE
8
Black
10
208.12
20
-77.0307
11
208.115
21
-77.047
0
LINE
8
Black
10
208.115
20
-77.047
11
208.103
21
-77.0603
0
LINE
8
Black
10
208.103
20
-77.0603
11
208.088
21
-77.069
0
LINE
8
Black
10
208.088
20
-77.069
11
208.071
21
-77.072
0
LINE
8
Black
10
208.071
20
-77.072
11
205.046
21
-77.072
0
LINE
8
Black
10
205.046
20
-77.072
11
205.046
21
-80.097
0
LINE
8
Black
10
205.046
20
-80.097
11
205.043
21
-80.1141
0
LINE
8
Black
10
205.043
20
-80.1141
11
205.035
21
-80.1292
0
LINE
8
Black
10
205.035
20
-80.1292
11
205.021
21
-80.1403
0
LINE
8
Black
10
205.021
20
-80.1403
11
205.005
21
-80.1463
0
LINE
8
Black
10
205.005
20
-80.1463
11
204.988
21
-80.1463
0
LINE
8
Black
10
204.988
20
-80.1463
11
204.971
21
-80.1403
0
LINE
8
Black
10
204.971
20
-80.1403
11
204.958
21
-80.1292
0
LINE
8
Black
10
204.958
20
-80.1292
11
204.949
21
-80.1141
0
LINE
8
Black
10
204.949
20
-80.1141
11
204.946
21
-80.097
0
LINE
8
Black
10
204.946
20
-80.097
11
204.946
21
-77.072
0
LINE
8
Black
10
204.946
20
-77.072
11
201.921
21
-77.072
0
LINE
8
Black
10
201.921
20
-77.072
11
201.904
21
-77.069
0
LINE
8
Black
10
201.904
20
-77.069
11
201.889
21
-77.0603
0
LINE
8
Black
10
201.889
20
-77.0603
11
201.878
21
-77.047
0
LINE
8
Black
10
201.878
20
-77.047
11
201.872
21
-77.0307
0
LINE
8
Black
10
201.872
20
-77.0307
11
201.872
21
-77.0134
0
LINE
8
Black
10
201.872
20
-77.0134
11
201.878
21
-76.997
0
LINE
8
Black
10
201.878
20
-76.997
11
201.889
21
-76.9837
0
LINE
8
Black
10
201.889
20
-76.9837
11
201.904
21
-76.9751
0
LINE
8
Black
10
201.904
20
-76.9751
11
201.921
21
-76.972
0
LINE
8
Black
10
201.921
20
-76.972
11
204.946
21
-76.972
0
LINE
8
Black
10
204.946
20
-76.972
11
204.946
21
-73.947
0
LINE
8
Black
10
204.946
20
-73.947
11
204.949
21
-73.9299
0
LINE
8
Black
10
204.949
20
-73.9299
11
204.958
21
-73.9149
0
LINE
8
Black
10
204.958
20
-73.9149
11
204.971
21
-73.9037
0
LINE
8
Black
10
204.971
20
-73.9037
11
204.988
21
-73.8978
0
LINE
8
Black
10
204.988
20
-73.8978
11
205.005
21
-73.8978
0
LINE
8
Black
10
205.005
20
-73.8978
11
205.021
21
-73.9037
0
LINE
8
Black
10
223.021
20
-73.9037
11
223.035
21
-73.9149
0
LINE
8
Black
10
223.035
20
-73.9149
11
223.043
21
-73.9299
0
LINE
8
Black
10
223.043
20
-73.9299
11
223.046
21
-73.947
0
LINE
8
Black
10
223.046
20
-73.947
11
223.046
21
-76.972
0
LINE
8
Black
10
223.046
20
-76.972
11
226.071
21
-76.972
0
LINE
8
Black
10
226.071
20
-76.972
11
226.088
21
-76.9751
0
LINE
8
Black
10
226.088
20
-76.9751
11
226.103
21
-76.9837
0
LINE
8
Black
10
226.103
20
-76.9837
11
226.115
21
-76.997
0
LINE
8
Black
10
226.115
20
-76.997
11
226.12
21
-77.0134
0
LINE
8
Black
10
226.12
20
-77.0134
11
226.12
21
-77.0307
0
LINE
8
Black
10
226.12
20
-77.0307
11
226.115
21
-77.047
0
LINE
8
Black
10
226.115
20
-77.047
11
226.103
21
-77.0603
0
LINE
8
Black
10
226.103
20
-77.0603
11
226.088
21
-77.069
0
LINE
8
Black
10
226.088
20
-77.069
11
226.071
21
-77.072
0
LINE
8
Black
10
226.071
20
-77.072
11
223.046
21
-77.072
0
LINE
8
Black
10
223.046
20
-77.072
11
223.046
21
-80.097
0
LINE
8
Black
10
223.046
20
-80.097
11
223.043
21
-80.1141
0
LINE
8
Black
10
223.043
20
-80.1141
11
223.035
21
-80.1292
0
LINE
8
Black
10
223.035
20
-80.1292
11
223.021
21
-80.1403
0
LINE
8
Black
10
223.021
20
-80.1403
11
223.005
21
-80.1463
0
LINE
8
Black
10
223.005
20
-80.1463
11
222.988
21
-80.1463
0
LINE
8
Black
10
222.988
20
-80.1463
11
222.971
21
-80.1403
0
LINE
8
Black
10
222.971
20
-80.1403
11
222.958
21
-80.1292
0
LINE
8
Black
10
222.958
20
-80.1292
11
222.949
21
-80.1141
0
LINE
8
Black
10
222.949
20
-80.1141
11
222.946
21
-80.097
0
LINE
8
Black
10
222.946
20
-80.097
11
222.946
21
-77.072
0
LINE
8
Black
10
222.946
20
-77.072
11
219.921
21
-77.072
0
LINE
8
Black
10
219.921
20
-77.072
11
219.904
21
-77.069
0
LINE
8
Black
10
219.904
20
-77.069
11
219.889
21
-77.0603
0
LINE
8
Black
10
219.889
20
-77.0603
11
219.878
21
-77.047
0
LINE
8
Black
10
219.878
20
-77.047
11
219.872
21
-77.0307
0
LINE
8
Black
10
219.872
20
-77.0307
11
219.872
21
-77.0134
0
LINE
8
Black
10
219.872
20
-77.0134
11
219.878
21
-76.997
0
LINE
8
Black
10
219.878
20
-76.997
11
219.889
21
-76.9837
0
LINE
8
Black
10
219.889
20
-76.9837
11
219.904
21
-76.9751
0
LINE
8
Black
10
219.904
20
-76.9751
11
219.921
21
-76.972
0
LINE
8
Black
10
219.921
20
-76.972
11
222.946
21
-76.972
0
LINE
8
Black
10
222.946
20
-76.972
11
222.946
21
-73.947
0
LINE
8
Black
10
222.946
20
-73.947
11
222.949
21
-73.9299
0
LINE
8
Black
10
222.949
20
-73.9299
11
222.958
21
-73.9149
0
LINE
8
Black
10
222.958
20
-73.9149
11
222.971
21
-73.9037
0
LINE
8
Black
10
222.971
20
-73.9037
11
222.988
21
-73.8978
0
LINE
8
Black
10
222.988
20
-73.8978
11
223.005
21
-73.8978
0
LINE
8
Black
10
223.005
20
-73.8978
11
223.021
21
-73.9037
0
LINE
8
Black
10
241.021
20
-73.9037
11
241.035
21
-73.9149
0
LINE
8
Black
10
241.035
20
-73.9149
11
241.043
21
-73.9299
0
LINE
8
Black
10
241.043
20
-73.9299
11
241.046
21
-73.947
0
LINE
8
Black
10
241.046
20
-73.947
11
241.046
21
-76.972
0
LINE
8
Black
10
241.046
20
-76.972
11
244.071
21
-76.972
0
LINE
8
Black
10
244.071
20
-76.972
11
244.088
21
-76.9751
0
LINE
8
Black
10
244.088
20
-76.9751
11
244.103
21
-76.9837
0
LINE
8
Black
10
244.103
20
-76.9837
11
244.115
21
-76.997
0
LINE
8
Black
10
244.115
20
-76.997
11
244.12
21
-77.0134
0
LINE
8
Black
10
244.12
20
-77.0134
11
244.12
21
-77.0307
0
LINE
8
Black
10
244.12
20
-77.0307
11
244.115
21
-77.047
0
LINE
8
Black
10
244.115
20
-77.047
11
244.103
21
-77.0603
0
LINE
8
Black
10
244.103
20
-77.0603
11
244.088
21
-77.069
0
LINE
8
Black
10
244.088
20
-77.069
11
244.071
21
-77.072
0
LINE
8
Black
10
244.071
20
-77.072
11
241.046
21
-77.072
0
LINE
8
Black
10
241.046
20
-77.072
11
241.046
21
-80.097
0
LINE
8
Black
10
241.046
20
-80.097
11
241.043
21
-80.1141
0
LINE
8
Black
10
241.043
20
-80.1141
11
241.035
21
-80.1292
0
LINE
8
Black
10
241.035
20
-80.1292
11
241.021
21
-80.1403
0
LINE
8
Black
10
241.021
20
-80.1403
11
241.005
21
-80.1463
0
LINE
8
Black
10
241.005
20
-80.1463
11
240.988
21
-80.1463
0
LINE
8
Black
10
240.988
20
-80.1463
11
240.971
21
-80.1403
0
LINE
8
Black
10
240.971
20
-80.1403
11
240.958
21
-80.1292
0
LINE
8
Black
10
240.958
20
-80.1292
11
240.949
21
-80.1141
0
LINE
8
Black
10
240.949
20
-80.1141
11
240.946
21
-80.097
0
LINE
8
Black
10
240.946
20
-80.097
11
240.946
21
-77.072
0
LINE
8
Black
10
240.946
20
-77.072
11
237.921
21
-77.072
0
LINE
8
Black
10
237.921
20
-77.072
11
237.904
21
-77.069
0
LINE
8
Black
10
237.904
20
-77.069
11
237.889
21
-77.0603
0
LINE
8
Black
10
237.889
20
-77.0603
11
237.878
21
-77.047
0
LINE
8
Black
10
237.878
20
-77.047
11
237.872
21
-77.0307
0
LINE
8
Black
10
237.872
20
-77.0307
11
237.872
21
-77.0134
0
LINE
8
Black
10
237.872
20
-77.0134
11
237.878
21
-76.997
0
LINE
8
Black
10
237.878
20
-76.997
11
237.889
21
-76.9837
0
LINE
8
Black
10
237.889
20
-76.9837
11
237.904
21
-76.9751
0
LINE
8
Black
10
237.904
20
-76.9751
11
237.921
21
-76.972
0
LINE
8
Black
10
237.921
20
-76.972
11
240.946
21
-76.972
0
LINE
8
Black
10
240.946
20
-76.972
11
240.946
21
-73.947
0
LINE
8
Black
10
240.946
20
-73.947
11
240.949
21
-73.9299
0
LINE
8
Black
10
240.949
20
-73.9299
11
240.958
21
-73.9149
0
LINE
8
Black
10
240.958
20
-73.9149
11
240.971
21
-73.9037
0
LINE
8
Black
10
240.971
20
-73.9037
11
240.988
21
-73.8978
0
LINE
8
Black
10
240.988
20
-73.8978
11
241.005
21
-73.8978
0
LINE
8
Black
10
241.005
20
-73.8978
11
241.021
21
-73.9037
0
LINE
8
Black
10
79.0212
20
-73.9037
11
79.0345
21
-73.9149
0
LINE
8
Black
10
79.0345
20
-73.9149
11
79.0432
21
-73.9299
0
LINE
8
Black
10
79.0432
20
-73.9299
11
79.0462
21
-73.947
0
LINE
8
Black
10
79.0462
20
-73.947
11
79.0462
21
-76.972
0
LINE
8
Black
10
79.0462
20
-76.972
11
82.0712
21
-76.972
0
LINE
8
Black
10
82.0712
20
-76.972
11
82.0883
21
-76.9751
0
LINE
8
Black
10
82.0883
20
-76.9751
11
82.1034
21
-76.9837
0
LINE
8
Black
10
82.1034
20
-76.9837
11
82.1145
21
-76.997
0
LINE
8
Black
10
82.1145
20
-76.997
11
82.1205
21
-77.0134
0
LINE
8
Black
10
82.1205
20
-77.0134
11
82.1205
21
-77.0307
0
LINE
8
Black
10
82.1205
20
-77.0307
11
82.1145
21
-77.047
0
LINE
8
Black
10
82.1145
20
-77.047
11
82.1034
21
-77.0603
0
LINE
8
Black
10
82.1034
20
-77.0603
11
82.0883
21
-77.069
0
LINE
8
Black
10
82.0883
20
-77.069
11
82.0712
21
-77.072
0
LINE
8
Black
10
82.0712
20
-77.072
11
79.0462
21
-77.072
0
LINE
8
Black
10
79.0462
20
-77.072
11
79.0462
21
-80.097
0
LINE
8
Black
10
79.0462
20
-80.097
11
79.0432
21
-80.1141
0
LINE
8
Black
10
79.0432
20
-80.1141
11
79.0345
21
-80.1292
0
LINE
8
Black
10
79.0345
20
-80.1292
11
79.0212
21
-80.1403
0
LINE
8
Black
10
79.0212
20
-80.1403
11
79.0049
21
-80.1463
0
LINE
8
Black
10
79.0049
20
-80.1463
11
78.9875
21
-80.1463
0
LINE
8
Black
10
78.9875
20
-80.1463
11
78.9712
21
-80.1403
0
LINE
8
Black
10
78.9712
20
-80.1403
11
78.9579
21
-80.1292
0
LINE
8
Black
10
78.9579
20
-80.1292
11
78.9492
21
-80.1141
0
LINE
8
Black
10
78.9492
20
-80.1141
11
78.9462
21
-80.097
0
LINE
8
Black
10
78.9462
20
-80.097
11
78.9462
21
-77.072
0
LINE
8
Black
10
78.9462
20
-77.072
11
75.9212
21
-77.072
0
LINE
8
Black
10
75.9212
20
-77.072
11
75.9041
21
-77.069
0
LINE
8
Black
10
75.9041
20
-77.069
11
75.8891
21
-77.0603
0
LINE
8
Black
10
75.8891
20
-77.0603
11
75.8779
21
-77.047
0
LINE
8
Black
10
75.8779
20
-77.047
11
75.872
21
-77.0307
0
LINE
8
Black
10
75.872
20
-77.0307
11
75.872
21
-77.0134
0
LINE
8
Black
10
75.872
20
-77.0134
11
75.8779
21
-76.997
0
LINE
8
Black
10
75.8779
20
-76.997
11
75.8891
21
-76.9837
0
LINE
8
Black
10
75.8891
20
-76.9837
11
75.9041
21
-76.9751
0
LINE
8
Black
10
75.9041
20
-76.9751
11
75.9212
21
-76.972
0
LINE
8
Black
10
75.9212
20
-76.972
11
78.9462
21
-76.972
0
LINE
8
Black
10
78.9462
20
-76.972
11
78.9462
21
-73.947
0
LINE
8
Black
10
78.9462
20
-73.947
11
78.9492
21
-73.9299
0
LINE
8
Black
10
78.9492
20
-73.9299
11
78.9579
21
-73.9149
0
LINE
8
Black
10
78.9579
20
-73.9149
11
78.9712
21
-73.9037
0
LINE
8
Black
10
78.9712
20
-73.9037
11
78.9875
21
-73.8978
0
LINE
8
Black
10
78.9875
20
-73.8978
11
79.0049
21
-73.8978
0
LINE
8
Black
10
79.0049
20
-73.8978
11
79.0212
21
-73.9037
0
LINE
8
Black
10
280.521
20
-73.9037
11
280.535
21
-73.9149
0
LINE
8
Black
10
280.535
20
-73.9149
11
280.543
21
-73.9299
0
LINE
8
Black
10
280.543
20
-73.9299
11
280.546
21
-73.947
0
LINE
8
Black
10
280.546
20
-73.947
11
280.546
21
-76.972
0
LINE
8
Black
10
280.546
20
-76.972
11
283.571
21
-76.972
0
LINE
8
Black
10
283.571
20
-76.972
11
283.588
21
-76.9751
0
LINE
8
Black
10
283.588
20
-76.9751
11
283.603
21
-76.9837
0
LINE
8
Black
10
283.603
20
-76.9837
11
283.615
21
-76.997
0
LINE
8
Black
10
283.615
20
-76.997
11
283.62
21
-77.0134
0
LINE
8
Black
10
283.62
20
-77.0134
11
283.62
21
-77.0307
0
LINE
8
Black
10
283.62
20
-77.0307
11
283.615
21
-77.047
0
LINE
8
Black
10
283.615
20
-77.047
11
283.603
21
-77.0603
0
LINE
8
Black
10
283.603
20
-77.0603
11
283.588
21
-77.069
0
LINE
8
Black
10
283.588
20
-77.069
11
283.571
21
-77.072
0
LINE
8
Black
10
283.571
20
-77.072
11
280.546
21
-77.072
0
LINE
8
Black
10
280.546
20
-77.072
11
280.546
21
-80.097
0
LINE
8
Black
10
280.546
20
-80.097
11
280.543
21
-80.1141
0
LINE
8
Black
10
280.543
20
-80.1141
11
280.535
21
-80.1292
0
LINE
8
Black
10
280.535
20
-80.1292
11
280.521
21
-80.1403
0
LINE
8
Black
10
280.521
20
-80.1403
11
280.505
21
-80.1463
0
LINE
8
Black
10
280.505
20
-80.1463
11
280.488
21
-80.1463
0
LINE
8
Black
10
280.488
20
-80.1463
11
280.471
21
-80.1403
0
LINE
8
Black
10
280.471
20
-80.1403
11
280.458
21
-80.1292
0
LINE
8
Black
10
280.458
20
-80.1292
11
280.449
21
-80.1141
0
LINE
8
Black
10
280.449
20
-80.1141
11
280.446
21
-80.097
0
LINE
8
Black
10
280.446
20
-80.097
11
280.446
21
-77.072
0
LINE
8
Black
10
280.446
20
-77.072
11
277.421
21
-77.072
0
LINE
8
Black
10
277.421
20
-77.072
11
277.404
21
-77.069
0
LINE
8
Black
10
277.404
20
-77.069
11
277.389
21
-77.0603
0
LINE
8
Black
10
277.389
20
-77.0603
11
277.378
21
-77.047
0
LINE
8
Black
10
277.378
20
-77.047
11
277.372
21
-77.0307
0
LINE
8
Black
10
277.372
20
-77.0307
11
277.372
21
-77.0134
0
LINE
8
Black
10
277.372
20
-77.0134
11
277.378
21
-76.997
0
LINE
8
Black
10
277.378
20
-76.997
11
277.389
21
-76.9837
0
LINE
8
Black
10
277.389
20
-76.9837
11
277.404
21
-76.9751
0
LINE
8
Black
10
277.404
20
-76.9751
11
277.421
21
-76.972
0
LINE
8
Black
10
277.421
20
-76.972
11
280.446
21
-76.972
0
LINE
8
Black
10
280.446
20
-76.972
11
280.446
21
-73.947
0
LINE
8
Black
10
280.446
20
-73.947
11
280.449
21
-73.9299
0
LINE
8
Black
10
280.449
20
-73.9299
11
280.458
21
-73.9149
0
LINE
8
Black
10
280.458
20
-73.9149
11
280.471
21
-73.9037
0
LINE
8
Black
10
280.471
20
-73.9037
11
280.488
21
-73.8978
0
LINE
8
Black
10
280.488
20
-73.8978
11
280.505
21
-73.8978
0
LINE
8
Black
10
280.505
20
-73.8978
11
280.521
21
-73.9037
0
LINE
8
Black
10
259.021
20
-73.9037
11
259.035
21
-73.9149
0
LINE
8
Black
10
259.035
20
-73.9149
11
259.043
21
-73.9299
0
LINE
8
Black
10
259.043
20
-73.9299
11
259.046
21
-73.947
0
LINE
8
Black
10
259.046
20
-73.947
11
259.046
21
-76.972
0
LINE
8
Black
10
259.046
20
-76.972
11
262.071
21
-76.972
0
LINE
8
Black
10
262.071
20
-76.972
11
262.088
21
-76.9751
0
LINE
8
Black
10
262.088
20
-76.9751
11
262.103
21
-76.9837
0
LINE
8
Black
10
262.103
20
-76.9837
11
262.115
21
-76.997
0
LINE
8
Black
10
262.115
20
-76.997
11
262.12
21
-77.0134
0
LINE
8
Black
10
262.12
20
-77.0134
11
262.12
21
-77.0307
0
LINE
8
Black
10
262.12
20
-77.0307
11
262.115
21
-77.047
0
LINE
8
Black
10
262.115
20
-77.047
11
262.103
21
-77.0603
0
LINE
8
Black
10
262.103
20
-77.0603
11
262.088
21
-77.069
0
LINE
8
Black
10
262.088
20
-77.069
11
262.071
21
-77.072
0
LINE
8
Black
10
262.071
20
-77.072
11
259.046
21
-77.072
0
LINE
8
Black
10
259.046
20
-77.072
11
259.046
21
-80.097
0
LINE
8
Black
10
259.046
20
-80.097
11
259.043
21
-80.1141
0
LINE
8
Black
10
259.043
20
-80.1141
11
259.035
21
-80.1292
0
LINE
8
Black
10
259.035
20
-80.1292
11
259.021
21
-80.1403
0
LINE
8
Black
10
259.021
20
-80.1403
11
259.005
21
-80.1463
0
LINE
8
Black
10
259.005
20
-80.1463
11
258.988
21
-80.1463
0
LINE
8
Black
10
258.988
20
-80.1463
11
258.971
21
-80.1403
0
LINE
8
Black
10
258.971
20
-80.1403
11
258.958
21
-80.1292
0
LINE
8
Black
10
258.958
20
-80.1292
11
258.949
21
-80.1141
0
LINE
8
Black
10
258.949
20
-80.1141
11
258.946
21
-80.097
0
LINE
8
Black
10
258.946
20
-80.097
11
258.946
21
-77.072
0
LINE
8
Black
10
258.946
20
-77.072
11
255.921
21
-77.072
0
LINE
8
Black
10
255.921
20
-77.072
11
255.904
21
-77.069
0
LINE
8
Black
10
255.904
20
-77.069
11
255.889
21
-77.0603
0
LINE
8
Black
10
255.889
20
-77.0603
11
255.878
21
-77.047
0
LINE
8
Black
10
255.878
20
-77.047
11
255.872
21
-77.0307
0
LINE
8
Black
10
255.872
20
-77.0307
11
255.872
21
-77.0134
0
LINE
8
Black
10
255.872
20
-77.0134
11
255.878
21
-76.997
0
LINE
8
Black
10
255.878
20
-76.997
11
255.889
21
-76.9837
0
LINE
8
Black
10
255.889
20
-76.9837
11
255.904
21
-76.9751
0
LINE
8
Black
10
255.904
20
-76.9751
11
255.921
21
-76.972
0
LINE
8
Black
10
255.921
20
-76.972
11
258.946
21
-76.972
0
LINE
8
Black
10
258.946
20
-76.972
11
258.946
21
-73.947
0
LINE
8
Black
10
258.946
20
-73.947
11
258.949
21
-73.9299
0
LINE
8
Black
10
258.949
20
-73.9299
11
258.958
21
-73.9149
0
LINE
8
Black
10
258.958
20
-73.9149
11
258.971
21
-73.9037
0
LINE
8
Black
10
258.971
20
-73.9037
11
258.988
21
-73.8978
0
LINE
8
Black
10
258.988
20
-73.8978
11
259.005
21
-73.8978
0
LINE
8
Black
10
259.005
20
-73.8978
11
259.021
21
-73.9037
0
LINE
8
Black
10
97.0212
20
-73.8826
11
97.0345
21
-73.8937
0
LINE
8
Black
10
97.0345
20
-73.8937
11
97.0432
21
-73.9088
0
LINE
8
Black
10
97.0432
20
-73.9088
11
97.0462
21
-73.9259
0
LINE
8
Black
10
97.0462
20
-73.9259
11
97.0462
21
-76.9509
0
LINE
8
Black
10
97.0462
20
-76.9509
11
100.071
21
-76.9509
0
LINE
8
Black
10
100.071
20
-76.9509
11
100.088
21
-76.9539
0
LINE
8
Black
10
100.088
20
-76.9539
11
100.103
21
-76.9626
0
LINE
8
Black
10
100.103
20
-76.9626
11
100.115
21
-76.9759
0
LINE
8
Black
10
100.115
20
-76.9759
11
100.12
21
-76.9922
0
LINE
8
Black
10
100.12
20
-76.9922
11
100.12
21
-77.0095
0
LINE
8
Black
10
100.12
20
-77.0095
11
100.115
21
-77.0259
0
LINE
8
Black
10
100.115
20
-77.0259
11
100.103
21
-77.0392
0
LINE
8
Black
10
100.103
20
-77.0392
11
100.088
21
-77.0478
0
LINE
8
Black
10
100.088
20
-77.0478
11
100.071
21
-77.0509
0
LINE
8
Black
10
100.071
20
-77.0509
11
97.0462
21
-77.0509
0
LINE
8
Black
10
97.0462
20
-77.0509
11
97.0462
21
-80.0759
0
LINE
8
Black
10
97.0462
20
-80.0759
11
97.0432
21
-80.093
0
LINE
8
Black
10
97.0432
20
-80.093
11
97.0345
21
-80.108
0
LINE
8
Black
10
97.0345
20
-80.108
11
97.0212
21
-80.1192
0
LINE
8
Black
10
97.0212
20
-80.1192
11
97.0049
21
-80.1251
0
LINE
8
Black
10
97.0049
20
-80.1251
11
96.9875
21
-80.1251
0
LINE
8
Black
10
96.9875
20
-80.1251
11
96.9712
21
-80.1192
0
LINE
8
Black
10
96.9712
20
-80.1192
11
96.9579
21
-80.108
0
LINE
8
Black
10
96.9579
20
-80.108
11
96.9492
21
-80.093
0
LINE
8
Black
10
96.9492
20
-80.093
11
96.9462
21
-80.0759
0
LINE
8
Black
10
96.9462
20
-80.0759
11
96.9462
21
-77.0509
0
LINE
8
Black
10
96.9462
20
-77.0509
11
93.9212
21
-77.0509
0
LINE
8
Black
10
93.9212
20
-77.0509
11
93.9041
21
-77.0478
0
LINE
8
Black
10
93.9041
20
-77.0478
11
93.8891
21
-77.0392
0
LINE
8
Black
10
93.8891
20
-77.0392
11
93.8779
21
-77.0259
0
LINE
8
Black
10
93.8779
20
-77.0259
11
93.872
21
-77.0095
0
LINE
8
Black
10
93.872
20
-77.0095
11
93.872
21
-76.9922
0
LINE
8
Black
10
93.872
20
-76.9922
11
93.8779
21
-76.9759
0
LINE
8
Black
10
93.8779
20
-76.9759
11
93.8891
21
-76.9626
0
LINE
8
Black
10
93.8891
20
-76.9626
11
93.9041
21
-76.9539
0
LINE
8
Black
10
93.9041
20
-76.9539
11
93.9212
21
-76.9509
0
LINE
8
Black
10
93.9212
20
-76.9509
11
96.9462
21
-76.9509
0
LINE
8
Black
10
96.9462
20
-76.9509
11
96.9462
21
-73.9259
0
LINE
8
Black
10
96.9462
20
-73.9259
11
96.9492
21
-73.9088
0
LINE
8
Black
10
96.9492
20
-73.9088
11
96.9579
21
-73.8937
0
LINE
8
Black
10
96.9579
20
-73.8937
11
96.9712
21
-73.8826
0
LINE
8
Black
10
96.9712
20
-73.8826
11
96.9875
21
-73.8766
0
LINE
8
Black
10
96.9875
20
-73.8766
11
97.0049
21
-73.8766
0
LINE
8
Black
10
97.0049
20
-73.8766
11
97.0212
21
-73.8826
0
LINE
8
Black
10
39.0195
20
-69.1376
11
39.0328
21
-69.1488
0
LINE
8
Black
10
39.0328
20
-69.1488
11
39.0414
21
-69.1638
0
LINE
8
Black
10
39.0414
20
-69.1638
11
39.0445
21
-69.1809
0
LINE
8
Black
10
39.0445
20
-69.1809
11
39.0445
21
-72.2059
0
LINE
8
Black
10
39.0445
20
-72.2059
11
42.0695
21
-72.2059
0
LINE
8
Black
10
42.0695
20
-72.2059
11
42.0866
21
-72.2089
0
LINE
8
Black
10
42.0866
20
-72.2089
11
42.1016
21
-72.2176
0
LINE
8
Black
10
42.1016
20
-72.2176
11
42.1128
21
-72.2309
0
LINE
8
Black
10
42.1128
20
-72.2309
11
42.1187
21
-72.2472
0
LINE
8
Black
10
42.1187
20
-72.2472
11
42.1187
21
-72.2646
0
LINE
8
Black
10
42.1187
20
-72.2646
11
42.1128
21
-72.2809
0
LINE
8
Black
10
42.1128
20
-72.2809
11
42.1016
21
-72.2942
0
LINE
8
Black
10
42.1016
20
-72.2942
11
42.0866
21
-72.3029
0
LINE
8
Black
10
42.0866
20
-72.3029
11
42.0695
21
-72.3059
0
LINE
8
Black
10
42.0695
20
-72.3059
11
39.0445
21
-72.3059
0
LINE
8
Black
10
39.0445
20
-72.3059
11
39.0445
21
-75.3309
0
LINE
8
Black
10
39.0445
20
-75.3309
11
39.0414
21
-75.348
0
LINE
8
Black
10
39.0414
20
-75.348
11
39.0328
21
-75.363
0
LINE
8
Black
10
39.0328
20
-75.363
11
39.0195
21
-75.3742
0
LINE
8
Black
10
39.0195
20
-75.3742
11
39.0031
21
-75.3802
0
LINE
8
Black
10
39.0031
20
-75.3802
11
38.9858
21
-75.3802
0
LINE
8
Black
10
38.9858
20
-75.3802
11
38.9695
21
-75.3742
0
LINE
8
Black
10
38.9695
20
-75.3742
11
38.9562
21
-75.363
0
LINE
8
Black
10
38.9562
20
-75.363
11
38.9475
21
-75.348
0
LINE
8
Black
10
38.9475
20
-75.348
11
38.9445
21
-75.3309
0
LINE
8
Black
10
38.9445
20
-75.3309
11
38.9445
21
-72.3059
0
LINE
8
Black
10
38.9445
20
-72.3059
11
35.9195
21
-72.3059
0
LINE
8
Black
10
35.9195
20
-72.3059
11
35.9024
21
-72.3029
0
LINE
8
Black
10
35.9024
20
-72.3029
11
35.8873
21
-72.2942
0
LINE
8
Black
10
35.8873
20
-72.2942
11
35.8762
21
-72.2809
0
LINE
8
Black
10
35.8762
20
-72.2809
11
35.8702
21
-72.2646
0
LINE
8
Black
10
35.8702
20
-72.2646
11
35.8702
21
-72.2472
0
LINE
8
Black
10
35.8702
20
-72.2472
11
35.8762
21
-72.2309
0
LINE
8
Black
10
35.8762
20
-72.2309
11
35.8873
21
-72.2176
0
LINE
8
Black
10
35.8873
20
-72.2176
11
35.9024
21
-72.2089
0
LINE
8
Black
10
35.9024
20
-72.2089
11
35.9195
21
-72.2059
0
LINE
8
Black
10
35.9195
20
-72.2059
11
38.9445
21
-72.2059
0
LINE
8
Black
10
38.9445
20
-72.2059
11
38.9445
21
-69.1809
0
LINE
8
Black
10
38.9445
20
-69.1809
11
38.9475
21
-69.1638
0
LINE
8
Black
10
38.9475
20
-69.1638
11
38.9562
21
-69.1488
0
LINE
8
Black
10
38.9562
20
-69.1488
11
38.9695
21
-69.1376
0
LINE
8
Black
10
38.9695
20
-69.1376
11
38.9858
21
-69.1317
0
LINE
8
Black
10
38.9858
20
-69.1317
11
39.0031
21
-69.1317
0
LINE
8
Black
10
39.0031
20
-69.1317
11
39.0195
21
-69.1376
0
LINE
8
Black
10
61.0212
20
-69.1376
11
61.0345
21
-69.1488
0
LINE
8
Black
10
61.0345
20
-69.1488
11
61.0431
21
-69.1638
0
LINE
8
Black
10
61.0431
20
-69.1638
11
61.0462
21
-69.1809
0
LINE
8
Black
10
61.0462
20
-69.1809
11
61.0462
21
-72.2059
0
LINE
8
Black
10
61.0462
20
-72.2059
11
64.0711
21
-72.2059
0
LINE
8
Black
10
64.0711
20
-72.2059
11
64.0882
21
-72.2089
0
LINE
8
Black
10
64.0882
20
-72.2089
11
64.1033
21
-72.2176
0
LINE
8
Black
10
64.1033
20
-72.2176
11
64.1144
21
-72.2309
0
LINE
8
Black
10
64.1144
20
-72.2309
11
64.1204
21
-72.2472
0
LINE
8
Black
10
64.1204
20
-72.2472
11
64.1204
21
-72.2646
0
LINE
8
Black
10
64.1204
20
-72.2646
11
64.1144
21
-72.2809
0
LINE
8
Black
10
64.1144
20
-72.2809
11
64.1033
21
-72.2942
0
LINE
8
Black
10
64.1033
20
-72.2942
11
64.0882
21
-72.3029
0
LINE
8
Black
10
64.0882
20
-72.3029
11
64.0711
21
-72.3059
0
LINE
8
Black
10
64.0711
20
-72.3059
11
61.0462
21
-72.3059
0
LINE
8
Black
10
61.0462
20
-72.3059
11
61.0462
21
-75.3309
0
LINE
8
Black
10
61.0462
20
-75.3309
11
61.0431
21
-75.348
0
LINE
8
Black
10
61.0431
20
-75.348
11
61.0345
21
-75.363
0
LINE
8
Black
10
61.0345
20
-75.363
11
61.0212
21
-75.3742
0
LINE
8
Black
10
61.0212
20
-75.3742
11
61.0048
21
-75.3802
0
LINE
8
Black
10
61.0048
20
-75.3802
11
60.9875
21
-75.3802
0
LINE
8
Black
10
60.9875
20
-75.3802
11
60.9712
21
-75.3742
0
LINE
8
Black
10
60.9712
20
-75.3742
11
60.9579
21
-75.363
0
LINE
8
Black
10
60.9579
20
-75.363
11
60.9492
21
-75.348
0
LINE
8
Black
10
60.9492
20
-75.348
11
60.9462
21
-75.3309
0
LINE
8
Black
10
60.9462
20
-75.3309
11
60.9462
21
-72.3059
0
LINE
8
Black
10
60.9462
20
-72.3059
11
57.9212
21
-72.3059
0
LINE
8
Black
10
57.9212
20
-72.3059
11
57.9041
21
-72.3029
0
LINE
8
Black
10
57.9041
20
-72.3029
11
57.889
21
-72.2942
0
LINE
8
Black
10
57.889
20
-72.2942
11
57.8779
21
-72.2809
0
LINE
8
Black
10
57.8779
20
-72.2809
11
57.8719
21
-72.2646
0
LINE
8
Black
10
57.8719
20
-72.2646
11
57.8719
21
-72.2472
0
LINE
8
Black
10
57.8719
20
-72.2472
11
57.8779
21
-72.2309
0
LINE
8
Black
10
57.8779
20
-72.2309
11
57.889
21
-72.2176
0
LINE
8
Black
10
57.889
20
-72.2176
11
57.9041
21
-72.2089
0
LINE
8
Black
10
57.9041
20
-72.2089
11
57.9212
21
-72.2059
0
LINE
8
Black
10
57.9212
20
-72.2059
11
60.9462
21
-72.2059
0
LINE
8
Black
10
60.9462
20
-72.2059
11
60.9462
21
-69.1809
0
LINE
8
Black
10
60.9462
20
-69.1809
11
60.9492
21
-69.1638
0
LINE
8
Black
10
60.9492
20
-69.1638
11
60.9579
21
-69.1488
0
LINE
8
Black
10
60.9579
20
-69.1488
11
60.9712
21
-69.1376
0
LINE
8
Black
10
60.9712
20
-69.1376
11
60.9875
21
-69.1317
0
LINE
8
Black
10
60.9875
20
-69.1317
11
61.0048
21
-69.1317
0
LINE
8
Black
10
61.0048
20
-69.1317
11
61.0212
21
-69.1376
0
LINE
8
Black
10
20.2251
20
-69.1328
11
20.2384
21
-69.144
0
LINE
8
Black
10
20.2384
20
-69.144
11
20.2471
21
-69.159
0
LINE
8
Black
10
20.2471
20
-69.159
11
20.2501
21
-69.1761
0
LINE
8
Black
10
20.2501
20
-69.1761
11
20.2501
21
-72.2011
0
LINE
8
Black
10
20.2501
20
-72.2011
11
23.2751
21
-72.2011
0
LINE
8
Black
10
23.2751
20
-72.2011
11
23.2922
21
-72.2042
0
LINE
8
Black
10
23.2922
20
-72.2042
11
23.3072
21
-72.2128
0
LINE
8
Black
10
23.3072
20
-72.2128
11
23.3184
21
-72.2261
0
LINE
8
Black
10
23.3184
20
-72.2261
11
23.3243
21
-72.2425
0
LINE
8
Black
10
23.3243
20
-72.2425
11
23.3243
21
-72.2598
0
LINE
8
Black
10
23.3243
20
-72.2598
11
23.3184
21
-72.2761
0
LINE
8
Black
10
23.3184
20
-72.2761
11
23.3072
21
-72.2894
0
LINE
8
Black
10
23.3072
20
-72.2894
11
23.2922
21
-72.2981
0
LINE
8
Black
10
23.2922
20
-72.2981
11
23.2751
21
-72.3011
0
LINE
8
Black
10
23.2751
20
-72.3011
11
20.2501
21
-72.3011
0
LINE
8
Black
10
20.2501
20
-72.3011
11
20.2501
21
-75.3261
0
LINE
8
Black
10
20.2501
20
-75.3261
11
20.2471
21
-75.3432
0
LINE
8
Black
10
20.2471
20
-75.3432
11
20.2384
21
-75.3583
0
LINE
8
Black
10
20.2384
20
-75.3583
11
20.2251
21
-75.3694
0
LINE
8
Black
10
20.2251
20
-75.3694
11
20.2088
21
-75.3754
0
LINE
8
Black
10
20.2088
20
-75.3754
11
20.1914
21
-75.3754
0
LINE
8
Black
10
20.1914
20
-75.3754
11
20.1751
21
-75.3694
0
LINE
8
Black
10
20.1751
20
-75.3694
11
20.1618
21
-75.3583
0
LINE
8
Black
10
20.1618
20
-75.3583
11
20.1531
21
-75.3432
0
LINE
8
Black
10
20.1531
20
-75.3432
11
20.1501
21
-75.3261
0
LINE
8
Black
10
20.1501
20
-75.3261
11
20.1501
21
-72.3011
0
LINE
8
Black
10
20.1501
20
-72.3011
11
17.1251
21
-72.3011
0
LINE
8
Black
10
17.1251
20
-72.3011
11
17.108
21
-72.2981
0
LINE
8
Black
10
17.108
20
-72.2981
11
17.093
21
-72.2894
0
LINE
8
Black
10
17.093
20
-72.2894
11
17.0818
21
-72.2761
0
LINE
8
Black
10
17.0818
20
-72.2761
11
17.0759
21
-72.2598
0
LINE
8
Black
10
17.0759
20
-72.2598
11
17.0759
21
-72.2425
0
LINE
8
Black
10
17.0759
20
-72.2425
11
17.0818
21
-72.2261
0
LINE
8
Black
10
17.0818
20
-72.2261
11
17.093
21
-72.2128
0
LINE
8
Black
10
17.093
20
-72.2128
11
17.108
21
-72.2042
0
LINE
8
Black
10
17.108
20
-72.2042
11
17.1251
21
-72.2011
0
LINE
8
Black
10
17.1251
20
-72.2011
11
20.1501
21
-72.2011
0
LINE
8
Black
10
20.1501
20
-72.2011
11
20.1501
21
-69.1761
0
LINE
8
Black
10
20.1501
20
-69.1761
11
20.1531
21
-69.159
0
LINE
8
Black
10
20.1531
20
-69.159
11
20.1618
21
-69.144
0
LINE
8
Black
10
20.1618
20
-69.144
11
20.1751
21
-69.1328
0
LINE
8
Black
10
20.1751
20
-69.1328
11
20.1914
21
-69.1269
0
LINE
8
Black
10
20.1914
20
-69.1269
11
20.2088
21
-69.1269
0
LINE
8
Black
10
20.2088
20
-69.1269
11
20.2251
21
-69.1328
0
LINE
8
Black
10
325.002
20
-53.6754
11
325.004
21
-53.6754
0
LINE
8
Black
10
325.004
20
-53.6754
11
325.006
21
-53.6761
0
LINE
8
Black
10
325.006
20
-53.6761
11
325.009
21
-53.6765
0
LINE
8
Black
10
325.009
20
-53.6765
11
325.01
21
-53.6776
0
LINE
8
Black
10
325.01
20
-53.6776
11
325.012
21
-53.6783
0
LINE
8
Black
10
325.012
20
-53.6783
11
325.014
21
-53.6798
0
LINE
8
Black
10
325.014
20
-53.6798
11
325.016
21
-53.6808
0
LINE
8
Black
10
325.016
20
-53.6808
11
325.017
21
-53.6825
0
LINE
8
Black
10
325.017
20
-53.6825
11
325.019
21
-53.6839
0
LINE
8
Black
10
325.019
20
-53.6839
11
325.02
21
-53.6858
0
LINE
8
Black
10
325.02
20
-53.6858
11
325.022
21
-53.6875
0
LINE
8
Black
10
325.022
20
-53.6875
11
325.022
21
-53.6896
0
LINE
8
Black
10
325.022
20
-53.6896
11
325.023
21
-53.6914
0
LINE
8
Black
10
325.023
20
-53.6914
11
325.024
21
-53.6936
0
LINE
8
Black
10
325.024
20
-53.6936
11
325.025
21
-53.6957
0
LINE
8
Black
10
325.025
20
-53.6957
11
325.025
21
-53.6978
0
LINE
8
Black
10
325.025
20
-53.6978
11
325.025
21
-53.7
0
LINE
8
Black
10
325.025
20
-53.7
11
325.025
21
-57.175
0
LINE
8
Black
10
325.025
20
-57.175
11
327.95
21
-57.175
0
LINE
8
Black
10
327.95
20
-57.175
11
327.952
21
-57.1754
0
LINE
8
Black
10
327.952
20
-57.1754
11
327.954
21
-57.1754
0
LINE
8
Black
10
327.954
20
-57.1754
11
327.956
21
-57.1761
0
LINE
8
Black
10
327.956
20
-57.1761
11
327.959
21
-57.1765
0
LINE
8
Black
10
327.959
20
-57.1765
11
327.96
21
-57.1776
0
LINE
8
Black
10
327.96
20
-57.1776
11
327.962
21
-57.1783
0
LINE
8
Black
10
327.962
20
-57.1783
11
327.964
21
-57.1798
0
LINE
8
Black
10
327.964
20
-57.1798
11
327.966
21
-57.1808
0
LINE
8
Black
10
327.966
20
-57.1808
11
327.967
21
-57.1825
0
LINE
8
Black
10
327.967
20
-57.1825
11
327.969
21
-57.1839
0
LINE
8
Black
10
327.969
20
-57.1839
11
327.97
21
-57.1858
0
LINE
8
Black
10
327.97
20
-57.1858
11
327.972
21
-57.1875
0
LINE
8
Black
10
327.972
20
-57.1875
11
327.972
21
-57.1896
0
LINE
8
Black
10
327.972
20
-57.1896
11
327.973
21
-57.1914
0
LINE
8
Black
10
327.973
20
-57.1914
11
327.974
21
-57.1936
0
LINE
8
Black
10
327.974
20
-57.1936
11
327.975
21
-57.1957
0
LINE
8
Black
10
327.975
20
-57.1957
11
327.975
21
-57.1978
0
LINE
8
Black
10
327.975
20
-57.1978
11
327.975
21
-57.2
0
LINE
8
Black
10
327.975
20
-57.2
11
327.975
21
-73.75
0
LINE
8
Black
10
327.975
20
-73.75
11
327.975
21
-73.7522
0
LINE
8
Black
10
327.975
20
-73.7522
11
327.975
21
-73.7543
0
LINE
8
Black
10
327.975
20
-73.7543
11
327.974
21
-73.7564
0
LINE
8
Black
10
327.974
20
-73.7564
11
327.973
21
-73.7586
0
LINE
8
Black
10
327.973
20
-73.7586
11
327.972
21
-73.7604
0
LINE
8
Black
10
327.972
20
-73.7604
11
327.972
21
-73.7625
0
LINE
8
Black
10
327.972
20
-73.7625
11
327.97
21
-73.7642
0
LINE
8
Black
10
327.97
20
-73.7642
11
327.969
21
-73.7661
0
LINE
8
Black
10
327.969
20
-73.7661
11
327.967
21
-73.7675
0
LINE
8
Black
10
327.967
20
-73.7675
11
327.966
21
-73.7692
0
LINE
8
Black
10
327.966
20
-73.7692
11
327.964
21
-73.7702
0
LINE
8
Black
10
327.964
20
-73.7702
11
327.962
21
-73.7717
0
LINE
8
Black
10
327.962
20
-73.7717
11
327.96
21
-73.7724
0
LINE
8
Black
10
327.96
20
-73.7724
11
327.959
21
-73.7735
0
LINE
8
Black
10
327.959
20
-73.7735
11
327.956
21
-73.7739
0
LINE
8
Black
10
327.956
20
-73.7739
11
327.954
21
-73.7746
0
LINE
8
Black
10
327.954
20
-73.7746
11
327.952
21
-73.7746
0
LINE
8
Black
10
327.952
20
-73.7746
11
327.95
21
-73.775
0
LINE
8
Black
10
327.95
20
-73.775
11
315.95
21
-73.775
0
LINE
8
Black
10
315.95
20
-73.775
11
315.948
21
-73.7746
0
LINE
8
Black
10
315.948
20
-73.7746
11
315.946
21
-73.7746
0
LINE
8
Black
10
315.946
20
-73.7746
11
315.944
21
-73.7739
0
LINE
8
Black
10
315.944
20
-73.7739
11
315.941
21
-73.7735
0
LINE
8
Black
10
315.941
20
-73.7735
11
315.94
21
-73.7724
0
LINE
8
Black
10
315.94
20
-73.7724
11
315.938
21
-73.7717
0
LINE
8
Black
10
315.938
20
-73.7717
11
315.936
21
-73.7702
0
LINE
8
Black
10
315.936
20
-73.7702
11
315.934
21
-73.7692
0
LINE
8
Black
10
315.934
20
-73.7692
11
315.933
21
-73.7675
0
LINE
8
Black
10
315.933
20
-73.7675
11
315.931
21
-73.7661
0
LINE
8
Black
10
315.931
20
-73.7661
11
315.93
21
-73.7642
0
LINE
8
Black
10
315.93
20
-73.7642
11
315.928
21
-73.7625
0
LINE
8
Black
10
315.928
20
-73.7625
11
315.928
21
-73.7604
0
LINE
8
Black
10
315.928
20
-73.7604
11
315.927
21
-73.7586
0
LINE
8
Black
10
315.927
20
-73.7586
11
315.926
21
-73.7564
0
LINE
8
Black
10
315.926
20
-73.7564
11
315.925
21
-73.7543
0
LINE
8
Black
10
315.925
20
-73.7543
11
315.925
21
-73.7522
0
LINE
8
Black
10
315.925
20
-73.7522
11
315.925
21
-73.75
0
LINE
8
Black
10
315.925
20
-73.75
11
315.925
21
-57.2
0
LINE
8
Black
10
315.925
20
-57.2
11
315.925
21
-57.1978
0
LINE
8
Black
10
315.925
20
-57.1978
11
315.925
21
-57.1957
0
LINE
8
Black
10
315.925
20
-57.1957
11
315.926
21
-57.1936
0
LINE
8
Black
10
315.926
20
-57.1936
11
315.927
21
-57.1914
0
LINE
8
Black
10
315.927
20
-57.1914
11
315.928
21
-57.1896
0
LINE
8
Black
10
315.928
20
-57.1896
11
315.928
21
-57.1875
0
LINE
8
Black
10
315.928
20
-57.1875
11
315.93
21
-57.1858
0
LINE
8
Black
10
315.93
20
-57.1858
11
315.931
21
-57.1839
0
LINE
8
Black
10
315.931
20
-57.1839
11
315.933
21
-57.1825
0
LINE
8
Black
10
315.933
20
-57.1825
11
315.934
21
-57.1808
0
LINE
8
Black
10
315.934
20
-57.1808
11
315.936
21
-57.1798
0
LINE
8
Black
10
315.936
20
-57.1798
11
315.938
21
-57.1783
0
LINE
8
Black
10
315.938
20
-57.1783
11
315.94
21
-57.1776
0
LINE
8
Black
10
315.94
20
-57.1776
11
315.941
21
-57.1765
0
LINE
8
Black
10
315.941
20
-57.1765
11
315.944
21
-57.1761
0
LINE
8
Black
10
315.944
20
-57.1761
11
315.946
21
-57.1754
0
LINE
8
Black
10
315.946
20
-57.1754
11
315.948
21
-57.1754
0
LINE
8
Black
10
315.948
20
-57.1754
11
315.95
21
-57.175
0
LINE
8
Black
10
315.95
20
-57.175
11
318.475
21
-57.175
0
LINE
8
Black
10
318.475
20
-57.175
11
318.475
21
-53.7
0
LINE
8
Black
10
318.475
20
-53.7
11
318.475
21
-53.6978
0
LINE
8
Black
10
318.475
20
-53.6978
11
318.475
21
-53.6957
0
LINE
8
Black
10
318.475
20
-53.6957
11
318.476
21
-53.6936
0
LINE
8
Black
10
318.476
20
-53.6936
11
318.477
21
-53.6914
0
LINE
8
Black
10
318.477
20
-53.6914
11
318.478
21
-53.6896
0
LINE
8
Black
10
318.478
20
-53.6896
11
318.478
21
-53.6875
0
LINE
8
Black
10
318.478
20
-53.6875
11
318.48
21
-53.6858
0
LINE
8
Black
10
318.48
20
-53.6858
11
318.481
21
-53.6839
0
LINE
8
Black
10
318.481
20
-53.6839
11
318.483
21
-53.6825
0
LINE
8
Black
10
318.483
20
-53.6825
11
318.484
21
-53.6808
0
LINE
8
Black
10
318.484
20
-53.6808
11
318.486
21
-53.6798
0
LINE
8
Black
10
318.486
20
-53.6798
11
318.488
21
-53.6783
0
LINE
8
Black
10
318.488
20
-53.6783
11
318.49
21
-53.6776
0
LINE
8
Black
10
318.49
20
-53.6776
11
318.491
21
-53.6765
0
LINE
8
Black
10
318.491
20
-53.6765
11
318.494
21
-53.6761
0
LINE
8
Black
10
318.494
20
-53.6761
11
318.496
21
-53.6754
0
LINE
8
Black
10
318.496
20
-53.6754
11
318.498
21
-53.6754
0
LINE
8
Black
10
318.498
20
-53.6754
11
318.5
21
-53.675
0
LINE
8
Black
10
318.5
20
-53.675
11
325
21
-53.675
0
LINE
8
Black
10
325
20
-53.675
11
325.002
21
-53.6754
0
LINE
8
Black
10
318.525
20
-53.725
11
318.525
21
-57.2
0
LINE
8
Black
10
318.525
20
-57.2
11
318.525
21
-57.2022
0
LINE
8
Black
10
318.525
20
-57.2022
11
318.525
21
-57.2043
0
LINE
8
Black
10
318.525
20
-57.2043
11
318.524
21
-57.2064
0
LINE
8
Black
10
318.524
20
-57.2064
11
318.523
21
-57.2086
0
LINE
8
Black
10
318.523
20
-57.2086
11
318.522
21
-57.2104
0
LINE
8
Black
10
318.522
20
-57.2104
11
318.522
21
-57.2125
0
LINE
8
Black
10
318.522
20
-57.2125
11
318.52
21
-57.2142
0
LINE
8
Black
10
318.52
20
-57.2142
11
318.519
21
-57.2161
0
LINE
8
Black
10
318.519
20
-57.2161
11
318.517
21
-57.2175
0
LINE
8
Black
10
318.517
20
-57.2175
11
318.516
21
-57.2192
0
LINE
8
Black
10
318.516
20
-57.2192
11
318.514
21
-57.2202
0
LINE
8
Black
10
318.514
20
-57.2202
11
318.512
21
-57.2217
0
LINE
8
Black
10
318.512
20
-57.2217
11
318.51
21
-57.2224
0
LINE
8
Black
10
318.51
20
-57.2224
11
318.509
21
-57.2235
0
LINE
8
Black
10
318.509
20
-57.2235
11
318.506
21
-57.2239
0
LINE
8
Black
10
318.506
20
-57.2239
11
318.504
21
-57.2246
0
LINE
8
Black
10
318.504
20
-57.2246
11
318.502
21
-57.2246
0
LINE
8
Black
10
318.502
20
-57.2246
11
318.5
21
-57.225
0
LINE
8
Black
10
318.5
20
-57.225
11
315.975
21
-57.225
0
LINE
8
Black
10
315.975
20
-57.225
11
315.975
21
-73.725
0
LINE
8
Black
10
315.975
20
-73.725
11
327.925
21
-73.725
0
LINE
8
Black
10
327.925
20
-73.725
11
327.925
21
-57.225
0
LINE
8
Black
10
327.925
20
-57.225
11
325
21
-57.225
0
LINE
8
Black
10
325
20
-57.225
11
324.998
21
-57.2246
0
LINE
8
Black
10
324.998
20
-57.2246
11
324.996
21
-57.2246
0
LINE
8
Black
10
324.996
20
-57.2246
11
324.994
21
-57.2239
0
LINE
8
Black
10
324.994
20
-57.2239
11
324.991
21
-57.2235
0
LINE
8
Black
10
324.991
20
-57.2235
11
324.99
21
-57.2224
0
LINE
8
Black
10
324.99
20
-57.2224
11
324.988
21
-57.2217
0
LINE
8
Black
10
324.988
20
-57.2217
11
324.986
21
-57.2202
0
LINE
8
Black
10
324.986
20
-57.2202
11
324.984
21
-57.2192
0
LINE
8
Black
10
324.984
20
-57.2192
11
324.983
21
-57.2175
0
LINE
8
Black
10
324.983
20
-57.2175
11
324.981
21
-57.2161
0
LINE
8
Black
10
324.981
20
-57.2161
11
324.98
21
-57.2142
0
LINE
8
Black
10
324.98
20
-57.2142
11
324.978
21
-57.2125
0
LINE
8
Black
10
324.978
20
-57.2125
11
324.978
21
-57.2104
0
LINE
8
Black
10
324.978
20
-57.2104
11
324.977
21
-57.2086
0
LINE
8
Black
10
324.977
20
-57.2086
11
324.976
21
-57.2064
0
LINE
8
Black
10
324.976
20
-57.2064
11
324.975
21
-57.2043
0
LINE
8
Black
10
324.975
20
-57.2043
11
324.975
21
-57.2022
0
LINE
8
Black
10
324.975
20
-57.2022
11
324.975
21
-57.2
0
LINE
8
Black
10
324.975
20
-57.2
11
324.975
21
-53.725
0
LINE
8
Black
10
324.975
20
-53.725
11
318.525
21
-53.725
0
LINE
8
Black
10
133.021
20
-60.8835
11
133.035
21
-60.8947
0
LINE
8
Black
10
133.035
20
-60.8947
11
133.043
21
-60.9097
0
LINE
8
Black
10
133.043
20
-60.9097
11
133.046
21
-60.9268
0
LINE
8
Black
10
133.046
20
-60.9268
11
133.046
21
-63.9518
0
LINE
8
Black
10
133.046
20
-63.9518
11
136.071
21
-63.9518
0
LINE
8
Black
10
136.071
20
-63.9518
11
136.088
21
-63.9548
0
LINE
8
Black
10
136.088
20
-63.9548
11
136.103
21
-63.9635
0
LINE
8
Black
10
136.103
20
-63.9635
11
136.115
21
-63.9768
0
LINE
8
Black
10
136.115
20
-63.9768
11
136.12
21
-63.9931
0
LINE
8
Black
10
136.12
20
-63.9931
11
136.12
21
-64.0105
0
LINE
8
Black
10
136.12
20
-64.0105
11
136.115
21
-64.0268
0
LINE
8
Black
10
136.115
20
-64.0268
11
136.103
21
-64.0401
0
LINE
8
Black
10
136.103
20
-64.0401
11
136.088
21
-64.0488
0
LINE
8
Black
10
136.088
20
-64.0488
11
136.071
21
-64.0518
0
LINE
8
Black
10
136.071
20
-64.0518
11
133.046
21
-64.0518
0
LINE
8
Black
10
133.046
20
-64.0518
11
133.046
21
-67.0768
0
LINE
8
Black
10
133.046
20
-67.0768
11
133.043
21
-67.0939
0
LINE
8
Black
10
133.043
20
-67.0939
11
133.035
21
-67.109
0
LINE
8
Black
10
133.035
20
-67.109
11
133.021
21
-67.1201
0
LINE
8
Black
10
133.021
20
-67.1201
11
133.005
21
-67.1261
0
LINE
8
Black
10
133.005
20
-67.1261
11
132.988
21
-67.1261
0
LINE
8
Black
10
132.988
20
-67.1261
11
132.971
21
-67.1201
0
LINE
8
Black
10
132.971
20
-67.1201
11
132.958
21
-67.109
0
LINE
8
Black
10
132.958
20
-67.109
11
132.949
21
-67.0939
0
LINE
8
Black
10
132.949
20
-67.0939
11
132.946
21
-67.0768
0
LINE
8
Black
10
132.946
20
-67.0768
11
132.946
21
-64.0518
0
LINE
8
Black
10
132.946
20
-64.0518
11
129.921
21
-64.0518
0
LINE
8
Black
10
129.921
20
-64.0518
11
129.904
21
-64.0488
0
LINE
8
Black
10
129.904
20
-64.0488
11
129.889
21
-64.0401
0
LINE
8
Black
10
129.889
20
-64.0401
11
129.878
21
-64.0268
0
LINE
8
Black
10
129.878
20
-64.0268
11
129.872
21
-64.0105
0
LINE
8
Black
10
129.872
20
-64.0105
11
129.872
21
-63.9931
0
LINE
8
Black
10
129.872
20
-63.9931
11
129.878
21
-63.9768
0
LINE
8
Black
10
129.878
20
-63.9768
11
129.889
21
-63.9635
0
LINE
8
Black
10
129.889
20
-63.9635
11
129.904
21
-63.9548
0
LINE
8
Black
10
129.904
20
-63.9548
11
129.921
21
-63.9518
0
LINE
8
Black
10
129.921
20
-63.9518
11
132.946
21
-63.9518
0
LINE
8
Black
10
132.946
20
-63.9518
11
132.946
21
-60.9268
0
LINE
8
Black
10
132.946
20
-60.9268
11
132.949
21
-60.9097
0
LINE
8
Black
10
132.949
20
-60.9097
11
132.958
21
-60.8947
0
LINE
8
Black
10
132.958
20
-60.8947
11
132.971
21
-60.8835
0
LINE
8
Black
10
132.971
20
-60.8835
11
132.988
21
-60.8776
0
LINE
8
Black
10
132.988
20
-60.8776
11
133.005
21
-60.8776
0
LINE
8
Black
10
133.005
20
-60.8776
11
133.021
21
-60.8835
0
LINE
8
Black
10
115.021
20
-60.8835
11
115.035
21
-60.8947
0
LINE
8
Black
10
115.035
20
-60.8947
11
115.043
21
-60.9097
0
LINE
8
Black
10
115.043
20
-60.9097
11
115.046
21
-60.9268
0
LINE
8
Black
10
115.046
20
-60.9268
11
115.046
21
-63.9518
0
LINE
8
Black
10
115.046
20
-63.9518
11
118.071
21
-63.9518
0
LINE
8
Black
10
118.071
20
-63.9518
11
118.088
21
-63.9548
0
LINE
8
Black
10
118.088
20
-63.9548
11
118.103
21
-63.9635
0
LINE
8
Black
10
118.103
20
-63.9635
11
118.115
21
-63.9768
0
LINE
8
Black
10
118.115
20
-63.9768
11
118.12
21
-63.9931
0
LINE
8
Black
10
118.12
20
-63.9931
11
118.12
21
-64.0105
0
LINE
8
Black
10
118.12
20
-64.0105
11
118.115
21
-64.0268
0
LINE
8
Black
10
118.115
20
-64.0268
11
118.103
21
-64.0401
0
LINE
8
Black
10
118.103
20
-64.0401
11
118.088
21
-64.0488
0
LINE
8
Black
10
118.088
20
-64.0488
11
118.071
21
-64.0518
0
LINE
8
Black
10
118.071
20
-64.0518
11
115.046
21
-64.0518
0
LINE
8
Black
10
115.046
20
-64.0518
11
115.046
21
-67.0768
0
LINE
8
Black
10
115.046
20
-67.0768
11
115.043
21
-67.0939
0
LINE
8
Black
10
115.043
20
-67.0939
11
115.035
21
-67.109
0
LINE
8
Black
10
115.035
20
-67.109
11
115.021
21
-67.1201
0
LINE
8
Black
10
115.021
20
-67.1201
11
115.005
21
-67.1261
0
LINE
8
Black
10
115.005
20
-67.1261
11
114.988
21
-67.1261
0
LINE
8
Black
10
114.988
20
-67.1261
11
114.971
21
-67.1201
0
LINE
8
Black
10
114.971
20
-67.1201
11
114.958
21
-67.109
0
LINE
8
Black
10
114.958
20
-67.109
11
114.949
21
-67.0939
0
LINE
8
Black
10
114.949
20
-67.0939
11
114.946
21
-67.0768
0
LINE
8
Black
10
114.946
20
-67.0768
11
114.946
21
-64.0518
0
LINE
8
Black
10
114.946
20
-64.0518
11
111.921
21
-64.0518
0
LINE
8
Black
10
111.921
20
-64.0518
11
111.904
21
-64.0488
0
LINE
8
Black
10
111.904
20
-64.0488
11
111.889
21
-64.0401
0
LINE
8
Black
10
111.889
20
-64.0401
11
111.878
21
-64.0268
0
LINE
8
Black
10
111.878
20
-64.0268
11
111.872
21
-64.0105
0
LINE
8
Black
10
111.872
20
-64.0105
11
111.872
21
-63.9931
0
LINE
8
Black
10
111.872
20
-63.9931
11
111.878
21
-63.9768
0
LINE
8
Black
10
111.878
20
-63.9768
11
111.889
21
-63.9635
0
LINE
8
Black
10
111.889
20
-63.9635
11
111.904
21
-63.9548
0
LINE
8
Black
10
111.904
20
-63.9548
11
111.921
21
-63.9518
0
LINE
8
Black
10
111.921
20
-63.9518
11
114.946
21
-63.9518
0
LINE
8
Black
10
114.946
20
-63.9518
11
114.946
21
-60.9268
0
LINE
8
Black
10
114.946
20
-60.9268
11
114.949
21
-60.9097
0
LINE
8
Black
10
114.949
20
-60.9097
11
114.958
21
-60.8947
0
LINE
8
Black
10
114.958
20
-60.8947
11
114.971
21
-60.8835
0
LINE
8
Black
10
114.971
20
-60.8835
11
114.988
21
-60.8776
0
LINE
8
Black
10
114.988
20
-60.8776
11
115.005
21
-60.8776
0
LINE
8
Black
10
115.005
20
-60.8776
11
115.021
21
-60.8835
0
LINE
8
Black
10
187.021
20
-60.8835
11
187.035
21
-60.8947
0
LINE
8
Black
10
187.035
20
-60.8947
11
187.043
21
-60.9097
0
LINE
8
Black
10
187.043
20
-60.9097
11
187.046
21
-60.9268
0
LINE
8
Black
10
187.046
20
-60.9268
11
187.046
21
-63.9518
0
LINE
8
Black
10
187.046
20
-63.9518
11
190.071
21
-63.9518
0
LINE
8
Black
10
190.071
20
-63.9518
11
190.088
21
-63.9548
0
LINE
8
Black
10
190.088
20
-63.9548
11
190.103
21
-63.9635
0
LINE
8
Black
10
190.103
20
-63.9635
11
190.115
21
-63.9768
0
LINE
8
Black
10
190.115
20
-63.9768
11
190.12
21
-63.9931
0
LINE
8
Black
10
190.12
20
-63.9931
11
190.12
21
-64.0105
0
LINE
8
Black
10
190.12
20
-64.0105
11
190.115
21
-64.0268
0
LINE
8
Black
10
190.115
20
-64.0268
11
190.103
21
-64.0401
0
LINE
8
Black
10
190.103
20
-64.0401
11
190.088
21
-64.0488
0
LINE
8
Black
10
190.088
20
-64.0488
11
190.071
21
-64.0518
0
LINE
8
Black
10
190.071
20
-64.0518
11
187.046
21
-64.0518
0
LINE
8
Black
10
187.046
20
-64.0518
11
187.046
21
-67.0768
0
LINE
8
Black
10
187.046
20
-67.0768
11
187.043
21
-67.0939
0
LINE
8
Black
10
187.043
20
-67.0939
11
187.035
21
-67.109
0
LINE
8
Black
10
187.035
20
-67.109
11
187.021
21
-67.1201
0
LINE
8
Black
10
187.021
20
-67.1201
11
187.005
21
-67.1261
0
LINE
8
Black
10
187.005
20
-67.1261
11
186.988
21
-67.1261
0
LINE
8
Black
10
186.988
20
-67.1261
11
186.971
21
-67.1201
0
LINE
8
Black
10
186.971
20
-67.1201
11
186.958
21
-67.109
0
LINE
8
Black
10
186.958
20
-67.109
11
186.949
21
-67.0939
0
LINE
8
Black
10
186.949
20
-67.0939
11
186.946
21
-67.0768
0
LINE
8
Black
10
186.946
20
-67.0768
11
186.946
21
-64.0518
0
LINE
8
Black
10
186.946
20
-64.0518
11
183.921
21
-64.0518
0
LINE
8
Black
10
183.921
20
-64.0518
11
183.904
21
-64.0488
0
LINE
8
Black
10
183.904
20
-64.0488
11
183.889
21
-64.0401
0
LINE
8
Black
10
183.889
20
-64.0401
11
183.878
21
-64.0268
0
LINE
8
Black
10
183.878
20
-64.0268
11
183.872
21
-64.0105
0
LINE
8
Black
10
183.872
20
-64.0105
11
183.872
21
-63.9931
0
LINE
8
Black
10
183.872
20
-63.9931
11
183.878
21
-63.9768
0
LINE
8
Black
10
183.878
20
-63.9768
11
183.889
21
-63.9635
0
LINE
8
Black
10
183.889
20
-63.9635
11
183.904
21
-63.9548
0
LINE
8
Black
10
183.904
20
-63.9548
11
183.921
21
-63.9518
0
LINE
8
Black
10
183.921
20
-63.9518
11
186.946
21
-63.9518
0
LINE
8
Black
10
186.946
20
-63.9518
11
186.946
21
-60.9268
0
LINE
8
Black
10
186.946
20
-60.9268
11
186.949
21
-60.9097
0
LINE
8
Black
10
186.949
20
-60.9097
11
186.958
21
-60.8947
0
LINE
8
Black
10
186.958
20
-60.8947
11
186.971
21
-60.8835
0
LINE
8
Black
10
186.971
20
-60.8835
11
186.988
21
-60.8776
0
LINE
8
Black
10
186.988
20
-60.8776
11
187.005
21
-60.8776
0
LINE
8
Black
10
187.005
20
-60.8776
11
187.021
21
-60.8835
0
LINE
8
Black
10
97.0212
20
-60.8835
11
97.0345
21
-60.8947
0
LINE
8
Black
10
97.0345
20
-60.8947
11
97.0432
21
-60.9097
0
LINE
8
Black
10
97.0432
20
-60.9097
11
97.0462
21
-60.9268
0
LINE
8
Black
10
97.0462
20
-60.9268
11
97.0462
21
-63.9518
0
LINE
8
Black
10
97.0462
20
-63.9518
11
100.071
21
-63.9518
0
LINE
8
Black
10
100.071
20
-63.9518
11
100.088
21
-63.9548
0
LINE
8
Black
10
100.088
20
-63.9548
11
100.103
21
-63.9635
0
LINE
8
Black
10
100.103
20
-63.9635
11
100.115
21
-63.9768
0
LINE
8
Black
10
100.115
20
-63.9768
11
100.12
21
-63.9931
0
LINE
8
Black
10
100.12
20
-63.9931
11
100.12
21
-64.0105
0
LINE
8
Black
10
100.12
20
-64.0105
11
100.115
21
-64.0268
0
LINE
8
Black
10
100.115
20
-64.0268
11
100.103
21
-64.0401
0
LINE
8
Black
10
100.103
20
-64.0401
11
100.088
21
-64.0488
0
LINE
8
Black
10
100.088
20
-64.0488
11
100.071
21
-64.0518
0
LINE
8
Black
10
100.071
20
-64.0518
11
97.0462
21
-64.0518
0
LINE
8
Black
10
97.0462
20
-64.0518
11
97.0462
21
-67.0768
0
LINE
8
Black
10
97.0462
20
-67.0768
11
97.0432
21
-67.0939
0
LINE
8
Black
10
97.0432
20
-67.0939
11
97.0345
21
-67.109
0
LINE
8
Black
10
97.0345
20
-67.109
11
97.0212
21
-67.1201
0
LINE
8
Black
10
97.0212
20
-67.1201
11
97.0049
21
-67.1261
0
LINE
8
Black
10
97.0049
20
-67.1261
11
96.9875
21
-67.1261
0
LINE
8
Black
10
96.9875
20
-67.1261
11
96.9712
21
-67.1201
0
LINE
8
Black
10
96.9712
20
-67.1201
11
96.9579
21
-67.109
0
LINE
8
Black
10
96.9579
20
-67.109
11
96.9492
21
-67.0939
0
LINE
8
Black
10
96.9492
20
-67.0939
11
96.9462
21
-67.0768
0
LINE
8
Black
10
96.9462
20
-67.0768
11
96.9462
21
-64.0518
0
LINE
8
Black
10
96.9462
20
-64.0518
11
93.9212
21
-64.0518
0
LINE
8
Black
10
93.9212
20
-64.0518
11
93.9041
21
-64.0488
0
LINE
8
Black
10
93.9041
20
-64.0488
11
93.8891
21
-64.0401
0
LINE
8
Black
10
93.8891
20
-64.0401
11
93.8779
21
-64.0268
0
LINE
8
Black
10
93.8779
20
-64.0268
11
93.872
21
-64.0105
0
LINE
8
Black
10
93.872
20
-64.0105
11
93.872
21
-63.9931
0
LINE
8
Black
10
93.872
20
-63.9931
11
93.8779
21
-63.9768
0
LINE
8
Black
10
93.8779
20
-63.9768
11
93.8891
21
-63.9635
0
LINE
8
Black
10
93.8891
20
-63.9635
11
93.9041
21
-63.9548
0
LINE
8
Black
10
93.9041
20
-63.9548
11
93.9212
21
-63.9518
0
LINE
8
Black
10
93.9212
20
-63.9518
11
96.9462
21
-63.9518
0
LINE
8
Black
10
96.9462
20
-63.9518
11
96.9462
21
-60.9268
0
LINE
8
Black
10
96.9462
20
-60.9268
11
96.9492
21
-60.9097
0
LINE
8
Black
10
96.9492
20
-60.9097
11
96.9579
21
-60.8947
0
LINE
8
Black
10
96.9579
20
-60.8947
11
96.9712
21
-60.8835
0
LINE
8
Black
10
96.9712
20
-60.8835
11
96.9875
21
-60.8776
0
LINE
8
Black
10
96.9875
20
-60.8776
11
97.0049
21
-60.8776
0
LINE
8
Black
10
97.0049
20
-60.8776
11
97.0212
21
-60.8835
0
LINE
8
Black
10
79.0212
20
-60.8835
11
79.0345
21
-60.8947
0
LINE
8
Black
10
79.0345
20
-60.8947
11
79.0432
21
-60.9097
0
LINE
8
Black
10
79.0432
20
-60.9097
11
79.0462
21
-60.9268
0
LINE
8
Black
10
79.0462
20
-60.9268
11
79.0462
21
-63.9518
0
LINE
8
Black
10
79.0462
20
-63.9518
11
82.0712
21
-63.9518
0
LINE
8
Black
10
82.0712
20
-63.9518
11
82.0883
21
-63.9548
0
LINE
8
Black
10
82.0883
20
-63.9548
11
82.1034
21
-63.9635
0
LINE
8
Black
10
82.1034
20
-63.9635
11
82.1145
21
-63.9768
0
LINE
8
Black
10
82.1145
20
-63.9768
11
82.1205
21
-63.9931
0
LINE
8
Black
10
82.1205
20
-63.9931
11
82.1205
21
-64.0105
0
LINE
8
Black
10
82.1205
20
-64.0105
11
82.1145
21
-64.0268
0
LINE
8
Black
10
82.1145
20
-64.0268
11
82.1034
21
-64.0401
0
LINE
8
Black
10
82.1034
20
-64.0401
11
82.0883
21
-64.0488
0
LINE
8
Black
10
82.0883
20
-64.0488
11
82.0712
21
-64.0518
0
LINE
8
Black
10
82.0712
20
-64.0518
11
79.0462
21
-64.0518
0
LINE
8
Black
10
79.0462
20
-64.0518
11
79.0462
21
-67.0768
0
LINE
8
Black
10
79.0462
20
-67.0768
11
79.0432
21
-67.0939
0
LINE
8
Black
10
79.0432
20
-67.0939
11
79.0345
21
-67.109
0
LINE
8
Black
10
79.0345
20
-67.109
11
79.0212
21
-67.1201
0
LINE
8
Black
10
79.0212
20
-67.1201
11
79.0049
21
-67.1261
0
LINE
8
Black
10
79.0049
20
-67.1261
11
78.9875
21
-67.1261
0
LINE
8
Black
10
78.9875
20
-67.1261
11
78.9712
21
-67.1201
0
LINE
8
Black
10
78.9712
20
-67.1201
11
78.9579
21
-67.109
0
LINE
8
Black
10
78.9579
20
-67.109
11
78.9492
21
-67.0939
0
LINE
8
Black
10
78.9492
20
-67.0939
11
78.9462
21
-67.0768
0
LINE
8
Black
10
78.9462
20
-67.0768
11
78.9462
21
-64.0518
0
LINE
8
Black
10
78.9462
20
-64.0518
11
75.9212
21
-64.0518
0
LINE
8
Black
10
75.9212
20
-64.0518
11
75.9041
21
-64.0488
0
LINE
8
Black
10
75.9041
20
-64.0488
11
75.8891
21
-64.0401
0
LINE
8
Black
10
75.8891
20
-64.0401
11
75.8779
21
-64.0268
0
LINE
8
Black
10
75.8779
20
-64.0268
11
75.872
21
-64.0105
0
LINE
8
Black
10
75.872
20
-64.0105
11
75.872
21
-63.9931
0
LINE
8
Black
10
75.872
20
-63.9931
11
75.8779
21
-63.9768
0
LINE
8
Black
10
75.8779
20
-63.9768
11
75.8891
21
-63.9635
0
LINE
8
Black
10
75.8891
20
-63.9635
11
75.9041
21
-63.9548
0
LINE
8
Black
10
75.9041
20
-63.9548
11
75.9212
21
-63.9518
0
LINE
8
Black
10
75.9212
20
-63.9518
11
78.9462
21
-63.9518
0
LINE
8
Black
10
78.9462
20
-63.9518
11
78.9462
21
-60.9268
0
LINE
8
Black
10
78.9462
20
-60.9268
11
78.9492
21
-60.9097
0
LINE
8
Black
10
78.9492
20
-60.9097
11
78.9579
21
-60.8947
0
LINE
8
Black
10
78.9579
20
-60.8947
11
78.9712
21
-60.8835
0
LINE
8
Black
10
78.9712
20
-60.8835
11
78.9875
21
-60.8776
0
LINE
8
Black
10
78.9875
20
-60.8776
11
79.0049
21
-60.8776
0
LINE
8
Black
10
79.0049
20
-60.8776
11
79.0212
21
-60.8835
0
LINE
8
Black
10
151.021
20
-60.8835
11
151.035
21
-60.8947
0
LINE
8
Black
10
151.035
20
-60.8947
11
151.043
21
-60.9097
0
LINE
8
Black
10
151.043
20
-60.9097
11
151.046
21
-60.9268
0
LINE
8
Black
10
151.046
20
-60.9268
11
151.046
21
-63.9518
0
LINE
8
Black
10
151.046
20
-63.9518
11
154.071
21
-63.9518
0
LINE
8
Black
10
154.071
20
-63.9518
11
154.088
21
-63.9548
0
LINE
8
Black
10
154.088
20
-63.9548
11
154.103
21
-63.9635
0
LINE
8
Black
10
154.103
20
-63.9635
11
154.115
21
-63.9768
0
LINE
8
Black
10
154.115
20
-63.9768
11
154.12
21
-63.9931
0
LINE
8
Black
10
154.12
20
-63.9931
11
154.12
21
-64.0105
0
LINE
8
Black
10
154.12
20
-64.0105
11
154.115
21
-64.0268
0
LINE
8
Black
10
154.115
20
-64.0268
11
154.103
21
-64.0401
0
LINE
8
Black
10
154.103
20
-64.0401
11
154.088
21
-64.0488
0
LINE
8
Black
10
154.088
20
-64.0488
11
154.071
21
-64.0518
0
LINE
8
Black
10
154.071
20
-64.0518
11
151.046
21
-64.0518
0
LINE
8
Black
10
151.046
20
-64.0518
11
151.046
21
-67.0768
0
LINE
8
Black
10
151.046
20
-67.0768
11
151.043
21
-67.0939
0
LINE
8
Black
10
151.043
20
-67.0939
11
151.035
21
-67.109
0
LINE
8
Black
10
151.035
20
-67.109
11
151.021
21
-67.1201
0
LINE
8
Black
10
151.021
20
-67.1201
11
151.005
21
-67.1261
0
LINE
8
Black
10
151.005
20
-67.1261
11
150.988
21
-67.1261
0
LINE
8
Black
10
150.988
20
-67.1261
11
150.971
21
-67.1201
0
LINE
8
Black
10
150.971
20
-67.1201
11
150.958
21
-67.109
0
LINE
8
Black
10
150.958
20
-67.109
11
150.949
21
-67.0939
0
LINE
8
Black
10
150.949
20
-67.0939
11
150.946
21
-67.0768
0
LINE
8
Black
10
150.946
20
-67.0768
11
150.946
21
-64.0518
0
LINE
8
Black
10
150.946
20
-64.0518
11
147.921
21
-64.0518
0
LINE
8
Black
10
147.921
20
-64.0518
11
147.904
21
-64.0488
0
LINE
8
Black
10
147.904
20
-64.0488
11
147.889
21
-64.0401
0
LINE
8
Black
10
147.889
20
-64.0401
11
147.878
21
-64.0268
0
LINE
8
Black
10
147.878
20
-64.0268
11
147.872
21
-64.0105
0
LINE
8
Black
10
147.872
20
-64.0105
11
147.872
21
-63.9931
0
LINE
8
Black
10
147.872
20
-63.9931
11
147.878
21
-63.9768
0
LINE
8
Black
10
147.878
20
-63.9768
11
147.889
21
-63.9635
0
LINE
8
Black
10
147.889
20
-63.9635
11
147.904
21
-63.9548
0
LINE
8
Black
10
147.904
20
-63.9548
11
147.921
21
-63.9518
0
LINE
8
Black
10
147.921
20
-63.9518
11
150.946
21
-63.9518
0
LINE
8
Black
10
150.946
20
-63.9518
11
150.946
21
-60.9268
0
LINE
8
Black
10
150.946
20
-60.9268
11
150.949
21
-60.9097
0
LINE
8
Black
10
150.949
20
-60.9097
11
150.958
21
-60.8947
0
LINE
8
Black
10
150.958
20
-60.8947
11
150.971
21
-60.8835
0
LINE
8
Black
10
150.971
20
-60.8835
11
150.988
21
-60.8776
0
LINE
8
Black
10
150.988
20
-60.8776
11
151.005
21
-60.8776
0
LINE
8
Black
10
151.005
20
-60.8776
11
151.021
21
-60.8835
0
LINE
8
Black
10
169.021
20
-60.8835
11
169.035
21
-60.8947
0
LINE
8
Black
10
169.035
20
-60.8947
11
169.043
21
-60.9097
0
LINE
8
Black
10
169.043
20
-60.9097
11
169.046
21
-60.9268
0
LINE
8
Black
10
169.046
20
-60.9268
11
169.046
21
-63.9518
0
LINE
8
Black
10
169.046
20
-63.9518
11
172.071
21
-63.9518
0
LINE
8
Black
10
172.071
20
-63.9518
11
172.088
21
-63.9548
0
LINE
8
Black
10
172.088
20
-63.9548
11
172.103
21
-63.9635
0
LINE
8
Black
10
172.103
20
-63.9635
11
172.115
21
-63.9768
0
LINE
8
Black
10
172.115
20
-63.9768
11
172.12
21
-63.9931
0
LINE
8
Black
10
172.12
20
-63.9931
11
172.12
21
-64.0105
0
LINE
8
Black
10
172.12
20
-64.0105
11
172.115
21
-64.0268
0
LINE
8
Black
10
172.115
20
-64.0268
11
172.103
21
-64.0401
0
LINE
8
Black
10
172.103
20
-64.0401
11
172.088
21
-64.0488
0
LINE
8
Black
10
172.088
20
-64.0488
11
172.071
21
-64.0518
0
LINE
8
Black
10
172.071
20
-64.0518
11
169.046
21
-64.0518
0
LINE
8
Black
10
169.046
20
-64.0518
11
169.046
21
-67.0768
0
LINE
8
Black
10
169.046
20
-67.0768
11
169.043
21
-67.0939
0
LINE
8
Black
10
169.043
20
-67.0939
11
169.035
21
-67.109
0
LINE
8
Black
10
169.035
20
-67.109
11
169.021
21
-67.1201
0
LINE
8
Black
10
169.021
20
-67.1201
11
169.005
21
-67.1261
0
LINE
8
Black
10
169.005
20
-67.1261
11
168.988
21
-67.1261
0
LINE
8
Black
10
168.988
20
-67.1261
11
168.971
21
-67.1201
0
LINE
8
Black
10
168.971
20
-67.1201
11
168.958
21
-67.109
0
LINE
8
Black
10
168.958
20
-67.109
11
168.949
21
-67.0939
0
LINE
8
Black
10
168.949
20
-67.0939
11
168.946
21
-67.0768
0
LINE
8
Black
10
168.946
20
-67.0768
11
168.946
21
-64.0518
0
LINE
8
Black
10
168.946
20
-64.0518
11
165.921
21
-64.0518
0
LINE
8
Black
10
165.921
20
-64.0518
11
165.904
21
-64.0488
0
LINE
8
Black
10
165.904
20
-64.0488
11
165.889
21
-64.0401
0
LINE
8
Black
10
165.889
20
-64.0401
11
165.878
21
-64.0268
0
LINE
8
Black
10
165.878
20
-64.0268
11
165.872
21
-64.0105
0
LINE
8
Black
10
165.872
20
-64.0105
11
165.872
21
-63.9931
0
LINE
8
Black
10
165.872
20
-63.9931
11
165.878
21
-63.9768
0
LINE
8
Black
10
165.878
20
-63.9768
11
165.889
21
-63.9635
0
LINE
8
Black
10
165.889
20
-63.9635
11
165.904
21
-63.9548
0
LINE
8
Black
10
165.904
20
-63.9548
11
165.921
21
-63.9518
0
LINE
8
Black
10
165.921
20
-63.9518
11
168.946
21
-63.9518
0
LINE
8
Black
10
168.946
20
-63.9518
11
168.946
21
-60.9268
0
LINE
8
Black
10
168.946
20
-60.9268
11
168.949
21
-60.9097
0
LINE
8
Black
10
168.949
20
-60.9097
11
168.958
21
-60.8947
0
LINE
8
Black
10
168.958
20
-60.8947
11
168.971
21
-60.8835
0
LINE
8
Black
10
168.971
20
-60.8835
11
168.988
21
-60.8776
0
LINE
8
Black
10
168.988
20
-60.8776
11
169.005
21
-60.8776
0
LINE
8
Black
10
169.005
20
-60.8776
11
169.021
21
-60.8835
0
LINE
8
Black
10
259.021
20
-60.8835
11
259.035
21
-60.8947
0
LINE
8
Black
10
259.035
20
-60.8947
11
259.043
21
-60.9097
0
LINE
8
Black
10
259.043
20
-60.9097
11
259.046
21
-60.9268
0
LINE
8
Black
10
259.046
20
-60.9268
11
259.046
21
-63.9518
0
LINE
8
Black
10
259.046
20
-63.9518
11
262.071
21
-63.9518
0
LINE
8
Black
10
262.071
20
-63.9518
11
262.088
21
-63.9548
0
LINE
8
Black
10
262.088
20
-63.9548
11
262.103
21
-63.9635
0
LINE
8
Black
10
262.103
20
-63.9635
11
262.115
21
-63.9768
0
LINE
8
Black
10
262.115
20
-63.9768
11
262.12
21
-63.9931
0
LINE
8
Black
10
262.12
20
-63.9931
11
262.12
21
-64.0105
0
LINE
8
Black
10
262.12
20
-64.0105
11
262.115
21
-64.0268
0
LINE
8
Black
10
262.115
20
-64.0268
11
262.103
21
-64.0401
0
LINE
8
Black
10
262.103
20
-64.0401
11
262.088
21
-64.0488
0
LINE
8
Black
10
262.088
20
-64.0488
11
262.071
21
-64.0518
0
LINE
8
Black
10
262.071
20
-64.0518
11
259.046
21
-64.0518
0
LINE
8
Black
10
259.046
20
-64.0518
11
259.046
21
-67.0768
0
LINE
8
Black
10
259.046
20
-67.0768
11
259.043
21
-67.0939
0
LINE
8
Black
10
259.043
20
-67.0939
11
259.035
21
-67.109
0
LINE
8
Black
10
259.035
20
-67.109
11
259.021
21
-67.1201
0
LINE
8
Black
10
259.021
20
-67.1201
11
259.005
21
-67.1261
0
LINE
8
Black
10
259.005
20
-67.1261
11
258.988
21
-67.1261
0
LINE
8
Black
10
258.988
20
-67.1261
11
258.971
21
-67.1201
0
LINE
8
Black
10
258.971
20
-67.1201
11
258.958
21
-67.109
0
LINE
8
Black
10
258.958
20
-67.109
11
258.949
21
-67.0939
0
LINE
8
Black
10
258.949
20
-67.0939
11
258.946
21
-67.0768
0
LINE
8
Black
10
258.946
20
-67.0768
11
258.946
21
-64.0518
0
LINE
8
Black
10
258.946
20
-64.0518
11
255.921
21
-64.0518
0
LINE
8
Black
10
255.921
20
-64.0518
11
255.904
21
-64.0488
0
LINE
8
Black
10
255.904
20
-64.0488
11
255.889
21
-64.0401
0
LINE
8
Black
10
255.889
20
-64.0401
11
255.878
21
-64.0268
0
LINE
8
Black
10
255.878
20
-64.0268
11
255.872
21
-64.0105
0
LINE
8
Black
10
255.872
20
-64.0105
11
255.872
21
-63.9931
0
LINE
8
Black
10
255.872
20
-63.9931
11
255.878
21
-63.9768
0
LINE
8
Black
10
255.878
20
-63.9768
11
255.889
21
-63.9635
0
LINE
8
Black
10
255.889
20
-63.9635
11
255.904
21
-63.9548
0
LINE
8
Black
10
255.904
20
-63.9548
11
255.921
21
-63.9518
0
LINE
8
Black
10
255.921
20
-63.9518
11
258.946
21
-63.9518
0
LINE
8
Black
10
258.946
20
-63.9518
11
258.946
21
-60.9268
0
LINE
8
Black
10
258.946
20
-60.9268
11
258.949
21
-60.9097
0
LINE
8
Black
10
258.949
20
-60.9097
11
258.958
21
-60.8947
0
LINE
8
Black
10
258.958
20
-60.8947
11
258.971
21
-60.8835
0
LINE
8
Black
10
258.971
20
-60.8835
11
258.988
21
-60.8776
0
LINE
8
Black
10
258.988
20
-60.8776
11
259.005
21
-60.8776
0
LINE
8
Black
10
259.005
20
-60.8776
11
259.021
21
-60.8835
0
LINE
8
Black
10
205.021
20
-60.8835
11
205.035
21
-60.8947
0
LINE
8
Black
10
205.035
20
-60.8947
11
205.043
21
-60.9097
0
LINE
8
Black
10
205.043
20
-60.9097
11
205.046
21
-60.9268
0
LINE
8
Black
10
205.046
20
-60.9268
11
205.046
21
-63.9518
0
LINE
8
Black
10
205.046
20
-63.9518
11
208.071
21
-63.9518
0
LINE
8
Black
10
208.071
20
-63.9518
11
208.088
21
-63.9548
0
LINE
8
Black
10
208.088
20
-63.9548
11
208.103
21
-63.9635
0
LINE
8
Black
10
208.103
20
-63.9635
11
208.115
21
-63.9768
0
LINE
8
Black
10
208.115
20
-63.9768
11
208.12
21
-63.9931
0
LINE
8
Black
10
208.12
20
-63.9931
11
208.12
21
-64.0105
0
LINE
8
Black
10
208.12
20
-64.0105
11
208.115
21
-64.0268
0
LINE
8
Black
10
208.115
20
-64.0268
11
208.103
21
-64.0401
0
LINE
8
Black
10
208.103
20
-64.0401
11
208.088
21
-64.0488
0
LINE
8
Black
10
208.088
20
-64.0488
11
208.071
21
-64.0518
0
LINE
8
Black
10
208.071
20
-64.0518
11
205.046
21
-64.0518
0
LINE
8
Black
10
205.046
20
-64.0518
11
205.046
21
-67.0768
0
LINE
8
Black
10
205.046
20
-67.0768
11
205.043
21
-67.0939
0
LINE
8
Black
10
205.043
20
-67.0939
11
205.035
21
-67.109
0
LINE
8
Black
10
205.035
20
-67.109
11
205.021
21
-67.1201
0
LINE
8
Black
10
205.021
20
-67.1201
11
205.005
21
-67.1261
0
LINE
8
Black
10
205.005
20
-67.1261
11
204.988
21
-67.1261
0
LINE
8
Black
10
204.988
20
-67.1261
11
204.971
21
-67.1201
0
LINE
8
Black
10
204.971
20
-67.1201
11
204.958
21
-67.109
0
LINE
8
Black
10
204.958
20
-67.109
11
204.949
21
-67.0939
0
LINE
8
Black
10
204.949
20
-67.0939
11
204.946
21
-67.0768
0
LINE
8
Black
10
204.946
20
-67.0768
11
204.946
21
-64.0518
0
LINE
8
Black
10
204.946
20
-64.0518
11
201.921
21
-64.0518
0
LINE
8
Black
10
201.921
20
-64.0518
11
201.904
21
-64.0488
0
LINE
8
Black
10
201.904
20
-64.0488
11
201.889
21
-64.0401
0
LINE
8
Black
10
201.889
20
-64.0401
11
201.878
21
-64.0268
0
LINE
8
Black
10
201.878
20
-64.0268
11
201.872
21
-64.0105
0
LINE
8
Black
10
201.872
20
-64.0105
11
201.872
21
-63.9931
0
LINE
8
Black
10
201.872
20
-63.9931
11
201.878
21
-63.9768
0
LINE
8
Black
10
201.878
20
-63.9768
11
201.889
21
-63.9635
0
LINE
8
Black
10
201.889
20
-63.9635
11
201.904
21
-63.9548
0
LINE
8
Black
10
201.904
20
-63.9548
11
201.921
21
-63.9518
0
LINE
8
Black
10
201.921
20
-63.9518
11
204.946
21
-63.9518
0
LINE
8
Black
10
204.946
20
-63.9518
11
204.946
21
-60.9268
0
LINE
8
Black
10
204.946
20
-60.9268
11
204.949
21
-60.9097
0
LINE
8
Black
10
204.949
20
-60.9097
11
204.958
21
-60.8947
0
LINE
8
Black
10
204.958
20
-60.8947
11
204.971
21
-60.8835
0
LINE
8
Black
10
204.971
20
-60.8835
11
204.988
21
-60.8776
0
LINE
8
Black
10
204.988
20
-60.8776
11
205.005
21
-60.8776
0
LINE
8
Black
10
205.005
20
-60.8776
11
205.021
21
-60.8835
0
LINE
8
Black
10
223.021
20
-60.8835
11
223.035
21
-60.8947
0
LINE
8
Black
10
223.035
20
-60.8947
11
223.043
21
-60.9097
0
LINE
8
Black
10
223.043
20
-60.9097
11
223.046
21
-60.9268
0
LINE
8
Black
10
223.046
20
-60.9268
11
223.046
21
-63.9518
0
LINE
8
Black
10
223.046
20
-63.9518
11
226.071
21
-63.9518
0
LINE
8
Black
10
226.071
20
-63.9518
11
226.088
21
-63.9548
0
LINE
8
Black
10
226.088
20
-63.9548
11
226.103
21
-63.9635
0
LINE
8
Black
10
226.103
20
-63.9635
11
226.115
21
-63.9768
0
LINE
8
Black
10
226.115
20
-63.9768
11
226.12
21
-63.9931
0
LINE
8
Black
10
226.12
20
-63.9931
11
226.12
21
-64.0105
0
LINE
8
Black
10
226.12
20
-64.0105
11
226.115
21
-64.0268
0
LINE
8
Black
10
226.115
20
-64.0268
11
226.103
21
-64.0401
0
LINE
8
Black
10
226.103
20
-64.0401
11
226.088
21
-64.0488
0
LINE
8
Black
10
226.088
20
-64.0488
11
226.071
21
-64.0518
0
LINE
8
Black
10
226.071
20
-64.0518
11
223.046
21
-64.0518
0
LINE
8
Black
10
223.046
20
-64.0518
11
223.046
21
-67.0768
0
LINE
8
Black
10
223.046
20
-67.0768
11
223.043
21
-67.0939
0
LINE
8
Black
10
223.043
20
-67.0939
11
223.035
21
-67.109
0
LINE
8
Black
10
223.035
20
-67.109
11
223.021
21
-67.1201
0
LINE
8
Black
10
223.021
20
-67.1201
11
223.005
21
-67.1261
0
LINE
8
Black
10
223.005
20
-67.1261
11
222.988
21
-67.1261
0
LINE
8
Black
10
222.988
20
-67.1261
11
222.971
21
-67.1201
0
LINE
8
Black
10
222.971
20
-67.1201
11
222.958
21
-67.109
0
LINE
8
Black
10
222.958
20
-67.109
11
222.949
21
-67.0939
0
LINE
8
Black
10
222.949
20
-67.0939
11
222.946
21
-67.0768
0
LINE
8
Black
10
222.946
20
-67.0768
11
222.946
21
-64.0518
0
LINE
8
Black
10
222.946
20
-64.0518
11
219.921
21
-64.0518
0
LINE
8
Black
10
219.921
20
-64.0518
11
219.904
21
-64.0488
0
LINE
8
Black
10
219.904
20
-64.0488
11
219.889
21
-64.0401
0
LINE
8
Black
10
219.889
20
-64.0401
11
219.878
21
-64.0268
0
LINE
8
Black
10
219.878
20
-64.0268
11
219.872
21
-64.0105
0
LINE
8
Black
10
219.872
20
-64.0105
11
219.872
21
-63.9931
0
LINE
8
Black
10
219.872
20
-63.9931
11
219.878
21
-63.9768
0
LINE
8
Black
10
219.878
20
-63.9768
11
219.889
21
-63.9635
0
LINE
8
Black
10
219.889
20
-63.9635
11
219.904
21
-63.9548
0
LINE
8
Black
10
219.904
20
-63.9548
11
219.921
21
-63.9518
0
LINE
8
Black
10
219.921
20
-63.9518
11
222.946
21
-63.9518
0
LINE
8
Black
10
222.946
20
-63.9518
11
222.946
21
-60.9268
0
LINE
8
Black
10
222.946
20
-60.9268
11
222.949
21
-60.9097
0
LINE
8
Black
10
222.949
20
-60.9097
11
222.958
21
-60.8947
0
LINE
8
Black
10
222.958
20
-60.8947
11
222.971
21
-60.8835
0
LINE
8
Black
10
222.971
20
-60.8835
11
222.988
21
-60.8776
0
LINE
8
Black
10
222.988
20
-60.8776
11
223.005
21
-60.8776
0
LINE
8
Black
10
223.005
20
-60.8776
11
223.021
21
-60.8835
0
LINE
8
Black
10
241.021
20
-60.8835
11
241.035
21
-60.8947
0
LINE
8
Black
10
241.035
20
-60.8947
11
241.043
21
-60.9097
0
LINE
8
Black
10
241.043
20
-60.9097
11
241.046
21
-60.9268
0
LINE
8
Black
10
241.046
20
-60.9268
11
241.046
21
-63.9518
0
LINE
8
Black
10
241.046
20
-63.9518
11
244.071
21
-63.9518
0
LINE
8
Black
10
244.071
20
-63.9518
11
244.088
21
-63.9548
0
LINE
8
Black
10
244.088
20
-63.9548
11
244.103
21
-63.9635
0
LINE
8
Black
10
244.103
20
-63.9635
11
244.115
21
-63.9768
0
LINE
8
Black
10
244.115
20
-63.9768
11
244.12
21
-63.9931
0
LINE
8
Black
10
244.12
20
-63.9931
11
244.12
21
-64.0105
0
LINE
8
Black
10
244.12
20
-64.0105
11
244.115
21
-64.0268
0
LINE
8
Black
10
244.115
20
-64.0268
11
244.103
21
-64.0401
0
LINE
8
Black
10
244.103
20
-64.0401
11
244.088
21
-64.0488
0
LINE
8
Black
10
244.088
20
-64.0488
11
244.071
21
-64.0518
0
LINE
8
Black
10
244.071
20
-64.0518
11
241.046
21
-64.0518
0
LINE
8
Black
10
241.046
20
-64.0518
11
241.046
21
-67.0768
0
LINE
8
Black
10
241.046
20
-67.0768
11
241.043
21
-67.0939
0
LINE
8
Black
10
241.043
20
-67.0939
11
241.035
21
-67.109
0
LINE
8
Black
10
241.035
20
-67.109
11
241.021
21
-67.1201
0
LINE
8
Black
10
241.021
20
-67.1201
11
241.005
21
-67.1261
0
LINE
8
Black
10
241.005
20
-67.1261
11
240.988
21
-67.1261
0
LINE
8
Black
10
240.988
20
-67.1261
11
240.971
21
-67.1201
0
LINE
8
Black
10
240.971
20
-67.1201
11
240.958
21
-67.109
0
LINE
8
Black
10
240.958
20
-67.109
11
240.949
21
-67.0939
0
LINE
8
Black
10
240.949
20
-67.0939
11
240.946
21
-67.0768
0
LINE
8
Black
10
240.946
20
-67.0768
11
240.946
21
-64.0518
0
LINE
8
Black
10
240.946
20
-64.0518
11
237.921
21
-64.0518
0
LINE
8
Black
10
237.921
20
-64.0518
11
237.904
21
-64.0488
0
LINE
8
Black
10
237.904
20
-64.0488
11
237.889
21
-64.0401
0
LINE
8
Black
10
237.889
20
-64.0401
11
237.878
21
-64.0268
0
LINE
8
Black
10
237.878
20
-64.0268
11
237.872
21
-64.0105
0
LINE
8
Black
10
237.872
20
-64.0105
11
237.872
21
-63.9931
0
LINE
8
Black
10
237.872
20
-63.9931
11
237.878
21
-63.9768
0
LINE
8
Black
10
237.878
20
-63.9768
11
237.889
21
-63.9635
0
LINE
8
Black
10
237.889
20
-63.9635
11
237.904
21
-63.9548
0
LINE
8
Black
10
237.904
20
-63.9548
11
237.921
21
-63.9518
0
LINE
8
Black
10
237.921
20
-63.9518
11
240.946
21
-63.9518
0
LINE
8
Black
10
240.946
20
-63.9518
11
240.946
21
-60.9268
0
LINE
8
Black
10
240.946
20
-60.9268
11
240.949
21
-60.9097
0
LINE
8
Black
10
240.949
20
-60.9097
11
240.958
21
-60.8947
0
LINE
8
Black
10
240.958
20
-60.8947
11
240.971
21
-60.8835
0
LINE
8
Black
10
240.971
20
-60.8835
11
240.988
21
-60.8776
0
LINE
8
Black
10
240.988
20
-60.8776
11
241.005
21
-60.8776
0
LINE
8
Black
10
241.005
20
-60.8776
11
241.021
21
-60.8835
0
LINE
8
Black
10
307.086
20
-50.9913
11
307.093
21
-50.9913
0
LINE
8
Black
10
307.093
20
-50.9913
11
307.099
21
-50.9936
0
LINE
8
Black
10
307.099
20
-50.9936
11
307.106
21
-50.9947
0
LINE
8
Black
10
307.106
20
-50.9947
11
307.111
21
-50.998
0
LINE
8
Black
10
307.111
20
-50.998
11
307.118
21
-51.0002
0
LINE
8
Black
10
307.118
20
-51.0002
11
307.123
21
-51.0045
0
LINE
8
Black
10
307.123
20
-51.0045
11
307.128
21
-51.0077
0
LINE
8
Black
10
307.128
20
-51.0077
11
307.132
21
-51.0128
0
LINE
8
Black
10
307.132
20
-51.0128
11
307.137
21
-51.017
0
LINE
8
Black
10
307.137
20
-51.017
11
307.141
21
-51.0227
0
LINE
8
Black
10
307.141
20
-51.0227
11
307.145
21
-51.0277
0
LINE
8
Black
10
307.145
20
-51.0277
11
307.147
21
-51.0339
0
LINE
8
Black
10
307.147
20
-51.0339
11
307.15
21
-51.0395
0
LINE
8
Black
10
307.15
20
-51.0395
11
307.152
21
-51.046
0
LINE
8
Black
10
307.152
20
-51.046
11
307.154
21
-51.0522
0
LINE
8
Black
10
307.154
20
-51.0522
11
307.154
21
-51.0587
0
LINE
8
Black
10
307.154
20
-51.0587
11
307.155
21
-51.0652
0
LINE
8
Black
10
307.155
20
-51.0652
11
307.155
21
-57.5168
0
LINE
8
Black
10
307.155
20
-57.5168
11
307.15
21
-57.5425
0
LINE
8
Black
10
307.15
20
-57.5425
11
307.137
21
-57.565
0
LINE
8
Black
10
307.137
20
-57.565
11
307.118
21
-57.5818
0
LINE
8
Black
10
307.118
20
-57.5818
11
307.093
21
-57.5907
0
LINE
8
Black
10
307.093
20
-57.5907
11
307.067
21
-57.5907
0
LINE
8
Black
10
307.067
20
-57.5907
11
307.042
21
-57.5818
0
LINE
8
Black
10
307.042
20
-57.5818
11
307.023
21
-57.565
0
LINE
8
Black
10
307.023
20
-57.565
11
307.01
21
-57.5425
0
LINE
8
Black
10
307.01
20
-57.5425
11
307.005
21
-57.5168
0
LINE
8
Black
10
307.005
20
-57.5168
11
307.005
21
-51.1402
0
LINE
8
Black
10
307.005
20
-51.1402
11
296.995
21
-51.1402
0
LINE
8
Black
10
296.995
20
-51.1402
11
296.995
21
-57.5168
0
LINE
8
Black
10
296.995
20
-57.5168
11
296.99
21
-57.5425
0
LINE
8
Black
10
296.99
20
-57.5425
11
296.977
21
-57.565
0
LINE
8
Black
10
296.977
20
-57.565
11
296.957
21
-57.5818
0
LINE
8
Black
10
296.957
20
-57.5818
11
296.933
21
-57.5907
0
LINE
8
Black
10
296.933
20
-57.5907
11
296.907
21
-57.5907
0
LINE
8
Black
10
296.907
20
-57.5907
11
296.882
21
-57.5818
0
LINE
8
Black
10
296.882
20
-57.5818
11
296.863
21
-57.565
0
LINE
8
Black
10
296.863
20
-57.565
11
296.85
21
-57.5425
0
LINE
8
Black
10
296.85
20
-57.5425
11
296.845
21
-57.5168
0
LINE
8
Black
10
296.845
20
-57.5168
11
296.845
21
-51.0652
0
LINE
8
Black
10
296.845
20
-51.0652
11
296.846
21
-51.0587
0
LINE
8
Black
10
296.846
20
-51.0587
11
296.846
21
-51.0522
0
LINE
8
Black
10
296.846
20
-51.0522
11
296.848
21
-51.046
0
LINE
8
Black
10
296.848
20
-51.046
11
296.85
21
-51.0395
0
LINE
8
Black
10
296.85
20
-51.0395
11
296.853
21
-51.0339
0
LINE
8
Black
10
296.853
20
-51.0339
11
296.855
21
-51.0277
0
LINE
8
Black
10
296.855
20
-51.0277
11
296.859
21
-51.0227
0
LINE
8
Black
10
296.859
20
-51.0227
11
296.863
21
-51.017
0
LINE
8
Black
10
296.863
20
-51.017
11
296.868
21
-51.0128
0
LINE
8
Black
10
296.868
20
-51.0128
11
296.872
21
-51.0077
0
LINE
8
Black
10
296.872
20
-51.0077
11
296.877
21
-51.0045
0
LINE
8
Black
10
296.877
20
-51.0045
11
296.882
21
-51.0002
0
LINE
8
Black
10
296.882
20
-51.0002
11
296.889
21
-50.998
0
LINE
8
Black
10
296.889
20
-50.998
11
296.894
21
-50.9947
0
LINE
8
Black
10
296.894
20
-50.9947
11
296.901
21
-50.9936
0
LINE
8
Black
10
296.901
20
-50.9936
11
296.907
21
-50.9913
0
LINE
8
Black
10
296.907
20
-50.9913
11
296.914
21
-50.9913
0
LINE
8
Black
10
296.914
20
-50.9913
11
296.92
21
-50.9902
0
LINE
8
Black
10
296.92
20
-50.9902
11
307.08
21
-50.9902
0
LINE
8
Black
10
307.08
20
-50.9902
11
307.086
21
-50.9913
0
LINE
8
Black
10
291.504
20
-57.4508
11
291.509
21
-57.4508
0
LINE
8
Black
10
291.509
20
-57.4508
11
291.513
21
-57.4523
0
LINE
8
Black
10
291.513
20
-57.4523
11
291.517
21
-57.453
0
LINE
8
Black
10
291.517
20
-57.453
11
291.521
21
-57.4552
0
LINE
8
Black
10
291.521
20
-57.4552
11
291.525
21
-57.4567
0
LINE
8
Black
10
291.525
20
-57.4567
11
291.528
21
-57.4595
0
LINE
8
Black
10
291.528
20
-57.4595
11
291.532
21
-57.4617
0
LINE
8
Black
10
291.532
20
-57.4617
11
291.535
21
-57.465
0
LINE
8
Black
10
291.535
20
-57.465
11
291.538
21
-57.4679
0
LINE
8
Black
10
291.538
20
-57.4679
11
291.54
21
-57.4716
0
LINE
8
Black
10
291.54
20
-57.4716
11
291.543
21
-57.475
0
LINE
8
Black
10
291.543
20
-57.475
11
291.545
21
-57.4791
0
LINE
8
Black
10
291.545
20
-57.4791
11
291.547
21
-57.4829
0
LINE
8
Black
10
291.547
20
-57.4829
11
291.548
21
-57.4872
0
LINE
8
Black
10
291.548
20
-57.4872
11
291.549
21
-57.4913
0
LINE
8
Black
10
291.549
20
-57.4913
11
291.549
21
-57.4957
0
LINE
8
Black
10
291.549
20
-57.4957
11
291.55
21
-57.5
0
LINE
8
Black
10
291.55
20
-57.5
11
291.55
21
-64.45
0
LINE
8
Black
10
291.55
20
-64.45
11
292.45
21
-64.45
0
LINE
8
Black
10
292.45
20
-64.45
11
292.45
21
-57.5
0
LINE
8
Black
10
292.45
20
-57.5
11
292.451
21
-57.4957
0
LINE
8
Black
10
292.451
20
-57.4957
11
292.451
21
-57.4913
0
LINE
8
Black
10
292.451
20
-57.4913
11
292.452
21
-57.4872
0
LINE
8
Black
10
292.452
20
-57.4872
11
292.453
21
-57.4829
0
LINE
8
Black
10
292.453
20
-57.4829
11
292.455
21
-57.4791
0
LINE
8
Black
10
292.455
20
-57.4791
11
292.457
21
-57.475
0
LINE
8
Black
10
292.457
20
-57.475
11
292.46
21
-57.4716
0
LINE
8
Black
10
292.46
20
-57.4716
11
292.462
21
-57.4679
0
LINE
8
Black
10
292.462
20
-57.4679
11
292.465
21
-57.465
0
LINE
8
Black
10
292.465
20
-57.465
11
292.468
21
-57.4617
0
LINE
8
Black
10
292.468
20
-57.4617
11
292.472
21
-57.4595
0
LINE
8
Black
10
292.472
20
-57.4595
11
292.475
21
-57.4567
0
LINE
8
Black
10
292.475
20
-57.4567
11
292.479
21
-57.4552
0
LINE
8
Black
10
292.479
20
-57.4552
11
292.483
21
-57.453
0
LINE
8
Black
10
292.483
20
-57.453
11
292.487
21
-57.4523
0
LINE
8
Black
10
292.487
20
-57.4523
11
292.491
21
-57.4508
0
LINE
8
Black
10
292.491
20
-57.4508
11
292.496
21
-57.4508
0
LINE
8
Black
10
292.496
20
-57.4508
11
292.5
21
-57.45
0
LINE
8
Black
10
292.5
20
-57.45
11
328.75
21
-57.45
0
LINE
8
Black
10
328.75
20
-57.45
11
328.754
21
-57.4508
0
LINE
8
Black
10
328.754
20
-57.4508
11
328.759
21
-57.4508
0
LINE
8
Black
10
328.759
20
-57.4508
11
328.763
21
-57.4523
0
LINE
8
Black
10
328.763
20
-57.4523
11
328.767
21
-57.453
0
LINE
8
Black
10
328.767
20
-57.453
11
328.771
21
-57.4552
0
LINE
8
Black
10
328.771
20
-57.4552
11
328.775
21
-57.4567
0
LINE
8
Black
10
328.775
20
-57.4567
11
328.778
21
-57.4595
0
LINE
8
Black
10
328.778
20
-57.4595
11
328.782
21
-57.4617
0
LINE
8
Black
10
328.782
20
-57.4617
11
328.785
21
-57.465
0
LINE
8
Black
10
328.785
20
-57.465
11
328.788
21
-57.4679
0
LINE
8
Black
10
328.788
20
-57.4679
11
328.79
21
-57.4716
0
LINE
8
Black
10
328.79
20
-57.4716
11
328.793
21
-57.475
0
LINE
8
Black
10
328.793
20
-57.475
11
328.795
21
-57.4791
0
LINE
8
Black
10
328.795
20
-57.4791
11
328.797
21
-57.4829
0
LINE
8
Black
10
328.797
20
-57.4829
11
328.798
21
-57.4872
0
LINE
8
Black
10
328.798
20
-57.4872
11
328.799
21
-57.4913
0
LINE
8
Black
10
328.799
20
-57.4913
11
328.799
21
-57.4957
0
LINE
8
Black
10
328.799
20
-57.4957
11
328.8
21
-57.5
0
LINE
8
Black
10
328.8
20
-57.5
11
328.8
21
-95.5
0
LINE
8
Black
10
328.8
20
-95.5
11
328.799
21
-95.5043
0
LINE
8
Black
10
328.799
20
-95.5043
11
328.799
21
-95.5087
0
LINE
8
Black
10
328.799
20
-95.5087
11
328.798
21
-95.5128
0
LINE
8
Black
10
328.798
20
-95.5128
11
328.797
21
-95.5171
0
LINE
8
Black
10
328.797
20
-95.5171
11
328.795
21
-95.5209
0
LINE
8
Black
10
328.795
20
-95.5209
11
328.793
21
-95.525
0
LINE
8
Black
10
328.793
20
-95.525
11
328.79
21
-95.5284
0
LINE
8
Black
10
328.79
20
-95.5284
11
328.788
21
-95.5321
0
LINE
8
Black
10
328.788
20
-95.5321
11
328.785
21
-95.535
0
LINE
8
Black
10
328.785
20
-95.535
11
328.782
21
-95.5383
0
LINE
8
Black
10
328.782
20
-95.5383
11
328.778
21
-95.5405
0
LINE
8
Black
10
328.778
20
-95.5405
11
328.775
21
-95.5433
0
LINE
8
Black
10
328.775
20
-95.5433
11
328.771
21
-95.5448
0
LINE
8
Black
10
328.771
20
-95.5448
11
328.767
21
-95.547
0
LINE
8
Black
10
328.767
20
-95.547
11
328.763
21
-95.5477
0
LINE
8
Black
10
328.763
20
-95.5477
11
328.759
21
-95.5492
0
LINE
8
Black
10
328.759
20
-95.5492
11
328.754
21
-95.5492
0
LINE
8
Black
10
328.754
20
-95.5492
11
328.75
21
-95.55
0
LINE
8
Black
10
328.75
20
-95.55
11
292.5
21
-95.55
0
LINE
8
Black
10
292.5
20
-95.55
11
292.496
21
-95.5492
0
LINE
8
Black
10
292.496
20
-95.5492
11
292.491
21
-95.5492
0
LINE
8
Black
10
292.491
20
-95.5492
11
292.487
21
-95.5477
0
LINE
8
Black
10
292.487
20
-95.5477
11
292.483
21
-95.547
0
LINE
8
Black
10
292.483
20
-95.547
11
292.479
21
-95.5448
0
LINE
8
Black
10
292.479
20
-95.5448
11
292.475
21
-95.5433
0
LINE
8
Black
10
292.475
20
-95.5433
11
292.472
21
-95.5405
0
LINE
8
Black
10
292.472
20
-95.5405
11
292.468
21
-95.5383
0
LINE
8
Black
10
292.468
20
-95.5383
11
292.465
21
-95.535
0
LINE
8
Black
10
292.465
20
-95.535
11
292.462
21
-95.5321
0
LINE
8
Black
10
292.462
20
-95.5321
11
292.46
21
-95.5284
0
LINE
8
Black
10
292.46
20
-95.5284
11
292.457
21
-95.525
0
LINE
8
Black
10
292.457
20
-95.525
11
292.455
21
-95.5209
0
LINE
8
Black
10
292.455
20
-95.5209
11
292.453
21
-95.5171
0
LINE
8
Black
10
292.453
20
-95.5171
11
292.452
21
-95.5128
0
LINE
8
Black
10
292.452
20
-95.5128
11
292.451
21
-95.5087
0
LINE
8
Black
10
292.451
20
-95.5087
11
292.451
21
-95.5043
0
LINE
8
Black
10
292.451
20
-95.5043
11
292.45
21
-95.5
0
LINE
8
Black
10
292.45
20
-95.5
11
292.45
21
-88.55
0
LINE
8
Black
10
292.45
20
-88.55
11
291.55
21
-88.55
0
LINE
8
Black
10
291.55
20
-88.55
11
291.55
21
-95.5
0
LINE
8
Black
10
291.55
20
-95.5
11
291.549
21
-95.5043
0
LINE
8
Black
10
291.549
20
-95.5043
11
291.549
21
-95.5087
0
LINE
8
Black
10
291.549
20
-95.5087
11
291.548
21
-95.5128
0
LINE
8
Black
10
291.548
20
-95.5128
11
291.547
21
-95.5171
0
LINE
8
Black
10
291.547
20
-95.5171
11
291.545
21
-95.5209
0
LINE
8
Black
10
291.545
20
-95.5209
11
291.543
21
-95.525
0
LINE
8
Black
10
291.543
20
-95.525
11
291.54
21
-95.5284
0
LINE
8
Black
10
291.54
20
-95.5284
11
291.538
21
-95.5321
0
LINE
8
Black
10
291.538
20
-95.5321
11
291.535
21
-95.535
0
LINE
8
Black
10
291.535
20
-95.535
11
291.532
21
-95.5383
0
LINE
8
Black
10
291.532
20
-95.5383
11
291.528
21
-95.5405
0
LINE
8
Black
10
291.528
20
-95.5405
11
291.525
21
-95.5433
0
LINE
8
Black
10
291.525
20
-95.5433
11
291.521
21
-95.5448
0
LINE
8
Black
10
291.521
20
-95.5448
11
291.517
21
-95.547
0
LINE
8
Black
10
291.517
20
-95.547
11
291.513
21
-95.5477
0
LINE
8
Black
10
291.513
20
-95.5477
11
291.509
21
-95.5492
0
LINE
8
Black
10
291.509
20
-95.5492
11
291.504
21
-95.5492
0
LINE
8
Black
10
291.504
20
-95.5492
11
291.5
21
-95.55
0
LINE
8
Black
10
291.5
20
-95.55
11
11.9944
21
-95.5511
0
LINE
8
Black
10
11.9944
20
-95.5511
11
11.9901
21
-95.5504
0
LINE
8
Black
10
11.9901
20
-95.5504
11
11.9857
21
-95.5504
0
LINE
8
Black
10
11.9857
20
-95.5504
11
11.9816
21
-95.5489
0
LINE
8
Black
10
11.9816
20
-95.5489
11
11.9773
21
-95.5481
0
LINE
8
Black
10
11.9773
20
-95.5481
11
11.9735
21
-95.5459
0
LINE
8
Black
10
11.9735
20
-95.5459
11
11.9694
21
-95.5444
0
LINE
8
Black
10
11.9694
20
-95.5444
11
11.9661
21
-95.5416
0
LINE
8
Black
10
11.9661
20
-95.5416
11
11.9623
21
-95.5394
0
LINE
8
Black
10
11.9623
20
-95.5394
11
11.9595
21
-95.5361
0
LINE
8
Black
10
11.9595
20
-95.5361
11
11.9561
21
-95.5333
0
LINE
8
Black
10
11.9561
20
-95.5333
11
11.9539
21
-95.5295
0
LINE
8
Black
10
11.9539
20
-95.5295
11
11.9511
21
-95.5261
0
LINE
8
Black
10
11.9511
20
-95.5261
11
11.9496
21
-95.522
0
LINE
8
Black
10
11.9496
20
-95.522
11
11.9474
21
-95.5182
0
LINE
8
Black
10
11.9474
20
-95.5182
11
11.9467
21
-95.5139
0
LINE
8
Black
10
11.9467
20
-95.5139
11
11.9452
21
-95.5098
0
LINE
8
Black
10
11.9452
20
-95.5098
11
11.9452
21
-95.5055
0
LINE
8
Black
10
11.9452
20
-95.5055
11
11.9444
21
-95.5011
0
LINE
8
Black
10
11.9444
20
-95.5011
11
11.9444
21
-57.5011
0
LINE
8
Black
10
11.9444
20
-57.5011
11
11.9452
21
-57.4968
0
LINE
8
Black
10
11.9452
20
-57.4968
11
11.9452
21
-57.4913
0
LINE
8
Black
10
11.9452
20
-57.4913
11
11.9471
21
-57.4861
0
LINE
8
Black
10
11.9471
20
-57.4861
11
11.9474
21
-57.484
0
LINE
8
Black
10
11.9474
20
-57.484
11
11.9485
21
-57.4822
0
LINE
8
Black
10
11.9485
20
-57.4822
11
11.9511
21
-57.475
0
LINE
8
Black
10
11.9511
20
-57.475
11
11.9561
21
-57.4691
0
LINE
8
Black
10
11.9561
20
-57.4691
11
11.9561
21
-57.469
0
LINE
8
Black
10
11.9561
20
-57.469
11
11.9562
21
-57.4689
0
LINE
8
Black
10
11.9562
20
-57.4689
11
11.9623
21
-57.4617
0
LINE
8
Black
10
11.9623
20
-57.4617
11
11.9773
21
-57.453
0
LINE
8
Black
10
11.9773
20
-57.453
11
11.9944
21
-57.45
0
LINE
8
Black
10
11.9944
20
-57.45
11
291.5
21
-57.45
0
LINE
8
Black
10
291.5
20
-57.45
11
291.504
21
-57.4508
0
LINE
8
Black
10
292.55
20
-57.55
11
292.55
21
-64.5
0
LINE
8
Black
10
292.55
20
-64.5
11
292.549
21
-64.5043
0
LINE
8
Black
10
292.549
20
-64.5043
11
292.549
21
-64.5087
0
LINE
8
Black
10
292.549
20
-64.5087
11
292.548
21
-64.5128
0
LINE
8
Black
10
292.548
20
-64.5128
11
292.547
21
-64.5171
0
LINE
8
Black
10
292.547
20
-64.5171
11
292.545
21
-64.5209
0
LINE
8
Black
10
292.545
20
-64.5209
11
292.543
21
-64.525
0
LINE
8
Black
10
292.543
20
-64.525
11
292.54
21
-64.5284
0
LINE
8
Black
10
292.54
20
-64.5284
11
292.538
21
-64.5321
0
LINE
8
Black
10
292.538
20
-64.5321
11
292.535
21
-64.535
0
LINE
8
Black
10
292.535
20
-64.535
11
292.532
21
-64.5383
0
LINE
8
Black
10
292.532
20
-64.5383
11
292.528
21
-64.5405
0
LINE
8
Black
10
292.528
20
-64.5405
11
292.525
21
-64.5433
0
LINE
8
Black
10
292.525
20
-64.5433
11
292.521
21
-64.5448
0
LINE
8
Black
10
292.521
20
-64.5448
11
292.517
21
-64.547
0
LINE
8
Black
10
292.517
20
-64.547
11
292.513
21
-64.5477
0
LINE
8
Black
10
292.513
20
-64.5477
11
292.509
21
-64.5492
0
LINE
8
Black
10
292.509
20
-64.5492
11
292.504
21
-64.5492
0
LINE
8
Black
10
292.504
20
-64.5492
11
292.5
21
-64.55
0
LINE
8
Black
10
292.5
20
-64.55
11
291.5
21
-64.55
0
LINE
8
Black
10
291.5
20
-64.55
11
291.496
21
-64.5492
0
LINE
8
Black
10
291.496
20
-64.5492
11
291.491
21
-64.5492
0
LINE
8
Black
10
291.491
20
-64.5492
11
291.487
21
-64.5477
0
LINE
8
Black
10
291.487
20
-64.5477
11
291.483
21
-64.547
0
LINE
8
Black
10
291.483
20
-64.547
11
291.479
21
-64.5448
0
LINE
8
Black
10
291.479
20
-64.5448
11
291.475
21
-64.5433
0
LINE
8
Black
10
291.475
20
-64.5433
11
291.472
21
-64.5405
0
LINE
8
Black
10
291.472
20
-64.5405
11
291.468
21
-64.5383
0
LINE
8
Black
10
291.468
20
-64.5383
11
291.465
21
-64.535
0
LINE
8
Black
10
291.465
20
-64.535
11
291.462
21
-64.5321
0
LINE
8
Black
10
291.462
20
-64.5321
11
291.46
21
-64.5284
0
LINE
8
Black
10
291.46
20
-64.5284
11
291.457
21
-64.525
0
LINE
8
Black
10
291.457
20
-64.525
11
291.455
21
-64.5209
0
LINE
8
Black
10
291.455
20
-64.5209
11
291.453
21
-64.5171
0
LINE
8
Black
10
291.453
20
-64.5171
11
291.452
21
-64.5128
0
LINE
8
Black
10
291.452
20
-64.5128
11
291.451
21
-64.5087
0
LINE
8
Black
10
291.451
20
-64.5087
11
291.451
21
-64.5043
0
LINE
8
Black
10
291.451
20
-64.5043
11
291.45
21
-64.5
0
LINE
8
Black
10
291.45
20
-64.5
11
291.45
21
-57.55
0
LINE
8
Black
10
291.45
20
-57.55
11
12.0444
21
-57.55
0
LINE
8
Black
10
12.0444
20
-57.55
11
12.0444
21
-95.4511
0
LINE
8
Black
10
12.0444
20
-95.4511
11
291.45
21
-95.45
0
LINE
8
Black
10
291.45
20
-95.45
11
291.45
21
-88.5
0
LINE
8
Black
10
291.45
20
-88.5
11
291.451
21
-88.4957
0
LINE
8
Black
10
291.451
20
-88.4957
11
291.451
21
-88.4913
0
LINE
8
Black
10
291.451
20
-88.4913
11
291.452
21
-88.4872
0
LINE
8
Black
10
291.452
20
-88.4872
11
291.453
21
-88.4829
0
LINE
8
Black
10
291.453
20
-88.4829
11
291.455
21
-88.4791
0
LINE
8
Black
10
291.455
20
-88.4791
11
291.457
21
-88.475
0
LINE
8
Black
10
291.457
20
-88.475
11
291.46
21
-88.4716
0
LINE
8
Black
10
291.46
20
-88.4716
11
291.462
21
-88.4679
0
LINE
8
Black
10
291.462
20
-88.4679
11
291.465
21
-88.465
0
LINE
8
Black
10
291.465
20
-88.465
11
291.468
21
-88.4617
0
LINE
8
Black
10
291.468
20
-88.4617
11
291.472
21
-88.4595
0
LINE
8
Black
10
291.472
20
-88.4595
11
291.475
21
-88.4567
0
LINE
8
Black
10
291.475
20
-88.4567
11
291.479
21
-88.4552
0
LINE
8
Black
10
291.479
20
-88.4552
11
291.483
21
-88.453
0
LINE
8
Black
10
291.483
20
-88.453
11
291.487
21
-88.4523
0
LINE
8
Black
10
291.487
20
-88.4523
11
291.491
21
-88.4508
0
LINE
8
Black
10
291.491
20
-88.4508
11
291.496
21
-88.4508
0
LINE
8
Black
10
291.496
20
-88.4508
11
291.5
21
-88.45
0
LINE
8
Black
10
291.5
20
-88.45
11
292.5
21
-88.45
0
LINE
8
Black
10
292.5
20
-88.45
11
292.504
21
-88.4508
0
LINE
8
Black
10
292.504
20
-88.4508
11
292.509
21
-88.4508
0
LINE
8
Black
10
292.509
20
-88.4508
11
292.513
21
-88.4523
0
LINE
8
Black
10
292.513
20
-88.4523
11
292.517
21
-88.453
0
LINE
8
Black
10
292.517
20
-88.453
11
292.521
21
-88.4552
0
LINE
8
Black
10
292.521
20
-88.4552
11
292.525
21
-88.4567
0
LINE
8
Black
10
292.525
20
-88.4567
11
292.528
21
-88.4595
0
LINE
8
Black
10
292.528
20
-88.4595
11
292.532
21
-88.4617
0
LINE
8
Black
10
292.532
20
-88.4617
11
292.535
21
-88.465
0
LINE
8
Black
10
292.535
20
-88.465
11
292.538
21
-88.4679
0
LINE
8
Black
10
292.538
20
-88.4679
11
292.54
21
-88.4716
0
LINE
8
Black
10
292.54
20
-88.4716
11
292.543
21
-88.475
0
LINE
8
Black
10
292.543
20
-88.475
11
292.545
21
-88.4791
0
LINE
8
Black
10
292.545
20
-88.4791
11
292.547
21
-88.4829
0
LINE
8
Black
10
292.547
20
-88.4829
11
292.548
21
-88.4872
0
LINE
8
Black
10
292.548
20
-88.4872
11
292.549
21
-88.4913
0
LINE
8
Black
10
292.549
20
-88.4913
11
292.549
21
-88.4957
0
LINE
8
Black
10
292.549
20
-88.4957
11
292.55
21
-88.5
0
LINE
8
Black
10
292.55
20
-88.5
11
292.55
21
-95.45
0
LINE
8
Black
10
292.55
20
-95.45
11
328.7
21
-95.45
0
LINE
8
Black
10
328.7
20
-95.45
11
328.7
21
-57.55
0
LINE
8
Black
10
328.7
20
-57.55
11
292.55
21
-57.55
0
LINE
8
Black
10
288.509
20
-68.9015
11
288.517
21
-68.9015
0
LINE
8
Black
10
288.517
20
-68.9015
11
288.526
21
-68.9045
0
LINE
8
Black
10
288.526
20
-68.9045
11
288.534
21
-68.906
0
LINE
8
Black
10
288.534
20
-68.906
11
288.542
21
-68.9104
0
LINE
8
Black
10
288.542
20
-68.9104
11
288.55
21
-68.9134
0
LINE
8
Black
10
288.55
20
-68.9134
11
288.557
21
-68.919
0
LINE
8
Black
10
288.557
20
-68.919
11
288.564
21
-68.9234
0
LINE
8
Black
10
288.564
20
-68.9234
11
288.57
21
-68.9301
0
LINE
8
Black
10
288.57
20
-68.9301
11
288.577
21
-68.9357
0
LINE
8
Black
10
288.577
20
-68.9357
11
288.581
21
-68.9433
0
LINE
8
Black
10
288.581
20
-68.9433
11
288.587
21
-68.95
0
LINE
8
Black
10
288.587
20
-68.95
11
288.59
21
-68.9582
0
LINE
8
Black
10
288.59
20
-68.9582
11
288.594
21
-68.9658
0
LINE
8
Black
10
288.594
20
-68.9658
11
288.595
21
-68.9744
0
LINE
8
Black
10
288.595
20
-68.9744
11
288.598
21
-68.9826
0
LINE
8
Black
10
288.598
20
-68.9826
11
288.598
21
-68.9914
0
LINE
8
Black
10
288.598
20
-68.9914
11
288.6
21
-69
0
LINE
8
Black
10
288.6
20
-69
11
288.6
21
-85
0
LINE
8
Black
10
288.6
20
-85
11
288.598
21
-85.0086
0
LINE
8
Black
10
288.598
20
-85.0086
11
288.598
21
-85.0174
0
LINE
8
Black
10
288.598
20
-85.0174
11
288.595
21
-85.0256
0
LINE
8
Black
10
288.595
20
-85.0256
11
288.594
21
-85.0342
0
LINE
8
Black
10
288.594
20
-85.0342
11
288.59
21
-85.0418
0
LINE
8
Black
10
288.59
20
-85.0418
11
288.587
21
-85.05
0
LINE
8
Black
10
288.587
20
-85.05
11
288.581
21
-85.0567
0
LINE
8
Black
10
288.581
20
-85.0567
11
288.577
21
-85.0643
0
LINE
8
Black
10
288.577
20
-85.0643
11
288.57
21
-85.0699
0
LINE
8
Black
10
288.57
20
-85.0699
11
288.564
21
-85.0766
0
LINE
8
Black
10
288.564
20
-85.0766
11
288.557
21
-85.081
0
LINE
8
Black
10
288.557
20
-85.081
11
288.55
21
-85.0866
0
LINE
8
Black
10
288.55
20
-85.0866
11
288.542
21
-85.0896
0
LINE
8
Black
10
288.542
20
-85.0896
11
288.534
21
-85.094
0
LINE
8
Black
10
288.534
20
-85.094
11
288.526
21
-85.0955
0
LINE
8
Black
10
288.526
20
-85.0955
11
288.517
21
-85.0985
0
LINE
8
Black
10
288.517
20
-85.0985
11
288.509
21
-85.0985
0
LINE
8
Black
10
288.509
20
-85.0985
11
288.5
21
-85.1
0
LINE
8
Black
10
288.5
20
-85.1
11
272.5
21
-85.1
0
LINE
8
Black
10
272.5
20
-85.1
11
272.491
21
-85.0985
0
LINE
8
Black
10
272.491
20
-85.0985
11
272.483
21
-85.0985
0
LINE
8
Black
10
272.483
20
-85.0985
11
272.474
21
-85.0955
0
LINE
8
Black
10
272.474
20
-85.0955
11
272.466
21
-85.094
0
LINE
8
Black
10
272.466
20
-85.094
11
272.458
21
-85.0896
0
LINE
8
Black
10
272.458
20
-85.0896
11
272.45
21
-85.0866
0
LINE
8
Black
10
272.45
20
-85.0866
11
272.443
21
-85.081
0
LINE
8
Black
10
272.443
20
-85.081
11
272.436
21
-85.0766
0
LINE
8
Black
10
272.436
20
-85.0766
11
272.43
21
-85.0699
0
LINE
8
Black
10
272.43
20
-85.0699
11
272.423
21
-85.0643
0
LINE
8
Black
10
272.423
20
-85.0643
11
272.419
21
-85.0567
0
LINE
8
Black
10
272.419
20
-85.0567
11
272.413
21
-85.05
0
LINE
8
Black
10
272.413
20
-85.05
11
272.41
21
-85.0418
0
LINE
8
Black
10
272.41
20
-85.0418
11
272.406
21
-85.0342
0
LINE
8
Black
10
272.406
20
-85.0342
11
272.405
21
-85.0256
0
LINE
8
Black
10
272.405
20
-85.0256
11
272.402
21
-85.0174
0
LINE
8
Black
10
272.402
20
-85.0174
11
272.402
21
-85.0086
0
LINE
8
Black
10
272.402
20
-85.0086
11
272.4
21
-85
0
LINE
8
Black
10
272.4
20
-85
11
272.4
21
-73
0
LINE
8
Black
10
272.4
20
-73
11
272.401
21
-72.9957
0
LINE
8
Black
10
272.401
20
-72.9957
11
272.4
21
-72.9913
0
LINE
8
Black
10
272.4
20
-72.9913
11
272.404
21
-72.9787
0
LINE
8
Black
10
272.404
20
-72.9787
11
272.406
21
-72.9658
0
LINE
8
Black
10
272.406
20
-72.9658
11
272.408
21
-72.962
0
LINE
8
Black
10
272.408
20
-72.962
11
272.409
21
-72.9577
0
LINE
8
Black
10
272.409
20
-72.9577
11
272.417
21
-72.947
0
LINE
8
Black
10
272.417
20
-72.947
11
272.423
21
-72.9357
0
LINE
8
Black
10
272.423
20
-72.9357
11
272.427
21
-72.9329
0
LINE
8
Black
10
272.427
20
-72.9329
11
272.429
21
-72.9293
0
LINE
8
Black
10
272.429
20
-72.9293
11
276.429
21
-68.9293
0
LINE
8
Black
10
276.429
20
-68.9293
11
276.433
21
-68.9268
0
LINE
8
Black
10
276.433
20
-68.9268
11
276.436
21
-68.9234
0
LINE
8
Black
10
276.436
20
-68.9234
11
276.447
21
-68.9169
0
LINE
8
Black
10
276.447
20
-68.9169
11
276.458
21
-68.9094
0
LINE
8
Black
10
276.458
20
-68.9094
11
276.462
21
-68.9082
0
LINE
8
Black
10
276.462
20
-68.9082
11
276.466
21
-68.906
0
LINE
8
Black
10
276.466
20
-68.906
11
276.479
21
-68.9038
0
LINE
8
Black
10
276.479
20
-68.9038
11
276.491
21
-68.9004
0
LINE
8
Black
10
276.491
20
-68.9004
11
276.496
21
-68.9008
0
LINE
8
Black
10
276.496
20
-68.9008
11
276.5
21
-68.9
0
LINE
8
Black
10
276.5
20
-68.9
11
288.5
21
-68.9
0
LINE
8
Black
10
288.5
20
-68.9
11
288.509
21
-68.9015
0
LINE
8
Black
10
276.541
20
-69.1
11
272.6
21
-73.0414
0
LINE
8
Black
10
272.6
20
-73.0414
11
272.6
21
-84.9
0
LINE
8
Black
10
272.6
20
-84.9
11
288.4
21
-84.9
0
LINE
8
Black
10
288.4
20
-84.9
11
288.4
21
-69.1
0
LINE
8
Black
10
288.4
20
-69.1
11
276.541
21
-69.1
0
LINE
8
Black
10
292.504
20
-68.9508
11
292.509
21
-68.9508
0
LINE
8
Black
10
292.509
20
-68.9508
11
292.513
21
-68.9523
0
LINE
8
Black
10
292.513
20
-68.9523
11
292.517
21
-68.953
0
LINE
8
Black
10
292.517
20
-68.953
11
292.521
21
-68.9552
0
LINE
8
Black
10
292.521
20
-68.9552
11
292.525
21
-68.9567
0
LINE
8
Black
10
292.525
20
-68.9567
11
292.528
21
-68.9595
0
LINE
8
Black
10
292.528
20
-68.9595
11
292.532
21
-68.9617
0
LINE
8
Black
10
292.532
20
-68.9617
11
292.535
21
-68.965
0
LINE
8
Black
10
292.535
20
-68.965
11
292.538
21
-68.9679
0
LINE
8
Black
10
292.538
20
-68.9679
11
292.54
21
-68.9716
0
LINE
8
Black
10
292.54
20
-68.9716
11
292.543
21
-68.975
0
LINE
8
Black
10
292.543
20
-68.975
11
292.545
21
-68.9791
0
LINE
8
Black
10
292.545
20
-68.9791
11
292.547
21
-68.9829
0
LINE
8
Black
10
292.547
20
-68.9829
11
292.548
21
-68.9872
0
LINE
8
Black
10
292.548
20
-68.9872
11
292.549
21
-68.9913
0
LINE
8
Black
10
292.549
20
-68.9913
11
292.549
21
-68.9957
0
LINE
8
Black
10
292.549
20
-68.9957
11
292.55
21
-69
0
LINE
8
Black
10
292.55
20
-69
11
292.55
21
-84
0
LINE
8
Black
10
292.55
20
-84
11
292.549
21
-84.0043
0
LINE
8
Black
10
292.549
20
-84.0043
11
292.549
21
-84.0087
0
LINE
8
Black
10
292.549
20
-84.0087
11
292.548
21
-84.0128
0
LINE
8
Black
10
292.548
20
-84.0128
11
292.547
21
-84.0171
0
LINE
8
Black
10
292.547
20
-84.0171
11
292.545
21
-84.0209
0
LINE
8
Black
10
292.545
20
-84.0209
11
292.543
21
-84.025
0
LINE
8
Black
10
292.543
20
-84.025
11
292.54
21
-84.0284
0
LINE
8
Black
10
292.54
20
-84.0284
11
292.538
21
-84.0321
0
LINE
8
Black
10
292.538
20
-84.0321
11
292.535
21
-84.035
0
LINE
8
Black
10
292.535
20
-84.035
11
292.532
21
-84.0383
0
LINE
8
Black
10
292.532
20
-84.0383
11
292.528
21
-84.0405
0
LINE
8
Black
10
292.528
20
-84.0405
11
292.525
21
-84.0433
0
LINE
8
Black
10
292.525
20
-84.0433
11
292.521
21
-84.0448
0
LINE
8
Black
10
292.521
20
-84.0448
11
292.517
21
-84.047
0
LINE
8
Black
10
292.517
20
-84.047
11
292.513
21
-84.0477
0
LINE
8
Black
10
292.513
20
-84.0477
11
292.509
21
-84.0492
0
LINE
8
Black
10
292.509
20
-84.0492
11
292.504
21
-84.0492
0
LINE
8
Black
10
292.504
20
-84.0492
11
292.5
21
-84.05
0
LINE
8
Black
10
292.5
20
-84.05
11
291.5
21
-84.05
0
LINE
8
Black
10
291.5
20
-84.05
11
291.496
21
-84.0492
0
LINE
8
Black
10
291.496
20
-84.0492
11
291.491
21
-84.0492
0
LINE
8
Black
10
291.491
20
-84.0492
11
291.487
21
-84.0477
0
LINE
8
Black
10
291.487
20
-84.0477
11
291.483
21
-84.047
0
LINE
8
Black
10
291.483
20
-84.047
11
291.479
21
-84.0448
0
LINE
8
Black
10
291.479
20
-84.0448
11
291.475
21
-84.0433
0
LINE
8
Black
10
291.475
20
-84.0433
11
291.472
21
-84.0405
0
LINE
8
Black
10
291.472
20
-84.0405
11
291.468
21
-84.0383
0
LINE
8
Black
10
291.468
20
-84.0383
11
291.465
21
-84.035
0
LINE
8
Black
10
291.465
20
-84.035
11
291.462
21
-84.0321
0
LINE
8
Black
10
291.462
20
-84.0321
11
291.46
21
-84.0284
0
LINE
8
Black
10
291.46
20
-84.0284
11
291.457
21
-84.025
0
LINE
8
Black
10
291.457
20
-84.025
11
291.455
21
-84.0209
0
LINE
8
Black
10
291.455
20
-84.0209
11
291.453
21
-84.0171
0
LINE
8
Black
10
291.453
20
-84.0171
11
291.452
21
-84.0128
0
LINE
8
Black
10
291.452
20
-84.0128
11
291.451
21
-84.0087
0
LINE
8
Black
10
291.451
20
-84.0087
11
291.451
21
-84.0043
0
LINE
8
Black
10
291.451
20
-84.0043
11
291.45
21
-84
0
LINE
8
Black
10
291.45
20
-84
11
291.45
21
-69
0
LINE
8
Black
10
291.45
20
-69
11
291.451
21
-68.9957
0
LINE
8
Black
10
291.451
20
-68.9957
11
291.451
21
-68.9913
0
LINE
8
Black
10
291.451
20
-68.9913
11
291.452
21
-68.9872
0
LINE
8
Black
10
291.452
20
-68.9872
11
291.453
21
-68.9829
0
LINE
8
Black
10
291.453
20
-68.9829
11
291.455
21
-68.9791
0
LINE
8
Black
10
291.455
20
-68.9791
11
291.457
21
-68.975
0
LINE
8
Black
10
291.457
20
-68.975
11
291.46
21
-68.9716
0
LINE
8
Black
10
291.46
20
-68.9716
11
291.462
21
-68.9679
0
LINE
8
Black
10
291.462
20
-68.9679
11
291.465
21
-68.965
0
LINE
8
Black
10
291.465
20
-68.965
11
291.468
21
-68.9617
0
LINE
8
Black
10
291.468
20
-68.9617
11
291.472
21
-68.9595
0
LINE
8
Black
10
291.472
20
-68.9595
11
291.475
21
-68.9567
0
LINE
8
Black
10
291.475
20
-68.9567
11
291.479
21
-68.9552
0
LINE
8
Black
10
291.479
20
-68.9552
11
291.483
21
-68.953
0
LINE
8
Black
10
291.483
20
-68.953
11
291.487
21
-68.9523
0
LINE
8
Black
10
291.487
20
-68.9523
11
291.491
21
-68.9508
0
LINE
8
Black
10
291.491
20
-68.9508
11
291.496
21
-68.9508
0
LINE
8
Black
10
291.496
20
-68.9508
11
291.5
21
-68.95
0
LINE
8
Black
10
291.5
20
-68.95
11
292.5
21
-68.95
0
LINE
8
Black
10
292.5
20
-68.95
11
292.504
21
-68.9508
0
LINE
8
Black
10
291.55
20
-69.05
11
291.55
21
-83.95
0
LINE
8
Black
10
291.55
20
-83.95
11
292.45
21
-83.95
0
LINE
8
Black
10
292.45
20
-83.95
11
292.45
21
-69.05
0
LINE
8
Black
10
292.45
20
-69.05
11
291.55
21
-69.05
  0
ENDSEC
  0
EOF
