M48
;DRILL file {KiCad 4.0.2-stable} date 2019-09-27 10:43:39 AM
;FORMAT={2:4/ absolute / inch / suppress leading zeros}
FMAT,2
INCH,TZ
T1C0.016
T2C0.020
T3C0.025
T4C0.039
T5C0.047
T6C0.047
T7C0.053
T8C0.055
T9C0.059
%
G90
G05
M72
T1
X41831Y-32972
X42717Y-34961
X43504Y-33937
X43622Y-32992
X49114Y-34252
X50433Y-35669
X55472Y-34409
X56378Y-34449
X58189Y-33661
X58465Y-34449
X103386Y-24134
X105369Y-24912
X106220Y-28543
T2
X5709Y-32598
X6575Y-32598
X7402Y-32598
X8150Y-32598
X11260Y-32795
X11260Y-33189
X11260Y-33583
X11969Y-33583
X34252Y-26476
X34843Y-28346
X39567Y-33465
X40591Y-26220
X40630Y-31220
X40945Y-33366
X42612Y-36271
X47677Y-26220
X48130Y-30807
X51083Y-34547
X53425Y-35551
X54528Y-33740
X54764Y-31220
X54803Y-26220
X55531Y-36327
X56693Y-31693
X61850Y-26220
X61850Y-31220
X68976Y-26220
X68976Y-31260
X76024Y-31220
X76063Y-26220
X89724Y-34409
X91105Y-35116
X92362Y-34843
X92894Y-36772
X93583Y-35787
X98504Y-31378
X99114Y-25689
X104764Y-25236
X105246Y-27374
X106890Y-23386
X107008Y-26870
X108091Y-23583
X109449Y-24961
T4
X13232Y-35031
X13232Y-36031
X14232Y-35031
X14232Y-36031
X15232Y-35031
X15232Y-36031
X16232Y-35031
X16232Y-36031
X17232Y-35031
X17232Y-36031
X18232Y-35031
X18232Y-36031
X19232Y-35031
X19232Y-36031
X20232Y-35031
X20232Y-36031
X33646Y-35031
X33646Y-36031
X34646Y-35031
X34646Y-36031
X35646Y-35031
X35646Y-36031
X46146Y-35031
X46146Y-36031
X47146Y-35031
X47146Y-36031
X48146Y-35031
X48146Y-36031
X101000Y-35000
X102000Y-35000
X103000Y-35000
X104000Y-35000
X105000Y-35000
X106000Y-35000
X107000Y-35000
X110000Y-35000
X111000Y-35000
X112000Y-35000
T5
X84154Y-33071
T6
X5709Y-30315
X5709Y-31512
X7709Y-34039
X7709Y-35039
X7709Y-36039
X26587Y-34039
X26587Y-35039
X26587Y-36039
T8
X13189Y-28445
X13823Y-29976
X15354Y-30610
X16886Y-29976
X17520Y-28445
X21850Y-28445
X22484Y-29976
X24016Y-30610
X25547Y-29976
X26181Y-28445
T9
X15354Y-26673
X24016Y-26673
T2
X29173Y-25591G85X29173Y-24803
G05
X29173Y-30709G85X29173Y-29921
G05
X32402Y-25591G85X32402Y-24803
G05
X32402Y-30709G85X32402Y-29921
G05
X36260Y-25591G85X36260Y-24803
G05
X36260Y-30709G85X36260Y-29921
G05
X39488Y-25591G85X39488Y-24803
G05
X39488Y-30709G85X39488Y-29921
G05
X43346Y-25591G85X43346Y-24803
G05
X43346Y-30709G85X43346Y-29921
G05
X46575Y-25591G85X46575Y-24803
G05
X46575Y-30709G85X46575Y-29921
G05
X50433Y-25591G85X50433Y-24803
G05
X50433Y-30709G85X50433Y-29921
G05
X53661Y-25591G85X53661Y-24803
G05
X53661Y-30709G85X53661Y-29921
G05
X57520Y-25591G85X57520Y-24803
G05
X57520Y-30709G85X57520Y-29921
G05
X60748Y-25591G85X60748Y-24803
G05
X60748Y-30709G85X60748Y-29921
G05
X64606Y-25591G85X64606Y-24803
G05
X64606Y-30709G85X64606Y-29921
G05
X67835Y-25591G85X67835Y-24803
G05
X67835Y-30709G85X67835Y-29921
G05
X71693Y-25591G85X71693Y-24803
G05
X71693Y-30709G85X71693Y-29921
G05
X74921Y-25591G85X74921Y-24803
G05
X74921Y-30709G85X74921Y-29921
G05
X78780Y-25591G85X78780Y-24803
G05
X78780Y-30709G85X78780Y-29921
G05
X82008Y-25591G85X82008Y-24803
G05
X82008Y-30709G85X82008Y-29921
G05
X85866Y-25591G85X85866Y-24803
G05
X85866Y-30709G85X85866Y-29921
G05
X89094Y-25591G85X89094Y-24803
G05
X89094Y-30709G85X89094Y-29921
G05
X92953Y-25591G85X92953Y-24803
G05
X92953Y-30709G85X92953Y-29921
G05
X96181Y-25591G85X96181Y-24803
G05
X96181Y-30709G85X96181Y-29921
G05
X100039Y-25591G85X100039Y-24803
G05
X100039Y-30709G85X100039Y-29921
G05
X103268Y-25591G85X103268Y-24803
G05
X103268Y-30709G85X103268Y-29921
G05
T3
X6602Y-27568G85X6343Y-28534
G05
X8472Y-29945G85X7472Y-29945
G05
X9472Y-27945G85X9472Y-28945
G05
T4
X13110Y-28445G85X14370Y-28445
G05
X13767Y-30032G85X14658Y-29141
G05
X15354Y-30689G85X15354Y-29429
G05
X16051Y-29141G85X16941Y-30032
G05
X16339Y-28445G85X17598Y-28445
G05
X21772Y-28445G85X23031Y-28445
G05
X22429Y-30032G85X23319Y-29141
G05
X24016Y-30689G85X24016Y-29429
G05
X24712Y-29141G85X25603Y-30032
G05
X25000Y-28445G85X26260Y-28445
G05
X31004Y-23346G85X31201Y-23346
G05
X30807Y-27047G85X31398Y-27047
G05
X31004Y-28465G85X31201Y-28465
G05
X30807Y-32165G85X31398Y-32165
G05
X38091Y-23346G85X38287Y-23346
G05
X37894Y-27047G85X38484Y-27047
G05
X38091Y-28465G85X38287Y-28465
G05
X37894Y-32165G85X38484Y-32165
G05
X45177Y-23346G85X45374Y-23346
G05
X44980Y-27047G85X45571Y-27047
G05
X45177Y-28465G85X45374Y-28465
G05
X44980Y-32165G85X45571Y-32165
G05
X52264Y-23346G85X52461Y-23346
G05
X52067Y-27047G85X52657Y-27047
G05
X52264Y-28465G85X52461Y-28465
G05
X52067Y-32165G85X52657Y-32165
G05
X59350Y-23346G85X59547Y-23346
G05
X59154Y-27047G85X59744Y-27047
G05
X59350Y-28465G85X59547Y-28465
G05
X59154Y-32165G85X59744Y-32165
G05
X66437Y-23346G85X66634Y-23346
G05
X66240Y-27047G85X66831Y-27047
G05
X66437Y-28465G85X66634Y-28465
G05
X66240Y-32165G85X66831Y-32165
G05
X73524Y-23346G85X73720Y-23346
G05
X73327Y-27047G85X73917Y-27047
G05
X73524Y-28465G85X73720Y-28465
G05
X73327Y-32165G85X73917Y-32165
G05
X80610Y-23346G85X80807Y-23346
G05
X80413Y-27047G85X81004Y-27047
G05
X80610Y-28465G85X80807Y-28465
G05
X80413Y-32165G85X81004Y-32165
G05
X87697Y-23346G85X87894Y-23346
G05
X87500Y-27047G85X88091Y-27047
G05
X87697Y-28465G85X87894Y-28465
G05
X87500Y-32165G85X88091Y-32165
G05
X94783Y-23346G85X94980Y-23346
G05
X94587Y-27047G85X95177Y-27047
G05
X94783Y-28465G85X94980Y-28465
G05
X94587Y-32165G85X95177Y-32165
G05
X101870Y-23346G85X102067Y-23346
G05
X101673Y-27047G85X102264Y-27047
G05
X101870Y-28465G85X102067Y-28465
G05
X101673Y-32165G85X102264Y-32165
G05
T7
X14734Y-26673G85X15974Y-26673
G05
X23396Y-26673G85X24636Y-26673
G05
T0
M30
