G04 #@! TF.FileFunction,Copper,L2,Inr,Signal*
%FSLAX46Y46*%
G04 Gerber Fmt 4.6, Leading zero omitted, Abs format (unit mm)*
G04 Created by KiCad (PCBNEW 4.0.2-stable) date 2019-09-27 10:43:36 AM*
%MOMM*%
G01*
G04 APERTURE LIST*
%ADD10C,0.200000*%
%ADD11R,5.080000X2.540000*%
%ADD12O,2.540000X5.080000*%
%ADD13C,2.540000*%
%ADD14R,1.500000X2.000000*%
%ADD15O,1.500000X2.000000*%
%ADD16O,4.000000X2.500000*%
%ADD17O,2.500000X2.000000*%
%ADD18O,1.500000X3.500000*%
%ADD19R,2.600000X1.800000*%
%ADD20O,2.600000X1.800000*%
%ADD21R,1.700000X1.700000*%
%ADD22O,1.700000X1.700000*%
%ADD23R,2.800000X1.600000*%
%ADD24C,2.500000*%
%ADD25R,2.500000X3.500000*%
%ADD26O,4.600000X1.450000*%
%ADD27O,4.300000X1.100000*%
%ADD28O,1.100000X4.300000*%
%ADD29C,1.100000*%
%ADD30R,1.800000X1.800000*%
%ADD31C,1.800000*%
%ADD32C,1.000000*%
%ADD33C,0.800000*%
%ADD34C,1.000000*%
G04 APERTURE END LIST*
D10*
D11*
X20250000Y-76060000D03*
D12*
X24060000Y-72250000D03*
D13*
X16768700Y-70023274D02*
X16111300Y-72476726D01*
D14*
X122290000Y-91770000D03*
D15*
X122290000Y-88730000D03*
X119750000Y-91770000D03*
X119750000Y-88730000D03*
X117210000Y-91770000D03*
X117210000Y-88730000D03*
D16*
X79000000Y-81700000D03*
D17*
X79000000Y-72300000D03*
D18*
X74100000Y-77000000D03*
X82300000Y-77000000D03*
D16*
X79000000Y-68700000D03*
D17*
X79000000Y-59300000D03*
D18*
X74100000Y-64000000D03*
X82300000Y-64000000D03*
D16*
X97000000Y-68700000D03*
D17*
X97000000Y-59300000D03*
D18*
X92100000Y-64000000D03*
X100300000Y-64000000D03*
D16*
X97000000Y-81700000D03*
D17*
X97000000Y-72300000D03*
D18*
X92100000Y-77000000D03*
X100300000Y-77000000D03*
D16*
X115000000Y-68700000D03*
D17*
X115000000Y-59300000D03*
D18*
X110100000Y-64000000D03*
X118300000Y-64000000D03*
D16*
X115000000Y-81700000D03*
D17*
X115000000Y-72300000D03*
D18*
X110100000Y-77000000D03*
X118300000Y-77000000D03*
D16*
X133000000Y-68700000D03*
D17*
X133000000Y-59300000D03*
D18*
X128100000Y-64000000D03*
X136300000Y-64000000D03*
D16*
X133000000Y-81700000D03*
D17*
X133000000Y-72300000D03*
D18*
X128100000Y-77000000D03*
X136300000Y-77000000D03*
D16*
X151000000Y-68700000D03*
D17*
X151000000Y-59300000D03*
D18*
X146100000Y-64000000D03*
X154300000Y-64000000D03*
D16*
X151000000Y-81700000D03*
D17*
X151000000Y-72300000D03*
D18*
X146100000Y-77000000D03*
X154300000Y-77000000D03*
D16*
X169000000Y-68700000D03*
D17*
X169000000Y-59300000D03*
D18*
X164100000Y-64000000D03*
X172300000Y-64000000D03*
D16*
X169000000Y-81700000D03*
D17*
X169000000Y-72300000D03*
D18*
X164100000Y-77000000D03*
X172300000Y-77000000D03*
D16*
X187000000Y-68700000D03*
D17*
X187000000Y-59300000D03*
D18*
X182100000Y-64000000D03*
X190300000Y-64000000D03*
D16*
X187000000Y-81700000D03*
D17*
X187000000Y-72300000D03*
D18*
X182100000Y-77000000D03*
X190300000Y-77000000D03*
D16*
X205000000Y-68700000D03*
D17*
X205000000Y-59300000D03*
D18*
X200100000Y-64000000D03*
X208300000Y-64000000D03*
D16*
X205000000Y-81700000D03*
D17*
X205000000Y-72300000D03*
D18*
X200100000Y-77000000D03*
X208300000Y-77000000D03*
D16*
X223000000Y-68700000D03*
D17*
X223000000Y-59300000D03*
D18*
X218100000Y-64000000D03*
X226300000Y-64000000D03*
D16*
X223000000Y-81700000D03*
D17*
X223000000Y-72300000D03*
D18*
X218100000Y-77000000D03*
X226300000Y-77000000D03*
D16*
X241000000Y-68700000D03*
D17*
X241000000Y-59300000D03*
D18*
X236100000Y-64000000D03*
X244300000Y-64000000D03*
D16*
X241000000Y-81700000D03*
D17*
X241000000Y-72300000D03*
D18*
X236100000Y-77000000D03*
X244300000Y-77000000D03*
D16*
X259000000Y-81700000D03*
D17*
X259000000Y-72300000D03*
D18*
X254100000Y-77000000D03*
X262300000Y-77000000D03*
D16*
X259000000Y-68700000D03*
D17*
X259000000Y-59300000D03*
D18*
X254100000Y-64000000D03*
X262300000Y-64000000D03*
D14*
X90540000Y-91770000D03*
D15*
X90540000Y-88730000D03*
X88000000Y-91770000D03*
X88000000Y-88730000D03*
X85460000Y-91770000D03*
X85460000Y-88730000D03*
D19*
X14500000Y-77000000D03*
D20*
X14500000Y-80040000D03*
D21*
X284480000Y-88900000D03*
D22*
X281940000Y-88900000D03*
X279400000Y-88900000D03*
D23*
X213750000Y-84000000D03*
D24*
X33500000Y-72250000D03*
X44500000Y-72250000D03*
X39000000Y-77750000D03*
D25*
X39000000Y-67750000D03*
D24*
X35110000Y-76140000D03*
X42890000Y-76140000D03*
D26*
X39000000Y-67750000D03*
D27*
X34900000Y-72250000D03*
X43100000Y-72250000D03*
D28*
X39000000Y-76350000D03*
D29*
X34968629Y-76281371D02*
X37231371Y-74018629D01*
X40768629Y-74018629D02*
X43031371Y-76281371D01*
D24*
X55500000Y-72250000D03*
X66500000Y-72250000D03*
X61000000Y-77750000D03*
D25*
X61000000Y-67750000D03*
D24*
X57110000Y-76140000D03*
X64890000Y-76140000D03*
D26*
X61000000Y-67750000D03*
D27*
X56900000Y-72250000D03*
X65100000Y-72250000D03*
D28*
X61000000Y-76350000D03*
D29*
X56968629Y-76281371D02*
X59231371Y-74018629D01*
X62768629Y-74018629D02*
X65031371Y-76281371D01*
D30*
X67530000Y-86460000D03*
D31*
X67530000Y-89000000D03*
X67530000Y-91540000D03*
D30*
X19580000Y-86460000D03*
D31*
X19580000Y-89000000D03*
X19580000Y-91540000D03*
D21*
X264160000Y-88900000D03*
D22*
X261620000Y-88900000D03*
X259080000Y-88900000D03*
X256540000Y-88900000D03*
D21*
X266700000Y-88900000D03*
D22*
X269240000Y-88900000D03*
X271780000Y-88900000D03*
D15*
X33610000Y-88730000D03*
X33610000Y-91770000D03*
X36150000Y-91770000D03*
X36150000Y-88730000D03*
X38690000Y-88730000D03*
X38690000Y-91770000D03*
X41230000Y-91770000D03*
X41230000Y-88730000D03*
X43770000Y-88730000D03*
X43770000Y-91770000D03*
D14*
X51390000Y-91770000D03*
D15*
X51390000Y-88730000D03*
X48850000Y-91770000D03*
X48850000Y-88730000D03*
X46310000Y-91770000D03*
X46310000Y-88730000D03*
D32*
X237700000Y-90900000D03*
X266100000Y-64100000D03*
X231406705Y-89195709D03*
X234600000Y-88500000D03*
X16700000Y-82800000D03*
X18800000Y-82800000D03*
X20700000Y-82800000D03*
X14500000Y-82800000D03*
X28600000Y-84300000D03*
X28600000Y-85300000D03*
X30400000Y-85300000D03*
X28600000Y-83300000D03*
X138500000Y-85700000D03*
X141048912Y-92269981D03*
X175199996Y-79400000D03*
X193100000Y-79299998D03*
X157100004Y-79300000D03*
X139100000Y-79300000D03*
X103199998Y-79300000D03*
X193199992Y-66600000D03*
X175199994Y-66600000D03*
X157100000Y-66600000D03*
X139200000Y-66600004D03*
X121100000Y-66600000D03*
X103100000Y-66600008D03*
X87000000Y-67250000D03*
X100500000Y-85000000D03*
X88500000Y-72000000D03*
X122250000Y-78250000D03*
X250200006Y-79700000D03*
X271500002Y-59400000D03*
X235950000Y-93400000D03*
X274550000Y-59900000D03*
X227900000Y-87400000D03*
X278000000Y-63400000D03*
X267324980Y-69530678D03*
X271800000Y-68249402D03*
X251750000Y-65250000D03*
D33*
X143200000Y-87500000D03*
X108500000Y-88800013D03*
X128100000Y-90600000D03*
X110500000Y-86200002D03*
X124750000Y-87000000D03*
X147800000Y-85500000D03*
X262600000Y-61300000D03*
X110800000Y-83800000D03*
X106250000Y-83750000D03*
X267637228Y-63277366D03*
X269800000Y-72500000D03*
X140900000Y-87400000D03*
X148500000Y-87500000D03*
D32*
X108234288Y-92127290D03*
X104000000Y-84750000D03*
X135700000Y-90300000D03*
X144000000Y-80500000D03*
X129750000Y-87750000D03*
D34*
X41230000Y-88980000D02*
X41230000Y-87270000D01*
X70800000Y-83400000D02*
X74500000Y-87100000D01*
X41230000Y-87270000D02*
X45100000Y-83400000D01*
X45100000Y-83400000D02*
X70800000Y-83400000D01*
X74500000Y-87100000D02*
X74500000Y-90700000D01*
X74500000Y-90700000D02*
X77800000Y-94000000D01*
X77800000Y-94000000D02*
X225500000Y-94000000D01*
X225500000Y-94000000D02*
X226100000Y-93400000D01*
X226100000Y-93400000D02*
X235950000Y-93400000D01*
X41230000Y-91520000D02*
X41230000Y-88980000D01*
M02*
