G04 #@! TF.FileFunction,Legend,Top*
%FSLAX46Y46*%
G04 Gerber Fmt 4.6, Leading zero omitted, Abs format (unit mm)*
G04 Created by KiCad (PCBNEW 4.0.2-stable) date 2019-09-27 10:43:36 AM*
%MOMM*%
G01*
G04 APERTURE LIST*
%ADD10C,0.200000*%
%ADD11C,0.300000*%
%ADD12C,0.150000*%
%ADD13C,1.500000*%
%ADD14R,5.180000X2.640000*%
%ADD15O,2.640000X5.180000*%
%ADD16C,2.640000*%
%ADD17R,1.600000X2.100000*%
%ADD18O,1.600000X2.100000*%
%ADD19O,4.100000X2.600000*%
%ADD20O,2.600000X2.100000*%
%ADD21O,1.600000X3.600000*%
%ADD22R,2.700000X1.900000*%
%ADD23O,2.700000X1.900000*%
%ADD24R,1.800000X1.800000*%
%ADD25O,1.800000X1.800000*%
%ADD26R,2.900000X1.700000*%
%ADD27C,2.600000*%
%ADD28R,2.600000X3.600000*%
%ADD29O,4.700000X1.550000*%
%ADD30O,4.400000X1.200000*%
%ADD31O,1.200000X4.400000*%
%ADD32C,1.200000*%
%ADD33R,1.900000X1.900000*%
%ADD34C,1.900000*%
G04 APERTURE END LIST*
D10*
D11*
X111750000Y-94950000D02*
X111750000Y-85550000D01*
X127750000Y-94950000D02*
X111750000Y-94950000D01*
X127750000Y-85550000D02*
X127750000Y-94950000D01*
X111750000Y-85550000D02*
X127750000Y-85550000D01*
X80000000Y-94950000D02*
X80000000Y-85550000D01*
X96000000Y-94950000D02*
X80000000Y-94950000D01*
X96000000Y-85550000D02*
X96000000Y-94950000D01*
X80000000Y-85550000D02*
X96000000Y-85550000D01*
X56700000Y-85550000D02*
X28300000Y-85550000D01*
X56700000Y-94950000D02*
X56700000Y-85550000D01*
X28300000Y-94950000D02*
X56700000Y-94950000D01*
D10*
X28300000Y-94950000D02*
X28350000Y-94950000D01*
D11*
X28300000Y-85550000D02*
X28300000Y-94950000D01*
D12*
X118773810Y-94702381D02*
X118773810Y-93702381D01*
X119202381Y-94654762D02*
X119345238Y-94702381D01*
X119583334Y-94702381D01*
X119678572Y-94654762D01*
X119726191Y-94607143D01*
X119773810Y-94511905D01*
X119773810Y-94416667D01*
X119726191Y-94321429D01*
X119678572Y-94273810D01*
X119583334Y-94226190D01*
X119392857Y-94178571D01*
X119297619Y-94130952D01*
X119250000Y-94083333D01*
X119202381Y-93988095D01*
X119202381Y-93892857D01*
X119250000Y-93797619D01*
X119297619Y-93750000D01*
X119392857Y-93702381D01*
X119630953Y-93702381D01*
X119773810Y-93750000D01*
X120202381Y-94702381D02*
X120202381Y-93702381D01*
X120583334Y-93702381D01*
X120678572Y-93750000D01*
X120726191Y-93797619D01*
X120773810Y-93892857D01*
X120773810Y-94035714D01*
X120726191Y-94130952D01*
X120678572Y-94178571D01*
X120583334Y-94226190D01*
X120202381Y-94226190D01*
X82761905Y-94702381D02*
X82761905Y-93702381D01*
X83000000Y-93702381D01*
X83142858Y-93750000D01*
X83238096Y-93845238D01*
X83285715Y-93940476D01*
X83333334Y-94130952D01*
X83333334Y-94273810D01*
X83285715Y-94464286D01*
X83238096Y-94559524D01*
X83142858Y-94654762D01*
X83000000Y-94702381D01*
X82761905Y-94702381D01*
X83761905Y-94702381D02*
X83761905Y-93702381D01*
X84238095Y-94702381D02*
X84238095Y-93702381D01*
X84809524Y-94702381D01*
X84809524Y-93702381D01*
X86047619Y-94178571D02*
X86380953Y-94178571D01*
X86523810Y-94702381D02*
X86047619Y-94702381D01*
X86047619Y-93702381D01*
X86523810Y-93702381D01*
X86857143Y-93702381D02*
X87523810Y-94702381D01*
X87523810Y-93702381D02*
X86857143Y-94702381D01*
X87904762Y-94702381D02*
X87904762Y-93702381D01*
X88285715Y-93702381D01*
X88380953Y-93750000D01*
X88428572Y-93797619D01*
X88476191Y-93892857D01*
X88476191Y-94035714D01*
X88428572Y-94130952D01*
X88380953Y-94178571D01*
X88285715Y-94226190D01*
X87904762Y-94226190D01*
X88857143Y-94416667D02*
X89333334Y-94416667D01*
X88761905Y-94702381D02*
X89095238Y-93702381D01*
X89428572Y-94702381D01*
X89761905Y-94702381D02*
X89761905Y-93702381D01*
X90333334Y-94702381D01*
X90333334Y-93702381D01*
X90809524Y-94702381D02*
X90809524Y-93702381D01*
X91047619Y-93702381D01*
X91190477Y-93750000D01*
X91285715Y-93845238D01*
X91333334Y-93940476D01*
X91380953Y-94130952D01*
X91380953Y-94273810D01*
X91333334Y-94464286D01*
X91285715Y-94559524D01*
X91190477Y-94654762D01*
X91047619Y-94702381D01*
X90809524Y-94702381D01*
X91809524Y-94178571D02*
X92142858Y-94178571D01*
X92285715Y-94702381D02*
X91809524Y-94702381D01*
X91809524Y-93702381D01*
X92285715Y-93702381D01*
X93285715Y-94702381D02*
X92952381Y-94226190D01*
X92714286Y-94702381D02*
X92714286Y-93702381D01*
X93095239Y-93702381D01*
X93190477Y-93750000D01*
X93238096Y-93797619D01*
X93285715Y-93892857D01*
X93285715Y-94035714D01*
X93238096Y-94130952D01*
X93190477Y-94178571D01*
X93095239Y-94226190D01*
X92714286Y-94226190D01*
D13*
X51400000Y-85800000D02*
X51400000Y-94550000D01*
D12*
X52538095Y-94071429D02*
X53300000Y-94071429D01*
X54300000Y-94452381D02*
X53728571Y-94452381D01*
X54014285Y-94452381D02*
X54014285Y-93452381D01*
X53919047Y-93595238D01*
X53823809Y-93690476D01*
X53728571Y-93738095D01*
X54680952Y-93547619D02*
X54728571Y-93500000D01*
X54823809Y-93452381D01*
X55061905Y-93452381D01*
X55157143Y-93500000D01*
X55204762Y-93547619D01*
X55252381Y-93642857D01*
X55252381Y-93738095D01*
X55204762Y-93880952D01*
X54633333Y-94452381D01*
X55252381Y-94452381D01*
X55538095Y-93452381D02*
X55871428Y-94452381D01*
X56204762Y-93452381D01*
X40190476Y-94452381D02*
X40190476Y-93452381D01*
X40571429Y-93452381D01*
X40666667Y-93500000D01*
X40714286Y-93547619D01*
X40761905Y-93642857D01*
X40761905Y-93785714D01*
X40714286Y-93880952D01*
X40666667Y-93928571D01*
X40571429Y-93976190D01*
X40190476Y-93976190D01*
X41380952Y-93452381D02*
X41571429Y-93452381D01*
X41666667Y-93500000D01*
X41761905Y-93595238D01*
X41809524Y-93785714D01*
X41809524Y-94119048D01*
X41761905Y-94309524D01*
X41666667Y-94404762D01*
X41571429Y-94452381D01*
X41380952Y-94452381D01*
X41285714Y-94404762D01*
X41190476Y-94309524D01*
X41142857Y-94119048D01*
X41142857Y-93785714D01*
X41190476Y-93595238D01*
X41285714Y-93500000D01*
X41380952Y-93452381D01*
X42142857Y-93452381D02*
X42380952Y-94452381D01*
X42571429Y-93738095D01*
X42761905Y-94452381D01*
X43000000Y-93452381D01*
X43380952Y-93928571D02*
X43714286Y-93928571D01*
X43857143Y-94452381D02*
X43380952Y-94452381D01*
X43380952Y-93452381D01*
X43857143Y-93452381D01*
X44857143Y-94452381D02*
X44523809Y-93976190D01*
X44285714Y-94452381D02*
X44285714Y-93452381D01*
X44666667Y-93452381D01*
X44761905Y-93500000D01*
X44809524Y-93547619D01*
X44857143Y-93642857D01*
X44857143Y-93785714D01*
X44809524Y-93880952D01*
X44761905Y-93928571D01*
X44666667Y-93976190D01*
X44285714Y-93976190D01*
X284214286Y-91654762D02*
X284357143Y-91702381D01*
X284595239Y-91702381D01*
X284690477Y-91654762D01*
X284738096Y-91607143D01*
X284785715Y-91511905D01*
X284785715Y-91416667D01*
X284738096Y-91321429D01*
X284690477Y-91273810D01*
X284595239Y-91226190D01*
X284404762Y-91178571D01*
X284309524Y-91130952D01*
X284261905Y-91083333D01*
X284214286Y-90988095D01*
X284214286Y-90892857D01*
X284261905Y-90797619D01*
X284309524Y-90750000D01*
X284404762Y-90702381D01*
X284642858Y-90702381D01*
X284785715Y-90750000D01*
X279559524Y-91702381D02*
X279226190Y-91226190D01*
X278988095Y-91702381D02*
X278988095Y-90702381D01*
X279369048Y-90702381D01*
X279464286Y-90750000D01*
X279511905Y-90797619D01*
X279559524Y-90892857D01*
X279559524Y-91035714D01*
X279511905Y-91130952D01*
X279464286Y-91178571D01*
X279369048Y-91226190D01*
X278988095Y-91226190D01*
X281714286Y-90702381D02*
X282285715Y-90702381D01*
X282000000Y-91702381D02*
X282000000Y-90702381D01*
X255335714Y-91416667D02*
X255811905Y-91416667D01*
X255240476Y-91702381D02*
X255573809Y-90702381D01*
X255907143Y-91702381D01*
X256669048Y-91035714D02*
X256669048Y-91702381D01*
X256430952Y-90654762D02*
X256192857Y-91369048D01*
X256811905Y-91369048D01*
X284333334Y-86657143D02*
X284285715Y-86704762D01*
X284142858Y-86752381D01*
X284047620Y-86752381D01*
X283904762Y-86704762D01*
X283809524Y-86609524D01*
X283761905Y-86514286D01*
X283714286Y-86323810D01*
X283714286Y-86180952D01*
X283761905Y-85990476D01*
X283809524Y-85895238D01*
X283904762Y-85800000D01*
X284047620Y-85752381D01*
X284142858Y-85752381D01*
X284285715Y-85800000D01*
X284333334Y-85847619D01*
X284666667Y-85752381D02*
X285285715Y-85752381D01*
X284952381Y-86133333D01*
X285095239Y-86133333D01*
X285190477Y-86180952D01*
X285238096Y-86228571D01*
X285285715Y-86323810D01*
X285285715Y-86561905D01*
X285238096Y-86657143D01*
X285190477Y-86704762D01*
X285095239Y-86752381D01*
X284809524Y-86752381D01*
X284714286Y-86704762D01*
X284666667Y-86657143D01*
X281833334Y-86657143D02*
X281785715Y-86704762D01*
X281642858Y-86752381D01*
X281547620Y-86752381D01*
X281404762Y-86704762D01*
X281309524Y-86609524D01*
X281261905Y-86514286D01*
X281214286Y-86323810D01*
X281214286Y-86180952D01*
X281261905Y-85990476D01*
X281309524Y-85895238D01*
X281404762Y-85800000D01*
X281547620Y-85752381D01*
X281642858Y-85752381D01*
X281785715Y-85800000D01*
X281833334Y-85847619D01*
X282214286Y-85847619D02*
X282261905Y-85800000D01*
X282357143Y-85752381D01*
X282595239Y-85752381D01*
X282690477Y-85800000D01*
X282738096Y-85847619D01*
X282785715Y-85942857D01*
X282785715Y-86038095D01*
X282738096Y-86180952D01*
X282166667Y-86752381D01*
X282785715Y-86752381D01*
X279083334Y-86657143D02*
X279035715Y-86704762D01*
X278892858Y-86752381D01*
X278797620Y-86752381D01*
X278654762Y-86704762D01*
X278559524Y-86609524D01*
X278511905Y-86514286D01*
X278464286Y-86323810D01*
X278464286Y-86180952D01*
X278511905Y-85990476D01*
X278559524Y-85895238D01*
X278654762Y-85800000D01*
X278797620Y-85752381D01*
X278892858Y-85752381D01*
X279035715Y-85800000D01*
X279083334Y-85847619D01*
X280035715Y-86752381D02*
X279464286Y-86752381D01*
X279750000Y-86752381D02*
X279750000Y-85752381D01*
X279654762Y-85895238D01*
X279559524Y-85990476D01*
X279464286Y-86038095D01*
X266445239Y-91178571D02*
X266588096Y-91226190D01*
X266635715Y-91273810D01*
X266683334Y-91369048D01*
X266683334Y-91511905D01*
X266635715Y-91607143D01*
X266588096Y-91654762D01*
X266492858Y-91702381D01*
X266111905Y-91702381D01*
X266111905Y-90702381D01*
X266445239Y-90702381D01*
X266540477Y-90750000D01*
X266588096Y-90797619D01*
X266635715Y-90892857D01*
X266635715Y-90988095D01*
X266588096Y-91083333D01*
X266540477Y-91130952D01*
X266445239Y-91178571D01*
X266111905Y-91178571D01*
X267635715Y-91702381D02*
X267064286Y-91702381D01*
X267350000Y-91702381D02*
X267350000Y-90702381D01*
X267254762Y-90845238D01*
X267159524Y-90940476D01*
X267064286Y-90988095D01*
X260335714Y-91416667D02*
X260811905Y-91416667D01*
X260240476Y-91702381D02*
X260573809Y-90702381D01*
X260907143Y-91702381D01*
X261192857Y-90797619D02*
X261240476Y-90750000D01*
X261335714Y-90702381D01*
X261573810Y-90702381D01*
X261669048Y-90750000D01*
X261716667Y-90797619D01*
X261764286Y-90892857D01*
X261764286Y-90988095D01*
X261716667Y-91130952D01*
X261145238Y-91702381D01*
X261764286Y-91702381D01*
X257835714Y-91416667D02*
X258311905Y-91416667D01*
X257740476Y-91702381D02*
X258073809Y-90702381D01*
X258407143Y-91702381D01*
X258645238Y-90702381D02*
X259264286Y-90702381D01*
X258930952Y-91083333D01*
X259073810Y-91083333D01*
X259169048Y-91130952D01*
X259216667Y-91178571D01*
X259264286Y-91273810D01*
X259264286Y-91511905D01*
X259216667Y-91607143D01*
X259169048Y-91654762D01*
X259073810Y-91702381D01*
X258788095Y-91702381D01*
X258692857Y-91654762D01*
X258645238Y-91607143D01*
X271445239Y-91178571D02*
X271588096Y-91226190D01*
X271635715Y-91273810D01*
X271683334Y-91369048D01*
X271683334Y-91511905D01*
X271635715Y-91607143D01*
X271588096Y-91654762D01*
X271492858Y-91702381D01*
X271111905Y-91702381D01*
X271111905Y-90702381D01*
X271445239Y-90702381D01*
X271540477Y-90750000D01*
X271588096Y-90797619D01*
X271635715Y-90892857D01*
X271635715Y-90988095D01*
X271588096Y-91083333D01*
X271540477Y-91130952D01*
X271445239Y-91178571D01*
X271111905Y-91178571D01*
X272016667Y-90702381D02*
X272635715Y-90702381D01*
X272302381Y-91083333D01*
X272445239Y-91083333D01*
X272540477Y-91130952D01*
X272588096Y-91178571D01*
X272635715Y-91273810D01*
X272635715Y-91511905D01*
X272588096Y-91607143D01*
X272540477Y-91654762D01*
X272445239Y-91702381D01*
X272159524Y-91702381D01*
X272064286Y-91654762D01*
X272016667Y-91607143D01*
X268945239Y-91178571D02*
X269088096Y-91226190D01*
X269135715Y-91273810D01*
X269183334Y-91369048D01*
X269183334Y-91511905D01*
X269135715Y-91607143D01*
X269088096Y-91654762D01*
X268992858Y-91702381D01*
X268611905Y-91702381D01*
X268611905Y-90702381D01*
X268945239Y-90702381D01*
X269040477Y-90750000D01*
X269088096Y-90797619D01*
X269135715Y-90892857D01*
X269135715Y-90988095D01*
X269088096Y-91083333D01*
X269040477Y-91130952D01*
X268945239Y-91178571D01*
X268611905Y-91178571D01*
X269564286Y-90797619D02*
X269611905Y-90750000D01*
X269707143Y-90702381D01*
X269945239Y-90702381D01*
X270040477Y-90750000D01*
X270088096Y-90797619D01*
X270135715Y-90892857D01*
X270135715Y-90988095D01*
X270088096Y-91130952D01*
X269516667Y-91702381D01*
X270135715Y-91702381D01*
X263085714Y-91416667D02*
X263561905Y-91416667D01*
X262990476Y-91702381D02*
X263323809Y-90702381D01*
X263657143Y-91702381D01*
X264514286Y-91702381D02*
X263942857Y-91702381D01*
X264228571Y-91702381D02*
X264228571Y-90702381D01*
X264133333Y-90845238D01*
X264038095Y-90940476D01*
X263942857Y-90988095D01*
X25000000Y-72250000D02*
G75*
G03X25000000Y-72250000I-4750000J0D01*
G01*
X81915476Y-77000000D02*
G75*
G03X81915476Y-77000000I-2915476J0D01*
G01*
X84000000Y-72000000D02*
X84000000Y-82000000D01*
X84000000Y-82000000D02*
X73000000Y-82000000D01*
X73000000Y-82000000D02*
X73000000Y-72000000D01*
X73000000Y-72000000D02*
X84000000Y-72000000D01*
X81000000Y-77000000D02*
G75*
G03X81000000Y-77000000I-2000000J0D01*
G01*
X81915476Y-64000000D02*
G75*
G03X81915476Y-64000000I-2915476J0D01*
G01*
X84000000Y-59000000D02*
X84000000Y-69000000D01*
X84000000Y-69000000D02*
X73000000Y-69000000D01*
X73000000Y-69000000D02*
X73000000Y-59000000D01*
X73000000Y-59000000D02*
X84000000Y-59000000D01*
X81000000Y-64000000D02*
G75*
G03X81000000Y-64000000I-2000000J0D01*
G01*
X99915476Y-64000000D02*
G75*
G03X99915476Y-64000000I-2915476J0D01*
G01*
X102000000Y-59000000D02*
X102000000Y-69000000D01*
X102000000Y-69000000D02*
X91000000Y-69000000D01*
X91000000Y-69000000D02*
X91000000Y-59000000D01*
X91000000Y-59000000D02*
X102000000Y-59000000D01*
X99000000Y-64000000D02*
G75*
G03X99000000Y-64000000I-2000000J0D01*
G01*
X99915476Y-77000000D02*
G75*
G03X99915476Y-77000000I-2915476J0D01*
G01*
X102000000Y-72000000D02*
X102000000Y-82000000D01*
X102000000Y-82000000D02*
X91000000Y-82000000D01*
X91000000Y-82000000D02*
X91000000Y-72000000D01*
X91000000Y-72000000D02*
X102000000Y-72000000D01*
X99000000Y-77000000D02*
G75*
G03X99000000Y-77000000I-2000000J0D01*
G01*
X117915476Y-64000000D02*
G75*
G03X117915476Y-64000000I-2915476J0D01*
G01*
X120000000Y-59000000D02*
X120000000Y-69000000D01*
X120000000Y-69000000D02*
X109000000Y-69000000D01*
X109000000Y-69000000D02*
X109000000Y-59000000D01*
X109000000Y-59000000D02*
X120000000Y-59000000D01*
X117000000Y-64000000D02*
G75*
G03X117000000Y-64000000I-2000000J0D01*
G01*
X117915476Y-77000000D02*
G75*
G03X117915476Y-77000000I-2915476J0D01*
G01*
X120000000Y-72000000D02*
X120000000Y-82000000D01*
X120000000Y-82000000D02*
X109000000Y-82000000D01*
X109000000Y-82000000D02*
X109000000Y-72000000D01*
X109000000Y-72000000D02*
X120000000Y-72000000D01*
X117000000Y-77000000D02*
G75*
G03X117000000Y-77000000I-2000000J0D01*
G01*
X135915476Y-64000000D02*
G75*
G03X135915476Y-64000000I-2915476J0D01*
G01*
X138000000Y-59000000D02*
X138000000Y-69000000D01*
X138000000Y-69000000D02*
X127000000Y-69000000D01*
X127000000Y-69000000D02*
X127000000Y-59000000D01*
X127000000Y-59000000D02*
X138000000Y-59000000D01*
X135000000Y-64000000D02*
G75*
G03X135000000Y-64000000I-2000000J0D01*
G01*
X135915476Y-77000000D02*
G75*
G03X135915476Y-77000000I-2915476J0D01*
G01*
X138000000Y-72000000D02*
X138000000Y-82000000D01*
X138000000Y-82000000D02*
X127000000Y-82000000D01*
X127000000Y-82000000D02*
X127000000Y-72000000D01*
X127000000Y-72000000D02*
X138000000Y-72000000D01*
X135000000Y-77000000D02*
G75*
G03X135000000Y-77000000I-2000000J0D01*
G01*
X153915476Y-64000000D02*
G75*
G03X153915476Y-64000000I-2915476J0D01*
G01*
X156000000Y-59000000D02*
X156000000Y-69000000D01*
X156000000Y-69000000D02*
X145000000Y-69000000D01*
X145000000Y-69000000D02*
X145000000Y-59000000D01*
X145000000Y-59000000D02*
X156000000Y-59000000D01*
X153000000Y-64000000D02*
G75*
G03X153000000Y-64000000I-2000000J0D01*
G01*
X153915476Y-77000000D02*
G75*
G03X153915476Y-77000000I-2915476J0D01*
G01*
X156000000Y-72000000D02*
X156000000Y-82000000D01*
X156000000Y-82000000D02*
X145000000Y-82000000D01*
X145000000Y-82000000D02*
X145000000Y-72000000D01*
X145000000Y-72000000D02*
X156000000Y-72000000D01*
X153000000Y-77000000D02*
G75*
G03X153000000Y-77000000I-2000000J0D01*
G01*
X171915476Y-64000000D02*
G75*
G03X171915476Y-64000000I-2915476J0D01*
G01*
X174000000Y-59000000D02*
X174000000Y-69000000D01*
X174000000Y-69000000D02*
X163000000Y-69000000D01*
X163000000Y-69000000D02*
X163000000Y-59000000D01*
X163000000Y-59000000D02*
X174000000Y-59000000D01*
X171000000Y-64000000D02*
G75*
G03X171000000Y-64000000I-2000000J0D01*
G01*
X171915476Y-77000000D02*
G75*
G03X171915476Y-77000000I-2915476J0D01*
G01*
X174000000Y-72000000D02*
X174000000Y-82000000D01*
X174000000Y-82000000D02*
X163000000Y-82000000D01*
X163000000Y-82000000D02*
X163000000Y-72000000D01*
X163000000Y-72000000D02*
X174000000Y-72000000D01*
X171000000Y-77000000D02*
G75*
G03X171000000Y-77000000I-2000000J0D01*
G01*
X189915476Y-64000000D02*
G75*
G03X189915476Y-64000000I-2915476J0D01*
G01*
X192000000Y-59000000D02*
X192000000Y-69000000D01*
X192000000Y-69000000D02*
X181000000Y-69000000D01*
X181000000Y-69000000D02*
X181000000Y-59000000D01*
X181000000Y-59000000D02*
X192000000Y-59000000D01*
X189000000Y-64000000D02*
G75*
G03X189000000Y-64000000I-2000000J0D01*
G01*
X189915476Y-77000000D02*
G75*
G03X189915476Y-77000000I-2915476J0D01*
G01*
X192000000Y-72000000D02*
X192000000Y-82000000D01*
X192000000Y-82000000D02*
X181000000Y-82000000D01*
X181000000Y-82000000D02*
X181000000Y-72000000D01*
X181000000Y-72000000D02*
X192000000Y-72000000D01*
X189000000Y-77000000D02*
G75*
G03X189000000Y-77000000I-2000000J0D01*
G01*
X207915476Y-64000000D02*
G75*
G03X207915476Y-64000000I-2915476J0D01*
G01*
X210000000Y-59000000D02*
X210000000Y-69000000D01*
X210000000Y-69000000D02*
X199000000Y-69000000D01*
X199000000Y-69000000D02*
X199000000Y-59000000D01*
X199000000Y-59000000D02*
X210000000Y-59000000D01*
X207000000Y-64000000D02*
G75*
G03X207000000Y-64000000I-2000000J0D01*
G01*
X207915476Y-77000000D02*
G75*
G03X207915476Y-77000000I-2915476J0D01*
G01*
X210000000Y-72000000D02*
X210000000Y-82000000D01*
X210000000Y-82000000D02*
X199000000Y-82000000D01*
X199000000Y-82000000D02*
X199000000Y-72000000D01*
X199000000Y-72000000D02*
X210000000Y-72000000D01*
X207000000Y-77000000D02*
G75*
G03X207000000Y-77000000I-2000000J0D01*
G01*
X225915476Y-64000000D02*
G75*
G03X225915476Y-64000000I-2915476J0D01*
G01*
X228000000Y-59000000D02*
X228000000Y-69000000D01*
X228000000Y-69000000D02*
X217000000Y-69000000D01*
X217000000Y-69000000D02*
X217000000Y-59000000D01*
X217000000Y-59000000D02*
X228000000Y-59000000D01*
X225000000Y-64000000D02*
G75*
G03X225000000Y-64000000I-2000000J0D01*
G01*
X225915476Y-77000000D02*
G75*
G03X225915476Y-77000000I-2915476J0D01*
G01*
X228000000Y-72000000D02*
X228000000Y-82000000D01*
X228000000Y-82000000D02*
X217000000Y-82000000D01*
X217000000Y-82000000D02*
X217000000Y-72000000D01*
X217000000Y-72000000D02*
X228000000Y-72000000D01*
X225000000Y-77000000D02*
G75*
G03X225000000Y-77000000I-2000000J0D01*
G01*
X243915476Y-64000000D02*
G75*
G03X243915476Y-64000000I-2915476J0D01*
G01*
X246000000Y-59000000D02*
X246000000Y-69000000D01*
X246000000Y-69000000D02*
X235000000Y-69000000D01*
X235000000Y-69000000D02*
X235000000Y-59000000D01*
X235000000Y-59000000D02*
X246000000Y-59000000D01*
X243000000Y-64000000D02*
G75*
G03X243000000Y-64000000I-2000000J0D01*
G01*
X243915476Y-77000000D02*
G75*
G03X243915476Y-77000000I-2915476J0D01*
G01*
X246000000Y-72000000D02*
X246000000Y-82000000D01*
X246000000Y-82000000D02*
X235000000Y-82000000D01*
X235000000Y-82000000D02*
X235000000Y-72000000D01*
X235000000Y-72000000D02*
X246000000Y-72000000D01*
X243000000Y-77000000D02*
G75*
G03X243000000Y-77000000I-2000000J0D01*
G01*
X261915476Y-77000000D02*
G75*
G03X261915476Y-77000000I-2915476J0D01*
G01*
X264000000Y-72000000D02*
X264000000Y-82000000D01*
X264000000Y-82000000D02*
X253000000Y-82000000D01*
X253000000Y-82000000D02*
X253000000Y-72000000D01*
X253000000Y-72000000D02*
X264000000Y-72000000D01*
X261000000Y-77000000D02*
G75*
G03X261000000Y-77000000I-2000000J0D01*
G01*
X261915476Y-64000000D02*
G75*
G03X261915476Y-64000000I-2915476J0D01*
G01*
X264000000Y-59000000D02*
X264000000Y-69000000D01*
X264000000Y-69000000D02*
X253000000Y-69000000D01*
X253000000Y-69000000D02*
X253000000Y-59000000D01*
X253000000Y-59000000D02*
X264000000Y-59000000D01*
X261000000Y-64000000D02*
G75*
G03X261000000Y-64000000I-2000000J0D01*
G01*
X44500000Y-72250000D02*
G75*
G03X44500000Y-72250000I-5500000J0D01*
G01*
X46500000Y-72250000D02*
G75*
G03X46500000Y-72250000I-7500000J0D01*
G01*
X66500000Y-72250000D02*
G75*
G03X66500000Y-72250000I-5500000J0D01*
G01*
X68500000Y-72250000D02*
G75*
G03X68500000Y-72250000I-7500000J0D01*
G01*
X19278572Y-67035714D02*
X19240477Y-67073810D01*
X19126191Y-67111905D01*
X19050001Y-67111905D01*
X18935715Y-67073810D01*
X18859524Y-66997619D01*
X18821429Y-66921429D01*
X18783334Y-66769048D01*
X18783334Y-66654762D01*
X18821429Y-66502381D01*
X18859524Y-66426190D01*
X18935715Y-66350000D01*
X19050001Y-66311905D01*
X19126191Y-66311905D01*
X19240477Y-66350000D01*
X19278572Y-66388095D01*
X19773810Y-66311905D02*
X19926191Y-66311905D01*
X20002382Y-66350000D01*
X20078572Y-66426190D01*
X20116667Y-66578571D01*
X20116667Y-66845238D01*
X20078572Y-66997619D01*
X20002382Y-67073810D01*
X19926191Y-67111905D01*
X19773810Y-67111905D01*
X19697620Y-67073810D01*
X19621429Y-66997619D01*
X19583334Y-66845238D01*
X19583334Y-66578571D01*
X19621429Y-66426190D01*
X19697620Y-66350000D01*
X19773810Y-66311905D01*
X20459524Y-67111905D02*
X20459524Y-66311905D01*
X20916667Y-67111905D01*
X20916667Y-66311905D01*
X21716667Y-67111905D02*
X21259524Y-67111905D01*
X21488095Y-67111905D02*
X21488095Y-66311905D01*
X21411905Y-66426190D01*
X21335714Y-66502381D01*
X21259524Y-66540476D01*
X84678571Y-77500000D02*
X85750000Y-77500000D01*
X85964286Y-77571428D01*
X86107143Y-77714285D01*
X86178571Y-77928571D01*
X86178571Y-78071428D01*
X86178571Y-76000000D02*
X86178571Y-76857143D01*
X86178571Y-76428571D02*
X84678571Y-76428571D01*
X84892857Y-76571428D01*
X85035714Y-76714286D01*
X85107143Y-76857143D01*
X84678571Y-64500000D02*
X85750000Y-64500000D01*
X85964286Y-64571428D01*
X86107143Y-64714285D01*
X86178571Y-64928571D01*
X86178571Y-65071428D01*
X84821429Y-63857143D02*
X84750000Y-63785714D01*
X84678571Y-63642857D01*
X84678571Y-63285714D01*
X84750000Y-63142857D01*
X84821429Y-63071428D01*
X84964286Y-63000000D01*
X85107143Y-63000000D01*
X85321429Y-63071428D01*
X86178571Y-63928571D01*
X86178571Y-63000000D01*
X102678571Y-64500000D02*
X103750000Y-64500000D01*
X103964286Y-64571428D01*
X104107143Y-64714285D01*
X104178571Y-64928571D01*
X104178571Y-65071428D01*
X102678571Y-63928571D02*
X102678571Y-63000000D01*
X103250000Y-63500000D01*
X103250000Y-63285714D01*
X103321429Y-63142857D01*
X103392857Y-63071428D01*
X103535714Y-63000000D01*
X103892857Y-63000000D01*
X104035714Y-63071428D01*
X104107143Y-63142857D01*
X104178571Y-63285714D01*
X104178571Y-63714286D01*
X104107143Y-63857143D01*
X104035714Y-63928571D01*
X102678571Y-77500000D02*
X103750000Y-77500000D01*
X103964286Y-77571428D01*
X104107143Y-77714285D01*
X104178571Y-77928571D01*
X104178571Y-78071428D01*
X103178571Y-76142857D02*
X104178571Y-76142857D01*
X102607143Y-76500000D02*
X103678571Y-76857143D01*
X103678571Y-75928571D01*
X120678571Y-64500000D02*
X121750000Y-64500000D01*
X121964286Y-64571428D01*
X122107143Y-64714285D01*
X122178571Y-64928571D01*
X122178571Y-65071428D01*
X120678571Y-63071428D02*
X120678571Y-63785714D01*
X121392857Y-63857143D01*
X121321429Y-63785714D01*
X121250000Y-63642857D01*
X121250000Y-63285714D01*
X121321429Y-63142857D01*
X121392857Y-63071428D01*
X121535714Y-63000000D01*
X121892857Y-63000000D01*
X122035714Y-63071428D01*
X122107143Y-63142857D01*
X122178571Y-63285714D01*
X122178571Y-63642857D01*
X122107143Y-63785714D01*
X122035714Y-63857143D01*
X120678571Y-77500000D02*
X121750000Y-77500000D01*
X121964286Y-77571428D01*
X122107143Y-77714285D01*
X122178571Y-77928571D01*
X122178571Y-78071428D01*
X120678571Y-76142857D02*
X120678571Y-76428571D01*
X120750000Y-76571428D01*
X120821429Y-76642857D01*
X121035714Y-76785714D01*
X121321429Y-76857143D01*
X121892857Y-76857143D01*
X122035714Y-76785714D01*
X122107143Y-76714286D01*
X122178571Y-76571428D01*
X122178571Y-76285714D01*
X122107143Y-76142857D01*
X122035714Y-76071428D01*
X121892857Y-76000000D01*
X121535714Y-76000000D01*
X121392857Y-76071428D01*
X121321429Y-76142857D01*
X121250000Y-76285714D01*
X121250000Y-76571428D01*
X121321429Y-76714286D01*
X121392857Y-76785714D01*
X121535714Y-76857143D01*
X138678571Y-64500000D02*
X139750000Y-64500000D01*
X139964286Y-64571428D01*
X140107143Y-64714285D01*
X140178571Y-64928571D01*
X140178571Y-65071428D01*
X138678571Y-63928571D02*
X138678571Y-62928571D01*
X140178571Y-63571428D01*
X138678571Y-77500000D02*
X139750000Y-77500000D01*
X139964286Y-77571428D01*
X140107143Y-77714285D01*
X140178571Y-77928571D01*
X140178571Y-78071428D01*
X139321429Y-76571428D02*
X139250000Y-76714286D01*
X139178571Y-76785714D01*
X139035714Y-76857143D01*
X138964286Y-76857143D01*
X138821429Y-76785714D01*
X138750000Y-76714286D01*
X138678571Y-76571428D01*
X138678571Y-76285714D01*
X138750000Y-76142857D01*
X138821429Y-76071428D01*
X138964286Y-76000000D01*
X139035714Y-76000000D01*
X139178571Y-76071428D01*
X139250000Y-76142857D01*
X139321429Y-76285714D01*
X139321429Y-76571428D01*
X139392857Y-76714286D01*
X139464286Y-76785714D01*
X139607143Y-76857143D01*
X139892857Y-76857143D01*
X140035714Y-76785714D01*
X140107143Y-76714286D01*
X140178571Y-76571428D01*
X140178571Y-76285714D01*
X140107143Y-76142857D01*
X140035714Y-76071428D01*
X139892857Y-76000000D01*
X139607143Y-76000000D01*
X139464286Y-76071428D01*
X139392857Y-76142857D01*
X139321429Y-76285714D01*
X156678571Y-64500000D02*
X157750000Y-64500000D01*
X157964286Y-64571428D01*
X158107143Y-64714285D01*
X158178571Y-64928571D01*
X158178571Y-65071428D01*
X158178571Y-63714286D02*
X158178571Y-63428571D01*
X158107143Y-63285714D01*
X158035714Y-63214286D01*
X157821429Y-63071428D01*
X157535714Y-63000000D01*
X156964286Y-63000000D01*
X156821429Y-63071428D01*
X156750000Y-63142857D01*
X156678571Y-63285714D01*
X156678571Y-63571428D01*
X156750000Y-63714286D01*
X156821429Y-63785714D01*
X156964286Y-63857143D01*
X157321429Y-63857143D01*
X157464286Y-63785714D01*
X157535714Y-63714286D01*
X157607143Y-63571428D01*
X157607143Y-63285714D01*
X157535714Y-63142857D01*
X157464286Y-63071428D01*
X157321429Y-63000000D01*
X156678571Y-78214285D02*
X157750000Y-78214285D01*
X157964286Y-78285713D01*
X158107143Y-78428570D01*
X158178571Y-78642856D01*
X158178571Y-78785713D01*
X158178571Y-76714285D02*
X158178571Y-77571428D01*
X158178571Y-77142856D02*
X156678571Y-77142856D01*
X156892857Y-77285713D01*
X157035714Y-77428571D01*
X157107143Y-77571428D01*
X156678571Y-75785714D02*
X156678571Y-75642857D01*
X156750000Y-75500000D01*
X156821429Y-75428571D01*
X156964286Y-75357142D01*
X157250000Y-75285714D01*
X157607143Y-75285714D01*
X157892857Y-75357142D01*
X158035714Y-75428571D01*
X158107143Y-75500000D01*
X158178571Y-75642857D01*
X158178571Y-75785714D01*
X158107143Y-75928571D01*
X158035714Y-76000000D01*
X157892857Y-76071428D01*
X157607143Y-76142857D01*
X157250000Y-76142857D01*
X156964286Y-76071428D01*
X156821429Y-76000000D01*
X156750000Y-75928571D01*
X156678571Y-75785714D01*
X174678571Y-65214285D02*
X175750000Y-65214285D01*
X175964286Y-65285713D01*
X176107143Y-65428570D01*
X176178571Y-65642856D01*
X176178571Y-65785713D01*
X176178571Y-63714285D02*
X176178571Y-64571428D01*
X176178571Y-64142856D02*
X174678571Y-64142856D01*
X174892857Y-64285713D01*
X175035714Y-64428571D01*
X175107143Y-64571428D01*
X176178571Y-62285714D02*
X176178571Y-63142857D01*
X176178571Y-62714285D02*
X174678571Y-62714285D01*
X174892857Y-62857142D01*
X175035714Y-63000000D01*
X175107143Y-63142857D01*
X174678571Y-78214285D02*
X175750000Y-78214285D01*
X175964286Y-78285713D01*
X176107143Y-78428570D01*
X176178571Y-78642856D01*
X176178571Y-78785713D01*
X176178571Y-76714285D02*
X176178571Y-77571428D01*
X176178571Y-77142856D02*
X174678571Y-77142856D01*
X174892857Y-77285713D01*
X175035714Y-77428571D01*
X175107143Y-77571428D01*
X174821429Y-76142857D02*
X174750000Y-76071428D01*
X174678571Y-75928571D01*
X174678571Y-75571428D01*
X174750000Y-75428571D01*
X174821429Y-75357142D01*
X174964286Y-75285714D01*
X175107143Y-75285714D01*
X175321429Y-75357142D01*
X176178571Y-76214285D01*
X176178571Y-75285714D01*
X192678571Y-65214285D02*
X193750000Y-65214285D01*
X193964286Y-65285713D01*
X194107143Y-65428570D01*
X194178571Y-65642856D01*
X194178571Y-65785713D01*
X194178571Y-63714285D02*
X194178571Y-64571428D01*
X194178571Y-64142856D02*
X192678571Y-64142856D01*
X192892857Y-64285713D01*
X193035714Y-64428571D01*
X193107143Y-64571428D01*
X192678571Y-63214285D02*
X192678571Y-62285714D01*
X193250000Y-62785714D01*
X193250000Y-62571428D01*
X193321429Y-62428571D01*
X193392857Y-62357142D01*
X193535714Y-62285714D01*
X193892857Y-62285714D01*
X194035714Y-62357142D01*
X194107143Y-62428571D01*
X194178571Y-62571428D01*
X194178571Y-63000000D01*
X194107143Y-63142857D01*
X194035714Y-63214285D01*
X192678571Y-78214285D02*
X193750000Y-78214285D01*
X193964286Y-78285713D01*
X194107143Y-78428570D01*
X194178571Y-78642856D01*
X194178571Y-78785713D01*
X194178571Y-76714285D02*
X194178571Y-77571428D01*
X194178571Y-77142856D02*
X192678571Y-77142856D01*
X192892857Y-77285713D01*
X193035714Y-77428571D01*
X193107143Y-77571428D01*
X193178571Y-75428571D02*
X194178571Y-75428571D01*
X192607143Y-75785714D02*
X193678571Y-76142857D01*
X193678571Y-75214285D01*
X210678571Y-65214285D02*
X211750000Y-65214285D01*
X211964286Y-65285713D01*
X212107143Y-65428570D01*
X212178571Y-65642856D01*
X212178571Y-65785713D01*
X212178571Y-63714285D02*
X212178571Y-64571428D01*
X212178571Y-64142856D02*
X210678571Y-64142856D01*
X210892857Y-64285713D01*
X211035714Y-64428571D01*
X211107143Y-64571428D01*
X210678571Y-62357142D02*
X210678571Y-63071428D01*
X211392857Y-63142857D01*
X211321429Y-63071428D01*
X211250000Y-62928571D01*
X211250000Y-62571428D01*
X211321429Y-62428571D01*
X211392857Y-62357142D01*
X211535714Y-62285714D01*
X211892857Y-62285714D01*
X212035714Y-62357142D01*
X212107143Y-62428571D01*
X212178571Y-62571428D01*
X212178571Y-62928571D01*
X212107143Y-63071428D01*
X212035714Y-63142857D01*
X210678571Y-78214285D02*
X211750000Y-78214285D01*
X211964286Y-78285713D01*
X212107143Y-78428570D01*
X212178571Y-78642856D01*
X212178571Y-78785713D01*
X212178571Y-76714285D02*
X212178571Y-77571428D01*
X212178571Y-77142856D02*
X210678571Y-77142856D01*
X210892857Y-77285713D01*
X211035714Y-77428571D01*
X211107143Y-77571428D01*
X210678571Y-75428571D02*
X210678571Y-75714285D01*
X210750000Y-75857142D01*
X210821429Y-75928571D01*
X211035714Y-76071428D01*
X211321429Y-76142857D01*
X211892857Y-76142857D01*
X212035714Y-76071428D01*
X212107143Y-76000000D01*
X212178571Y-75857142D01*
X212178571Y-75571428D01*
X212107143Y-75428571D01*
X212035714Y-75357142D01*
X211892857Y-75285714D01*
X211535714Y-75285714D01*
X211392857Y-75357142D01*
X211321429Y-75428571D01*
X211250000Y-75571428D01*
X211250000Y-75857142D01*
X211321429Y-76000000D01*
X211392857Y-76071428D01*
X211535714Y-76142857D01*
X228678571Y-65214285D02*
X229750000Y-65214285D01*
X229964286Y-65285713D01*
X230107143Y-65428570D01*
X230178571Y-65642856D01*
X230178571Y-65785713D01*
X230178571Y-63714285D02*
X230178571Y-64571428D01*
X230178571Y-64142856D02*
X228678571Y-64142856D01*
X228892857Y-64285713D01*
X229035714Y-64428571D01*
X229107143Y-64571428D01*
X228678571Y-63214285D02*
X228678571Y-62214285D01*
X230178571Y-62857142D01*
X228678571Y-78214285D02*
X229750000Y-78214285D01*
X229964286Y-78285713D01*
X230107143Y-78428570D01*
X230178571Y-78642856D01*
X230178571Y-78785713D01*
X230178571Y-76714285D02*
X230178571Y-77571428D01*
X230178571Y-77142856D02*
X228678571Y-77142856D01*
X228892857Y-77285713D01*
X229035714Y-77428571D01*
X229107143Y-77571428D01*
X229321429Y-75857142D02*
X229250000Y-76000000D01*
X229178571Y-76071428D01*
X229035714Y-76142857D01*
X228964286Y-76142857D01*
X228821429Y-76071428D01*
X228750000Y-76000000D01*
X228678571Y-75857142D01*
X228678571Y-75571428D01*
X228750000Y-75428571D01*
X228821429Y-75357142D01*
X228964286Y-75285714D01*
X229035714Y-75285714D01*
X229178571Y-75357142D01*
X229250000Y-75428571D01*
X229321429Y-75571428D01*
X229321429Y-75857142D01*
X229392857Y-76000000D01*
X229464286Y-76071428D01*
X229607143Y-76142857D01*
X229892857Y-76142857D01*
X230035714Y-76071428D01*
X230107143Y-76000000D01*
X230178571Y-75857142D01*
X230178571Y-75571428D01*
X230107143Y-75428571D01*
X230035714Y-75357142D01*
X229892857Y-75285714D01*
X229607143Y-75285714D01*
X229464286Y-75357142D01*
X229392857Y-75428571D01*
X229321429Y-75571428D01*
X246678571Y-65214285D02*
X247750000Y-65214285D01*
X247964286Y-65285713D01*
X248107143Y-65428570D01*
X248178571Y-65642856D01*
X248178571Y-65785713D01*
X248178571Y-63714285D02*
X248178571Y-64571428D01*
X248178571Y-64142856D02*
X246678571Y-64142856D01*
X246892857Y-64285713D01*
X247035714Y-64428571D01*
X247107143Y-64571428D01*
X248178571Y-63000000D02*
X248178571Y-62714285D01*
X248107143Y-62571428D01*
X248035714Y-62500000D01*
X247821429Y-62357142D01*
X247535714Y-62285714D01*
X246964286Y-62285714D01*
X246821429Y-62357142D01*
X246750000Y-62428571D01*
X246678571Y-62571428D01*
X246678571Y-62857142D01*
X246750000Y-63000000D01*
X246821429Y-63071428D01*
X246964286Y-63142857D01*
X247321429Y-63142857D01*
X247464286Y-63071428D01*
X247535714Y-63000000D01*
X247607143Y-62857142D01*
X247607143Y-62571428D01*
X247535714Y-62428571D01*
X247464286Y-62357142D01*
X247321429Y-62285714D01*
X246678571Y-78214285D02*
X247750000Y-78214285D01*
X247964286Y-78285713D01*
X248107143Y-78428570D01*
X248178571Y-78642856D01*
X248178571Y-78785713D01*
X246821429Y-77571428D02*
X246750000Y-77499999D01*
X246678571Y-77357142D01*
X246678571Y-76999999D01*
X246750000Y-76857142D01*
X246821429Y-76785713D01*
X246964286Y-76714285D01*
X247107143Y-76714285D01*
X247321429Y-76785713D01*
X248178571Y-77642856D01*
X248178571Y-76714285D01*
X246678571Y-75785714D02*
X246678571Y-75642857D01*
X246750000Y-75500000D01*
X246821429Y-75428571D01*
X246964286Y-75357142D01*
X247250000Y-75285714D01*
X247607143Y-75285714D01*
X247892857Y-75357142D01*
X248035714Y-75428571D01*
X248107143Y-75500000D01*
X248178571Y-75642857D01*
X248178571Y-75785714D01*
X248107143Y-75928571D01*
X248035714Y-76000000D01*
X247892857Y-76071428D01*
X247607143Y-76142857D01*
X247250000Y-76142857D01*
X246964286Y-76071428D01*
X246821429Y-76000000D01*
X246750000Y-75928571D01*
X246678571Y-75785714D01*
X264678571Y-78214285D02*
X265750000Y-78214285D01*
X265964286Y-78285713D01*
X266107143Y-78428570D01*
X266178571Y-78642856D01*
X266178571Y-78785713D01*
X264821429Y-77571428D02*
X264750000Y-77499999D01*
X264678571Y-77357142D01*
X264678571Y-76999999D01*
X264750000Y-76857142D01*
X264821429Y-76785713D01*
X264964286Y-76714285D01*
X265107143Y-76714285D01*
X265321429Y-76785713D01*
X266178571Y-77642856D01*
X266178571Y-76714285D01*
X266178571Y-75285714D02*
X266178571Y-76142857D01*
X266178571Y-75714285D02*
X264678571Y-75714285D01*
X264892857Y-75857142D01*
X265035714Y-76000000D01*
X265107143Y-76142857D01*
X264678571Y-63214285D02*
X265750000Y-63214285D01*
X265964286Y-63285713D01*
X266107143Y-63428570D01*
X266178571Y-63642856D01*
X266178571Y-63785713D01*
X264821429Y-62571428D02*
X264750000Y-62499999D01*
X264678571Y-62357142D01*
X264678571Y-61999999D01*
X264750000Y-61857142D01*
X264821429Y-61785713D01*
X264964286Y-61714285D01*
X265107143Y-61714285D01*
X265321429Y-61785713D01*
X266178571Y-62642856D01*
X266178571Y-61714285D01*
X264821429Y-61142857D02*
X264750000Y-61071428D01*
X264678571Y-60928571D01*
X264678571Y-60571428D01*
X264750000Y-60428571D01*
X264821429Y-60357142D01*
X264964286Y-60285714D01*
X265107143Y-60285714D01*
X265321429Y-60357142D01*
X266178571Y-61214285D01*
X266178571Y-60285714D01*
X38190476Y-63202381D02*
X38857143Y-64202381D01*
X38857143Y-63202381D02*
X38190476Y-64202381D01*
X39761905Y-64202381D02*
X39190476Y-64202381D01*
X39476190Y-64202381D02*
X39476190Y-63202381D01*
X39380952Y-63345238D01*
X39285714Y-63440476D01*
X39190476Y-63488095D01*
X60190476Y-63202381D02*
X60857143Y-64202381D01*
X60857143Y-63202381D02*
X60190476Y-64202381D01*
X61190476Y-63297619D02*
X61238095Y-63250000D01*
X61333333Y-63202381D01*
X61571429Y-63202381D01*
X61666667Y-63250000D01*
X61714286Y-63297619D01*
X61761905Y-63392857D01*
X61761905Y-63488095D01*
X61714286Y-63630952D01*
X61142857Y-64202381D01*
X61761905Y-64202381D01*
%LPC*%
D14*
X20250000Y-76060000D03*
D15*
X24060000Y-72250000D03*
D16*
X16768700Y-70023274D02*
X16111300Y-72476726D01*
D17*
X122290000Y-91770000D03*
D18*
X122290000Y-88730000D03*
X119750000Y-91770000D03*
X119750000Y-88730000D03*
X117210000Y-91770000D03*
X117210000Y-88730000D03*
D19*
X79000000Y-81700000D03*
D20*
X79000000Y-72300000D03*
D21*
X74100000Y-77000000D03*
X82300000Y-77000000D03*
D19*
X79000000Y-68700000D03*
D20*
X79000000Y-59300000D03*
D21*
X74100000Y-64000000D03*
X82300000Y-64000000D03*
D19*
X97000000Y-68700000D03*
D20*
X97000000Y-59300000D03*
D21*
X92100000Y-64000000D03*
X100300000Y-64000000D03*
D19*
X97000000Y-81700000D03*
D20*
X97000000Y-72300000D03*
D21*
X92100000Y-77000000D03*
X100300000Y-77000000D03*
D19*
X115000000Y-68700000D03*
D20*
X115000000Y-59300000D03*
D21*
X110100000Y-64000000D03*
X118300000Y-64000000D03*
D19*
X115000000Y-81700000D03*
D20*
X115000000Y-72300000D03*
D21*
X110100000Y-77000000D03*
X118300000Y-77000000D03*
D19*
X133000000Y-68700000D03*
D20*
X133000000Y-59300000D03*
D21*
X128100000Y-64000000D03*
X136300000Y-64000000D03*
D19*
X133000000Y-81700000D03*
D20*
X133000000Y-72300000D03*
D21*
X128100000Y-77000000D03*
X136300000Y-77000000D03*
D19*
X151000000Y-68700000D03*
D20*
X151000000Y-59300000D03*
D21*
X146100000Y-64000000D03*
X154300000Y-64000000D03*
D19*
X151000000Y-81700000D03*
D20*
X151000000Y-72300000D03*
D21*
X146100000Y-77000000D03*
X154300000Y-77000000D03*
D19*
X169000000Y-68700000D03*
D20*
X169000000Y-59300000D03*
D21*
X164100000Y-64000000D03*
X172300000Y-64000000D03*
D19*
X169000000Y-81700000D03*
D20*
X169000000Y-72300000D03*
D21*
X164100000Y-77000000D03*
X172300000Y-77000000D03*
D19*
X187000000Y-68700000D03*
D20*
X187000000Y-59300000D03*
D21*
X182100000Y-64000000D03*
X190300000Y-64000000D03*
D19*
X187000000Y-81700000D03*
D20*
X187000000Y-72300000D03*
D21*
X182100000Y-77000000D03*
X190300000Y-77000000D03*
D19*
X205000000Y-68700000D03*
D20*
X205000000Y-59300000D03*
D21*
X200100000Y-64000000D03*
X208300000Y-64000000D03*
D19*
X205000000Y-81700000D03*
D20*
X205000000Y-72300000D03*
D21*
X200100000Y-77000000D03*
X208300000Y-77000000D03*
D19*
X223000000Y-68700000D03*
D20*
X223000000Y-59300000D03*
D21*
X218100000Y-64000000D03*
X226300000Y-64000000D03*
D19*
X223000000Y-81700000D03*
D20*
X223000000Y-72300000D03*
D21*
X218100000Y-77000000D03*
X226300000Y-77000000D03*
D19*
X241000000Y-68700000D03*
D20*
X241000000Y-59300000D03*
D21*
X236100000Y-64000000D03*
X244300000Y-64000000D03*
D19*
X241000000Y-81700000D03*
D20*
X241000000Y-72300000D03*
D21*
X236100000Y-77000000D03*
X244300000Y-77000000D03*
D19*
X259000000Y-81700000D03*
D20*
X259000000Y-72300000D03*
D21*
X254100000Y-77000000D03*
X262300000Y-77000000D03*
D19*
X259000000Y-68700000D03*
D20*
X259000000Y-59300000D03*
D21*
X254100000Y-64000000D03*
X262300000Y-64000000D03*
D17*
X90540000Y-91770000D03*
D18*
X90540000Y-88730000D03*
X88000000Y-91770000D03*
X88000000Y-88730000D03*
X85460000Y-91770000D03*
X85460000Y-88730000D03*
D22*
X14500000Y-77000000D03*
D23*
X14500000Y-80040000D03*
D24*
X284480000Y-88900000D03*
D25*
X281940000Y-88900000D03*
X279400000Y-88900000D03*
D26*
X213750000Y-84000000D03*
D27*
X33500000Y-72250000D03*
X44500000Y-72250000D03*
X39000000Y-77750000D03*
D28*
X39000000Y-67750000D03*
D27*
X35110000Y-76140000D03*
X42890000Y-76140000D03*
D29*
X39000000Y-67750000D03*
D30*
X34900000Y-72250000D03*
X43100000Y-72250000D03*
D31*
X39000000Y-76350000D03*
D32*
X34968629Y-76281371D02*
X37231371Y-74018629D01*
X40768629Y-74018629D02*
X43031371Y-76281371D01*
D27*
X55500000Y-72250000D03*
X66500000Y-72250000D03*
X61000000Y-77750000D03*
D28*
X61000000Y-67750000D03*
D27*
X57110000Y-76140000D03*
X64890000Y-76140000D03*
D29*
X61000000Y-67750000D03*
D30*
X56900000Y-72250000D03*
X65100000Y-72250000D03*
D31*
X61000000Y-76350000D03*
D32*
X56968629Y-76281371D02*
X59231371Y-74018629D01*
X62768629Y-74018629D02*
X65031371Y-76281371D01*
D33*
X67530000Y-86460000D03*
D34*
X67530000Y-89000000D03*
X67530000Y-91540000D03*
D33*
X19580000Y-86460000D03*
D34*
X19580000Y-89000000D03*
X19580000Y-91540000D03*
D24*
X264160000Y-88900000D03*
D25*
X261620000Y-88900000D03*
X259080000Y-88900000D03*
X256540000Y-88900000D03*
D24*
X266700000Y-88900000D03*
D25*
X269240000Y-88900000D03*
X271780000Y-88900000D03*
D18*
X33610000Y-88730000D03*
X33610000Y-91770000D03*
X36150000Y-91770000D03*
X36150000Y-88730000D03*
X38690000Y-88730000D03*
X38690000Y-91770000D03*
X41230000Y-91770000D03*
X41230000Y-88730000D03*
X43770000Y-88730000D03*
X43770000Y-91770000D03*
D17*
X51390000Y-91770000D03*
D18*
X51390000Y-88730000D03*
X48850000Y-91770000D03*
X48850000Y-88730000D03*
X46310000Y-91770000D03*
X46310000Y-88730000D03*
M02*
