M48
;DRILL file {KiCad 4.0.2-stable} date 2019-06-10 2:37:06 PM
;FORMAT={2:4/ absolute / inch / suppress leading zeros}
FMAT,2
INCH,TZ
T1C0.024
T2C0.039
T3C0.047
T4C0.078
T5C0.082
T6C0.039
T7C0.128
T8C0.250
%
G90
G05
M72
T2
X123264Y-35000
X124264Y-35000
X125264Y-35000
X126264Y-35000
X127264Y-35000
X128264Y-35000
X129264Y-35000
X133415Y-29370
X134415Y-29370
X135415Y-29370
T3
X132576Y-23426
X133576Y-23426
T4
X132482Y-34275
X134022Y-36555
X135202Y-31555
X136820Y-35894
X137482Y-33095
T5
X118799Y-24724
X118799Y-27724
X118799Y-31724
X122699Y-27724
X122699Y-31724
T6
X131398Y-24409
X131398Y-24902
X131398Y-25394
X131398Y-29823
X131398Y-30315
X131398Y-34449
X131398Y-34941
T7
X120669Y-29724
T8
X134982Y-34055
T1
X132281Y-26713G85X132281Y-25453
G05
X134053Y-26713G85X134053Y-25453
G05
T2
X126673Y-24902G85X126673Y-24508
G05
X128248Y-23327G85X128642Y-23327
G05
X130413Y-26791G85X130413Y-26398
G05
T0
M30
