G04 #@! TF.FileFunction,Copper,L2,Bot,Signal*
%FSLAX46Y46*%
G04 Gerber Fmt 4.6, Leading zero omitted, Abs format (unit mm)*
G04 Created by KiCad (PCBNEW 4.0.2-stable) date 2020-02-08 1:43:22 PM*
%MOMM*%
G01*
G04 APERTURE LIST*
%ADD10C,0.200000*%
%ADD11R,1.650000X4.500000*%
%ADD12R,1.700000X1.700000*%
%ADD13O,1.700000X1.700000*%
%ADD14R,2.000000X2.750000*%
%ADD15O,2.000000X2.750000*%
%ADD16C,3.175000*%
%ADD17C,4.445000*%
%ADD18O,3.500000X1.700000*%
%ADD19O,1.700000X3.500000*%
%ADD20C,0.500000*%
%ADD21C,1.000000*%
G04 APERTURE END LIST*
D10*
D11*
X335994026Y-66250932D03*
X340494026Y-66250932D03*
D12*
X320710000Y-88900000D03*
D13*
X318170000Y-88900000D03*
X315630000Y-88900000D03*
X313090000Y-88900000D03*
D12*
X323250000Y-88900000D03*
D13*
X325790000Y-88900000D03*
X328330000Y-88900000D03*
D14*
X336644026Y-59650932D03*
D15*
X339384026Y-59650932D03*
D12*
X338874026Y-74600932D03*
D13*
X341414026Y-74600932D03*
X343954026Y-74600932D03*
D16*
X343412826Y-80150932D03*
X349204026Y-84062532D03*
X336504026Y-87059732D03*
X340415626Y-92850932D03*
X347523759Y-91170665D03*
D17*
X301750200Y-62800000D03*
X301750200Y-70420000D03*
X301750200Y-80580000D03*
X311656200Y-70420000D03*
X311656200Y-80580000D03*
D18*
X326250000Y-59250000D03*
D19*
X321750000Y-62750000D03*
X331250000Y-67550000D03*
D20*
X326250000Y-59250000D02*
X326250000Y-72500000D01*
X326250000Y-72500000D02*
X328305000Y-74555000D01*
X328305000Y-74555000D02*
X328330000Y-74530000D01*
X328330000Y-74530000D02*
X328330000Y-88900000D01*
X320710000Y-73710000D02*
X309800000Y-62800000D01*
X309800000Y-62800000D02*
X301750200Y-62800000D01*
X320710000Y-88900000D02*
X320710000Y-73710000D01*
X313090000Y-88900000D02*
X313090000Y-85410000D01*
X313090000Y-85410000D02*
X316250000Y-82250000D01*
X316250000Y-82250000D02*
X316250000Y-75013800D01*
X316250000Y-75013800D02*
X311656200Y-70420000D01*
D21*
X335994026Y-63000932D02*
X336744026Y-62250932D01*
X336744026Y-62250932D02*
X336744026Y-59500932D01*
X335994026Y-66250932D02*
X335994026Y-63000932D01*
X339244026Y-61750932D02*
X339244026Y-59540932D01*
X340494026Y-63000932D02*
X339244026Y-61750932D01*
X340494026Y-66250932D02*
X340494026Y-63000932D01*
D20*
X347523759Y-91170665D02*
X341823759Y-91170665D01*
X341823759Y-91170665D02*
X338874026Y-88220932D01*
X338874026Y-88220932D02*
X338874026Y-74600932D01*
M02*
