G04 #@! TF.FileFunction,Copper,L1,Top,Signal*
%FSLAX46Y46*%
G04 Gerber Fmt 4.6, Leading zero omitted, Abs format (unit mm)*
G04 Created by KiCad (PCBNEW 4.0.2-stable) date 2020-02-08 1:43:22 PM*
%MOMM*%
G01*
G04 APERTURE LIST*
%ADD10C,0.200000*%
%ADD11C,0.010000*%
%ADD12R,1.650000X4.500000*%
%ADD13R,1.700000X1.700000*%
%ADD14O,1.700000X1.700000*%
%ADD15R,2.000000X2.750000*%
%ADD16O,2.000000X2.750000*%
%ADD17C,3.175000*%
%ADD18C,4.445000*%
%ADD19O,3.500000X1.700000*%
%ADD20O,1.700000X3.500000*%
%ADD21C,0.500000*%
%ADD22C,1.000000*%
G04 APERTURE END LIST*
D10*
D11*
G36*
X319456536Y-66727439D02*
X319452585Y-66795647D01*
X319446238Y-66856151D01*
X319437601Y-66903869D01*
X319437327Y-66904973D01*
X319400688Y-67019198D01*
X319350784Y-67121575D01*
X319286998Y-67213262D01*
X319252398Y-67252621D01*
X319173578Y-67326160D01*
X319086276Y-67388009D01*
X318988842Y-67438935D01*
X318879626Y-67479709D01*
X318756980Y-67511098D01*
X318661143Y-67528063D01*
X318598972Y-67535813D01*
X318534878Y-67541109D01*
X318472177Y-67543932D01*
X318414183Y-67544263D01*
X318364212Y-67542082D01*
X318325578Y-67537370D01*
X318301634Y-67530130D01*
X318258755Y-67497204D01*
X318228652Y-67454449D01*
X318212248Y-67405481D01*
X318210463Y-67353919D01*
X318224221Y-67303382D01*
X318237627Y-67279005D01*
X318255696Y-67255632D01*
X318276902Y-67237519D01*
X318303960Y-67223769D01*
X318339585Y-67213484D01*
X318386493Y-67205765D01*
X318447397Y-67199717D01*
X318485963Y-67196902D01*
X318604020Y-67185453D01*
X318706451Y-67167730D01*
X318794832Y-67143228D01*
X318870741Y-67111441D01*
X318935752Y-67071862D01*
X318974727Y-67040069D01*
X319014450Y-67000645D01*
X319044316Y-66962322D01*
X319068177Y-66919077D01*
X319089885Y-66864890D01*
X319093640Y-66854150D01*
X319104361Y-66820632D01*
X319111473Y-66790604D01*
X319115720Y-66758577D01*
X319117848Y-66719060D01*
X319118579Y-66670286D01*
X319116296Y-66593898D01*
X319107545Y-66529970D01*
X319090972Y-66473552D01*
X319065223Y-66419695D01*
X319038224Y-66376761D01*
X318981989Y-66310013D01*
X318911118Y-66251640D01*
X318827403Y-66202325D01*
X318732640Y-66162750D01*
X318628622Y-66133597D01*
X318517144Y-66115550D01*
X318399999Y-66109290D01*
X318339107Y-66110833D01*
X318228645Y-66123216D01*
X318129547Y-66148786D01*
X318039973Y-66188286D01*
X317958086Y-66242456D01*
X317910139Y-66283954D01*
X317860709Y-66333429D01*
X317817414Y-66383042D01*
X317778263Y-66435873D01*
X317741266Y-66495004D01*
X317704432Y-66563517D01*
X317665770Y-66644493D01*
X317640359Y-66701504D01*
X317585524Y-66822994D01*
X317533728Y-66928751D01*
X317483684Y-67020663D01*
X317434111Y-67100619D01*
X317383722Y-67170506D01*
X317331236Y-67232212D01*
X317275368Y-67287626D01*
X317214833Y-67338634D01*
X317198630Y-67351062D01*
X317098541Y-67417949D01*
X316994699Y-67469937D01*
X316884875Y-67507712D01*
X316766843Y-67531959D01*
X316638374Y-67543364D01*
X316570179Y-67544469D01*
X316421849Y-67536863D01*
X316282302Y-67515960D01*
X316152297Y-67482273D01*
X316032595Y-67436314D01*
X315923958Y-67378596D01*
X315827147Y-67309633D01*
X315742923Y-67229939D01*
X315672047Y-67140025D01*
X315615280Y-67040406D01*
X315573384Y-66931594D01*
X315555309Y-66860220D01*
X315545252Y-66795754D01*
X315538727Y-66720978D01*
X315536066Y-66643439D01*
X315537597Y-66570684D01*
X315540872Y-66530630D01*
X315561014Y-66415323D01*
X315593989Y-66305908D01*
X315638626Y-66205372D01*
X315693753Y-66116703D01*
X315712694Y-66092210D01*
X315786340Y-66015815D01*
X315874320Y-65948818D01*
X315975122Y-65891776D01*
X316087237Y-65845246D01*
X316209156Y-65809783D01*
X316339368Y-65785944D01*
X316476365Y-65774285D01*
X316577038Y-65773709D01*
X316626433Y-65775397D01*
X316661346Y-65777761D01*
X316685439Y-65781371D01*
X316702375Y-65786793D01*
X316715814Y-65794598D01*
X316716960Y-65795424D01*
X316750482Y-65830465D01*
X316772191Y-65875363D01*
X316781389Y-65925635D01*
X316777380Y-65976799D01*
X316759467Y-66024373D01*
X316753954Y-66033367D01*
X316721093Y-66069805D01*
X316678165Y-66093712D01*
X316623348Y-66105882D01*
X316583189Y-66107883D01*
X316468955Y-66113006D01*
X316360339Y-66127840D01*
X316259503Y-66151715D01*
X316168608Y-66183959D01*
X316089815Y-66223901D01*
X316025285Y-66270870D01*
X316009185Y-66286076D01*
X315955559Y-66350561D01*
X315916284Y-66422152D01*
X315890835Y-66502452D01*
X315878685Y-66593061D01*
X315878614Y-66683359D01*
X315891153Y-66783688D01*
X315918086Y-66873172D01*
X315959463Y-66951855D01*
X316015338Y-67019780D01*
X316085761Y-67076993D01*
X316170784Y-67123537D01*
X316270459Y-67159457D01*
X316384838Y-67184798D01*
X316478237Y-67196696D01*
X316602232Y-67200869D01*
X316717313Y-67189572D01*
X316823215Y-67162916D01*
X316919674Y-67121011D01*
X317006425Y-67063967D01*
X317083201Y-66991897D01*
X317139324Y-66920509D01*
X317156347Y-66892918D01*
X317179254Y-66851727D01*
X317206558Y-66799914D01*
X317236772Y-66740457D01*
X317268411Y-66676335D01*
X317299987Y-66610526D01*
X317330014Y-66546008D01*
X317357006Y-66485759D01*
X317361758Y-66474834D01*
X317427356Y-66342845D01*
X317504669Y-66222166D01*
X317592672Y-66113738D01*
X317690341Y-66018500D01*
X317796654Y-65937392D01*
X317910585Y-65871354D01*
X318031112Y-65821326D01*
X318094179Y-65802439D01*
X318159234Y-65789293D01*
X318237294Y-65779777D01*
X318323554Y-65774053D01*
X318413210Y-65772278D01*
X318501460Y-65774612D01*
X318583498Y-65781215D01*
X318614229Y-65785193D01*
X318756605Y-65813309D01*
X318887604Y-65853977D01*
X319006681Y-65906745D01*
X319113293Y-65971157D01*
X319206893Y-66046760D01*
X319286938Y-66133099D01*
X319352882Y-66229720D01*
X319404181Y-66336168D01*
X319440291Y-66451989D01*
X319446250Y-66479211D01*
X319452948Y-66527412D01*
X319456824Y-66588239D01*
X319457985Y-66656609D01*
X319456536Y-66727439D01*
X319456536Y-66727439D01*
G37*
X319456536Y-66727439D02*
X319452585Y-66795647D01*
X319446238Y-66856151D01*
X319437601Y-66903869D01*
X319437327Y-66904973D01*
X319400688Y-67019198D01*
X319350784Y-67121575D01*
X319286998Y-67213262D01*
X319252398Y-67252621D01*
X319173578Y-67326160D01*
X319086276Y-67388009D01*
X318988842Y-67438935D01*
X318879626Y-67479709D01*
X318756980Y-67511098D01*
X318661143Y-67528063D01*
X318598972Y-67535813D01*
X318534878Y-67541109D01*
X318472177Y-67543932D01*
X318414183Y-67544263D01*
X318364212Y-67542082D01*
X318325578Y-67537370D01*
X318301634Y-67530130D01*
X318258755Y-67497204D01*
X318228652Y-67454449D01*
X318212248Y-67405481D01*
X318210463Y-67353919D01*
X318224221Y-67303382D01*
X318237627Y-67279005D01*
X318255696Y-67255632D01*
X318276902Y-67237519D01*
X318303960Y-67223769D01*
X318339585Y-67213484D01*
X318386493Y-67205765D01*
X318447397Y-67199717D01*
X318485963Y-67196902D01*
X318604020Y-67185453D01*
X318706451Y-67167730D01*
X318794832Y-67143228D01*
X318870741Y-67111441D01*
X318935752Y-67071862D01*
X318974727Y-67040069D01*
X319014450Y-67000645D01*
X319044316Y-66962322D01*
X319068177Y-66919077D01*
X319089885Y-66864890D01*
X319093640Y-66854150D01*
X319104361Y-66820632D01*
X319111473Y-66790604D01*
X319115720Y-66758577D01*
X319117848Y-66719060D01*
X319118579Y-66670286D01*
X319116296Y-66593898D01*
X319107545Y-66529970D01*
X319090972Y-66473552D01*
X319065223Y-66419695D01*
X319038224Y-66376761D01*
X318981989Y-66310013D01*
X318911118Y-66251640D01*
X318827403Y-66202325D01*
X318732640Y-66162750D01*
X318628622Y-66133597D01*
X318517144Y-66115550D01*
X318399999Y-66109290D01*
X318339107Y-66110833D01*
X318228645Y-66123216D01*
X318129547Y-66148786D01*
X318039973Y-66188286D01*
X317958086Y-66242456D01*
X317910139Y-66283954D01*
X317860709Y-66333429D01*
X317817414Y-66383042D01*
X317778263Y-66435873D01*
X317741266Y-66495004D01*
X317704432Y-66563517D01*
X317665770Y-66644493D01*
X317640359Y-66701504D01*
X317585524Y-66822994D01*
X317533728Y-66928751D01*
X317483684Y-67020663D01*
X317434111Y-67100619D01*
X317383722Y-67170506D01*
X317331236Y-67232212D01*
X317275368Y-67287626D01*
X317214833Y-67338634D01*
X317198630Y-67351062D01*
X317098541Y-67417949D01*
X316994699Y-67469937D01*
X316884875Y-67507712D01*
X316766843Y-67531959D01*
X316638374Y-67543364D01*
X316570179Y-67544469D01*
X316421849Y-67536863D01*
X316282302Y-67515960D01*
X316152297Y-67482273D01*
X316032595Y-67436314D01*
X315923958Y-67378596D01*
X315827147Y-67309633D01*
X315742923Y-67229939D01*
X315672047Y-67140025D01*
X315615280Y-67040406D01*
X315573384Y-66931594D01*
X315555309Y-66860220D01*
X315545252Y-66795754D01*
X315538727Y-66720978D01*
X315536066Y-66643439D01*
X315537597Y-66570684D01*
X315540872Y-66530630D01*
X315561014Y-66415323D01*
X315593989Y-66305908D01*
X315638626Y-66205372D01*
X315693753Y-66116703D01*
X315712694Y-66092210D01*
X315786340Y-66015815D01*
X315874320Y-65948818D01*
X315975122Y-65891776D01*
X316087237Y-65845246D01*
X316209156Y-65809783D01*
X316339368Y-65785944D01*
X316476365Y-65774285D01*
X316577038Y-65773709D01*
X316626433Y-65775397D01*
X316661346Y-65777761D01*
X316685439Y-65781371D01*
X316702375Y-65786793D01*
X316715814Y-65794598D01*
X316716960Y-65795424D01*
X316750482Y-65830465D01*
X316772191Y-65875363D01*
X316781389Y-65925635D01*
X316777380Y-65976799D01*
X316759467Y-66024373D01*
X316753954Y-66033367D01*
X316721093Y-66069805D01*
X316678165Y-66093712D01*
X316623348Y-66105882D01*
X316583189Y-66107883D01*
X316468955Y-66113006D01*
X316360339Y-66127840D01*
X316259503Y-66151715D01*
X316168608Y-66183959D01*
X316089815Y-66223901D01*
X316025285Y-66270870D01*
X316009185Y-66286076D01*
X315955559Y-66350561D01*
X315916284Y-66422152D01*
X315890835Y-66502452D01*
X315878685Y-66593061D01*
X315878614Y-66683359D01*
X315891153Y-66783688D01*
X315918086Y-66873172D01*
X315959463Y-66951855D01*
X316015338Y-67019780D01*
X316085761Y-67076993D01*
X316170784Y-67123537D01*
X316270459Y-67159457D01*
X316384838Y-67184798D01*
X316478237Y-67196696D01*
X316602232Y-67200869D01*
X316717313Y-67189572D01*
X316823215Y-67162916D01*
X316919674Y-67121011D01*
X317006425Y-67063967D01*
X317083201Y-66991897D01*
X317139324Y-66920509D01*
X317156347Y-66892918D01*
X317179254Y-66851727D01*
X317206558Y-66799914D01*
X317236772Y-66740457D01*
X317268411Y-66676335D01*
X317299987Y-66610526D01*
X317330014Y-66546008D01*
X317357006Y-66485759D01*
X317361758Y-66474834D01*
X317427356Y-66342845D01*
X317504669Y-66222166D01*
X317592672Y-66113738D01*
X317690341Y-66018500D01*
X317796654Y-65937392D01*
X317910585Y-65871354D01*
X318031112Y-65821326D01*
X318094179Y-65802439D01*
X318159234Y-65789293D01*
X318237294Y-65779777D01*
X318323554Y-65774053D01*
X318413210Y-65772278D01*
X318501460Y-65774612D01*
X318583498Y-65781215D01*
X318614229Y-65785193D01*
X318756605Y-65813309D01*
X318887604Y-65853977D01*
X319006681Y-65906745D01*
X319113293Y-65971157D01*
X319206893Y-66046760D01*
X319286938Y-66133099D01*
X319352882Y-66229720D01*
X319404181Y-66336168D01*
X319440291Y-66451989D01*
X319446250Y-66479211D01*
X319452948Y-66527412D01*
X319456824Y-66588239D01*
X319457985Y-66656609D01*
X319456536Y-66727439D01*
G36*
X319451500Y-69863498D02*
X319429718Y-69908104D01*
X319396749Y-69943509D01*
X319355457Y-69967771D01*
X319308707Y-69978950D01*
X319259363Y-69975108D01*
X319231736Y-69965702D01*
X319218523Y-69959025D01*
X319190482Y-69944211D01*
X319148692Y-69921844D01*
X319094232Y-69892512D01*
X319028182Y-69856800D01*
X318951621Y-69815293D01*
X318865630Y-69768579D01*
X318771286Y-69717242D01*
X318669670Y-69661869D01*
X318561862Y-69603045D01*
X318448939Y-69541358D01*
X318331983Y-69477391D01*
X318318996Y-69470283D01*
X317446170Y-68992572D01*
X315655558Y-68992572D01*
X315618378Y-68970783D01*
X315579305Y-68937908D01*
X315552094Y-68894085D01*
X315538363Y-68843336D01*
X315539728Y-68789684D01*
X315541714Y-68779976D01*
X315560023Y-68734889D01*
X315590402Y-68694908D01*
X315624951Y-68668259D01*
X315630656Y-68665650D01*
X315638391Y-68663328D01*
X315649231Y-68661270D01*
X315664251Y-68659452D01*
X315684524Y-68657851D01*
X315711125Y-68656444D01*
X315745128Y-68655206D01*
X315787608Y-68654115D01*
X315839639Y-68653147D01*
X315902295Y-68652279D01*
X315976651Y-68651488D01*
X316063781Y-68650749D01*
X316164759Y-68650040D01*
X316280660Y-68649337D01*
X316412557Y-68648616D01*
X316561107Y-68647857D01*
X317468250Y-68643322D01*
X318350491Y-68160088D01*
X318499324Y-68078651D01*
X318632933Y-68005726D01*
X318751937Y-67940986D01*
X318856955Y-67884102D01*
X318948607Y-67834747D01*
X319027511Y-67792591D01*
X319094287Y-67757307D01*
X319149554Y-67728567D01*
X319193930Y-67706042D01*
X319228035Y-67689405D01*
X319252489Y-67678327D01*
X319267909Y-67672479D01*
X319272375Y-67671421D01*
X319326533Y-67672473D01*
X319375398Y-67689933D01*
X319416083Y-67722302D01*
X319441539Y-67759353D01*
X319456643Y-67806807D01*
X319457740Y-67857856D01*
X319445881Y-67907589D01*
X319422115Y-67951099D01*
X319394648Y-67978563D01*
X319382375Y-67986123D01*
X319355332Y-68001710D01*
X319314682Y-68024679D01*
X319261592Y-68054384D01*
X319197226Y-68090181D01*
X319122751Y-68131425D01*
X319039330Y-68177470D01*
X318948129Y-68227672D01*
X318850314Y-68281385D01*
X318747049Y-68337964D01*
X318639500Y-68396765D01*
X318620321Y-68407238D01*
X318512788Y-68465972D01*
X318409772Y-68522289D01*
X318312388Y-68575577D01*
X318221755Y-68625222D01*
X318138989Y-68670611D01*
X318065208Y-68711129D01*
X318001528Y-68746163D01*
X317949066Y-68775100D01*
X317908940Y-68797326D01*
X317882267Y-68812227D01*
X317870163Y-68819191D01*
X317869569Y-68819594D01*
X317876342Y-68824759D01*
X317897949Y-68838026D01*
X317933310Y-68858788D01*
X317981344Y-68886434D01*
X318040972Y-68920357D01*
X318111113Y-68959948D01*
X318190688Y-69004596D01*
X318278615Y-69053693D01*
X318373816Y-69106631D01*
X318475209Y-69162800D01*
X318581714Y-69221591D01*
X318617962Y-69241553D01*
X318726739Y-69301465D01*
X318831365Y-69359170D01*
X318930695Y-69414034D01*
X319023587Y-69465420D01*
X319108898Y-69512695D01*
X319185486Y-69555223D01*
X319252206Y-69592370D01*
X319307917Y-69623500D01*
X319351475Y-69647980D01*
X319381738Y-69665173D01*
X319397562Y-69674446D01*
X319399253Y-69675539D01*
X319426704Y-69704525D01*
X319447163Y-69745338D01*
X319458093Y-69792217D01*
X319459229Y-69811629D01*
X319451500Y-69863498D01*
X319451500Y-69863498D01*
G37*
X319451500Y-69863498D02*
X319429718Y-69908104D01*
X319396749Y-69943509D01*
X319355457Y-69967771D01*
X319308707Y-69978950D01*
X319259363Y-69975108D01*
X319231736Y-69965702D01*
X319218523Y-69959025D01*
X319190482Y-69944211D01*
X319148692Y-69921844D01*
X319094232Y-69892512D01*
X319028182Y-69856800D01*
X318951621Y-69815293D01*
X318865630Y-69768579D01*
X318771286Y-69717242D01*
X318669670Y-69661869D01*
X318561862Y-69603045D01*
X318448939Y-69541358D01*
X318331983Y-69477391D01*
X318318996Y-69470283D01*
X317446170Y-68992572D01*
X315655558Y-68992572D01*
X315618378Y-68970783D01*
X315579305Y-68937908D01*
X315552094Y-68894085D01*
X315538363Y-68843336D01*
X315539728Y-68789684D01*
X315541714Y-68779976D01*
X315560023Y-68734889D01*
X315590402Y-68694908D01*
X315624951Y-68668259D01*
X315630656Y-68665650D01*
X315638391Y-68663328D01*
X315649231Y-68661270D01*
X315664251Y-68659452D01*
X315684524Y-68657851D01*
X315711125Y-68656444D01*
X315745128Y-68655206D01*
X315787608Y-68654115D01*
X315839639Y-68653147D01*
X315902295Y-68652279D01*
X315976651Y-68651488D01*
X316063781Y-68650749D01*
X316164759Y-68650040D01*
X316280660Y-68649337D01*
X316412557Y-68648616D01*
X316561107Y-68647857D01*
X317468250Y-68643322D01*
X318350491Y-68160088D01*
X318499324Y-68078651D01*
X318632933Y-68005726D01*
X318751937Y-67940986D01*
X318856955Y-67884102D01*
X318948607Y-67834747D01*
X319027511Y-67792591D01*
X319094287Y-67757307D01*
X319149554Y-67728567D01*
X319193930Y-67706042D01*
X319228035Y-67689405D01*
X319252489Y-67678327D01*
X319267909Y-67672479D01*
X319272375Y-67671421D01*
X319326533Y-67672473D01*
X319375398Y-67689933D01*
X319416083Y-67722302D01*
X319441539Y-67759353D01*
X319456643Y-67806807D01*
X319457740Y-67857856D01*
X319445881Y-67907589D01*
X319422115Y-67951099D01*
X319394648Y-67978563D01*
X319382375Y-67986123D01*
X319355332Y-68001710D01*
X319314682Y-68024679D01*
X319261592Y-68054384D01*
X319197226Y-68090181D01*
X319122751Y-68131425D01*
X319039330Y-68177470D01*
X318948129Y-68227672D01*
X318850314Y-68281385D01*
X318747049Y-68337964D01*
X318639500Y-68396765D01*
X318620321Y-68407238D01*
X318512788Y-68465972D01*
X318409772Y-68522289D01*
X318312388Y-68575577D01*
X318221755Y-68625222D01*
X318138989Y-68670611D01*
X318065208Y-68711129D01*
X318001528Y-68746163D01*
X317949066Y-68775100D01*
X317908940Y-68797326D01*
X317882267Y-68812227D01*
X317870163Y-68819191D01*
X317869569Y-68819594D01*
X317876342Y-68824759D01*
X317897949Y-68838026D01*
X317933310Y-68858788D01*
X317981344Y-68886434D01*
X318040972Y-68920357D01*
X318111113Y-68959948D01*
X318190688Y-69004596D01*
X318278615Y-69053693D01*
X318373816Y-69106631D01*
X318475209Y-69162800D01*
X318581714Y-69221591D01*
X318617962Y-69241553D01*
X318726739Y-69301465D01*
X318831365Y-69359170D01*
X318930695Y-69414034D01*
X319023587Y-69465420D01*
X319108898Y-69512695D01*
X319185486Y-69555223D01*
X319252206Y-69592370D01*
X319307917Y-69623500D01*
X319351475Y-69647980D01*
X319381738Y-69665173D01*
X319397562Y-69674446D01*
X319399253Y-69675539D01*
X319426704Y-69704525D01*
X319447163Y-69745338D01*
X319458093Y-69792217D01*
X319459229Y-69811629D01*
X319451500Y-69863498D01*
G36*
X319457812Y-70995069D02*
X319453298Y-71075893D01*
X319444890Y-71150737D01*
X319432771Y-71213762D01*
X319432439Y-71215072D01*
X319394775Y-71328535D01*
X319342725Y-71431111D01*
X319276538Y-71522634D01*
X319196465Y-71602939D01*
X319102753Y-71671860D01*
X318995654Y-71729231D01*
X318875416Y-71774889D01*
X318742288Y-71808666D01*
X318596521Y-71830398D01*
X318492726Y-71838099D01*
X318444865Y-71839738D01*
X318400558Y-71840171D01*
X318364547Y-71839422D01*
X318341574Y-71837515D01*
X318340586Y-71837340D01*
X318300473Y-71821372D01*
X318263729Y-71791633D01*
X318233792Y-71752497D01*
X318214097Y-71708336D01*
X318207970Y-71668643D01*
X318216395Y-71620617D01*
X318239392Y-71575302D01*
X318273542Y-71537322D01*
X318315426Y-71511300D01*
X318327537Y-71506948D01*
X318348010Y-71503030D01*
X318381940Y-71499002D01*
X318424650Y-71495332D01*
X318471465Y-71492488D01*
X318472570Y-71492436D01*
X318602499Y-71481194D01*
X318717175Y-71460408D01*
X318816889Y-71429892D01*
X318901933Y-71389457D01*
X318972597Y-71338917D01*
X319029173Y-71278086D01*
X319071952Y-71206776D01*
X319101224Y-71124800D01*
X319110352Y-71082803D01*
X319122293Y-70979717D01*
X319119287Y-70886080D01*
X319100957Y-70800541D01*
X319066933Y-70721744D01*
X319016839Y-70648337D01*
X318978869Y-70606271D01*
X318940397Y-70569299D01*
X318905897Y-70541636D01*
X318868276Y-70518211D01*
X318824428Y-70495862D01*
X318716510Y-70453107D01*
X318600090Y-70423313D01*
X318479259Y-70406889D01*
X318358106Y-70404245D01*
X318240719Y-70415790D01*
X318170960Y-70430425D01*
X318076529Y-70464135D01*
X317987336Y-70514966D01*
X317903994Y-70582497D01*
X317827115Y-70666306D01*
X317825296Y-70668587D01*
X317795135Y-70708010D01*
X317767894Y-70747284D01*
X317741977Y-70789299D01*
X317715788Y-70836942D01*
X317687733Y-70893103D01*
X317656217Y-70960669D01*
X317623040Y-71034830D01*
X317576276Y-71138068D01*
X317533361Y-71226475D01*
X317492735Y-71302537D01*
X317452833Y-71368740D01*
X317412095Y-71427571D01*
X317368958Y-71481515D01*
X317321859Y-71533058D01*
X317289848Y-71565031D01*
X317203407Y-71641430D01*
X317116398Y-71702607D01*
X317024651Y-71751121D01*
X316923995Y-71789530D01*
X316923964Y-71789540D01*
X316872664Y-71805371D01*
X316828052Y-71817226D01*
X316785930Y-71825646D01*
X316742101Y-71831174D01*
X316692367Y-71834354D01*
X316632530Y-71835727D01*
X316565643Y-71835864D01*
X316497726Y-71835279D01*
X316443824Y-71833834D01*
X316399818Y-71831213D01*
X316361589Y-71827102D01*
X316325018Y-71821187D01*
X316295511Y-71815229D01*
X316157009Y-71778177D01*
X316031384Y-71729465D01*
X315919004Y-71669407D01*
X315820235Y-71598317D01*
X315735445Y-71516511D01*
X315665002Y-71424302D01*
X315609274Y-71322006D01*
X315568628Y-71209938D01*
X315562714Y-71187857D01*
X315541197Y-71068786D01*
X315534616Y-70941173D01*
X315541441Y-70821695D01*
X315561522Y-70700237D01*
X315595252Y-70590112D01*
X315643234Y-70490045D01*
X315706072Y-70398759D01*
X315778651Y-70320361D01*
X315869956Y-70246145D01*
X315973979Y-70184791D01*
X316090600Y-70136337D01*
X316219701Y-70100823D01*
X316361164Y-70078289D01*
X316514871Y-70068773D01*
X316538429Y-70068475D01*
X316592464Y-70068282D01*
X316631713Y-70068795D01*
X316659529Y-70070396D01*
X316679264Y-70073465D01*
X316694272Y-70078385D01*
X316707906Y-70085538D01*
X316712410Y-70088289D01*
X316747011Y-70119803D01*
X316770491Y-70161726D01*
X316782158Y-70209626D01*
X316781326Y-70259069D01*
X316767305Y-70305623D01*
X316750393Y-70332736D01*
X316727938Y-70357590D01*
X316704076Y-70375484D01*
X316675057Y-70387789D01*
X316637129Y-70395874D01*
X316586540Y-70401111D01*
X316558252Y-70402926D01*
X316436982Y-70413014D01*
X316331316Y-70428988D01*
X316239506Y-70451426D01*
X316159807Y-70480908D01*
X316090473Y-70518010D01*
X316029758Y-70563311D01*
X316005266Y-70586048D01*
X315953687Y-70647460D01*
X315915744Y-70716934D01*
X315890827Y-70796154D01*
X315878330Y-70886805D01*
X315876529Y-70942929D01*
X315884120Y-71045827D01*
X315906810Y-71138684D01*
X315944473Y-71221327D01*
X315996983Y-71293581D01*
X316064216Y-71355275D01*
X316146045Y-71406234D01*
X316241325Y-71445945D01*
X316316374Y-71466585D01*
X316401874Y-71482581D01*
X316490476Y-71492810D01*
X316570179Y-71496164D01*
X316686712Y-71489286D01*
X316792197Y-71468460D01*
X316887598Y-71433332D01*
X316973885Y-71383545D01*
X317051357Y-71319393D01*
X317085007Y-71284271D01*
X317116327Y-71245836D01*
X317146927Y-71201508D01*
X317178420Y-71148709D01*
X317212416Y-71084860D01*
X317250526Y-71007383D01*
X317263889Y-70979215D01*
X317291413Y-70920823D01*
X317320259Y-70859683D01*
X317348007Y-70800925D01*
X317372235Y-70749679D01*
X317386405Y-70719751D01*
X317437298Y-70621522D01*
X317492254Y-70535000D01*
X317555727Y-70453755D01*
X317617077Y-70386744D01*
X317714506Y-70294891D01*
X317813009Y-70220065D01*
X317914964Y-70161198D01*
X318022748Y-70117220D01*
X318138737Y-70087063D01*
X318265309Y-70069657D01*
X318331556Y-70065475D01*
X318480603Y-70066058D01*
X318622592Y-70080149D01*
X318756620Y-70107172D01*
X318881782Y-70146551D01*
X318997174Y-70197710D01*
X319101892Y-70260074D01*
X319195033Y-70333067D01*
X319275691Y-70416113D01*
X319342964Y-70508638D01*
X319395946Y-70610065D01*
X319433733Y-70719819D01*
X319446174Y-70775107D01*
X319454433Y-70838837D01*
X319458252Y-70914104D01*
X319457812Y-70995069D01*
X319457812Y-70995069D01*
G37*
X319457812Y-70995069D02*
X319453298Y-71075893D01*
X319444890Y-71150737D01*
X319432771Y-71213762D01*
X319432439Y-71215072D01*
X319394775Y-71328535D01*
X319342725Y-71431111D01*
X319276538Y-71522634D01*
X319196465Y-71602939D01*
X319102753Y-71671860D01*
X318995654Y-71729231D01*
X318875416Y-71774889D01*
X318742288Y-71808666D01*
X318596521Y-71830398D01*
X318492726Y-71838099D01*
X318444865Y-71839738D01*
X318400558Y-71840171D01*
X318364547Y-71839422D01*
X318341574Y-71837515D01*
X318340586Y-71837340D01*
X318300473Y-71821372D01*
X318263729Y-71791633D01*
X318233792Y-71752497D01*
X318214097Y-71708336D01*
X318207970Y-71668643D01*
X318216395Y-71620617D01*
X318239392Y-71575302D01*
X318273542Y-71537322D01*
X318315426Y-71511300D01*
X318327537Y-71506948D01*
X318348010Y-71503030D01*
X318381940Y-71499002D01*
X318424650Y-71495332D01*
X318471465Y-71492488D01*
X318472570Y-71492436D01*
X318602499Y-71481194D01*
X318717175Y-71460408D01*
X318816889Y-71429892D01*
X318901933Y-71389457D01*
X318972597Y-71338917D01*
X319029173Y-71278086D01*
X319071952Y-71206776D01*
X319101224Y-71124800D01*
X319110352Y-71082803D01*
X319122293Y-70979717D01*
X319119287Y-70886080D01*
X319100957Y-70800541D01*
X319066933Y-70721744D01*
X319016839Y-70648337D01*
X318978869Y-70606271D01*
X318940397Y-70569299D01*
X318905897Y-70541636D01*
X318868276Y-70518211D01*
X318824428Y-70495862D01*
X318716510Y-70453107D01*
X318600090Y-70423313D01*
X318479259Y-70406889D01*
X318358106Y-70404245D01*
X318240719Y-70415790D01*
X318170960Y-70430425D01*
X318076529Y-70464135D01*
X317987336Y-70514966D01*
X317903994Y-70582497D01*
X317827115Y-70666306D01*
X317825296Y-70668587D01*
X317795135Y-70708010D01*
X317767894Y-70747284D01*
X317741977Y-70789299D01*
X317715788Y-70836942D01*
X317687733Y-70893103D01*
X317656217Y-70960669D01*
X317623040Y-71034830D01*
X317576276Y-71138068D01*
X317533361Y-71226475D01*
X317492735Y-71302537D01*
X317452833Y-71368740D01*
X317412095Y-71427571D01*
X317368958Y-71481515D01*
X317321859Y-71533058D01*
X317289848Y-71565031D01*
X317203407Y-71641430D01*
X317116398Y-71702607D01*
X317024651Y-71751121D01*
X316923995Y-71789530D01*
X316923964Y-71789540D01*
X316872664Y-71805371D01*
X316828052Y-71817226D01*
X316785930Y-71825646D01*
X316742101Y-71831174D01*
X316692367Y-71834354D01*
X316632530Y-71835727D01*
X316565643Y-71835864D01*
X316497726Y-71835279D01*
X316443824Y-71833834D01*
X316399818Y-71831213D01*
X316361589Y-71827102D01*
X316325018Y-71821187D01*
X316295511Y-71815229D01*
X316157009Y-71778177D01*
X316031384Y-71729465D01*
X315919004Y-71669407D01*
X315820235Y-71598317D01*
X315735445Y-71516511D01*
X315665002Y-71424302D01*
X315609274Y-71322006D01*
X315568628Y-71209938D01*
X315562714Y-71187857D01*
X315541197Y-71068786D01*
X315534616Y-70941173D01*
X315541441Y-70821695D01*
X315561522Y-70700237D01*
X315595252Y-70590112D01*
X315643234Y-70490045D01*
X315706072Y-70398759D01*
X315778651Y-70320361D01*
X315869956Y-70246145D01*
X315973979Y-70184791D01*
X316090600Y-70136337D01*
X316219701Y-70100823D01*
X316361164Y-70078289D01*
X316514871Y-70068773D01*
X316538429Y-70068475D01*
X316592464Y-70068282D01*
X316631713Y-70068795D01*
X316659529Y-70070396D01*
X316679264Y-70073465D01*
X316694272Y-70078385D01*
X316707906Y-70085538D01*
X316712410Y-70088289D01*
X316747011Y-70119803D01*
X316770491Y-70161726D01*
X316782158Y-70209626D01*
X316781326Y-70259069D01*
X316767305Y-70305623D01*
X316750393Y-70332736D01*
X316727938Y-70357590D01*
X316704076Y-70375484D01*
X316675057Y-70387789D01*
X316637129Y-70395874D01*
X316586540Y-70401111D01*
X316558252Y-70402926D01*
X316436982Y-70413014D01*
X316331316Y-70428988D01*
X316239506Y-70451426D01*
X316159807Y-70480908D01*
X316090473Y-70518010D01*
X316029758Y-70563311D01*
X316005266Y-70586048D01*
X315953687Y-70647460D01*
X315915744Y-70716934D01*
X315890827Y-70796154D01*
X315878330Y-70886805D01*
X315876529Y-70942929D01*
X315884120Y-71045827D01*
X315906810Y-71138684D01*
X315944473Y-71221327D01*
X315996983Y-71293581D01*
X316064216Y-71355275D01*
X316146045Y-71406234D01*
X316241325Y-71445945D01*
X316316374Y-71466585D01*
X316401874Y-71482581D01*
X316490476Y-71492810D01*
X316570179Y-71496164D01*
X316686712Y-71489286D01*
X316792197Y-71468460D01*
X316887598Y-71433332D01*
X316973885Y-71383545D01*
X317051357Y-71319393D01*
X317085007Y-71284271D01*
X317116327Y-71245836D01*
X317146927Y-71201508D01*
X317178420Y-71148709D01*
X317212416Y-71084860D01*
X317250526Y-71007383D01*
X317263889Y-70979215D01*
X317291413Y-70920823D01*
X317320259Y-70859683D01*
X317348007Y-70800925D01*
X317372235Y-70749679D01*
X317386405Y-70719751D01*
X317437298Y-70621522D01*
X317492254Y-70535000D01*
X317555727Y-70453755D01*
X317617077Y-70386744D01*
X317714506Y-70294891D01*
X317813009Y-70220065D01*
X317914964Y-70161198D01*
X318022748Y-70117220D01*
X318138737Y-70087063D01*
X318265309Y-70069657D01*
X318331556Y-70065475D01*
X318480603Y-70066058D01*
X318622592Y-70080149D01*
X318756620Y-70107172D01*
X318881782Y-70146551D01*
X318997174Y-70197710D01*
X319101892Y-70260074D01*
X319195033Y-70333067D01*
X319275691Y-70416113D01*
X319342964Y-70508638D01*
X319395946Y-70610065D01*
X319433733Y-70719819D01*
X319446174Y-70775107D01*
X319454433Y-70838837D01*
X319458252Y-70914104D01*
X319457812Y-70995069D01*
G36*
X319459477Y-73354733D02*
X319459352Y-73461371D01*
X319459041Y-73554055D01*
X319458479Y-73633831D01*
X319457599Y-73701747D01*
X319456333Y-73758849D01*
X319454615Y-73806185D01*
X319452378Y-73844801D01*
X319449556Y-73875745D01*
X319446081Y-73900064D01*
X319441887Y-73918803D01*
X319436906Y-73933012D01*
X319431073Y-73943736D01*
X319424320Y-73952023D01*
X319416580Y-73958919D01*
X319407787Y-73965472D01*
X319397874Y-73972729D01*
X319393323Y-73976268D01*
X319368722Y-73993037D01*
X319343256Y-74002271D01*
X319308915Y-74006692D01*
X319302609Y-74007102D01*
X319244700Y-74003486D01*
X319197217Y-73985131D01*
X319160350Y-73952133D01*
X319144675Y-73927791D01*
X319139620Y-73917955D01*
X319135455Y-73908179D01*
X319132092Y-73896700D01*
X319129447Y-73881753D01*
X319127433Y-73861577D01*
X319125965Y-73834407D01*
X319124955Y-73798481D01*
X319124318Y-73752035D01*
X319123968Y-73693305D01*
X319123820Y-73620529D01*
X319123786Y-73531944D01*
X319123786Y-73111000D01*
X317395228Y-73111000D01*
X317185347Y-73111013D01*
X316992840Y-73111038D01*
X316816938Y-73111055D01*
X316656874Y-73111043D01*
X316511877Y-73110981D01*
X316381180Y-73110848D01*
X316264014Y-73110624D01*
X316159611Y-73110288D01*
X316067201Y-73109819D01*
X315986015Y-73109197D01*
X315915287Y-73108401D01*
X315854245Y-73107410D01*
X315802123Y-73106204D01*
X315758151Y-73104762D01*
X315721561Y-73103062D01*
X315691584Y-73101086D01*
X315667451Y-73098810D01*
X315648394Y-73096216D01*
X315633644Y-73093283D01*
X315622433Y-73089989D01*
X315613991Y-73086313D01*
X315607550Y-73082237D01*
X315602342Y-73077737D01*
X315597598Y-73072795D01*
X315592549Y-73067388D01*
X315587334Y-73062314D01*
X315558526Y-73024768D01*
X315540619Y-72977244D01*
X315535081Y-72925260D01*
X315540253Y-72885329D01*
X315560886Y-72838504D01*
X315596673Y-72800655D01*
X315614091Y-72788964D01*
X315618010Y-72786788D01*
X315622575Y-72784791D01*
X315628556Y-72782966D01*
X315636722Y-72781303D01*
X315647843Y-72779793D01*
X315662690Y-72778427D01*
X315682031Y-72777198D01*
X315706638Y-72776094D01*
X315737280Y-72775109D01*
X315774727Y-72774232D01*
X315819749Y-72773455D01*
X315873115Y-72772768D01*
X315935596Y-72772164D01*
X316007962Y-72771633D01*
X316090983Y-72771166D01*
X316185428Y-72770755D01*
X316292067Y-72770389D01*
X316411671Y-72770062D01*
X316545009Y-72769762D01*
X316692852Y-72769482D01*
X316855968Y-72769213D01*
X317035129Y-72768946D01*
X317231104Y-72768671D01*
X317384339Y-72768462D01*
X319123786Y-72766103D01*
X319123786Y-72383523D01*
X319123814Y-72290046D01*
X319123951Y-72212925D01*
X319124281Y-72150374D01*
X319124883Y-72100606D01*
X319125839Y-72061833D01*
X319127231Y-72032271D01*
X319129140Y-72010131D01*
X319131648Y-71993627D01*
X319134835Y-71980973D01*
X319138784Y-71970381D01*
X319143027Y-71961194D01*
X319172638Y-71919026D01*
X319212451Y-71889436D01*
X319258999Y-71873079D01*
X319308813Y-71870606D01*
X319358424Y-71882669D01*
X319404365Y-71909920D01*
X319406464Y-71911660D01*
X319414793Y-71918428D01*
X319422202Y-71924608D01*
X319428744Y-71931245D01*
X319434473Y-71939382D01*
X319439443Y-71950065D01*
X319443708Y-71964337D01*
X319447321Y-71983245D01*
X319450336Y-72007831D01*
X319452807Y-72039142D01*
X319454787Y-72078220D01*
X319456331Y-72126112D01*
X319457492Y-72183861D01*
X319458324Y-72252512D01*
X319458881Y-72333110D01*
X319459216Y-72426700D01*
X319459383Y-72534325D01*
X319459435Y-72657031D01*
X319459428Y-72795862D01*
X319459414Y-72940620D01*
X319459441Y-73095404D01*
X319459484Y-73233093D01*
X319459477Y-73354733D01*
X319459477Y-73354733D01*
G37*
X319459477Y-73354733D02*
X319459352Y-73461371D01*
X319459041Y-73554055D01*
X319458479Y-73633831D01*
X319457599Y-73701747D01*
X319456333Y-73758849D01*
X319454615Y-73806185D01*
X319452378Y-73844801D01*
X319449556Y-73875745D01*
X319446081Y-73900064D01*
X319441887Y-73918803D01*
X319436906Y-73933012D01*
X319431073Y-73943736D01*
X319424320Y-73952023D01*
X319416580Y-73958919D01*
X319407787Y-73965472D01*
X319397874Y-73972729D01*
X319393323Y-73976268D01*
X319368722Y-73993037D01*
X319343256Y-74002271D01*
X319308915Y-74006692D01*
X319302609Y-74007102D01*
X319244700Y-74003486D01*
X319197217Y-73985131D01*
X319160350Y-73952133D01*
X319144675Y-73927791D01*
X319139620Y-73917955D01*
X319135455Y-73908179D01*
X319132092Y-73896700D01*
X319129447Y-73881753D01*
X319127433Y-73861577D01*
X319125965Y-73834407D01*
X319124955Y-73798481D01*
X319124318Y-73752035D01*
X319123968Y-73693305D01*
X319123820Y-73620529D01*
X319123786Y-73531944D01*
X319123786Y-73111000D01*
X317395228Y-73111000D01*
X317185347Y-73111013D01*
X316992840Y-73111038D01*
X316816938Y-73111055D01*
X316656874Y-73111043D01*
X316511877Y-73110981D01*
X316381180Y-73110848D01*
X316264014Y-73110624D01*
X316159611Y-73110288D01*
X316067201Y-73109819D01*
X315986015Y-73109197D01*
X315915287Y-73108401D01*
X315854245Y-73107410D01*
X315802123Y-73106204D01*
X315758151Y-73104762D01*
X315721561Y-73103062D01*
X315691584Y-73101086D01*
X315667451Y-73098810D01*
X315648394Y-73096216D01*
X315633644Y-73093283D01*
X315622433Y-73089989D01*
X315613991Y-73086313D01*
X315607550Y-73082237D01*
X315602342Y-73077737D01*
X315597598Y-73072795D01*
X315592549Y-73067388D01*
X315587334Y-73062314D01*
X315558526Y-73024768D01*
X315540619Y-72977244D01*
X315535081Y-72925260D01*
X315540253Y-72885329D01*
X315560886Y-72838504D01*
X315596673Y-72800655D01*
X315614091Y-72788964D01*
X315618010Y-72786788D01*
X315622575Y-72784791D01*
X315628556Y-72782966D01*
X315636722Y-72781303D01*
X315647843Y-72779793D01*
X315662690Y-72778427D01*
X315682031Y-72777198D01*
X315706638Y-72776094D01*
X315737280Y-72775109D01*
X315774727Y-72774232D01*
X315819749Y-72773455D01*
X315873115Y-72772768D01*
X315935596Y-72772164D01*
X316007962Y-72771633D01*
X316090983Y-72771166D01*
X316185428Y-72770755D01*
X316292067Y-72770389D01*
X316411671Y-72770062D01*
X316545009Y-72769762D01*
X316692852Y-72769482D01*
X316855968Y-72769213D01*
X317035129Y-72768946D01*
X317231104Y-72768671D01*
X317384339Y-72768462D01*
X319123786Y-72766103D01*
X319123786Y-72383523D01*
X319123814Y-72290046D01*
X319123951Y-72212925D01*
X319124281Y-72150374D01*
X319124883Y-72100606D01*
X319125839Y-72061833D01*
X319127231Y-72032271D01*
X319129140Y-72010131D01*
X319131648Y-71993627D01*
X319134835Y-71980973D01*
X319138784Y-71970381D01*
X319143027Y-71961194D01*
X319172638Y-71919026D01*
X319212451Y-71889436D01*
X319258999Y-71873079D01*
X319308813Y-71870606D01*
X319358424Y-71882669D01*
X319404365Y-71909920D01*
X319406464Y-71911660D01*
X319414793Y-71918428D01*
X319422202Y-71924608D01*
X319428744Y-71931245D01*
X319434473Y-71939382D01*
X319439443Y-71950065D01*
X319443708Y-71964337D01*
X319447321Y-71983245D01*
X319450336Y-72007831D01*
X319452807Y-72039142D01*
X319454787Y-72078220D01*
X319456331Y-72126112D01*
X319457492Y-72183861D01*
X319458324Y-72252512D01*
X319458881Y-72333110D01*
X319459216Y-72426700D01*
X319459383Y-72534325D01*
X319459435Y-72657031D01*
X319459428Y-72795862D01*
X319459414Y-72940620D01*
X319459441Y-73095404D01*
X319459484Y-73233093D01*
X319459477Y-73354733D01*
G36*
X319458296Y-74715492D02*
X319457948Y-74839183D01*
X319457651Y-74911679D01*
X319457096Y-75032566D01*
X319456561Y-75136646D01*
X319456004Y-75225252D01*
X319455381Y-75299721D01*
X319454650Y-75361385D01*
X319453768Y-75411581D01*
X319452690Y-75451644D01*
X319451375Y-75482907D01*
X319449779Y-75506706D01*
X319447859Y-75524375D01*
X319445572Y-75537250D01*
X319442875Y-75546665D01*
X319439725Y-75553955D01*
X319436750Y-75559324D01*
X319401509Y-75603456D01*
X319357690Y-75633639D01*
X319308366Y-75648917D01*
X319256608Y-75648333D01*
X319205960Y-75631178D01*
X319164055Y-75602495D01*
X319136911Y-75566359D01*
X319123400Y-75527834D01*
X319121859Y-75512268D01*
X319120404Y-75480332D01*
X319119062Y-75433800D01*
X319117861Y-75374445D01*
X319116829Y-75304041D01*
X319115993Y-75224360D01*
X319115380Y-75137176D01*
X319115018Y-75044263D01*
X319114931Y-74981982D01*
X319114714Y-74471715D01*
X317663286Y-74471715D01*
X317663086Y-75000125D01*
X317663016Y-75111783D01*
X317662867Y-75206766D01*
X317662595Y-75286546D01*
X317662156Y-75352591D01*
X317661504Y-75406370D01*
X317660596Y-75449352D01*
X317659388Y-75483008D01*
X317657835Y-75508806D01*
X317655892Y-75528216D01*
X317653516Y-75542707D01*
X317650661Y-75553747D01*
X317647285Y-75562808D01*
X317646015Y-75565688D01*
X317619558Y-75603969D01*
X317582524Y-75630798D01*
X317538529Y-75646025D01*
X317491187Y-75649501D01*
X317444115Y-75641075D01*
X317400927Y-75620598D01*
X317365239Y-75587920D01*
X317357784Y-75577632D01*
X317332178Y-75538947D01*
X317329700Y-75005331D01*
X317327221Y-74471715D01*
X315867564Y-74471715D01*
X315865086Y-75005331D01*
X315862607Y-75538947D01*
X315837001Y-75577632D01*
X315803268Y-75614119D01*
X315761245Y-75637905D01*
X315714535Y-75649133D01*
X315666745Y-75647949D01*
X315621480Y-75634496D01*
X315582345Y-75608920D01*
X315552944Y-75571364D01*
X315550286Y-75566151D01*
X315546668Y-75558304D01*
X315543546Y-75549908D01*
X315540886Y-75539637D01*
X315538651Y-75526167D01*
X315536804Y-75508172D01*
X315535309Y-75484326D01*
X315534129Y-75453304D01*
X315533228Y-75413781D01*
X315532570Y-75364430D01*
X315532118Y-75303927D01*
X315531836Y-75230947D01*
X315531686Y-75144162D01*
X315531634Y-75042250D01*
X315531641Y-74923882D01*
X315531649Y-74888404D01*
X315531798Y-74249465D01*
X315552245Y-74213364D01*
X315574947Y-74184115D01*
X315604147Y-74159627D01*
X315608792Y-74156816D01*
X315644893Y-74136370D01*
X317489022Y-74136221D01*
X317704149Y-74136206D01*
X317901883Y-74136202D01*
X318082971Y-74136216D01*
X318248162Y-74136255D01*
X318398206Y-74136327D01*
X318533850Y-74136438D01*
X318655844Y-74136595D01*
X318764937Y-74136806D01*
X318861877Y-74137077D01*
X318947412Y-74137416D01*
X319022292Y-74137830D01*
X319087266Y-74138326D01*
X319143082Y-74138910D01*
X319190489Y-74139591D01*
X319230235Y-74140375D01*
X319263070Y-74141269D01*
X319289742Y-74142280D01*
X319311000Y-74143416D01*
X319327592Y-74144683D01*
X319340269Y-74146089D01*
X319349777Y-74147641D01*
X319356866Y-74149345D01*
X319362285Y-74151209D01*
X319366782Y-74153240D01*
X319368312Y-74154009D01*
X319408792Y-74183481D01*
X319437355Y-74225289D01*
X319449824Y-74258536D01*
X319452074Y-74271966D01*
X319453963Y-74296146D01*
X319455502Y-74331942D01*
X319456700Y-74380220D01*
X319457568Y-74441847D01*
X319458117Y-74517691D01*
X319458356Y-74608617D01*
X319458296Y-74715492D01*
X319458296Y-74715492D01*
G37*
X319458296Y-74715492D02*
X319457948Y-74839183D01*
X319457651Y-74911679D01*
X319457096Y-75032566D01*
X319456561Y-75136646D01*
X319456004Y-75225252D01*
X319455381Y-75299721D01*
X319454650Y-75361385D01*
X319453768Y-75411581D01*
X319452690Y-75451644D01*
X319451375Y-75482907D01*
X319449779Y-75506706D01*
X319447859Y-75524375D01*
X319445572Y-75537250D01*
X319442875Y-75546665D01*
X319439725Y-75553955D01*
X319436750Y-75559324D01*
X319401509Y-75603456D01*
X319357690Y-75633639D01*
X319308366Y-75648917D01*
X319256608Y-75648333D01*
X319205960Y-75631178D01*
X319164055Y-75602495D01*
X319136911Y-75566359D01*
X319123400Y-75527834D01*
X319121859Y-75512268D01*
X319120404Y-75480332D01*
X319119062Y-75433800D01*
X319117861Y-75374445D01*
X319116829Y-75304041D01*
X319115993Y-75224360D01*
X319115380Y-75137176D01*
X319115018Y-75044263D01*
X319114931Y-74981982D01*
X319114714Y-74471715D01*
X317663286Y-74471715D01*
X317663086Y-75000125D01*
X317663016Y-75111783D01*
X317662867Y-75206766D01*
X317662595Y-75286546D01*
X317662156Y-75352591D01*
X317661504Y-75406370D01*
X317660596Y-75449352D01*
X317659388Y-75483008D01*
X317657835Y-75508806D01*
X317655892Y-75528216D01*
X317653516Y-75542707D01*
X317650661Y-75553747D01*
X317647285Y-75562808D01*
X317646015Y-75565688D01*
X317619558Y-75603969D01*
X317582524Y-75630798D01*
X317538529Y-75646025D01*
X317491187Y-75649501D01*
X317444115Y-75641075D01*
X317400927Y-75620598D01*
X317365239Y-75587920D01*
X317357784Y-75577632D01*
X317332178Y-75538947D01*
X317329700Y-75005331D01*
X317327221Y-74471715D01*
X315867564Y-74471715D01*
X315865086Y-75005331D01*
X315862607Y-75538947D01*
X315837001Y-75577632D01*
X315803268Y-75614119D01*
X315761245Y-75637905D01*
X315714535Y-75649133D01*
X315666745Y-75647949D01*
X315621480Y-75634496D01*
X315582345Y-75608920D01*
X315552944Y-75571364D01*
X315550286Y-75566151D01*
X315546668Y-75558304D01*
X315543546Y-75549908D01*
X315540886Y-75539637D01*
X315538651Y-75526167D01*
X315536804Y-75508172D01*
X315535309Y-75484326D01*
X315534129Y-75453304D01*
X315533228Y-75413781D01*
X315532570Y-75364430D01*
X315532118Y-75303927D01*
X315531836Y-75230947D01*
X315531686Y-75144162D01*
X315531634Y-75042250D01*
X315531641Y-74923882D01*
X315531649Y-74888404D01*
X315531798Y-74249465D01*
X315552245Y-74213364D01*
X315574947Y-74184115D01*
X315604147Y-74159627D01*
X315608792Y-74156816D01*
X315644893Y-74136370D01*
X317489022Y-74136221D01*
X317704149Y-74136206D01*
X317901883Y-74136202D01*
X318082971Y-74136216D01*
X318248162Y-74136255D01*
X318398206Y-74136327D01*
X318533850Y-74136438D01*
X318655844Y-74136595D01*
X318764937Y-74136806D01*
X318861877Y-74137077D01*
X318947412Y-74137416D01*
X319022292Y-74137830D01*
X319087266Y-74138326D01*
X319143082Y-74138910D01*
X319190489Y-74139591D01*
X319230235Y-74140375D01*
X319263070Y-74141269D01*
X319289742Y-74142280D01*
X319311000Y-74143416D01*
X319327592Y-74144683D01*
X319340269Y-74146089D01*
X319349777Y-74147641D01*
X319356866Y-74149345D01*
X319362285Y-74151209D01*
X319366782Y-74153240D01*
X319368312Y-74154009D01*
X319408792Y-74183481D01*
X319437355Y-74225289D01*
X319449824Y-74258536D01*
X319452074Y-74271966D01*
X319453963Y-74296146D01*
X319455502Y-74331942D01*
X319456700Y-74380220D01*
X319457568Y-74441847D01*
X319458117Y-74517691D01*
X319458356Y-74608617D01*
X319458296Y-74715492D01*
G36*
X319448368Y-76082586D02*
X319427557Y-76124647D01*
X319394067Y-76160019D01*
X319353932Y-76183168D01*
X319340545Y-76187600D01*
X319310639Y-76196733D01*
X319265142Y-76210297D01*
X319204986Y-76228025D01*
X319131099Y-76249646D01*
X319044411Y-76274893D01*
X318945851Y-76303495D01*
X318836349Y-76335184D01*
X318716835Y-76369691D01*
X318588238Y-76406747D01*
X318451488Y-76446084D01*
X318307514Y-76487431D01*
X318157246Y-76530520D01*
X318001614Y-76575083D01*
X317841546Y-76620850D01*
X317820065Y-76626987D01*
X317614946Y-76685647D01*
X317424241Y-76740318D01*
X317248192Y-76790929D01*
X317087042Y-76837409D01*
X316941037Y-76879686D01*
X316810419Y-76917689D01*
X316695433Y-76951346D01*
X316596321Y-76980585D01*
X316513328Y-77005336D01*
X316446697Y-77025526D01*
X316396672Y-77041085D01*
X316363497Y-77051940D01*
X316347415Y-77058021D01*
X316345957Y-77059310D01*
X316356223Y-77062509D01*
X316383019Y-77070455D01*
X316425438Y-77082885D01*
X316482571Y-77099537D01*
X316553512Y-77120148D01*
X316637353Y-77144456D01*
X316733186Y-77172199D01*
X316840104Y-77203114D01*
X316957200Y-77236940D01*
X317083565Y-77273412D01*
X317218292Y-77312270D01*
X317360474Y-77353250D01*
X317509204Y-77396090D01*
X317663572Y-77440528D01*
X317822673Y-77486302D01*
X317844714Y-77492641D01*
X318004750Y-77538698D01*
X318160385Y-77583548D01*
X318310695Y-77626921D01*
X318454755Y-77668551D01*
X318591643Y-77708166D01*
X318720433Y-77745500D01*
X318840204Y-77780281D01*
X318950029Y-77812243D01*
X319048987Y-77841116D01*
X319136152Y-77866630D01*
X319210601Y-77888518D01*
X319271410Y-77906509D01*
X319317655Y-77920336D01*
X319348413Y-77929730D01*
X319362760Y-77934421D01*
X319363308Y-77934643D01*
X319404626Y-77961509D01*
X319433828Y-77998580D01*
X319450892Y-78042538D01*
X319455796Y-78090063D01*
X319448519Y-78137838D01*
X319429037Y-78182543D01*
X319397329Y-78220859D01*
X319365366Y-78243487D01*
X319361238Y-78245309D01*
X319355293Y-78246984D01*
X319346788Y-78248518D01*
X319334981Y-78249916D01*
X319319129Y-78251185D01*
X319298489Y-78252332D01*
X319272318Y-78253362D01*
X319239873Y-78254281D01*
X319200412Y-78255097D01*
X319153192Y-78255814D01*
X319097469Y-78256439D01*
X319032502Y-78256979D01*
X318957547Y-78257439D01*
X318871861Y-78257827D01*
X318774702Y-78258147D01*
X318665327Y-78258406D01*
X318542994Y-78258610D01*
X318406958Y-78258766D01*
X318256478Y-78258880D01*
X318090811Y-78258958D01*
X317909213Y-78259005D01*
X317710943Y-78259029D01*
X317500000Y-78259036D01*
X317285326Y-78259034D01*
X317088044Y-78259023D01*
X316907403Y-78258995D01*
X316742655Y-78258944D01*
X316593047Y-78258862D01*
X316457829Y-78258742D01*
X316336251Y-78258577D01*
X316227562Y-78258358D01*
X316131013Y-78258080D01*
X316045851Y-78257735D01*
X315971328Y-78257315D01*
X315906691Y-78256813D01*
X315851192Y-78256223D01*
X315804078Y-78255536D01*
X315764601Y-78254745D01*
X315732009Y-78253844D01*
X315705551Y-78252824D01*
X315684478Y-78251679D01*
X315668038Y-78250401D01*
X315655482Y-78248984D01*
X315646058Y-78247419D01*
X315639017Y-78245700D01*
X315633607Y-78243819D01*
X315629079Y-78241769D01*
X315627333Y-78240893D01*
X315582853Y-78209327D01*
X315551238Y-78167735D01*
X315534796Y-78119333D01*
X315533633Y-78110224D01*
X315534073Y-78048760D01*
X315548586Y-77998353D01*
X315577569Y-77958139D01*
X315616491Y-77929871D01*
X315621532Y-77927624D01*
X315628654Y-77925593D01*
X315638785Y-77923763D01*
X315652854Y-77922118D01*
X315671788Y-77920643D01*
X315696517Y-77919323D01*
X315727969Y-77918143D01*
X315767072Y-77917086D01*
X315814755Y-77916139D01*
X315871946Y-77915285D01*
X315939574Y-77914509D01*
X316018567Y-77913797D01*
X316109853Y-77913132D01*
X316214362Y-77912500D01*
X316333021Y-77911885D01*
X316466758Y-77911272D01*
X316616503Y-77910645D01*
X316783183Y-77909990D01*
X316836656Y-77909786D01*
X318028420Y-77905250D01*
X316841192Y-77565750D01*
X316698216Y-77524826D01*
X316559768Y-77485122D01*
X316426879Y-77446939D01*
X316300582Y-77410575D01*
X316181907Y-77376331D01*
X316071889Y-77344505D01*
X315971558Y-77315399D01*
X315881947Y-77289311D01*
X315804087Y-77266540D01*
X315739011Y-77247388D01*
X315687751Y-77232153D01*
X315651339Y-77221135D01*
X315630807Y-77214634D01*
X315626750Y-77213138D01*
X315581178Y-77182078D01*
X315549990Y-77140209D01*
X315533795Y-77088532D01*
X315531500Y-77056983D01*
X315539282Y-77001594D01*
X315561661Y-76954302D01*
X315597184Y-76917678D01*
X315617197Y-76905297D01*
X315629003Y-76901177D01*
X315657229Y-76892382D01*
X315700850Y-76879210D01*
X315758839Y-76861961D01*
X315830168Y-76840934D01*
X315913812Y-76816427D01*
X316008744Y-76788740D01*
X316113937Y-76758172D01*
X316228364Y-76725022D01*
X316351000Y-76689590D01*
X316480817Y-76652173D01*
X316616788Y-76613071D01*
X316757888Y-76572584D01*
X316841861Y-76548530D01*
X318039750Y-76205609D01*
X316869536Y-76204588D01*
X316724577Y-76204404D01*
X316584182Y-76204111D01*
X316449467Y-76203719D01*
X316321551Y-76203235D01*
X316201551Y-76202667D01*
X316090586Y-76202024D01*
X315989773Y-76201312D01*
X315900232Y-76200541D01*
X315823078Y-76199719D01*
X315759432Y-76198852D01*
X315710410Y-76197950D01*
X315677130Y-76197020D01*
X315660711Y-76196070D01*
X315659787Y-76195929D01*
X315610051Y-76178297D01*
X315568963Y-76145523D01*
X315554892Y-76128497D01*
X315544153Y-76104231D01*
X315536712Y-76068456D01*
X315533064Y-76027591D01*
X315533699Y-75988051D01*
X315539110Y-75956254D01*
X315541226Y-75950362D01*
X315564732Y-75913523D01*
X315600257Y-75881102D01*
X315617679Y-75870120D01*
X315621885Y-75868346D01*
X315628303Y-75866713D01*
X315637678Y-75865213D01*
X315650751Y-75863841D01*
X315668267Y-75862588D01*
X315690970Y-75861448D01*
X315719604Y-75860414D01*
X315754911Y-75859479D01*
X315797635Y-75858635D01*
X315848521Y-75857876D01*
X315908311Y-75857194D01*
X315977750Y-75856583D01*
X316057581Y-75856036D01*
X316148547Y-75855545D01*
X316251393Y-75855103D01*
X316366862Y-75854704D01*
X316495698Y-75854340D01*
X316638643Y-75854004D01*
X316796443Y-75853689D01*
X316969840Y-75853389D01*
X317159578Y-75853096D01*
X317366400Y-75852803D01*
X317459179Y-75852677D01*
X317690708Y-75852398D01*
X317904581Y-75852205D01*
X318101286Y-75852102D01*
X318281309Y-75852089D01*
X318445138Y-75852170D01*
X318593258Y-75852346D01*
X318726157Y-75852619D01*
X318844323Y-75852991D01*
X318948241Y-75853465D01*
X319038399Y-75854042D01*
X319115284Y-75854725D01*
X319179383Y-75855515D01*
X319231182Y-75856415D01*
X319271170Y-75857426D01*
X319299831Y-75858551D01*
X319317655Y-75859792D01*
X319323248Y-75860572D01*
X319372411Y-75878707D01*
X319410637Y-75908456D01*
X319437636Y-75946769D01*
X319453118Y-75990596D01*
X319456792Y-76036885D01*
X319448368Y-76082586D01*
X319448368Y-76082586D01*
G37*
X319448368Y-76082586D02*
X319427557Y-76124647D01*
X319394067Y-76160019D01*
X319353932Y-76183168D01*
X319340545Y-76187600D01*
X319310639Y-76196733D01*
X319265142Y-76210297D01*
X319204986Y-76228025D01*
X319131099Y-76249646D01*
X319044411Y-76274893D01*
X318945851Y-76303495D01*
X318836349Y-76335184D01*
X318716835Y-76369691D01*
X318588238Y-76406747D01*
X318451488Y-76446084D01*
X318307514Y-76487431D01*
X318157246Y-76530520D01*
X318001614Y-76575083D01*
X317841546Y-76620850D01*
X317820065Y-76626987D01*
X317614946Y-76685647D01*
X317424241Y-76740318D01*
X317248192Y-76790929D01*
X317087042Y-76837409D01*
X316941037Y-76879686D01*
X316810419Y-76917689D01*
X316695433Y-76951346D01*
X316596321Y-76980585D01*
X316513328Y-77005336D01*
X316446697Y-77025526D01*
X316396672Y-77041085D01*
X316363497Y-77051940D01*
X316347415Y-77058021D01*
X316345957Y-77059310D01*
X316356223Y-77062509D01*
X316383019Y-77070455D01*
X316425438Y-77082885D01*
X316482571Y-77099537D01*
X316553512Y-77120148D01*
X316637353Y-77144456D01*
X316733186Y-77172199D01*
X316840104Y-77203114D01*
X316957200Y-77236940D01*
X317083565Y-77273412D01*
X317218292Y-77312270D01*
X317360474Y-77353250D01*
X317509204Y-77396090D01*
X317663572Y-77440528D01*
X317822673Y-77486302D01*
X317844714Y-77492641D01*
X318004750Y-77538698D01*
X318160385Y-77583548D01*
X318310695Y-77626921D01*
X318454755Y-77668551D01*
X318591643Y-77708166D01*
X318720433Y-77745500D01*
X318840204Y-77780281D01*
X318950029Y-77812243D01*
X319048987Y-77841116D01*
X319136152Y-77866630D01*
X319210601Y-77888518D01*
X319271410Y-77906509D01*
X319317655Y-77920336D01*
X319348413Y-77929730D01*
X319362760Y-77934421D01*
X319363308Y-77934643D01*
X319404626Y-77961509D01*
X319433828Y-77998580D01*
X319450892Y-78042538D01*
X319455796Y-78090063D01*
X319448519Y-78137838D01*
X319429037Y-78182543D01*
X319397329Y-78220859D01*
X319365366Y-78243487D01*
X319361238Y-78245309D01*
X319355293Y-78246984D01*
X319346788Y-78248518D01*
X319334981Y-78249916D01*
X319319129Y-78251185D01*
X319298489Y-78252332D01*
X319272318Y-78253362D01*
X319239873Y-78254281D01*
X319200412Y-78255097D01*
X319153192Y-78255814D01*
X319097469Y-78256439D01*
X319032502Y-78256979D01*
X318957547Y-78257439D01*
X318871861Y-78257827D01*
X318774702Y-78258147D01*
X318665327Y-78258406D01*
X318542994Y-78258610D01*
X318406958Y-78258766D01*
X318256478Y-78258880D01*
X318090811Y-78258958D01*
X317909213Y-78259005D01*
X317710943Y-78259029D01*
X317500000Y-78259036D01*
X317285326Y-78259034D01*
X317088044Y-78259023D01*
X316907403Y-78258995D01*
X316742655Y-78258944D01*
X316593047Y-78258862D01*
X316457829Y-78258742D01*
X316336251Y-78258577D01*
X316227562Y-78258358D01*
X316131013Y-78258080D01*
X316045851Y-78257735D01*
X315971328Y-78257315D01*
X315906691Y-78256813D01*
X315851192Y-78256223D01*
X315804078Y-78255536D01*
X315764601Y-78254745D01*
X315732009Y-78253844D01*
X315705551Y-78252824D01*
X315684478Y-78251679D01*
X315668038Y-78250401D01*
X315655482Y-78248984D01*
X315646058Y-78247419D01*
X315639017Y-78245700D01*
X315633607Y-78243819D01*
X315629079Y-78241769D01*
X315627333Y-78240893D01*
X315582853Y-78209327D01*
X315551238Y-78167735D01*
X315534796Y-78119333D01*
X315533633Y-78110224D01*
X315534073Y-78048760D01*
X315548586Y-77998353D01*
X315577569Y-77958139D01*
X315616491Y-77929871D01*
X315621532Y-77927624D01*
X315628654Y-77925593D01*
X315638785Y-77923763D01*
X315652854Y-77922118D01*
X315671788Y-77920643D01*
X315696517Y-77919323D01*
X315727969Y-77918143D01*
X315767072Y-77917086D01*
X315814755Y-77916139D01*
X315871946Y-77915285D01*
X315939574Y-77914509D01*
X316018567Y-77913797D01*
X316109853Y-77913132D01*
X316214362Y-77912500D01*
X316333021Y-77911885D01*
X316466758Y-77911272D01*
X316616503Y-77910645D01*
X316783183Y-77909990D01*
X316836656Y-77909786D01*
X318028420Y-77905250D01*
X316841192Y-77565750D01*
X316698216Y-77524826D01*
X316559768Y-77485122D01*
X316426879Y-77446939D01*
X316300582Y-77410575D01*
X316181907Y-77376331D01*
X316071889Y-77344505D01*
X315971558Y-77315399D01*
X315881947Y-77289311D01*
X315804087Y-77266540D01*
X315739011Y-77247388D01*
X315687751Y-77232153D01*
X315651339Y-77221135D01*
X315630807Y-77214634D01*
X315626750Y-77213138D01*
X315581178Y-77182078D01*
X315549990Y-77140209D01*
X315533795Y-77088532D01*
X315531500Y-77056983D01*
X315539282Y-77001594D01*
X315561661Y-76954302D01*
X315597184Y-76917678D01*
X315617197Y-76905297D01*
X315629003Y-76901177D01*
X315657229Y-76892382D01*
X315700850Y-76879210D01*
X315758839Y-76861961D01*
X315830168Y-76840934D01*
X315913812Y-76816427D01*
X316008744Y-76788740D01*
X316113937Y-76758172D01*
X316228364Y-76725022D01*
X316351000Y-76689590D01*
X316480817Y-76652173D01*
X316616788Y-76613071D01*
X316757888Y-76572584D01*
X316841861Y-76548530D01*
X318039750Y-76205609D01*
X316869536Y-76204588D01*
X316724577Y-76204404D01*
X316584182Y-76204111D01*
X316449467Y-76203719D01*
X316321551Y-76203235D01*
X316201551Y-76202667D01*
X316090586Y-76202024D01*
X315989773Y-76201312D01*
X315900232Y-76200541D01*
X315823078Y-76199719D01*
X315759432Y-76198852D01*
X315710410Y-76197950D01*
X315677130Y-76197020D01*
X315660711Y-76196070D01*
X315659787Y-76195929D01*
X315610051Y-76178297D01*
X315568963Y-76145523D01*
X315554892Y-76128497D01*
X315544153Y-76104231D01*
X315536712Y-76068456D01*
X315533064Y-76027591D01*
X315533699Y-75988051D01*
X315539110Y-75956254D01*
X315541226Y-75950362D01*
X315564732Y-75913523D01*
X315600257Y-75881102D01*
X315617679Y-75870120D01*
X315621885Y-75868346D01*
X315628303Y-75866713D01*
X315637678Y-75865213D01*
X315650751Y-75863841D01*
X315668267Y-75862588D01*
X315690970Y-75861448D01*
X315719604Y-75860414D01*
X315754911Y-75859479D01*
X315797635Y-75858635D01*
X315848521Y-75857876D01*
X315908311Y-75857194D01*
X315977750Y-75856583D01*
X316057581Y-75856036D01*
X316148547Y-75855545D01*
X316251393Y-75855103D01*
X316366862Y-75854704D01*
X316495698Y-75854340D01*
X316638643Y-75854004D01*
X316796443Y-75853689D01*
X316969840Y-75853389D01*
X317159578Y-75853096D01*
X317366400Y-75852803D01*
X317459179Y-75852677D01*
X317690708Y-75852398D01*
X317904581Y-75852205D01*
X318101286Y-75852102D01*
X318281309Y-75852089D01*
X318445138Y-75852170D01*
X318593258Y-75852346D01*
X318726157Y-75852619D01*
X318844323Y-75852991D01*
X318948241Y-75853465D01*
X319038399Y-75854042D01*
X319115284Y-75854725D01*
X319179383Y-75855515D01*
X319231182Y-75856415D01*
X319271170Y-75857426D01*
X319299831Y-75858551D01*
X319317655Y-75859792D01*
X319323248Y-75860572D01*
X319372411Y-75878707D01*
X319410637Y-75908456D01*
X319437636Y-75946769D01*
X319453118Y-75990596D01*
X319456792Y-76036885D01*
X319448368Y-76082586D01*
G36*
X319452801Y-79552528D02*
X319437957Y-79662340D01*
X319411940Y-79765105D01*
X319374695Y-79857269D01*
X319374065Y-79858524D01*
X319319400Y-79949825D01*
X319252872Y-80029712D01*
X319173996Y-80098430D01*
X319082290Y-80156225D01*
X318977270Y-80203343D01*
X318858453Y-80240032D01*
X318725354Y-80266536D01*
X318577491Y-80283102D01*
X318534716Y-80285918D01*
X318433071Y-80289195D01*
X318325885Y-80288210D01*
X318219123Y-80283231D01*
X318118748Y-80274528D01*
X318036899Y-80263419D01*
X317972667Y-80250257D01*
X317902924Y-80231843D01*
X317833307Y-80209973D01*
X317769451Y-80186442D01*
X317716990Y-80163044D01*
X317709498Y-80159148D01*
X317671357Y-80136707D01*
X317629331Y-80108698D01*
X317587869Y-80078428D01*
X317551416Y-80049201D01*
X317524417Y-80024324D01*
X317517060Y-80016083D01*
X317497353Y-79991679D01*
X317455587Y-80031319D01*
X317366465Y-80103481D01*
X317263474Y-80163961D01*
X317146639Y-80212750D01*
X317015982Y-80249837D01*
X316942861Y-80264447D01*
X316857687Y-80275997D01*
X316759829Y-80283805D01*
X316654215Y-80287870D01*
X316545773Y-80288193D01*
X316439431Y-80284774D01*
X316340116Y-80277613D01*
X316252756Y-80266711D01*
X316238949Y-80264399D01*
X316104175Y-80233958D01*
X315983652Y-80192321D01*
X315877313Y-80139433D01*
X315785089Y-80075238D01*
X315706913Y-79999682D01*
X315642718Y-79912709D01*
X315592434Y-79814264D01*
X315557594Y-79710464D01*
X315548091Y-79661932D01*
X315540889Y-79600275D01*
X315536119Y-79530382D01*
X315533916Y-79457140D01*
X315534413Y-79385438D01*
X315537742Y-79320165D01*
X315544036Y-79266208D01*
X315545305Y-79259070D01*
X315574109Y-79144854D01*
X315615406Y-79042477D01*
X315669559Y-78951646D01*
X315736927Y-78872074D01*
X315817873Y-78803468D01*
X315912759Y-78745539D01*
X316021945Y-78697997D01*
X316145794Y-78660552D01*
X316284667Y-78632913D01*
X316334321Y-78625834D01*
X316381428Y-78621405D01*
X316442092Y-78618203D01*
X316511909Y-78616229D01*
X316529662Y-78616052D01*
X316529662Y-78962994D01*
X316455632Y-78964663D01*
X316390224Y-78968255D01*
X316337254Y-78973859D01*
X316334321Y-78974297D01*
X316224455Y-78996218D01*
X316130512Y-79026362D01*
X316051956Y-79065321D01*
X315988250Y-79113685D01*
X315938858Y-79172048D01*
X315903243Y-79240999D01*
X315880869Y-79321131D01*
X315871200Y-79413035D01*
X315871691Y-79484406D01*
X315876249Y-79540397D01*
X315884164Y-79593325D01*
X315893851Y-79634085D01*
X315921889Y-79704481D01*
X315959734Y-79763284D01*
X316009088Y-79811995D01*
X316071654Y-79852115D01*
X316149134Y-79885145D01*
X316195326Y-79899855D01*
X316256812Y-79915384D01*
X316321927Y-79926978D01*
X316394062Y-79934992D01*
X316476606Y-79939778D01*
X316572952Y-79941690D01*
X316597631Y-79941760D01*
X316731444Y-79938698D01*
X316849074Y-79929185D01*
X316951450Y-79912799D01*
X317039498Y-79889119D01*
X317114149Y-79857722D01*
X317176331Y-79818186D01*
X317226971Y-79770090D01*
X317266999Y-79713012D01*
X317297343Y-79646530D01*
X317306216Y-79619750D01*
X317316697Y-79569437D01*
X317322438Y-79507598D01*
X317323499Y-79440205D01*
X317319939Y-79373229D01*
X317311819Y-79312640D01*
X317302751Y-79274915D01*
X317272231Y-79201770D01*
X317228808Y-79139131D01*
X317171736Y-79086409D01*
X317100274Y-79043015D01*
X317013676Y-79008360D01*
X316941146Y-78988396D01*
X316895541Y-78980389D01*
X316835656Y-78973774D01*
X316765310Y-78968638D01*
X316688317Y-78965070D01*
X316608495Y-78963159D01*
X316529662Y-78962994D01*
X316529662Y-78616052D01*
X316586471Y-78615484D01*
X316661370Y-78615969D01*
X316732202Y-78617685D01*
X316794558Y-78620632D01*
X316844032Y-78624813D01*
X316851393Y-78625718D01*
X316995438Y-78650250D01*
X317124138Y-78684094D01*
X317237793Y-78727373D01*
X317336699Y-78780209D01*
X317421156Y-78842724D01*
X317452286Y-78871790D01*
X317490750Y-78910293D01*
X317533928Y-78869972D01*
X317612239Y-78805646D01*
X317699221Y-78751375D01*
X317796286Y-78706665D01*
X317904842Y-78671021D01*
X318026299Y-78643952D01*
X318162068Y-78624962D01*
X318257001Y-78616829D01*
X318335077Y-78613970D01*
X318335077Y-78962486D01*
X318262684Y-78963701D01*
X318199037Y-78966821D01*
X318155718Y-78970926D01*
X318052061Y-78988539D01*
X317959649Y-79013592D01*
X317880403Y-79045426D01*
X317816243Y-79083383D01*
X317806897Y-79090458D01*
X317764319Y-79133743D01*
X317727064Y-79190749D01*
X317697224Y-79257347D01*
X317676887Y-79329406D01*
X317672182Y-79356679D01*
X317667965Y-79410740D01*
X317668350Y-79473929D01*
X317672914Y-79538502D01*
X317681237Y-79596715D01*
X317686519Y-79620417D01*
X317712161Y-79693147D01*
X317748923Y-79754544D01*
X317798135Y-79805824D01*
X317861126Y-79848207D01*
X317939225Y-79882911D01*
X317991604Y-79899894D01*
X318053081Y-79915415D01*
X318118224Y-79927003D01*
X318190420Y-79935010D01*
X318273051Y-79939789D01*
X318369504Y-79941692D01*
X318393774Y-79941760D01*
X318487483Y-79940721D01*
X318567015Y-79937326D01*
X318636225Y-79931208D01*
X318698968Y-79922002D01*
X318759101Y-79909340D01*
X318774275Y-79905567D01*
X318865526Y-79876062D01*
X318941473Y-79837679D01*
X319002759Y-79789568D01*
X319050025Y-79730878D01*
X319083913Y-79660758D01*
X319105066Y-79578359D01*
X319114124Y-79482828D01*
X319114580Y-79454643D01*
X319112562Y-79382977D01*
X319105588Y-79323536D01*
X319092623Y-79270833D01*
X319072636Y-79219380D01*
X319068637Y-79210727D01*
X319029391Y-79148545D01*
X318974371Y-79094397D01*
X318904300Y-79048771D01*
X318819902Y-79012152D01*
X318738250Y-78988660D01*
X318693950Y-78980898D01*
X318635376Y-78974340D01*
X318566366Y-78969103D01*
X318490754Y-78965304D01*
X318412379Y-78963059D01*
X318335077Y-78962486D01*
X318335077Y-78613970D01*
X318374915Y-78612510D01*
X318495435Y-78614833D01*
X318614618Y-78623398D01*
X318728519Y-78637804D01*
X318833193Y-78657650D01*
X318924696Y-78682536D01*
X318933840Y-78685582D01*
X319003741Y-78712708D01*
X319073527Y-78745776D01*
X319136486Y-78781417D01*
X319170519Y-78804332D01*
X319217764Y-78844155D01*
X319266653Y-78894108D01*
X319312179Y-78948474D01*
X319349335Y-79001535D01*
X319361307Y-79022182D01*
X319401520Y-79113908D01*
X319430830Y-79216360D01*
X319449183Y-79325983D01*
X319456524Y-79439224D01*
X319452801Y-79552528D01*
X319452801Y-79552528D01*
G37*
X319452801Y-79552528D02*
X319437957Y-79662340D01*
X319411940Y-79765105D01*
X319374695Y-79857269D01*
X319374065Y-79858524D01*
X319319400Y-79949825D01*
X319252872Y-80029712D01*
X319173996Y-80098430D01*
X319082290Y-80156225D01*
X318977270Y-80203343D01*
X318858453Y-80240032D01*
X318725354Y-80266536D01*
X318577491Y-80283102D01*
X318534716Y-80285918D01*
X318433071Y-80289195D01*
X318325885Y-80288210D01*
X318219123Y-80283231D01*
X318118748Y-80274528D01*
X318036899Y-80263419D01*
X317972667Y-80250257D01*
X317902924Y-80231843D01*
X317833307Y-80209973D01*
X317769451Y-80186442D01*
X317716990Y-80163044D01*
X317709498Y-80159148D01*
X317671357Y-80136707D01*
X317629331Y-80108698D01*
X317587869Y-80078428D01*
X317551416Y-80049201D01*
X317524417Y-80024324D01*
X317517060Y-80016083D01*
X317497353Y-79991679D01*
X317455587Y-80031319D01*
X317366465Y-80103481D01*
X317263474Y-80163961D01*
X317146639Y-80212750D01*
X317015982Y-80249837D01*
X316942861Y-80264447D01*
X316857687Y-80275997D01*
X316759829Y-80283805D01*
X316654215Y-80287870D01*
X316545773Y-80288193D01*
X316439431Y-80284774D01*
X316340116Y-80277613D01*
X316252756Y-80266711D01*
X316238949Y-80264399D01*
X316104175Y-80233958D01*
X315983652Y-80192321D01*
X315877313Y-80139433D01*
X315785089Y-80075238D01*
X315706913Y-79999682D01*
X315642718Y-79912709D01*
X315592434Y-79814264D01*
X315557594Y-79710464D01*
X315548091Y-79661932D01*
X315540889Y-79600275D01*
X315536119Y-79530382D01*
X315533916Y-79457140D01*
X315534413Y-79385438D01*
X315537742Y-79320165D01*
X315544036Y-79266208D01*
X315545305Y-79259070D01*
X315574109Y-79144854D01*
X315615406Y-79042477D01*
X315669559Y-78951646D01*
X315736927Y-78872074D01*
X315817873Y-78803468D01*
X315912759Y-78745539D01*
X316021945Y-78697997D01*
X316145794Y-78660552D01*
X316284667Y-78632913D01*
X316334321Y-78625834D01*
X316381428Y-78621405D01*
X316442092Y-78618203D01*
X316511909Y-78616229D01*
X316529662Y-78616052D01*
X316529662Y-78962994D01*
X316455632Y-78964663D01*
X316390224Y-78968255D01*
X316337254Y-78973859D01*
X316334321Y-78974297D01*
X316224455Y-78996218D01*
X316130512Y-79026362D01*
X316051956Y-79065321D01*
X315988250Y-79113685D01*
X315938858Y-79172048D01*
X315903243Y-79240999D01*
X315880869Y-79321131D01*
X315871200Y-79413035D01*
X315871691Y-79484406D01*
X315876249Y-79540397D01*
X315884164Y-79593325D01*
X315893851Y-79634085D01*
X315921889Y-79704481D01*
X315959734Y-79763284D01*
X316009088Y-79811995D01*
X316071654Y-79852115D01*
X316149134Y-79885145D01*
X316195326Y-79899855D01*
X316256812Y-79915384D01*
X316321927Y-79926978D01*
X316394062Y-79934992D01*
X316476606Y-79939778D01*
X316572952Y-79941690D01*
X316597631Y-79941760D01*
X316731444Y-79938698D01*
X316849074Y-79929185D01*
X316951450Y-79912799D01*
X317039498Y-79889119D01*
X317114149Y-79857722D01*
X317176331Y-79818186D01*
X317226971Y-79770090D01*
X317266999Y-79713012D01*
X317297343Y-79646530D01*
X317306216Y-79619750D01*
X317316697Y-79569437D01*
X317322438Y-79507598D01*
X317323499Y-79440205D01*
X317319939Y-79373229D01*
X317311819Y-79312640D01*
X317302751Y-79274915D01*
X317272231Y-79201770D01*
X317228808Y-79139131D01*
X317171736Y-79086409D01*
X317100274Y-79043015D01*
X317013676Y-79008360D01*
X316941146Y-78988396D01*
X316895541Y-78980389D01*
X316835656Y-78973774D01*
X316765310Y-78968638D01*
X316688317Y-78965070D01*
X316608495Y-78963159D01*
X316529662Y-78962994D01*
X316529662Y-78616052D01*
X316586471Y-78615484D01*
X316661370Y-78615969D01*
X316732202Y-78617685D01*
X316794558Y-78620632D01*
X316844032Y-78624813D01*
X316851393Y-78625718D01*
X316995438Y-78650250D01*
X317124138Y-78684094D01*
X317237793Y-78727373D01*
X317336699Y-78780209D01*
X317421156Y-78842724D01*
X317452286Y-78871790D01*
X317490750Y-78910293D01*
X317533928Y-78869972D01*
X317612239Y-78805646D01*
X317699221Y-78751375D01*
X317796286Y-78706665D01*
X317904842Y-78671021D01*
X318026299Y-78643952D01*
X318162068Y-78624962D01*
X318257001Y-78616829D01*
X318335077Y-78613970D01*
X318335077Y-78962486D01*
X318262684Y-78963701D01*
X318199037Y-78966821D01*
X318155718Y-78970926D01*
X318052061Y-78988539D01*
X317959649Y-79013592D01*
X317880403Y-79045426D01*
X317816243Y-79083383D01*
X317806897Y-79090458D01*
X317764319Y-79133743D01*
X317727064Y-79190749D01*
X317697224Y-79257347D01*
X317676887Y-79329406D01*
X317672182Y-79356679D01*
X317667965Y-79410740D01*
X317668350Y-79473929D01*
X317672914Y-79538502D01*
X317681237Y-79596715D01*
X317686519Y-79620417D01*
X317712161Y-79693147D01*
X317748923Y-79754544D01*
X317798135Y-79805824D01*
X317861126Y-79848207D01*
X317939225Y-79882911D01*
X317991604Y-79899894D01*
X318053081Y-79915415D01*
X318118224Y-79927003D01*
X318190420Y-79935010D01*
X318273051Y-79939789D01*
X318369504Y-79941692D01*
X318393774Y-79941760D01*
X318487483Y-79940721D01*
X318567015Y-79937326D01*
X318636225Y-79931208D01*
X318698968Y-79922002D01*
X318759101Y-79909340D01*
X318774275Y-79905567D01*
X318865526Y-79876062D01*
X318941473Y-79837679D01*
X319002759Y-79789568D01*
X319050025Y-79730878D01*
X319083913Y-79660758D01*
X319105066Y-79578359D01*
X319114124Y-79482828D01*
X319114580Y-79454643D01*
X319112562Y-79382977D01*
X319105588Y-79323536D01*
X319092623Y-79270833D01*
X319072636Y-79219380D01*
X319068637Y-79210727D01*
X319029391Y-79148545D01*
X318974371Y-79094397D01*
X318904300Y-79048771D01*
X318819902Y-79012152D01*
X318738250Y-78988660D01*
X318693950Y-78980898D01*
X318635376Y-78974340D01*
X318566366Y-78969103D01*
X318490754Y-78965304D01*
X318412379Y-78963059D01*
X318335077Y-78962486D01*
X318335077Y-78613970D01*
X318374915Y-78612510D01*
X318495435Y-78614833D01*
X318614618Y-78623398D01*
X318728519Y-78637804D01*
X318833193Y-78657650D01*
X318924696Y-78682536D01*
X318933840Y-78685582D01*
X319003741Y-78712708D01*
X319073527Y-78745776D01*
X319136486Y-78781417D01*
X319170519Y-78804332D01*
X319217764Y-78844155D01*
X319266653Y-78894108D01*
X319312179Y-78948474D01*
X319349335Y-79001535D01*
X319361307Y-79022182D01*
X319401520Y-79113908D01*
X319430830Y-79216360D01*
X319449183Y-79325983D01*
X319456524Y-79439224D01*
X319452801Y-79552528D01*
G36*
X319453064Y-81396670D02*
X319449264Y-81465612D01*
X319443088Y-81527929D01*
X319434635Y-81578714D01*
X319434084Y-81581169D01*
X319399317Y-81698194D01*
X319351055Y-81803488D01*
X319289207Y-81897117D01*
X319213676Y-81979147D01*
X319124371Y-82049644D01*
X319021197Y-82108676D01*
X318904060Y-82156309D01*
X318772866Y-82192608D01*
X318627523Y-82217640D01*
X318519478Y-82228339D01*
X318482984Y-82230184D01*
X318428433Y-82231748D01*
X318355909Y-82233029D01*
X318265494Y-82234027D01*
X318157273Y-82234741D01*
X318031328Y-82235173D01*
X317887744Y-82235319D01*
X317726603Y-82235182D01*
X317547989Y-82234759D01*
X317395679Y-82234227D01*
X317237586Y-82233581D01*
X317096565Y-82232942D01*
X316971541Y-82232290D01*
X316861442Y-82231609D01*
X316765197Y-82230878D01*
X316681731Y-82230079D01*
X316609974Y-82229193D01*
X316548852Y-82228202D01*
X316497293Y-82227086D01*
X316454225Y-82225828D01*
X316418575Y-82224407D01*
X316389270Y-82222806D01*
X316365238Y-82221006D01*
X316345407Y-82218987D01*
X316328704Y-82216732D01*
X316320714Y-82215428D01*
X316198874Y-82190668D01*
X316092201Y-82160705D01*
X315998179Y-82124382D01*
X315914288Y-82080540D01*
X315838010Y-82028021D01*
X315766828Y-81965668D01*
X315757484Y-81956445D01*
X315686840Y-81876611D01*
X315630356Y-81791764D01*
X315587358Y-81700053D01*
X315557176Y-81599626D01*
X315539138Y-81488629D01*
X315532574Y-81365211D01*
X315532606Y-81335862D01*
X315533728Y-81286499D01*
X315535917Y-81237808D01*
X315538837Y-81195969D01*
X315541561Y-81170964D01*
X315563377Y-81071714D01*
X315599102Y-80972716D01*
X315646345Y-80879523D01*
X315701915Y-80798674D01*
X315779166Y-80717189D01*
X315870832Y-80646632D01*
X315976937Y-80586992D01*
X316097504Y-80538257D01*
X316232559Y-80500413D01*
X316311643Y-80484481D01*
X316325621Y-80482611D01*
X316345851Y-80480932D01*
X316373210Y-80479437D01*
X316408576Y-80478115D01*
X316452830Y-80476957D01*
X316506848Y-80475956D01*
X316571510Y-80475101D01*
X316647694Y-80474384D01*
X316736279Y-80473796D01*
X316838143Y-80473328D01*
X316954165Y-80472970D01*
X317085223Y-80472715D01*
X317232196Y-80472553D01*
X317395963Y-80472475D01*
X317482285Y-80472466D01*
X317482285Y-80803339D01*
X317358267Y-80803397D01*
X317235961Y-80803596D01*
X317116895Y-80803936D01*
X317002596Y-80804419D01*
X316894589Y-80805044D01*
X316794402Y-80805811D01*
X316703561Y-80806722D01*
X316623592Y-80807776D01*
X316556023Y-80808973D01*
X316502380Y-80810315D01*
X316464190Y-80811801D01*
X316446408Y-80813031D01*
X316324364Y-80830534D01*
X316217782Y-80857098D01*
X316126224Y-80893051D01*
X316049250Y-80938720D01*
X315986418Y-80994433D01*
X315937291Y-81060518D01*
X315901427Y-81137302D01*
X315878387Y-81225112D01*
X315876237Y-81237821D01*
X315870649Y-81299800D01*
X315871216Y-81369938D01*
X315877414Y-81441229D01*
X315888721Y-81506670D01*
X315899127Y-81544451D01*
X315931815Y-81620711D01*
X315975577Y-81686183D01*
X316031435Y-81741594D01*
X316100410Y-81787671D01*
X316183523Y-81825141D01*
X316281797Y-81854730D01*
X316357758Y-81870712D01*
X316373256Y-81873243D01*
X316390859Y-81875502D01*
X316411684Y-81877509D01*
X316436851Y-81879285D01*
X316467476Y-81880851D01*
X316504677Y-81882228D01*
X316549574Y-81883437D01*
X316603282Y-81884500D01*
X316666922Y-81885437D01*
X316741609Y-81886268D01*
X316828463Y-81887016D01*
X316928601Y-81887701D01*
X317043141Y-81888344D01*
X317173201Y-81888966D01*
X317319900Y-81889589D01*
X317374743Y-81889808D01*
X317551219Y-81890421D01*
X317710555Y-81890782D01*
X317853752Y-81890871D01*
X317981810Y-81890664D01*
X318095731Y-81890141D01*
X318196516Y-81889279D01*
X318285166Y-81888057D01*
X318362681Y-81886453D01*
X318430064Y-81884445D01*
X318488315Y-81882011D01*
X318538435Y-81879130D01*
X318581425Y-81875779D01*
X318618286Y-81871938D01*
X318650020Y-81867584D01*
X318677626Y-81862696D01*
X318684290Y-81861326D01*
X318786418Y-81834128D01*
X318873083Y-81798622D01*
X318945348Y-81753988D01*
X319004276Y-81699404D01*
X319050930Y-81634050D01*
X319086374Y-81557104D01*
X319089455Y-81548414D01*
X319097472Y-81523305D01*
X319103106Y-81499374D01*
X319106744Y-81472676D01*
X319108774Y-81439269D01*
X319109581Y-81395209D01*
X319109584Y-81343322D01*
X319109050Y-81285957D01*
X319107729Y-81242928D01*
X319105229Y-81210433D01*
X319101158Y-81184667D01*
X319095125Y-81161829D01*
X319089131Y-81144475D01*
X319062918Y-81082955D01*
X319032776Y-81032870D01*
X318994376Y-80987518D01*
X318976440Y-80969866D01*
X318912921Y-80920414D01*
X318836249Y-80880088D01*
X318745591Y-80848585D01*
X318640113Y-80825599D01*
X318548442Y-80813530D01*
X318522942Y-80811921D01*
X318480836Y-80810449D01*
X318423651Y-80809115D01*
X318352912Y-80807918D01*
X318270147Y-80806859D01*
X318176882Y-80805938D01*
X318074643Y-80805156D01*
X317964959Y-80804513D01*
X317849354Y-80804010D01*
X317729355Y-80803646D01*
X317606491Y-80803422D01*
X317482285Y-80803339D01*
X317482285Y-80472466D01*
X317490929Y-80472464D01*
X317662533Y-80472458D01*
X317817043Y-80472469D01*
X317955504Y-80472548D01*
X318078966Y-80472742D01*
X318188475Y-80473099D01*
X318285079Y-80473667D01*
X318369826Y-80474496D01*
X318443763Y-80475633D01*
X318507938Y-80477126D01*
X318563399Y-80479025D01*
X318611192Y-80481376D01*
X318652366Y-80484229D01*
X318687968Y-80487631D01*
X318719045Y-80491632D01*
X318746646Y-80496279D01*
X318771818Y-80501620D01*
X318795609Y-80507704D01*
X318819065Y-80514579D01*
X318843235Y-80522294D01*
X318869166Y-80530896D01*
X318886933Y-80536811D01*
X319006633Y-80584087D01*
X319111658Y-80641892D01*
X319202430Y-80710694D01*
X319279373Y-80790964D01*
X319342909Y-80883169D01*
X319393462Y-80987779D01*
X319431454Y-81105263D01*
X319442568Y-81152822D01*
X319449241Y-81199180D01*
X319453150Y-81258546D01*
X319454392Y-81326012D01*
X319453064Y-81396670D01*
X319453064Y-81396670D01*
G37*
X319453064Y-81396670D02*
X319449264Y-81465612D01*
X319443088Y-81527929D01*
X319434635Y-81578714D01*
X319434084Y-81581169D01*
X319399317Y-81698194D01*
X319351055Y-81803488D01*
X319289207Y-81897117D01*
X319213676Y-81979147D01*
X319124371Y-82049644D01*
X319021197Y-82108676D01*
X318904060Y-82156309D01*
X318772866Y-82192608D01*
X318627523Y-82217640D01*
X318519478Y-82228339D01*
X318482984Y-82230184D01*
X318428433Y-82231748D01*
X318355909Y-82233029D01*
X318265494Y-82234027D01*
X318157273Y-82234741D01*
X318031328Y-82235173D01*
X317887744Y-82235319D01*
X317726603Y-82235182D01*
X317547989Y-82234759D01*
X317395679Y-82234227D01*
X317237586Y-82233581D01*
X317096565Y-82232942D01*
X316971541Y-82232290D01*
X316861442Y-82231609D01*
X316765197Y-82230878D01*
X316681731Y-82230079D01*
X316609974Y-82229193D01*
X316548852Y-82228202D01*
X316497293Y-82227086D01*
X316454225Y-82225828D01*
X316418575Y-82224407D01*
X316389270Y-82222806D01*
X316365238Y-82221006D01*
X316345407Y-82218987D01*
X316328704Y-82216732D01*
X316320714Y-82215428D01*
X316198874Y-82190668D01*
X316092201Y-82160705D01*
X315998179Y-82124382D01*
X315914288Y-82080540D01*
X315838010Y-82028021D01*
X315766828Y-81965668D01*
X315757484Y-81956445D01*
X315686840Y-81876611D01*
X315630356Y-81791764D01*
X315587358Y-81700053D01*
X315557176Y-81599626D01*
X315539138Y-81488629D01*
X315532574Y-81365211D01*
X315532606Y-81335862D01*
X315533728Y-81286499D01*
X315535917Y-81237808D01*
X315538837Y-81195969D01*
X315541561Y-81170964D01*
X315563377Y-81071714D01*
X315599102Y-80972716D01*
X315646345Y-80879523D01*
X315701915Y-80798674D01*
X315779166Y-80717189D01*
X315870832Y-80646632D01*
X315976937Y-80586992D01*
X316097504Y-80538257D01*
X316232559Y-80500413D01*
X316311643Y-80484481D01*
X316325621Y-80482611D01*
X316345851Y-80480932D01*
X316373210Y-80479437D01*
X316408576Y-80478115D01*
X316452830Y-80476957D01*
X316506848Y-80475956D01*
X316571510Y-80475101D01*
X316647694Y-80474384D01*
X316736279Y-80473796D01*
X316838143Y-80473328D01*
X316954165Y-80472970D01*
X317085223Y-80472715D01*
X317232196Y-80472553D01*
X317395963Y-80472475D01*
X317482285Y-80472466D01*
X317482285Y-80803339D01*
X317358267Y-80803397D01*
X317235961Y-80803596D01*
X317116895Y-80803936D01*
X317002596Y-80804419D01*
X316894589Y-80805044D01*
X316794402Y-80805811D01*
X316703561Y-80806722D01*
X316623592Y-80807776D01*
X316556023Y-80808973D01*
X316502380Y-80810315D01*
X316464190Y-80811801D01*
X316446408Y-80813031D01*
X316324364Y-80830534D01*
X316217782Y-80857098D01*
X316126224Y-80893051D01*
X316049250Y-80938720D01*
X315986418Y-80994433D01*
X315937291Y-81060518D01*
X315901427Y-81137302D01*
X315878387Y-81225112D01*
X315876237Y-81237821D01*
X315870649Y-81299800D01*
X315871216Y-81369938D01*
X315877414Y-81441229D01*
X315888721Y-81506670D01*
X315899127Y-81544451D01*
X315931815Y-81620711D01*
X315975577Y-81686183D01*
X316031435Y-81741594D01*
X316100410Y-81787671D01*
X316183523Y-81825141D01*
X316281797Y-81854730D01*
X316357758Y-81870712D01*
X316373256Y-81873243D01*
X316390859Y-81875502D01*
X316411684Y-81877509D01*
X316436851Y-81879285D01*
X316467476Y-81880851D01*
X316504677Y-81882228D01*
X316549574Y-81883437D01*
X316603282Y-81884500D01*
X316666922Y-81885437D01*
X316741609Y-81886268D01*
X316828463Y-81887016D01*
X316928601Y-81887701D01*
X317043141Y-81888344D01*
X317173201Y-81888966D01*
X317319900Y-81889589D01*
X317374743Y-81889808D01*
X317551219Y-81890421D01*
X317710555Y-81890782D01*
X317853752Y-81890871D01*
X317981810Y-81890664D01*
X318095731Y-81890141D01*
X318196516Y-81889279D01*
X318285166Y-81888057D01*
X318362681Y-81886453D01*
X318430064Y-81884445D01*
X318488315Y-81882011D01*
X318538435Y-81879130D01*
X318581425Y-81875779D01*
X318618286Y-81871938D01*
X318650020Y-81867584D01*
X318677626Y-81862696D01*
X318684290Y-81861326D01*
X318786418Y-81834128D01*
X318873083Y-81798622D01*
X318945348Y-81753988D01*
X319004276Y-81699404D01*
X319050930Y-81634050D01*
X319086374Y-81557104D01*
X319089455Y-81548414D01*
X319097472Y-81523305D01*
X319103106Y-81499374D01*
X319106744Y-81472676D01*
X319108774Y-81439269D01*
X319109581Y-81395209D01*
X319109584Y-81343322D01*
X319109050Y-81285957D01*
X319107729Y-81242928D01*
X319105229Y-81210433D01*
X319101158Y-81184667D01*
X319095125Y-81161829D01*
X319089131Y-81144475D01*
X319062918Y-81082955D01*
X319032776Y-81032870D01*
X318994376Y-80987518D01*
X318976440Y-80969866D01*
X318912921Y-80920414D01*
X318836249Y-80880088D01*
X318745591Y-80848585D01*
X318640113Y-80825599D01*
X318548442Y-80813530D01*
X318522942Y-80811921D01*
X318480836Y-80810449D01*
X318423651Y-80809115D01*
X318352912Y-80807918D01*
X318270147Y-80806859D01*
X318176882Y-80805938D01*
X318074643Y-80805156D01*
X317964959Y-80804513D01*
X317849354Y-80804010D01*
X317729355Y-80803646D01*
X317606491Y-80803422D01*
X317482285Y-80803339D01*
X317482285Y-80472466D01*
X317490929Y-80472464D01*
X317662533Y-80472458D01*
X317817043Y-80472469D01*
X317955504Y-80472548D01*
X318078966Y-80472742D01*
X318188475Y-80473099D01*
X318285079Y-80473667D01*
X318369826Y-80474496D01*
X318443763Y-80475633D01*
X318507938Y-80477126D01*
X318563399Y-80479025D01*
X318611192Y-80481376D01*
X318652366Y-80484229D01*
X318687968Y-80487631D01*
X318719045Y-80491632D01*
X318746646Y-80496279D01*
X318771818Y-80501620D01*
X318795609Y-80507704D01*
X318819065Y-80514579D01*
X318843235Y-80522294D01*
X318869166Y-80530896D01*
X318886933Y-80536811D01*
X319006633Y-80584087D01*
X319111658Y-80641892D01*
X319202430Y-80710694D01*
X319279373Y-80790964D01*
X319342909Y-80883169D01*
X319393462Y-80987779D01*
X319431454Y-81105263D01*
X319442568Y-81152822D01*
X319449241Y-81199180D01*
X319453150Y-81258546D01*
X319454392Y-81326012D01*
X319453064Y-81396670D01*
D12*
X335994026Y-66250932D03*
X340494026Y-66250932D03*
D13*
X320710000Y-88900000D03*
D14*
X318170000Y-88900000D03*
X315630000Y-88900000D03*
X313090000Y-88900000D03*
D13*
X323250000Y-88900000D03*
D14*
X325790000Y-88900000D03*
X328330000Y-88900000D03*
D15*
X336644026Y-59650932D03*
D16*
X339384026Y-59650932D03*
D13*
X338874026Y-74600932D03*
D14*
X341414026Y-74600932D03*
X343954026Y-74600932D03*
D17*
X343412826Y-80150932D03*
X349204026Y-84062532D03*
X336504026Y-87059732D03*
X340415626Y-92850932D03*
X347523759Y-91170665D03*
D18*
X301750200Y-62800000D03*
X301750200Y-70420000D03*
X301750200Y-80580000D03*
X311656200Y-70420000D03*
X311656200Y-80580000D03*
D19*
X326250000Y-59250000D03*
D20*
X321750000Y-62750000D03*
X331250000Y-67550000D03*
D21*
X325790000Y-88900000D02*
X325790000Y-76910000D01*
X325790000Y-76910000D02*
X331250000Y-71450000D01*
X331250000Y-71450000D02*
X331250000Y-67550000D01*
X321750000Y-62750000D02*
X321750000Y-69850000D01*
X323250000Y-71350000D02*
X323250000Y-76500000D01*
X321750000Y-69850000D02*
X323250000Y-71350000D01*
X323250000Y-76500000D02*
X323250000Y-88900000D01*
X301750200Y-70420000D02*
X305670000Y-70420000D01*
X305670000Y-70420000D02*
X311656200Y-76406200D01*
X311656200Y-76406200D02*
X311656200Y-77436911D01*
X311656200Y-77436911D02*
X311656200Y-80580000D01*
X315630000Y-88900000D02*
X315630000Y-84553800D01*
X315630000Y-84553800D02*
X311656200Y-80580000D01*
X316500000Y-92750000D02*
X318170000Y-91080000D01*
X318170000Y-91080000D02*
X318170000Y-88900000D01*
X310777111Y-92750000D02*
X316500000Y-92750000D01*
X301750200Y-80580000D02*
X301750200Y-83723089D01*
X301750200Y-83723089D02*
X310777111Y-92750000D01*
D22*
X336744026Y-62250932D02*
X336744026Y-59500932D01*
X335994026Y-66250932D02*
X335994026Y-63000932D01*
X335994026Y-63000932D02*
X336744026Y-62250932D01*
X339244026Y-59540932D02*
X339284026Y-59500932D01*
X339244026Y-61750932D02*
X339244026Y-59540932D01*
X340494026Y-63000932D02*
X339244026Y-61750932D01*
X340494026Y-66250932D02*
X340494026Y-63000932D01*
D21*
X341414026Y-74600932D02*
X341414026Y-77740932D01*
X341414026Y-77740932D02*
X338054026Y-81100932D01*
X338054026Y-81100932D02*
X338054026Y-85509732D01*
X338054026Y-85509732D02*
X336504026Y-87059732D01*
X343954026Y-74600932D02*
X343954026Y-79609732D01*
X343954026Y-79609732D02*
X343412826Y-80150932D01*
M02*
