G04 #@! TF.FileFunction,Soldermask,Bot*
%FSLAX46Y46*%
G04 Gerber Fmt 4.6, Leading zero omitted, Abs format (unit mm)*
G04 Created by KiCad (PCBNEW 4.0.2-stable) date 2019-06-10 2:57:16 PM*
%MOMM*%
G01*
G04 APERTURE LIST*
%ADD10C,0.200000*%
%ADD11R,1.000000X0.900000*%
%ADD12R,1.100000X1.700000*%
%ADD13R,1.700000X1.100000*%
%ADD14R,1.700000X2.700000*%
%ADD15R,3.100000X1.700000*%
%ADD16R,0.900000X1.000000*%
%ADD17R,2.700000X1.700000*%
%ADD18R,5.180000X2.640000*%
%ADD19O,2.640000X5.180000*%
%ADD20C,2.640000*%
%ADD21R,0.862000X0.709600*%
%ADD22R,0.709600X0.862000*%
%ADD23R,2.497760X2.497760*%
%ADD24R,1.600000X2.100000*%
%ADD25O,1.600000X2.100000*%
%ADD26O,4.100000X2.600000*%
%ADD27O,2.600000X2.100000*%
%ADD28O,1.600000X3.600000*%
%ADD29R,1.497000X1.243000*%
%ADD30R,2.700000X1.900000*%
%ADD31O,2.700000X1.900000*%
%ADD32R,1.800000X1.800000*%
%ADD33O,1.800000X1.800000*%
%ADD34R,0.801040X1.100760*%
%ADD35R,1.400000X0.800000*%
%ADD36R,2.900000X1.700000*%
%ADD37R,1.600000X0.550000*%
%ADD38C,2.600000*%
%ADD39R,2.600000X3.600000*%
%ADD40O,4.700000X1.550000*%
%ADD41O,4.400000X1.200000*%
%ADD42O,1.200000X4.400000*%
%ADD43C,1.200000*%
%ADD44R,1.900000X1.900000*%
%ADD45C,1.900000*%
%ADD46R,0.800000X1.400000*%
%ADD47R,1.100760X0.801040*%
%ADD48R,1.550000X0.550000*%
%ADD49R,0.550000X1.550000*%
G04 APERTURE END LIST*
D10*
D11*
X66150000Y-79000000D03*
X67850000Y-79000000D03*
X137600000Y-93750000D03*
X135900000Y-93750000D03*
X100650000Y-86250000D03*
X102350000Y-86250000D03*
D12*
X25500000Y-77500000D03*
X28500000Y-77500000D03*
D13*
X23000000Y-86500000D03*
X23000000Y-83500000D03*
X70950000Y-83500000D03*
X70950000Y-86500000D03*
X23000000Y-91500000D03*
X23000000Y-88500000D03*
X70950000Y-92000000D03*
X70950000Y-89000000D03*
D12*
X33400000Y-83300000D03*
X30400000Y-83300000D03*
X40500000Y-83300000D03*
X43500000Y-83300000D03*
D14*
X226250000Y-92800000D03*
X226250000Y-89200000D03*
D11*
X232350000Y-93500000D03*
X230650000Y-93500000D03*
X235950000Y-92300000D03*
X237650000Y-92300000D03*
X230400000Y-86750000D03*
X232100000Y-86750000D03*
D15*
X230550000Y-81500000D03*
X234950000Y-81500000D03*
D11*
X233900000Y-85250000D03*
X235600000Y-85250000D03*
X270050000Y-59400000D03*
X268350000Y-59400000D03*
D16*
X264750000Y-65800000D03*
X264750000Y-64100000D03*
D17*
X242300000Y-85750000D03*
X238700000Y-85750000D03*
D18*
X20250000Y-76060000D03*
D19*
X24060000Y-72250000D03*
D20*
X16768700Y-70023274D02*
X16111300Y-72476726D01*
D21*
X87000000Y-63755400D03*
X87000000Y-66244600D03*
X87000000Y-59755400D03*
X87000000Y-62244600D03*
X88500000Y-75494600D03*
X88500000Y-73005400D03*
X87000000Y-73005400D03*
X87000000Y-75494600D03*
D22*
X108244600Y-61000000D03*
X105755400Y-61000000D03*
X108244600Y-73750000D03*
X105755400Y-73750000D03*
X126244600Y-61000000D03*
X123755400Y-61000000D03*
X126244600Y-73750000D03*
X123755400Y-73750000D03*
X144244600Y-60750000D03*
X141755400Y-60750000D03*
X144244600Y-73750000D03*
X141755400Y-73750000D03*
X162244600Y-60750000D03*
X159755400Y-60750000D03*
X162244600Y-73750000D03*
X159755400Y-73750000D03*
X180244600Y-60750000D03*
X177755400Y-60750000D03*
X180244600Y-73750000D03*
X177755400Y-73750000D03*
X198244600Y-60750000D03*
X195755400Y-60750000D03*
X198244600Y-73750000D03*
X195755400Y-73750000D03*
D23*
X18300000Y-80040000D03*
X22699280Y-80040000D03*
D21*
X250200000Y-68755400D03*
X250200000Y-71244600D03*
X251750000Y-66255400D03*
X251750000Y-68744600D03*
X270250000Y-64705400D03*
X270250000Y-67194600D03*
X271750000Y-67194600D03*
X271750000Y-64705400D03*
D24*
X122290000Y-91770000D03*
D25*
X122290000Y-88730000D03*
X119750000Y-91770000D03*
X119750000Y-88730000D03*
X117210000Y-91770000D03*
X117210000Y-88730000D03*
D26*
X79000000Y-81700000D03*
D27*
X79000000Y-72300000D03*
D28*
X74100000Y-77000000D03*
X82300000Y-77000000D03*
D26*
X79000000Y-68700000D03*
D27*
X79000000Y-59300000D03*
D28*
X74100000Y-64000000D03*
X82300000Y-64000000D03*
D26*
X97000000Y-68700000D03*
D27*
X97000000Y-59300000D03*
D28*
X92100000Y-64000000D03*
X100300000Y-64000000D03*
D26*
X97000000Y-81700000D03*
D27*
X97000000Y-72300000D03*
D28*
X92100000Y-77000000D03*
X100300000Y-77000000D03*
D26*
X115000000Y-68700000D03*
D27*
X115000000Y-59300000D03*
D28*
X110100000Y-64000000D03*
X118300000Y-64000000D03*
D26*
X115000000Y-81700000D03*
D27*
X115000000Y-72300000D03*
D28*
X110100000Y-77000000D03*
X118300000Y-77000000D03*
D26*
X133000000Y-68700000D03*
D27*
X133000000Y-59300000D03*
D28*
X128100000Y-64000000D03*
X136300000Y-64000000D03*
D26*
X133000000Y-81700000D03*
D27*
X133000000Y-72300000D03*
D28*
X128100000Y-77000000D03*
X136300000Y-77000000D03*
D26*
X151000000Y-68700000D03*
D27*
X151000000Y-59300000D03*
D28*
X146100000Y-64000000D03*
X154300000Y-64000000D03*
D26*
X151000000Y-81700000D03*
D27*
X151000000Y-72300000D03*
D28*
X146100000Y-77000000D03*
X154300000Y-77000000D03*
D26*
X169000000Y-68700000D03*
D27*
X169000000Y-59300000D03*
D28*
X164100000Y-64000000D03*
X172300000Y-64000000D03*
D26*
X169000000Y-81700000D03*
D27*
X169000000Y-72300000D03*
D28*
X164100000Y-77000000D03*
X172300000Y-77000000D03*
D26*
X187000000Y-68700000D03*
D27*
X187000000Y-59300000D03*
D28*
X182100000Y-64000000D03*
X190300000Y-64000000D03*
D26*
X187000000Y-81700000D03*
D27*
X187000000Y-72300000D03*
D28*
X182100000Y-77000000D03*
X190300000Y-77000000D03*
D26*
X205000000Y-68700000D03*
D27*
X205000000Y-59300000D03*
D28*
X200100000Y-64000000D03*
X208300000Y-64000000D03*
D26*
X205000000Y-81700000D03*
D27*
X205000000Y-72300000D03*
D28*
X200100000Y-77000000D03*
X208300000Y-77000000D03*
D26*
X223000000Y-68700000D03*
D27*
X223000000Y-59300000D03*
D28*
X218100000Y-64000000D03*
X226300000Y-64000000D03*
D26*
X223000000Y-81700000D03*
D27*
X223000000Y-72300000D03*
D28*
X218100000Y-77000000D03*
X226300000Y-77000000D03*
D26*
X241000000Y-68700000D03*
D27*
X241000000Y-59300000D03*
D28*
X236100000Y-64000000D03*
X244300000Y-64000000D03*
D26*
X241000000Y-81700000D03*
D27*
X241000000Y-72300000D03*
D28*
X236100000Y-77000000D03*
X244300000Y-77000000D03*
D26*
X259000000Y-81700000D03*
D27*
X259000000Y-72300000D03*
D28*
X254100000Y-77000000D03*
X262300000Y-77000000D03*
D26*
X259000000Y-68700000D03*
D27*
X259000000Y-59300000D03*
D28*
X254100000Y-64000000D03*
X262300000Y-64000000D03*
D29*
X25500000Y-79920500D03*
X25500000Y-82079500D03*
X59250000Y-84170500D03*
X59250000Y-86329500D03*
X25500000Y-91479500D03*
X25500000Y-89320500D03*
X59250000Y-89020500D03*
X59250000Y-91179500D03*
D24*
X90540000Y-91770000D03*
D25*
X90540000Y-88730000D03*
X88000000Y-91770000D03*
X88000000Y-88730000D03*
X85460000Y-91770000D03*
X85460000Y-88730000D03*
D30*
X14500000Y-77000000D03*
D31*
X14500000Y-80040000D03*
D32*
X284480000Y-88900000D03*
D33*
X281940000Y-88900000D03*
X279400000Y-88900000D03*
D34*
X106750000Y-68270000D03*
X107702500Y-65730000D03*
X105797500Y-65730000D03*
X106750000Y-81020000D03*
X107702500Y-78480000D03*
X105797500Y-78480000D03*
X124750000Y-68270000D03*
X125702500Y-65730000D03*
X123797500Y-65730000D03*
X124750000Y-81020000D03*
X125702500Y-78480000D03*
X123797500Y-78480000D03*
X142750000Y-68020000D03*
X143702500Y-65480000D03*
X141797500Y-65480000D03*
X142750000Y-81020000D03*
X143702500Y-78480000D03*
X141797500Y-78480000D03*
X160750000Y-68270000D03*
X161702500Y-65730000D03*
X159797500Y-65730000D03*
X160750000Y-81020000D03*
X161702500Y-78480000D03*
X159797500Y-78480000D03*
X178750000Y-68020000D03*
X179702500Y-65480000D03*
X177797500Y-65480000D03*
X178750000Y-81020000D03*
X179702500Y-78480000D03*
X177797500Y-78480000D03*
X196750000Y-68020000D03*
X197702500Y-65480000D03*
X195797500Y-65480000D03*
X196750000Y-81020000D03*
X197702500Y-78480000D03*
X195797500Y-78480000D03*
D11*
X272000000Y-62900000D03*
X272000000Y-61000000D03*
X274000000Y-61950000D03*
D16*
X275050000Y-64950000D03*
X276950000Y-64950000D03*
X276000000Y-66950000D03*
X78750000Y-89900000D03*
X78750000Y-91600000D03*
D11*
X67850000Y-80500000D03*
X66150000Y-80500000D03*
D16*
X48000000Y-73350000D03*
X48000000Y-71650000D03*
X88500000Y-63650000D03*
X88500000Y-65350000D03*
X88500000Y-76900000D03*
X88500000Y-78600000D03*
D11*
X107600000Y-64000000D03*
X105900000Y-64000000D03*
X107600000Y-76750000D03*
X105900000Y-76750000D03*
X125600000Y-64000000D03*
X123900000Y-64000000D03*
X125600000Y-76750000D03*
X123900000Y-76750000D03*
X105900000Y-62500000D03*
X107600000Y-62500000D03*
X105900000Y-75250000D03*
X107600000Y-75250000D03*
X123900000Y-62500000D03*
X125600000Y-62500000D03*
X123900000Y-75250000D03*
X125600000Y-75250000D03*
D16*
X104250000Y-66650000D03*
X104250000Y-68350000D03*
X104250000Y-79400000D03*
X104250000Y-81100000D03*
X122250000Y-66650000D03*
X122250000Y-68350000D03*
X122250000Y-79400000D03*
X122250000Y-81100000D03*
D11*
X143600000Y-63750000D03*
X141900000Y-63750000D03*
X143600000Y-76750000D03*
X141900000Y-76750000D03*
X161600000Y-63750000D03*
X159900000Y-63750000D03*
X161600000Y-76750000D03*
X159900000Y-76750000D03*
X141900000Y-62250000D03*
X143600000Y-62250000D03*
X141900000Y-75250000D03*
X143600000Y-75250000D03*
X159900000Y-62250000D03*
X161600000Y-62250000D03*
X159900000Y-75250000D03*
X161600000Y-75250000D03*
D16*
X140250000Y-66650000D03*
X140250000Y-68350000D03*
X140250000Y-79400000D03*
X140250000Y-81100000D03*
X158250000Y-66650000D03*
X158250000Y-68350000D03*
X158250000Y-79400000D03*
X158250000Y-81100000D03*
D11*
X179600000Y-63750000D03*
X177900000Y-63750000D03*
X179600000Y-76750000D03*
X177900000Y-76750000D03*
X197600000Y-63750000D03*
X195900000Y-63750000D03*
X197600000Y-76750000D03*
X195900000Y-76750000D03*
X177900000Y-62250000D03*
X179600000Y-62250000D03*
X177900000Y-75250000D03*
X179600000Y-75250000D03*
X195900000Y-62250000D03*
X197600000Y-62250000D03*
X195900000Y-75250000D03*
X197600000Y-75250000D03*
D16*
X176250000Y-66650000D03*
X176250000Y-68350000D03*
X176250000Y-79400000D03*
X176250000Y-81100000D03*
X194250000Y-66650000D03*
X194250000Y-68350000D03*
X194250000Y-79400000D03*
X194250000Y-81100000D03*
D11*
X221150000Y-88000000D03*
X222850000Y-88000000D03*
X221150000Y-89250000D03*
X222850000Y-89250000D03*
X223650000Y-86000000D03*
X225350000Y-86000000D03*
X228600000Y-86000000D03*
X226900000Y-86000000D03*
X230650000Y-92250000D03*
X232350000Y-92250000D03*
X239350000Y-89250000D03*
X237650000Y-89250000D03*
X235600000Y-86750000D03*
X233900000Y-86750000D03*
X230400000Y-85250000D03*
X232100000Y-85250000D03*
D16*
X251750000Y-71850000D03*
X251750000Y-70150000D03*
X251750000Y-75100000D03*
X251750000Y-73400000D03*
X254000000Y-66900000D03*
X254000000Y-68600000D03*
X270700000Y-84050000D03*
X270700000Y-82350000D03*
X270250000Y-61350000D03*
X270250000Y-63050000D03*
D11*
X276750000Y-63400000D03*
X275050000Y-63400000D03*
D16*
X276200000Y-89650000D03*
X276200000Y-87950000D03*
D35*
X276000000Y-60000000D03*
X276000000Y-61900000D03*
X271750000Y-71150000D03*
X271750000Y-69250000D03*
X266300000Y-71150000D03*
X266300000Y-73050000D03*
X268200000Y-71150000D03*
X268200000Y-73050000D03*
D36*
X213750000Y-84000000D03*
X75000000Y-90750000D03*
D37*
X106450000Y-87725000D03*
X106450000Y-88375000D03*
X106450000Y-89025000D03*
X106450000Y-89675000D03*
X106450000Y-90325000D03*
X106450000Y-90975000D03*
X106450000Y-91625000D03*
X106450000Y-92275000D03*
X100550000Y-92275000D03*
X100550000Y-91625000D03*
X100550000Y-90975000D03*
X100550000Y-90325000D03*
X100550000Y-89675000D03*
X100550000Y-89025000D03*
X100550000Y-88375000D03*
X100550000Y-87725000D03*
X131550000Y-92275000D03*
X131550000Y-91625000D03*
X131550000Y-90975000D03*
X131550000Y-90325000D03*
X131550000Y-89675000D03*
X131550000Y-89025000D03*
X131550000Y-88375000D03*
X131550000Y-87725000D03*
X137450000Y-87725000D03*
X137450000Y-88375000D03*
X137450000Y-89025000D03*
X137450000Y-89675000D03*
X137450000Y-90325000D03*
X137450000Y-90975000D03*
X137450000Y-91625000D03*
X137450000Y-92275000D03*
D38*
X33500000Y-72250000D03*
X44500000Y-72250000D03*
X39000000Y-77750000D03*
D39*
X39000000Y-67750000D03*
D38*
X35110000Y-76140000D03*
X42890000Y-76140000D03*
D40*
X39000000Y-67750000D03*
D41*
X34900000Y-72250000D03*
X43100000Y-72250000D03*
D42*
X39000000Y-76350000D03*
D43*
X34968629Y-76281371D02*
X37231371Y-74018629D01*
X40768629Y-74018629D02*
X43031371Y-76281371D01*
D38*
X55500000Y-72250000D03*
X66500000Y-72250000D03*
X61000000Y-77750000D03*
D39*
X61000000Y-67750000D03*
D38*
X57110000Y-76140000D03*
X64890000Y-76140000D03*
D40*
X61000000Y-67750000D03*
D41*
X56900000Y-72250000D03*
X65100000Y-72250000D03*
D42*
X61000000Y-76350000D03*
D43*
X56968629Y-76281371D02*
X59231371Y-74018629D01*
X62768629Y-74018629D02*
X65031371Y-76281371D01*
D44*
X67530000Y-86460000D03*
D45*
X67530000Y-89000000D03*
X67530000Y-91540000D03*
D44*
X19580000Y-86460000D03*
D45*
X19580000Y-89000000D03*
X19580000Y-91540000D03*
D32*
X264160000Y-88900000D03*
D33*
X261620000Y-88900000D03*
X259080000Y-88900000D03*
X256540000Y-88900000D03*
D32*
X266700000Y-88900000D03*
D33*
X269240000Y-88900000D03*
X271780000Y-88900000D03*
D46*
X258150000Y-85900000D03*
X260050000Y-85900000D03*
D32*
X144500000Y-86500000D03*
D33*
X147040000Y-86500000D03*
X149580000Y-86500000D03*
D47*
X152230000Y-86500000D03*
X154770000Y-87452500D03*
X154770000Y-85547500D03*
D11*
X158400000Y-83750000D03*
X160100000Y-83750000D03*
X160100000Y-85500000D03*
X158400000Y-85500000D03*
D16*
X156750000Y-85650000D03*
X156750000Y-87350000D03*
D11*
X156850000Y-83750000D03*
X155150000Y-83750000D03*
D25*
X33610000Y-88730000D03*
X33610000Y-91770000D03*
X36150000Y-91770000D03*
X36150000Y-88730000D03*
X38690000Y-88730000D03*
X38690000Y-91770000D03*
X41230000Y-91770000D03*
X41230000Y-88730000D03*
X43770000Y-88730000D03*
X43770000Y-91770000D03*
D24*
X51390000Y-91770000D03*
D25*
X51390000Y-88730000D03*
X48850000Y-91770000D03*
X48850000Y-88730000D03*
X46310000Y-91770000D03*
X46310000Y-88730000D03*
D48*
X230050000Y-90475000D03*
X230050000Y-89825000D03*
X230050000Y-89175000D03*
X230050000Y-88525000D03*
X235950000Y-88525000D03*
X235950000Y-89175000D03*
X235950000Y-89825000D03*
X235950000Y-90475000D03*
D49*
X268225000Y-67400000D03*
X267575000Y-67400000D03*
X266925000Y-67400000D03*
X266275000Y-67400000D03*
X266275000Y-61500000D03*
X266925000Y-61500000D03*
X267575000Y-61500000D03*
X268225000Y-61500000D03*
M02*
