G04 #@! TF.FileFunction,Soldermask,Top*
%FSLAX46Y46*%
G04 Gerber Fmt 4.6, Leading zero omitted, Abs format (unit mm)*
G04 Created by KiCad (PCBNEW 4.0.2-stable) date 2019-02-13 11:32:10 AM*
%MOMM*%
G01*
G04 APERTURE LIST*
%ADD10C,0.200000*%
%ADD11C,1.100000*%
%ADD12R,5.180000X2.640000*%
%ADD13O,2.640000X5.180000*%
%ADD14C,2.640000*%
%ADD15R,1.600000X2.100000*%
%ADD16O,1.600000X2.100000*%
%ADD17O,4.100000X2.600000*%
%ADD18O,2.600000X2.100000*%
%ADD19O,1.600000X3.600000*%
%ADD20R,2.700000X1.900000*%
%ADD21O,2.700000X1.900000*%
%ADD22R,1.800000X1.800000*%
%ADD23O,1.800000X1.800000*%
%ADD24R,2.900000X1.700000*%
%ADD25C,2.600000*%
%ADD26R,2.600000X3.600000*%
%ADD27O,4.700000X1.550000*%
%ADD28O,4.400000X1.200000*%
%ADD29O,1.200000X4.400000*%
%ADD30C,1.200000*%
%ADD31R,1.900000X1.900000*%
%ADD32C,1.900000*%
%ADD33O,3.116000X1.608000*%
%ADD34O,1.608000X3.116000*%
%ADD35C,3.351200*%
%ADD36C,4.545000*%
G04 APERTURE END LIST*
D10*
D11*
X292000000Y-84750000D03*
X292000000Y-86250000D03*
X292000000Y-87750000D03*
X292000000Y-68250000D03*
X292000000Y-66750000D03*
D12*
X20250000Y-76060000D03*
D13*
X24060000Y-72250000D03*
D14*
X16768700Y-70023274D02*
X16111300Y-72476726D01*
D15*
X122290000Y-91770000D03*
D16*
X122290000Y-88730000D03*
X119750000Y-91770000D03*
X119750000Y-88730000D03*
X117210000Y-91770000D03*
X117210000Y-88730000D03*
D17*
X79000000Y-81700000D03*
D18*
X79000000Y-72300000D03*
D19*
X74100000Y-77000000D03*
X82300000Y-77000000D03*
D17*
X79000000Y-68700000D03*
D18*
X79000000Y-59300000D03*
D19*
X74100000Y-64000000D03*
X82300000Y-64000000D03*
D17*
X97000000Y-68700000D03*
D18*
X97000000Y-59300000D03*
D19*
X92100000Y-64000000D03*
X100300000Y-64000000D03*
D17*
X97000000Y-81700000D03*
D18*
X97000000Y-72300000D03*
D19*
X92100000Y-77000000D03*
X100300000Y-77000000D03*
D17*
X115000000Y-68700000D03*
D18*
X115000000Y-59300000D03*
D19*
X110100000Y-64000000D03*
X118300000Y-64000000D03*
D17*
X115000000Y-81700000D03*
D18*
X115000000Y-72300000D03*
D19*
X110100000Y-77000000D03*
X118300000Y-77000000D03*
D17*
X133000000Y-68700000D03*
D18*
X133000000Y-59300000D03*
D19*
X128100000Y-64000000D03*
X136300000Y-64000000D03*
D17*
X133000000Y-81700000D03*
D18*
X133000000Y-72300000D03*
D19*
X128100000Y-77000000D03*
X136300000Y-77000000D03*
D17*
X151000000Y-68700000D03*
D18*
X151000000Y-59300000D03*
D19*
X146100000Y-64000000D03*
X154300000Y-64000000D03*
D17*
X151000000Y-81700000D03*
D18*
X151000000Y-72300000D03*
D19*
X146100000Y-77000000D03*
X154300000Y-77000000D03*
D17*
X169000000Y-68700000D03*
D18*
X169000000Y-59300000D03*
D19*
X164100000Y-64000000D03*
X172300000Y-64000000D03*
D17*
X169000000Y-81700000D03*
D18*
X169000000Y-72300000D03*
D19*
X164100000Y-77000000D03*
X172300000Y-77000000D03*
D17*
X187000000Y-68700000D03*
D18*
X187000000Y-59300000D03*
D19*
X182100000Y-64000000D03*
X190300000Y-64000000D03*
D17*
X187000000Y-81700000D03*
D18*
X187000000Y-72300000D03*
D19*
X182100000Y-77000000D03*
X190300000Y-77000000D03*
D17*
X205000000Y-68700000D03*
D18*
X205000000Y-59300000D03*
D19*
X200100000Y-64000000D03*
X208300000Y-64000000D03*
D17*
X205000000Y-81700000D03*
D18*
X205000000Y-72300000D03*
D19*
X200100000Y-77000000D03*
X208300000Y-77000000D03*
D17*
X223000000Y-68700000D03*
D18*
X223000000Y-59300000D03*
D19*
X218100000Y-64000000D03*
X226300000Y-64000000D03*
D17*
X223000000Y-81700000D03*
D18*
X223000000Y-72300000D03*
D19*
X218100000Y-77000000D03*
X226300000Y-77000000D03*
D17*
X241000000Y-68700000D03*
D18*
X241000000Y-59300000D03*
D19*
X236100000Y-64000000D03*
X244300000Y-64000000D03*
D17*
X241000000Y-81700000D03*
D18*
X241000000Y-72300000D03*
D19*
X236100000Y-77000000D03*
X244300000Y-77000000D03*
D17*
X259000000Y-81700000D03*
D18*
X259000000Y-72300000D03*
D19*
X254100000Y-77000000D03*
X262300000Y-77000000D03*
D17*
X259000000Y-68700000D03*
D18*
X259000000Y-59300000D03*
D19*
X254100000Y-64000000D03*
X262300000Y-64000000D03*
D15*
X90540000Y-91770000D03*
D16*
X90540000Y-88730000D03*
X88000000Y-91770000D03*
X88000000Y-88730000D03*
X85460000Y-91770000D03*
X85460000Y-88730000D03*
D20*
X14500000Y-77000000D03*
D21*
X14500000Y-80040000D03*
D16*
X33420000Y-91520000D03*
X33420000Y-88480000D03*
X35960000Y-88480000D03*
X35960000Y-91520000D03*
D15*
X43580000Y-91520000D03*
D16*
X43580000Y-88480000D03*
X41040000Y-91520000D03*
X41040000Y-88480000D03*
X38500000Y-91520000D03*
X38500000Y-88480000D03*
D22*
X283500000Y-88500000D03*
D23*
X280960000Y-88500000D03*
X278420000Y-88500000D03*
D24*
X213750000Y-84000000D03*
X66250000Y-92000000D03*
D25*
X33500000Y-72250000D03*
X44500000Y-72250000D03*
X39000000Y-77750000D03*
D26*
X39000000Y-67750000D03*
D25*
X35110000Y-76140000D03*
X42890000Y-76140000D03*
D27*
X39000000Y-67750000D03*
D28*
X34900000Y-72250000D03*
X43100000Y-72250000D03*
D29*
X39000000Y-76350000D03*
D30*
X34968629Y-76281371D02*
X37231371Y-74018629D01*
X40768629Y-74018629D02*
X43031371Y-76281371D01*
D25*
X55500000Y-72250000D03*
X66500000Y-72250000D03*
X61000000Y-77750000D03*
D26*
X61000000Y-67750000D03*
D25*
X57110000Y-76140000D03*
X64890000Y-76140000D03*
D27*
X61000000Y-67750000D03*
D28*
X56900000Y-72250000D03*
X65100000Y-72250000D03*
D29*
X61000000Y-76350000D03*
D30*
X56968629Y-76281371D02*
X59231371Y-74018629D01*
X62768629Y-74018629D02*
X65031371Y-76281371D01*
D31*
X59080000Y-86460000D03*
D32*
X59080000Y-89000000D03*
X59080000Y-91540000D03*
D31*
X19580000Y-86460000D03*
D32*
X19580000Y-89000000D03*
X19580000Y-91540000D03*
D33*
X321750000Y-59250000D03*
D34*
X317250000Y-62750000D03*
X326750000Y-67550000D03*
D22*
X274250000Y-65500000D03*
D23*
X271710000Y-65500000D03*
X269170000Y-65500000D03*
X266630000Y-65500000D03*
D22*
X306000000Y-89250000D03*
D23*
X303460000Y-89250000D03*
X300920000Y-89250000D03*
X298380000Y-89250000D03*
D22*
X264750000Y-88500000D03*
D23*
X267290000Y-88500000D03*
X269830000Y-88500000D03*
D22*
X319250000Y-89250000D03*
D23*
X321790000Y-89250000D03*
X324330000Y-89250000D03*
D35*
X302000000Y-75500000D03*
D36*
X297250200Y-62800000D03*
X297250200Y-70420000D03*
X297250200Y-80580000D03*
X307156200Y-70420000D03*
X307156200Y-80580000D03*
D11*
X292000000Y-65250000D03*
D22*
X144500000Y-86500000D03*
D23*
X147040000Y-86500000D03*
X149580000Y-86500000D03*
M02*
