G04 #@! TF.FileFunction,Legend,Top*
%FSLAX46Y46*%
G04 Gerber Fmt 4.6, Leading zero omitted, Abs format (unit mm)*
G04 Created by KiCad (PCBNEW 4.0.2-stable) date 2019-02-13 11:32:10 AM*
%MOMM*%
G01*
G04 APERTURE LIST*
%ADD10C,0.200000*%
%ADD11C,0.150000*%
%ADD12C,1.500000*%
%ADD13C,0.010000*%
%ADD14C,0.127000*%
%ADD15C,0.340000*%
%ADD16C,0.120000*%
%ADD17C,1.100000*%
%ADD18R,5.180000X2.640000*%
%ADD19O,2.640000X5.180000*%
%ADD20C,2.640000*%
%ADD21R,1.600000X2.100000*%
%ADD22O,1.600000X2.100000*%
%ADD23O,4.100000X2.600000*%
%ADD24O,2.600000X2.100000*%
%ADD25O,1.600000X3.600000*%
%ADD26R,2.700000X1.900000*%
%ADD27O,2.700000X1.900000*%
%ADD28R,1.800000X1.800000*%
%ADD29O,1.800000X1.800000*%
%ADD30R,2.900000X1.700000*%
%ADD31C,2.600000*%
%ADD32R,2.600000X3.600000*%
%ADD33O,4.700000X1.550000*%
%ADD34O,4.400000X1.200000*%
%ADD35O,1.200000X4.400000*%
%ADD36C,1.200000*%
%ADD37R,1.900000X1.900000*%
%ADD38C,1.900000*%
%ADD39O,3.116000X1.608000*%
%ADD40O,1.608000X3.116000*%
%ADD41C,3.351200*%
%ADD42C,4.545000*%
G04 APERTURE END LIST*
D10*
D11*
X118773810Y-94702381D02*
X118773810Y-93702381D01*
X119202381Y-94654762D02*
X119345238Y-94702381D01*
X119583334Y-94702381D01*
X119678572Y-94654762D01*
X119726191Y-94607143D01*
X119773810Y-94511905D01*
X119773810Y-94416667D01*
X119726191Y-94321429D01*
X119678572Y-94273810D01*
X119583334Y-94226190D01*
X119392857Y-94178571D01*
X119297619Y-94130952D01*
X119250000Y-94083333D01*
X119202381Y-93988095D01*
X119202381Y-93892857D01*
X119250000Y-93797619D01*
X119297619Y-93750000D01*
X119392857Y-93702381D01*
X119630953Y-93702381D01*
X119773810Y-93750000D01*
X120202381Y-94702381D02*
X120202381Y-93702381D01*
X120583334Y-93702381D01*
X120678572Y-93750000D01*
X120726191Y-93797619D01*
X120773810Y-93892857D01*
X120773810Y-94035714D01*
X120726191Y-94130952D01*
X120678572Y-94178571D01*
X120583334Y-94226190D01*
X120202381Y-94226190D01*
X82761905Y-94702381D02*
X82761905Y-93702381D01*
X83000000Y-93702381D01*
X83142858Y-93750000D01*
X83238096Y-93845238D01*
X83285715Y-93940476D01*
X83333334Y-94130952D01*
X83333334Y-94273810D01*
X83285715Y-94464286D01*
X83238096Y-94559524D01*
X83142858Y-94654762D01*
X83000000Y-94702381D01*
X82761905Y-94702381D01*
X83761905Y-94702381D02*
X83761905Y-93702381D01*
X84238095Y-94702381D02*
X84238095Y-93702381D01*
X84809524Y-94702381D01*
X84809524Y-93702381D01*
X86047619Y-94178571D02*
X86380953Y-94178571D01*
X86523810Y-94702381D02*
X86047619Y-94702381D01*
X86047619Y-93702381D01*
X86523810Y-93702381D01*
X86857143Y-93702381D02*
X87523810Y-94702381D01*
X87523810Y-93702381D02*
X86857143Y-94702381D01*
X87904762Y-94702381D02*
X87904762Y-93702381D01*
X88285715Y-93702381D01*
X88380953Y-93750000D01*
X88428572Y-93797619D01*
X88476191Y-93892857D01*
X88476191Y-94035714D01*
X88428572Y-94130952D01*
X88380953Y-94178571D01*
X88285715Y-94226190D01*
X87904762Y-94226190D01*
X88857143Y-94416667D02*
X89333334Y-94416667D01*
X88761905Y-94702381D02*
X89095238Y-93702381D01*
X89428572Y-94702381D01*
X89761905Y-94702381D02*
X89761905Y-93702381D01*
X90333334Y-94702381D01*
X90333334Y-93702381D01*
X90809524Y-94702381D02*
X90809524Y-93702381D01*
X91047619Y-93702381D01*
X91190477Y-93750000D01*
X91285715Y-93845238D01*
X91333334Y-93940476D01*
X91380953Y-94130952D01*
X91380953Y-94273810D01*
X91333334Y-94464286D01*
X91285715Y-94559524D01*
X91190477Y-94654762D01*
X91047619Y-94702381D01*
X90809524Y-94702381D01*
X91809524Y-94178571D02*
X92142858Y-94178571D01*
X92285715Y-94702381D02*
X91809524Y-94702381D01*
X91809524Y-93702381D01*
X92285715Y-93702381D01*
X93285715Y-94702381D02*
X92952381Y-94226190D01*
X92714286Y-94702381D02*
X92714286Y-93702381D01*
X93095239Y-93702381D01*
X93190477Y-93750000D01*
X93238096Y-93797619D01*
X93285715Y-93892857D01*
X93285715Y-94035714D01*
X93238096Y-94130952D01*
X93190477Y-94178571D01*
X93095239Y-94226190D01*
X92714286Y-94226190D01*
D12*
X45500000Y-85750000D02*
X45500000Y-94500000D01*
D11*
X46738095Y-94321429D02*
X47500000Y-94321429D01*
X48500000Y-94702381D02*
X47928571Y-94702381D01*
X48214285Y-94702381D02*
X48214285Y-93702381D01*
X48119047Y-93845238D01*
X48023809Y-93940476D01*
X47928571Y-93988095D01*
X48880952Y-93797619D02*
X48928571Y-93750000D01*
X49023809Y-93702381D01*
X49261905Y-93702381D01*
X49357143Y-93750000D01*
X49404762Y-93797619D01*
X49452381Y-93892857D01*
X49452381Y-93988095D01*
X49404762Y-94130952D01*
X48833333Y-94702381D01*
X49452381Y-94702381D01*
X49738095Y-93702381D02*
X50071428Y-94702381D01*
X50404762Y-93702381D01*
X36190476Y-94452381D02*
X36190476Y-93452381D01*
X36571429Y-93452381D01*
X36666667Y-93500000D01*
X36714286Y-93547619D01*
X36761905Y-93642857D01*
X36761905Y-93785714D01*
X36714286Y-93880952D01*
X36666667Y-93928571D01*
X36571429Y-93976190D01*
X36190476Y-93976190D01*
X37380952Y-93452381D02*
X37571429Y-93452381D01*
X37666667Y-93500000D01*
X37761905Y-93595238D01*
X37809524Y-93785714D01*
X37809524Y-94119048D01*
X37761905Y-94309524D01*
X37666667Y-94404762D01*
X37571429Y-94452381D01*
X37380952Y-94452381D01*
X37285714Y-94404762D01*
X37190476Y-94309524D01*
X37142857Y-94119048D01*
X37142857Y-93785714D01*
X37190476Y-93595238D01*
X37285714Y-93500000D01*
X37380952Y-93452381D01*
X38142857Y-93452381D02*
X38380952Y-94452381D01*
X38571429Y-93738095D01*
X38761905Y-94452381D01*
X39000000Y-93452381D01*
X39380952Y-93928571D02*
X39714286Y-93928571D01*
X39857143Y-94452381D02*
X39380952Y-94452381D01*
X39380952Y-93452381D01*
X39857143Y-93452381D01*
X40857143Y-94452381D02*
X40523809Y-93976190D01*
X40285714Y-94452381D02*
X40285714Y-93452381D01*
X40666667Y-93452381D01*
X40761905Y-93500000D01*
X40809524Y-93547619D01*
X40857143Y-93642857D01*
X40857143Y-93785714D01*
X40809524Y-93880952D01*
X40761905Y-93928571D01*
X40666667Y-93976190D01*
X40285714Y-93976190D01*
X283214286Y-91654762D02*
X283357143Y-91702381D01*
X283595239Y-91702381D01*
X283690477Y-91654762D01*
X283738096Y-91607143D01*
X283785715Y-91511905D01*
X283785715Y-91416667D01*
X283738096Y-91321429D01*
X283690477Y-91273810D01*
X283595239Y-91226190D01*
X283404762Y-91178571D01*
X283309524Y-91130952D01*
X283261905Y-91083333D01*
X283214286Y-90988095D01*
X283214286Y-90892857D01*
X283261905Y-90797619D01*
X283309524Y-90750000D01*
X283404762Y-90702381D01*
X283642858Y-90702381D01*
X283785715Y-90750000D01*
X278559524Y-91702381D02*
X278226190Y-91226190D01*
X277988095Y-91702381D02*
X277988095Y-90702381D01*
X278369048Y-90702381D01*
X278464286Y-90750000D01*
X278511905Y-90797619D01*
X278559524Y-90892857D01*
X278559524Y-91035714D01*
X278511905Y-91130952D01*
X278464286Y-91178571D01*
X278369048Y-91226190D01*
X277988095Y-91226190D01*
X280714286Y-90702381D02*
X281285715Y-90702381D01*
X281000000Y-91702381D02*
X281000000Y-90702381D01*
X324095239Y-91678571D02*
X324238096Y-91726190D01*
X324285715Y-91773810D01*
X324333334Y-91869048D01*
X324333334Y-92011905D01*
X324285715Y-92107143D01*
X324238096Y-92154762D01*
X324142858Y-92202381D01*
X323761905Y-92202381D01*
X323761905Y-91202381D01*
X324095239Y-91202381D01*
X324190477Y-91250000D01*
X324238096Y-91297619D01*
X324285715Y-91392857D01*
X324285715Y-91488095D01*
X324238096Y-91583333D01*
X324190477Y-91630952D01*
X324095239Y-91678571D01*
X323761905Y-91678571D01*
X324666667Y-91202381D02*
X325285715Y-91202381D01*
X324952381Y-91583333D01*
X325095239Y-91583333D01*
X325190477Y-91630952D01*
X325238096Y-91678571D01*
X325285715Y-91773810D01*
X325285715Y-92011905D01*
X325238096Y-92107143D01*
X325190477Y-92154762D01*
X325095239Y-92202381D01*
X324809524Y-92202381D01*
X324714286Y-92154762D01*
X324666667Y-92107143D01*
X321595239Y-91678571D02*
X321738096Y-91726190D01*
X321785715Y-91773810D01*
X321833334Y-91869048D01*
X321833334Y-92011905D01*
X321785715Y-92107143D01*
X321738096Y-92154762D01*
X321642858Y-92202381D01*
X321261905Y-92202381D01*
X321261905Y-91202381D01*
X321595239Y-91202381D01*
X321690477Y-91250000D01*
X321738096Y-91297619D01*
X321785715Y-91392857D01*
X321785715Y-91488095D01*
X321738096Y-91583333D01*
X321690477Y-91630952D01*
X321595239Y-91678571D01*
X321261905Y-91678571D01*
X322214286Y-91297619D02*
X322261905Y-91250000D01*
X322357143Y-91202381D01*
X322595239Y-91202381D01*
X322690477Y-91250000D01*
X322738096Y-91297619D01*
X322785715Y-91392857D01*
X322785715Y-91488095D01*
X322738096Y-91630952D01*
X322166667Y-92202381D01*
X322785715Y-92202381D01*
X319095239Y-91678571D02*
X319238096Y-91726190D01*
X319285715Y-91773810D01*
X319333334Y-91869048D01*
X319333334Y-92011905D01*
X319285715Y-92107143D01*
X319238096Y-92154762D01*
X319142858Y-92202381D01*
X318761905Y-92202381D01*
X318761905Y-91202381D01*
X319095239Y-91202381D01*
X319190477Y-91250000D01*
X319238096Y-91297619D01*
X319285715Y-91392857D01*
X319285715Y-91488095D01*
X319238096Y-91583333D01*
X319190477Y-91630952D01*
X319095239Y-91678571D01*
X318761905Y-91678571D01*
X320285715Y-92202381D02*
X319714286Y-92202381D01*
X320000000Y-92202381D02*
X320000000Y-91202381D01*
X319904762Y-91345238D01*
X319809524Y-91440476D01*
X319714286Y-91488095D01*
X302535714Y-91916667D02*
X303011905Y-91916667D01*
X302440476Y-92202381D02*
X302773809Y-91202381D01*
X303107143Y-92202381D01*
X303392857Y-91297619D02*
X303440476Y-91250000D01*
X303535714Y-91202381D01*
X303773810Y-91202381D01*
X303869048Y-91250000D01*
X303916667Y-91297619D01*
X303964286Y-91392857D01*
X303964286Y-91488095D01*
X303916667Y-91630952D01*
X303345238Y-92202381D01*
X303964286Y-92202381D01*
X297535714Y-91916667D02*
X298011905Y-91916667D01*
X297440476Y-92202381D02*
X297773809Y-91202381D01*
X298107143Y-92202381D01*
X298869048Y-91535714D02*
X298869048Y-92202381D01*
X298630952Y-91154762D02*
X298392857Y-91869048D01*
X299011905Y-91869048D01*
X300035714Y-91916667D02*
X300511905Y-91916667D01*
X299940476Y-92202381D02*
X300273809Y-91202381D01*
X300607143Y-92202381D01*
X300845238Y-91202381D02*
X301464286Y-91202381D01*
X301130952Y-91583333D01*
X301273810Y-91583333D01*
X301369048Y-91630952D01*
X301416667Y-91678571D01*
X301464286Y-91773810D01*
X301464286Y-92011905D01*
X301416667Y-92107143D01*
X301369048Y-92154762D01*
X301273810Y-92202381D01*
X300988095Y-92202381D01*
X300892857Y-92154762D01*
X300845238Y-92107143D01*
X305285714Y-91916667D02*
X305761905Y-91916667D01*
X305190476Y-92202381D02*
X305523809Y-91202381D01*
X305857143Y-92202381D01*
X306714286Y-92202381D02*
X306142857Y-92202381D01*
X306428571Y-92202381D02*
X306428571Y-91202381D01*
X306333333Y-91345238D01*
X306238095Y-91440476D01*
X306142857Y-91488095D01*
X266035714Y-68416667D02*
X266511905Y-68416667D01*
X265940476Y-68702381D02*
X266273809Y-67702381D01*
X266607143Y-68702381D01*
X267369048Y-68035714D02*
X267369048Y-68702381D01*
X267130952Y-67654762D02*
X266892857Y-68369048D01*
X267511905Y-68369048D01*
X283333334Y-86357143D02*
X283285715Y-86404762D01*
X283142858Y-86452381D01*
X283047620Y-86452381D01*
X282904762Y-86404762D01*
X282809524Y-86309524D01*
X282761905Y-86214286D01*
X282714286Y-86023810D01*
X282714286Y-85880952D01*
X282761905Y-85690476D01*
X282809524Y-85595238D01*
X282904762Y-85500000D01*
X283047620Y-85452381D01*
X283142858Y-85452381D01*
X283285715Y-85500000D01*
X283333334Y-85547619D01*
X283666667Y-85452381D02*
X284285715Y-85452381D01*
X283952381Y-85833333D01*
X284095239Y-85833333D01*
X284190477Y-85880952D01*
X284238096Y-85928571D01*
X284285715Y-86023810D01*
X284285715Y-86261905D01*
X284238096Y-86357143D01*
X284190477Y-86404762D01*
X284095239Y-86452381D01*
X283809524Y-86452381D01*
X283714286Y-86404762D01*
X283666667Y-86357143D01*
X280833334Y-86357143D02*
X280785715Y-86404762D01*
X280642858Y-86452381D01*
X280547620Y-86452381D01*
X280404762Y-86404762D01*
X280309524Y-86309524D01*
X280261905Y-86214286D01*
X280214286Y-86023810D01*
X280214286Y-85880952D01*
X280261905Y-85690476D01*
X280309524Y-85595238D01*
X280404762Y-85500000D01*
X280547620Y-85452381D01*
X280642858Y-85452381D01*
X280785715Y-85500000D01*
X280833334Y-85547619D01*
X281214286Y-85547619D02*
X281261905Y-85500000D01*
X281357143Y-85452381D01*
X281595239Y-85452381D01*
X281690477Y-85500000D01*
X281738096Y-85547619D01*
X281785715Y-85642857D01*
X281785715Y-85738095D01*
X281738096Y-85880952D01*
X281166667Y-86452381D01*
X281785715Y-86452381D01*
X278083334Y-86357143D02*
X278035715Y-86404762D01*
X277892858Y-86452381D01*
X277797620Y-86452381D01*
X277654762Y-86404762D01*
X277559524Y-86309524D01*
X277511905Y-86214286D01*
X277464286Y-86023810D01*
X277464286Y-85880952D01*
X277511905Y-85690476D01*
X277559524Y-85595238D01*
X277654762Y-85500000D01*
X277797620Y-85452381D01*
X277892858Y-85452381D01*
X278035715Y-85500000D01*
X278083334Y-85547619D01*
X279035715Y-86452381D02*
X278464286Y-86452381D01*
X278750000Y-86452381D02*
X278750000Y-85452381D01*
X278654762Y-85595238D01*
X278559524Y-85690476D01*
X278464286Y-85738095D01*
X264345239Y-85928571D02*
X264488096Y-85976190D01*
X264535715Y-86023810D01*
X264583334Y-86119048D01*
X264583334Y-86261905D01*
X264535715Y-86357143D01*
X264488096Y-86404762D01*
X264392858Y-86452381D01*
X264011905Y-86452381D01*
X264011905Y-85452381D01*
X264345239Y-85452381D01*
X264440477Y-85500000D01*
X264488096Y-85547619D01*
X264535715Y-85642857D01*
X264535715Y-85738095D01*
X264488096Y-85833333D01*
X264440477Y-85880952D01*
X264345239Y-85928571D01*
X264011905Y-85928571D01*
X265535715Y-86452381D02*
X264964286Y-86452381D01*
X265250000Y-86452381D02*
X265250000Y-85452381D01*
X265154762Y-85595238D01*
X265059524Y-85690476D01*
X264964286Y-85738095D01*
X271035714Y-68416667D02*
X271511905Y-68416667D01*
X270940476Y-68702381D02*
X271273809Y-67702381D01*
X271607143Y-68702381D01*
X271892857Y-67797619D02*
X271940476Y-67750000D01*
X272035714Y-67702381D01*
X272273810Y-67702381D01*
X272369048Y-67750000D01*
X272416667Y-67797619D01*
X272464286Y-67892857D01*
X272464286Y-67988095D01*
X272416667Y-68130952D01*
X271845238Y-68702381D01*
X272464286Y-68702381D01*
X268535714Y-68416667D02*
X269011905Y-68416667D01*
X268440476Y-68702381D02*
X268773809Y-67702381D01*
X269107143Y-68702381D01*
X269345238Y-67702381D02*
X269964286Y-67702381D01*
X269630952Y-68083333D01*
X269773810Y-68083333D01*
X269869048Y-68130952D01*
X269916667Y-68178571D01*
X269964286Y-68273810D01*
X269964286Y-68511905D01*
X269916667Y-68607143D01*
X269869048Y-68654762D01*
X269773810Y-68702381D01*
X269488095Y-68702381D01*
X269392857Y-68654762D01*
X269345238Y-68607143D01*
X269345239Y-85928571D02*
X269488096Y-85976190D01*
X269535715Y-86023810D01*
X269583334Y-86119048D01*
X269583334Y-86261905D01*
X269535715Y-86357143D01*
X269488096Y-86404762D01*
X269392858Y-86452381D01*
X269011905Y-86452381D01*
X269011905Y-85452381D01*
X269345239Y-85452381D01*
X269440477Y-85500000D01*
X269488096Y-85547619D01*
X269535715Y-85642857D01*
X269535715Y-85738095D01*
X269488096Y-85833333D01*
X269440477Y-85880952D01*
X269345239Y-85928571D01*
X269011905Y-85928571D01*
X269916667Y-85452381D02*
X270535715Y-85452381D01*
X270202381Y-85833333D01*
X270345239Y-85833333D01*
X270440477Y-85880952D01*
X270488096Y-85928571D01*
X270535715Y-86023810D01*
X270535715Y-86261905D01*
X270488096Y-86357143D01*
X270440477Y-86404762D01*
X270345239Y-86452381D01*
X270059524Y-86452381D01*
X269964286Y-86404762D01*
X269916667Y-86357143D01*
X266845239Y-85928571D02*
X266988096Y-85976190D01*
X267035715Y-86023810D01*
X267083334Y-86119048D01*
X267083334Y-86261905D01*
X267035715Y-86357143D01*
X266988096Y-86404762D01*
X266892858Y-86452381D01*
X266511905Y-86452381D01*
X266511905Y-85452381D01*
X266845239Y-85452381D01*
X266940477Y-85500000D01*
X266988096Y-85547619D01*
X267035715Y-85642857D01*
X267035715Y-85738095D01*
X266988096Y-85833333D01*
X266940477Y-85880952D01*
X266845239Y-85928571D01*
X266511905Y-85928571D01*
X267464286Y-85547619D02*
X267511905Y-85500000D01*
X267607143Y-85452381D01*
X267845239Y-85452381D01*
X267940477Y-85500000D01*
X267988096Y-85547619D01*
X268035715Y-85642857D01*
X268035715Y-85738095D01*
X267988096Y-85880952D01*
X267416667Y-86452381D01*
X268035715Y-86452381D01*
X273785714Y-68416667D02*
X274261905Y-68416667D01*
X273690476Y-68702381D02*
X274023809Y-67702381D01*
X274357143Y-68702381D01*
X275214286Y-68702381D02*
X274642857Y-68702381D01*
X274928571Y-68702381D02*
X274928571Y-67702381D01*
X274833333Y-67845238D01*
X274738095Y-67940476D01*
X274642857Y-67988095D01*
D13*
G36*
X28358403Y-59510750D02*
X28487035Y-59512861D01*
X28606074Y-59516645D01*
X28710079Y-59522101D01*
X28793609Y-59529229D01*
X28824448Y-59533186D01*
X29138376Y-59594396D01*
X29445764Y-59682781D01*
X29744643Y-59797345D01*
X30033049Y-59937093D01*
X30309012Y-60101030D01*
X30570568Y-60288159D01*
X30815748Y-60497485D01*
X30910795Y-60589206D01*
X31131957Y-60830270D01*
X31329820Y-61087520D01*
X31503895Y-61359995D01*
X31653699Y-61646736D01*
X31778745Y-61946782D01*
X31878547Y-62259175D01*
X31952620Y-62582952D01*
X31969744Y-62682109D01*
X31980187Y-62768266D01*
X31988175Y-62876873D01*
X31993707Y-63001950D01*
X31996784Y-63137512D01*
X31997405Y-63277578D01*
X31995570Y-63416166D01*
X31991279Y-63547292D01*
X31984533Y-63664975D01*
X31975332Y-63763232D01*
X31969744Y-63803621D01*
X31903451Y-64131474D01*
X31811479Y-64447512D01*
X31694055Y-64751140D01*
X31551405Y-65041766D01*
X31397723Y-65297697D01*
X31205914Y-65564170D01*
X30994275Y-65810558D01*
X30763961Y-66036115D01*
X30516127Y-66240096D01*
X30251929Y-66421757D01*
X29972521Y-66580354D01*
X29679060Y-66715142D01*
X29372700Y-66825376D01*
X29054597Y-66910312D01*
X28827922Y-66953931D01*
X28779365Y-66959741D01*
X28709244Y-66965309D01*
X28622448Y-66970497D01*
X28523863Y-66975161D01*
X28418378Y-66979164D01*
X28310881Y-66982362D01*
X28206258Y-66984616D01*
X28109399Y-66985785D01*
X28025191Y-66985728D01*
X27958521Y-66984304D01*
X27914278Y-66981374D01*
X27907528Y-66980429D01*
X27877460Y-66976043D01*
X27827910Y-66969474D01*
X27767739Y-66961885D01*
X27743427Y-66958914D01*
X27469846Y-66913002D01*
X27192227Y-66841841D01*
X26915502Y-66747271D01*
X26644606Y-66631135D01*
X26384471Y-66495275D01*
X26202304Y-66383454D01*
X25935551Y-66191477D01*
X25688998Y-65979767D01*
X25463371Y-65749452D01*
X25259393Y-65501662D01*
X25077792Y-65237524D01*
X24919293Y-64958169D01*
X24784620Y-64664725D01*
X24674499Y-64358321D01*
X24589657Y-64040086D01*
X24544526Y-63803621D01*
X24534083Y-63717465D01*
X24526095Y-63608857D01*
X24520563Y-63483781D01*
X24517486Y-63348219D01*
X24516865Y-63208153D01*
X24518700Y-63069565D01*
X24522991Y-62938438D01*
X24529737Y-62820755D01*
X24538938Y-62722498D01*
X24544526Y-62682109D01*
X24610819Y-62354256D01*
X24620068Y-62322472D01*
X26437894Y-62322472D01*
X26446212Y-62524341D01*
X26471407Y-62703875D01*
X26513745Y-62861946D01*
X26573492Y-62999427D01*
X26650915Y-63117188D01*
X26696212Y-63168817D01*
X26730599Y-63205032D01*
X26755511Y-63232296D01*
X26765902Y-63245076D01*
X26765955Y-63245293D01*
X26756383Y-63256361D01*
X26731595Y-63280780D01*
X26705309Y-63305500D01*
X26624423Y-63398871D01*
X26557351Y-63515775D01*
X26504631Y-63654483D01*
X26466804Y-63813262D01*
X26444409Y-63990383D01*
X26437894Y-64163259D01*
X26446495Y-64370413D01*
X26472270Y-64554831D01*
X26515274Y-64716612D01*
X26575564Y-64855857D01*
X26653197Y-64972665D01*
X26748228Y-65067137D01*
X26860713Y-65139371D01*
X26990710Y-65189469D01*
X27019693Y-65197054D01*
X27085916Y-65208069D01*
X27170348Y-65214947D01*
X27262940Y-65217542D01*
X27353644Y-65215708D01*
X27432410Y-65209300D01*
X27468034Y-65203560D01*
X27595780Y-65163156D01*
X27714353Y-65098463D01*
X27819078Y-65013043D01*
X27905277Y-64910463D01*
X27948616Y-64837342D01*
X28001633Y-64707437D01*
X28041189Y-64556823D01*
X28066677Y-64390268D01*
X28077493Y-64212544D01*
X28073032Y-64028419D01*
X28064035Y-63927809D01*
X28033723Y-63748764D01*
X27985696Y-63590789D01*
X27928083Y-63470886D01*
X28356990Y-63470886D01*
X28356991Y-63665248D01*
X28357177Y-63835102D01*
X28357699Y-63982465D01*
X28358708Y-64109351D01*
X28360354Y-64217777D01*
X28362787Y-64309759D01*
X28366160Y-64387311D01*
X28370621Y-64452450D01*
X28376323Y-64507191D01*
X28383415Y-64553551D01*
X28392049Y-64593544D01*
X28402375Y-64629187D01*
X28414544Y-64662496D01*
X28428706Y-64695485D01*
X28445012Y-64730172D01*
X28463614Y-64768571D01*
X28471836Y-64785640D01*
X28547840Y-64914357D01*
X28641696Y-65021696D01*
X28752029Y-65106540D01*
X28877462Y-65167772D01*
X28977753Y-65196914D01*
X29076840Y-65211436D01*
X29190595Y-65217160D01*
X29306533Y-65214069D01*
X29412167Y-65202150D01*
X29437017Y-65197476D01*
X29547962Y-65167193D01*
X29642713Y-65123849D01*
X29730443Y-65062426D01*
X29799508Y-64999127D01*
X29885506Y-64899578D01*
X29954334Y-64788061D01*
X30009221Y-64658736D01*
X30036867Y-64569944D01*
X30042654Y-64548600D01*
X30047700Y-64527729D01*
X30052066Y-64505286D01*
X30055812Y-64479227D01*
X30059000Y-64447505D01*
X30061688Y-64408076D01*
X30063939Y-64358896D01*
X30065812Y-64297918D01*
X30067368Y-64223097D01*
X30068667Y-64132389D01*
X30069771Y-64023749D01*
X30070740Y-63895131D01*
X30071633Y-63744491D01*
X30072513Y-63569782D01*
X30073439Y-63368961D01*
X30073621Y-63328483D01*
X30074517Y-63096500D01*
X30074980Y-62891714D01*
X30074997Y-62712788D01*
X30074556Y-62558383D01*
X30073644Y-62427160D01*
X30072248Y-62317782D01*
X30070356Y-62228909D01*
X30067954Y-62159204D01*
X30065031Y-62107328D01*
X30061681Y-62072753D01*
X30029083Y-61900555D01*
X29979572Y-61750433D01*
X29912555Y-61621053D01*
X29827440Y-61511079D01*
X29800145Y-61483449D01*
X29696046Y-61398189D01*
X29583097Y-61335317D01*
X29457569Y-61293474D01*
X29315734Y-61271305D01*
X29204783Y-61266765D01*
X29041263Y-61278033D01*
X28894485Y-61312407D01*
X28764549Y-61369807D01*
X28651554Y-61450153D01*
X28555601Y-61553365D01*
X28476790Y-61679364D01*
X28415221Y-61828071D01*
X28389684Y-61915787D01*
X28357023Y-62044214D01*
X28357023Y-63250000D01*
X28356990Y-63470886D01*
X27928083Y-63470886D01*
X27920193Y-63454467D01*
X27837453Y-63340384D01*
X27814138Y-63315442D01*
X27739061Y-63239156D01*
X27815850Y-63163321D01*
X27899380Y-63061456D01*
X27967518Y-62936710D01*
X28019821Y-62790511D01*
X28055847Y-62624288D01*
X28075152Y-62439471D01*
X28078530Y-62315337D01*
X28069856Y-62118250D01*
X28044087Y-61939527D01*
X28001602Y-61780446D01*
X27942782Y-61642285D01*
X27868006Y-61526320D01*
X27831447Y-61484027D01*
X27742287Y-61403180D01*
X27645554Y-61343243D01*
X27536387Y-61302181D01*
X27409929Y-61277957D01*
X27322290Y-61270581D01*
X27155172Y-61272355D01*
X27005829Y-61296035D01*
X26874155Y-61341748D01*
X26760041Y-61409622D01*
X26663380Y-61499785D01*
X26584064Y-61612366D01*
X26521985Y-61747493D01*
X26477036Y-61905294D01*
X26449108Y-62085897D01*
X26438095Y-62289431D01*
X26437894Y-62322472D01*
X24620068Y-62322472D01*
X24702791Y-62038219D01*
X24820215Y-61734591D01*
X24962865Y-61443964D01*
X25116547Y-61188034D01*
X25306097Y-60924903D01*
X25516011Y-60680611D01*
X25744710Y-60456171D01*
X25990617Y-60252598D01*
X26252156Y-60070907D01*
X26527750Y-59912111D01*
X26815821Y-59777225D01*
X27114793Y-59667262D01*
X27423088Y-59583237D01*
X27689822Y-59533186D01*
X27761763Y-59525267D01*
X27856753Y-59519020D01*
X27969353Y-59514444D01*
X28094122Y-59511541D01*
X28225618Y-59510310D01*
X28358403Y-59510750D01*
X28358403Y-59510750D01*
G37*
X28358403Y-59510750D02*
X28487035Y-59512861D01*
X28606074Y-59516645D01*
X28710079Y-59522101D01*
X28793609Y-59529229D01*
X28824448Y-59533186D01*
X29138376Y-59594396D01*
X29445764Y-59682781D01*
X29744643Y-59797345D01*
X30033049Y-59937093D01*
X30309012Y-60101030D01*
X30570568Y-60288159D01*
X30815748Y-60497485D01*
X30910795Y-60589206D01*
X31131957Y-60830270D01*
X31329820Y-61087520D01*
X31503895Y-61359995D01*
X31653699Y-61646736D01*
X31778745Y-61946782D01*
X31878547Y-62259175D01*
X31952620Y-62582952D01*
X31969744Y-62682109D01*
X31980187Y-62768266D01*
X31988175Y-62876873D01*
X31993707Y-63001950D01*
X31996784Y-63137512D01*
X31997405Y-63277578D01*
X31995570Y-63416166D01*
X31991279Y-63547292D01*
X31984533Y-63664975D01*
X31975332Y-63763232D01*
X31969744Y-63803621D01*
X31903451Y-64131474D01*
X31811479Y-64447512D01*
X31694055Y-64751140D01*
X31551405Y-65041766D01*
X31397723Y-65297697D01*
X31205914Y-65564170D01*
X30994275Y-65810558D01*
X30763961Y-66036115D01*
X30516127Y-66240096D01*
X30251929Y-66421757D01*
X29972521Y-66580354D01*
X29679060Y-66715142D01*
X29372700Y-66825376D01*
X29054597Y-66910312D01*
X28827922Y-66953931D01*
X28779365Y-66959741D01*
X28709244Y-66965309D01*
X28622448Y-66970497D01*
X28523863Y-66975161D01*
X28418378Y-66979164D01*
X28310881Y-66982362D01*
X28206258Y-66984616D01*
X28109399Y-66985785D01*
X28025191Y-66985728D01*
X27958521Y-66984304D01*
X27914278Y-66981374D01*
X27907528Y-66980429D01*
X27877460Y-66976043D01*
X27827910Y-66969474D01*
X27767739Y-66961885D01*
X27743427Y-66958914D01*
X27469846Y-66913002D01*
X27192227Y-66841841D01*
X26915502Y-66747271D01*
X26644606Y-66631135D01*
X26384471Y-66495275D01*
X26202304Y-66383454D01*
X25935551Y-66191477D01*
X25688998Y-65979767D01*
X25463371Y-65749452D01*
X25259393Y-65501662D01*
X25077792Y-65237524D01*
X24919293Y-64958169D01*
X24784620Y-64664725D01*
X24674499Y-64358321D01*
X24589657Y-64040086D01*
X24544526Y-63803621D01*
X24534083Y-63717465D01*
X24526095Y-63608857D01*
X24520563Y-63483781D01*
X24517486Y-63348219D01*
X24516865Y-63208153D01*
X24518700Y-63069565D01*
X24522991Y-62938438D01*
X24529737Y-62820755D01*
X24538938Y-62722498D01*
X24544526Y-62682109D01*
X24610819Y-62354256D01*
X24620068Y-62322472D01*
X26437894Y-62322472D01*
X26446212Y-62524341D01*
X26471407Y-62703875D01*
X26513745Y-62861946D01*
X26573492Y-62999427D01*
X26650915Y-63117188D01*
X26696212Y-63168817D01*
X26730599Y-63205032D01*
X26755511Y-63232296D01*
X26765902Y-63245076D01*
X26765955Y-63245293D01*
X26756383Y-63256361D01*
X26731595Y-63280780D01*
X26705309Y-63305500D01*
X26624423Y-63398871D01*
X26557351Y-63515775D01*
X26504631Y-63654483D01*
X26466804Y-63813262D01*
X26444409Y-63990383D01*
X26437894Y-64163259D01*
X26446495Y-64370413D01*
X26472270Y-64554831D01*
X26515274Y-64716612D01*
X26575564Y-64855857D01*
X26653197Y-64972665D01*
X26748228Y-65067137D01*
X26860713Y-65139371D01*
X26990710Y-65189469D01*
X27019693Y-65197054D01*
X27085916Y-65208069D01*
X27170348Y-65214947D01*
X27262940Y-65217542D01*
X27353644Y-65215708D01*
X27432410Y-65209300D01*
X27468034Y-65203560D01*
X27595780Y-65163156D01*
X27714353Y-65098463D01*
X27819078Y-65013043D01*
X27905277Y-64910463D01*
X27948616Y-64837342D01*
X28001633Y-64707437D01*
X28041189Y-64556823D01*
X28066677Y-64390268D01*
X28077493Y-64212544D01*
X28073032Y-64028419D01*
X28064035Y-63927809D01*
X28033723Y-63748764D01*
X27985696Y-63590789D01*
X27928083Y-63470886D01*
X28356990Y-63470886D01*
X28356991Y-63665248D01*
X28357177Y-63835102D01*
X28357699Y-63982465D01*
X28358708Y-64109351D01*
X28360354Y-64217777D01*
X28362787Y-64309759D01*
X28366160Y-64387311D01*
X28370621Y-64452450D01*
X28376323Y-64507191D01*
X28383415Y-64553551D01*
X28392049Y-64593544D01*
X28402375Y-64629187D01*
X28414544Y-64662496D01*
X28428706Y-64695485D01*
X28445012Y-64730172D01*
X28463614Y-64768571D01*
X28471836Y-64785640D01*
X28547840Y-64914357D01*
X28641696Y-65021696D01*
X28752029Y-65106540D01*
X28877462Y-65167772D01*
X28977753Y-65196914D01*
X29076840Y-65211436D01*
X29190595Y-65217160D01*
X29306533Y-65214069D01*
X29412167Y-65202150D01*
X29437017Y-65197476D01*
X29547962Y-65167193D01*
X29642713Y-65123849D01*
X29730443Y-65062426D01*
X29799508Y-64999127D01*
X29885506Y-64899578D01*
X29954334Y-64788061D01*
X30009221Y-64658736D01*
X30036867Y-64569944D01*
X30042654Y-64548600D01*
X30047700Y-64527729D01*
X30052066Y-64505286D01*
X30055812Y-64479227D01*
X30059000Y-64447505D01*
X30061688Y-64408076D01*
X30063939Y-64358896D01*
X30065812Y-64297918D01*
X30067368Y-64223097D01*
X30068667Y-64132389D01*
X30069771Y-64023749D01*
X30070740Y-63895131D01*
X30071633Y-63744491D01*
X30072513Y-63569782D01*
X30073439Y-63368961D01*
X30073621Y-63328483D01*
X30074517Y-63096500D01*
X30074980Y-62891714D01*
X30074997Y-62712788D01*
X30074556Y-62558383D01*
X30073644Y-62427160D01*
X30072248Y-62317782D01*
X30070356Y-62228909D01*
X30067954Y-62159204D01*
X30065031Y-62107328D01*
X30061681Y-62072753D01*
X30029083Y-61900555D01*
X29979572Y-61750433D01*
X29912555Y-61621053D01*
X29827440Y-61511079D01*
X29800145Y-61483449D01*
X29696046Y-61398189D01*
X29583097Y-61335317D01*
X29457569Y-61293474D01*
X29315734Y-61271305D01*
X29204783Y-61266765D01*
X29041263Y-61278033D01*
X28894485Y-61312407D01*
X28764549Y-61369807D01*
X28651554Y-61450153D01*
X28555601Y-61553365D01*
X28476790Y-61679364D01*
X28415221Y-61828071D01*
X28389684Y-61915787D01*
X28357023Y-62044214D01*
X28357023Y-63250000D01*
X28356990Y-63470886D01*
X27928083Y-63470886D01*
X27920193Y-63454467D01*
X27837453Y-63340384D01*
X27814138Y-63315442D01*
X27739061Y-63239156D01*
X27815850Y-63163321D01*
X27899380Y-63061456D01*
X27967518Y-62936710D01*
X28019821Y-62790511D01*
X28055847Y-62624288D01*
X28075152Y-62439471D01*
X28078530Y-62315337D01*
X28069856Y-62118250D01*
X28044087Y-61939527D01*
X28001602Y-61780446D01*
X27942782Y-61642285D01*
X27868006Y-61526320D01*
X27831447Y-61484027D01*
X27742287Y-61403180D01*
X27645554Y-61343243D01*
X27536387Y-61302181D01*
X27409929Y-61277957D01*
X27322290Y-61270581D01*
X27155172Y-61272355D01*
X27005829Y-61296035D01*
X26874155Y-61341748D01*
X26760041Y-61409622D01*
X26663380Y-61499785D01*
X26584064Y-61612366D01*
X26521985Y-61747493D01*
X26477036Y-61905294D01*
X26449108Y-62085897D01*
X26438095Y-62289431D01*
X26437894Y-62322472D01*
X24620068Y-62322472D01*
X24702791Y-62038219D01*
X24820215Y-61734591D01*
X24962865Y-61443964D01*
X25116547Y-61188034D01*
X25306097Y-60924903D01*
X25516011Y-60680611D01*
X25744710Y-60456171D01*
X25990617Y-60252598D01*
X26252156Y-60070907D01*
X26527750Y-59912111D01*
X26815821Y-59777225D01*
X27114793Y-59667262D01*
X27423088Y-59583237D01*
X27689822Y-59533186D01*
X27761763Y-59525267D01*
X27856753Y-59519020D01*
X27969353Y-59514444D01*
X28094122Y-59511541D01*
X28225618Y-59510310D01*
X28358403Y-59510750D01*
G36*
X27364767Y-63332192D02*
X27452071Y-63345058D01*
X27509110Y-63361570D01*
X27599473Y-63407807D01*
X27674525Y-63470327D01*
X27735292Y-63551058D01*
X27782801Y-63651928D01*
X27818082Y-63774865D01*
X27842160Y-63921796D01*
X27850032Y-64001310D01*
X27856907Y-64161497D01*
X27851880Y-64318544D01*
X27835620Y-64466697D01*
X27808795Y-64600201D01*
X27772072Y-64713304D01*
X27765588Y-64728524D01*
X27719297Y-64805206D01*
X27653423Y-64877435D01*
X27576604Y-64936499D01*
X27538556Y-64957530D01*
X27500295Y-64974486D01*
X27464510Y-64985916D01*
X27423656Y-64993094D01*
X27370191Y-64997291D01*
X27296570Y-64999782D01*
X27286798Y-65000009D01*
X27215424Y-65000619D01*
X27150714Y-64999355D01*
X27100169Y-64996476D01*
X27072753Y-64992654D01*
X26963621Y-64951468D01*
X26869648Y-64890506D01*
X26794882Y-64812894D01*
X26754341Y-64746666D01*
X26722788Y-64674367D01*
X26698822Y-64601129D01*
X26681561Y-64521565D01*
X26670123Y-64430290D01*
X26663627Y-64321917D01*
X26661189Y-64191062D01*
X26661137Y-64177528D01*
X26661253Y-64075512D01*
X26662546Y-63996119D01*
X26665464Y-63933443D01*
X26670458Y-63881578D01*
X26677977Y-63834616D01*
X26688470Y-63786652D01*
X26691967Y-63772379D01*
X26732354Y-63644704D01*
X26784693Y-63541301D01*
X26850839Y-63459752D01*
X26932646Y-63397635D01*
X27006441Y-63361931D01*
X27078604Y-63342329D01*
X27168641Y-63330834D01*
X27267159Y-63327452D01*
X27364767Y-63332192D01*
X27364767Y-63332192D01*
G37*
X27364767Y-63332192D02*
X27452071Y-63345058D01*
X27509110Y-63361570D01*
X27599473Y-63407807D01*
X27674525Y-63470327D01*
X27735292Y-63551058D01*
X27782801Y-63651928D01*
X27818082Y-63774865D01*
X27842160Y-63921796D01*
X27850032Y-64001310D01*
X27856907Y-64161497D01*
X27851880Y-64318544D01*
X27835620Y-64466697D01*
X27808795Y-64600201D01*
X27772072Y-64713304D01*
X27765588Y-64728524D01*
X27719297Y-64805206D01*
X27653423Y-64877435D01*
X27576604Y-64936499D01*
X27538556Y-64957530D01*
X27500295Y-64974486D01*
X27464510Y-64985916D01*
X27423656Y-64993094D01*
X27370191Y-64997291D01*
X27296570Y-64999782D01*
X27286798Y-65000009D01*
X27215424Y-65000619D01*
X27150714Y-64999355D01*
X27100169Y-64996476D01*
X27072753Y-64992654D01*
X26963621Y-64951468D01*
X26869648Y-64890506D01*
X26794882Y-64812894D01*
X26754341Y-64746666D01*
X26722788Y-64674367D01*
X26698822Y-64601129D01*
X26681561Y-64521565D01*
X26670123Y-64430290D01*
X26663627Y-64321917D01*
X26661189Y-64191062D01*
X26661137Y-64177528D01*
X26661253Y-64075512D01*
X26662546Y-63996119D01*
X26665464Y-63933443D01*
X26670458Y-63881578D01*
X26677977Y-63834616D01*
X26688470Y-63786652D01*
X26691967Y-63772379D01*
X26732354Y-63644704D01*
X26784693Y-63541301D01*
X26850839Y-63459752D01*
X26932646Y-63397635D01*
X27006441Y-63361931D01*
X27078604Y-63342329D01*
X27168641Y-63330834D01*
X27267159Y-63327452D01*
X27364767Y-63332192D01*
G36*
X27344464Y-61488223D02*
X27401584Y-61489913D01*
X27443341Y-61493900D01*
X27476319Y-61501137D01*
X27507107Y-61512575D01*
X27538556Y-61527329D01*
X27624129Y-61579888D01*
X27694482Y-61647359D01*
X27750769Y-61732059D01*
X27794149Y-61836302D01*
X27825778Y-61962403D01*
X27846813Y-62112679D01*
X27850301Y-62151236D01*
X27857129Y-62303524D01*
X27853061Y-62453553D01*
X27838779Y-62595901D01*
X27814966Y-62725143D01*
X27782304Y-62835859D01*
X27756647Y-62895330D01*
X27694462Y-62987837D01*
X27612366Y-63061051D01*
X27512123Y-63114245D01*
X27395497Y-63146694D01*
X27264251Y-63157671D01*
X27140014Y-63149252D01*
X27019681Y-63121308D01*
X26916084Y-63071965D01*
X26831016Y-63002434D01*
X26766271Y-62913923D01*
X26753127Y-62888248D01*
X26721016Y-62813003D01*
X26696718Y-62737347D01*
X26679378Y-62655853D01*
X26668141Y-62563090D01*
X26662152Y-62453629D01*
X26660554Y-62322041D01*
X26660635Y-62301068D01*
X26663244Y-62167227D01*
X26670072Y-62056264D01*
X26682034Y-61962712D01*
X26700045Y-61881101D01*
X26725018Y-61805962D01*
X26754764Y-61738191D01*
X26806797Y-61658894D01*
X26878817Y-61588162D01*
X26962281Y-61533853D01*
X26991117Y-61520779D01*
X27028798Y-61506999D01*
X27065610Y-61497646D01*
X27108415Y-61491898D01*
X27164074Y-61488931D01*
X27239447Y-61487923D01*
X27265393Y-61487880D01*
X27344464Y-61488223D01*
X27344464Y-61488223D01*
G37*
X27344464Y-61488223D02*
X27401584Y-61489913D01*
X27443341Y-61493900D01*
X27476319Y-61501137D01*
X27507107Y-61512575D01*
X27538556Y-61527329D01*
X27624129Y-61579888D01*
X27694482Y-61647359D01*
X27750769Y-61732059D01*
X27794149Y-61836302D01*
X27825778Y-61962403D01*
X27846813Y-62112679D01*
X27850301Y-62151236D01*
X27857129Y-62303524D01*
X27853061Y-62453553D01*
X27838779Y-62595901D01*
X27814966Y-62725143D01*
X27782304Y-62835859D01*
X27756647Y-62895330D01*
X27694462Y-62987837D01*
X27612366Y-63061051D01*
X27512123Y-63114245D01*
X27395497Y-63146694D01*
X27264251Y-63157671D01*
X27140014Y-63149252D01*
X27019681Y-63121308D01*
X26916084Y-63071965D01*
X26831016Y-63002434D01*
X26766271Y-62913923D01*
X26753127Y-62888248D01*
X26721016Y-62813003D01*
X26696718Y-62737347D01*
X26679378Y-62655853D01*
X26668141Y-62563090D01*
X26662152Y-62453629D01*
X26660554Y-62322041D01*
X26660635Y-62301068D01*
X26663244Y-62167227D01*
X26670072Y-62056264D01*
X26682034Y-61962712D01*
X26700045Y-61881101D01*
X26725018Y-61805962D01*
X26754764Y-61738191D01*
X26806797Y-61658894D01*
X26878817Y-61588162D01*
X26962281Y-61533853D01*
X26991117Y-61520779D01*
X27028798Y-61506999D01*
X27065610Y-61497646D01*
X27108415Y-61491898D01*
X27164074Y-61488931D01*
X27239447Y-61487923D01*
X27265393Y-61487880D01*
X27344464Y-61488223D01*
G36*
X29309509Y-61486300D02*
X29436783Y-61508488D01*
X29545370Y-61550923D01*
X29636625Y-61614287D01*
X29711901Y-61699258D01*
X29762557Y-61785338D01*
X29778569Y-61818116D01*
X29792625Y-61848429D01*
X29804851Y-61878280D01*
X29815375Y-61909673D01*
X29824324Y-61944613D01*
X29831827Y-61985103D01*
X29838010Y-62033148D01*
X29843002Y-62090751D01*
X29846929Y-62159917D01*
X29849920Y-62242648D01*
X29852101Y-62340950D01*
X29853601Y-62456827D01*
X29854547Y-62592281D01*
X29855067Y-62749318D01*
X29855287Y-62929941D01*
X29855337Y-63136154D01*
X29855337Y-63242865D01*
X29855325Y-63461839D01*
X29855201Y-63654277D01*
X29854839Y-63822185D01*
X29854110Y-63967567D01*
X29852887Y-64092428D01*
X29851042Y-64198771D01*
X29848448Y-64288601D01*
X29844975Y-64363923D01*
X29840496Y-64426741D01*
X29834884Y-64479059D01*
X29828011Y-64522883D01*
X29819748Y-64560215D01*
X29809969Y-64593061D01*
X29798544Y-64623426D01*
X29785347Y-64653313D01*
X29770249Y-64684726D01*
X29762346Y-64700821D01*
X29705588Y-64789661D01*
X29629777Y-64869608D01*
X29542723Y-64933367D01*
X29480711Y-64963901D01*
X29409458Y-64983723D01*
X29320033Y-64996787D01*
X29221813Y-65002816D01*
X29124176Y-65001532D01*
X29036498Y-64992658D01*
X28976454Y-64978823D01*
X28868305Y-64930596D01*
X28777085Y-64861973D01*
X28701640Y-64771600D01*
X28640815Y-64658120D01*
X28597091Y-64533251D01*
X28592450Y-64515459D01*
X28588393Y-64495663D01*
X28584882Y-64471928D01*
X28581877Y-64442318D01*
X28579339Y-64404897D01*
X28577229Y-64357730D01*
X28575509Y-64298880D01*
X28574139Y-64226413D01*
X28573079Y-64138392D01*
X28572292Y-64032881D01*
X28571738Y-63907946D01*
X28571377Y-63761650D01*
X28571172Y-63592057D01*
X28571082Y-63397232D01*
X28571068Y-63242865D01*
X28571051Y-63023277D01*
X28571086Y-62830251D01*
X28571301Y-62661812D01*
X28571823Y-62515982D01*
X28572780Y-62390785D01*
X28574300Y-62284245D01*
X28576512Y-62194386D01*
X28579542Y-62119230D01*
X28583519Y-62056801D01*
X28588571Y-62005123D01*
X28594825Y-61962218D01*
X28602409Y-61926112D01*
X28611451Y-61894827D01*
X28622079Y-61866386D01*
X28634421Y-61838813D01*
X28648604Y-61810133D01*
X28664757Y-61778367D01*
X28665947Y-61776012D01*
X28727345Y-61676157D01*
X28800629Y-61598913D01*
X28888608Y-61542625D01*
X28994090Y-61505637D01*
X29119885Y-61486295D01*
X29162192Y-61483678D01*
X29309509Y-61486300D01*
X29309509Y-61486300D01*
G37*
X29309509Y-61486300D02*
X29436783Y-61508488D01*
X29545370Y-61550923D01*
X29636625Y-61614287D01*
X29711901Y-61699258D01*
X29762557Y-61785338D01*
X29778569Y-61818116D01*
X29792625Y-61848429D01*
X29804851Y-61878280D01*
X29815375Y-61909673D01*
X29824324Y-61944613D01*
X29831827Y-61985103D01*
X29838010Y-62033148D01*
X29843002Y-62090751D01*
X29846929Y-62159917D01*
X29849920Y-62242648D01*
X29852101Y-62340950D01*
X29853601Y-62456827D01*
X29854547Y-62592281D01*
X29855067Y-62749318D01*
X29855287Y-62929941D01*
X29855337Y-63136154D01*
X29855337Y-63242865D01*
X29855325Y-63461839D01*
X29855201Y-63654277D01*
X29854839Y-63822185D01*
X29854110Y-63967567D01*
X29852887Y-64092428D01*
X29851042Y-64198771D01*
X29848448Y-64288601D01*
X29844975Y-64363923D01*
X29840496Y-64426741D01*
X29834884Y-64479059D01*
X29828011Y-64522883D01*
X29819748Y-64560215D01*
X29809969Y-64593061D01*
X29798544Y-64623426D01*
X29785347Y-64653313D01*
X29770249Y-64684726D01*
X29762346Y-64700821D01*
X29705588Y-64789661D01*
X29629777Y-64869608D01*
X29542723Y-64933367D01*
X29480711Y-64963901D01*
X29409458Y-64983723D01*
X29320033Y-64996787D01*
X29221813Y-65002816D01*
X29124176Y-65001532D01*
X29036498Y-64992658D01*
X28976454Y-64978823D01*
X28868305Y-64930596D01*
X28777085Y-64861973D01*
X28701640Y-64771600D01*
X28640815Y-64658120D01*
X28597091Y-64533251D01*
X28592450Y-64515459D01*
X28588393Y-64495663D01*
X28584882Y-64471928D01*
X28581877Y-64442318D01*
X28579339Y-64404897D01*
X28577229Y-64357730D01*
X28575509Y-64298880D01*
X28574139Y-64226413D01*
X28573079Y-64138392D01*
X28572292Y-64032881D01*
X28571738Y-63907946D01*
X28571377Y-63761650D01*
X28571172Y-63592057D01*
X28571082Y-63397232D01*
X28571068Y-63242865D01*
X28571051Y-63023277D01*
X28571086Y-62830251D01*
X28571301Y-62661812D01*
X28571823Y-62515982D01*
X28572780Y-62390785D01*
X28574300Y-62284245D01*
X28576512Y-62194386D01*
X28579542Y-62119230D01*
X28583519Y-62056801D01*
X28588571Y-62005123D01*
X28594825Y-61962218D01*
X28602409Y-61926112D01*
X28611451Y-61894827D01*
X28622079Y-61866386D01*
X28634421Y-61838813D01*
X28648604Y-61810133D01*
X28664757Y-61778367D01*
X28665947Y-61776012D01*
X28727345Y-61676157D01*
X28800629Y-61598913D01*
X28888608Y-61542625D01*
X28994090Y-61505637D01*
X29119885Y-61486295D01*
X29162192Y-61483678D01*
X29309509Y-61486300D01*
D11*
X25000000Y-72250000D02*
G75*
G03X25000000Y-72250000I-4750000J0D01*
G01*
X81915476Y-77000000D02*
G75*
G03X81915476Y-77000000I-2915476J0D01*
G01*
X84000000Y-72000000D02*
X84000000Y-82000000D01*
X84000000Y-82000000D02*
X73000000Y-82000000D01*
X73000000Y-82000000D02*
X73000000Y-72000000D01*
X73000000Y-72000000D02*
X84000000Y-72000000D01*
X81000000Y-77000000D02*
G75*
G03X81000000Y-77000000I-2000000J0D01*
G01*
X81915476Y-64000000D02*
G75*
G03X81915476Y-64000000I-2915476J0D01*
G01*
X84000000Y-59000000D02*
X84000000Y-69000000D01*
X84000000Y-69000000D02*
X73000000Y-69000000D01*
X73000000Y-69000000D02*
X73000000Y-59000000D01*
X73000000Y-59000000D02*
X84000000Y-59000000D01*
X81000000Y-64000000D02*
G75*
G03X81000000Y-64000000I-2000000J0D01*
G01*
X99915476Y-64000000D02*
G75*
G03X99915476Y-64000000I-2915476J0D01*
G01*
X102000000Y-59000000D02*
X102000000Y-69000000D01*
X102000000Y-69000000D02*
X91000000Y-69000000D01*
X91000000Y-69000000D02*
X91000000Y-59000000D01*
X91000000Y-59000000D02*
X102000000Y-59000000D01*
X99000000Y-64000000D02*
G75*
G03X99000000Y-64000000I-2000000J0D01*
G01*
X99915476Y-77000000D02*
G75*
G03X99915476Y-77000000I-2915476J0D01*
G01*
X102000000Y-72000000D02*
X102000000Y-82000000D01*
X102000000Y-82000000D02*
X91000000Y-82000000D01*
X91000000Y-82000000D02*
X91000000Y-72000000D01*
X91000000Y-72000000D02*
X102000000Y-72000000D01*
X99000000Y-77000000D02*
G75*
G03X99000000Y-77000000I-2000000J0D01*
G01*
X117915476Y-64000000D02*
G75*
G03X117915476Y-64000000I-2915476J0D01*
G01*
X120000000Y-59000000D02*
X120000000Y-69000000D01*
X120000000Y-69000000D02*
X109000000Y-69000000D01*
X109000000Y-69000000D02*
X109000000Y-59000000D01*
X109000000Y-59000000D02*
X120000000Y-59000000D01*
X117000000Y-64000000D02*
G75*
G03X117000000Y-64000000I-2000000J0D01*
G01*
X117915476Y-77000000D02*
G75*
G03X117915476Y-77000000I-2915476J0D01*
G01*
X120000000Y-72000000D02*
X120000000Y-82000000D01*
X120000000Y-82000000D02*
X109000000Y-82000000D01*
X109000000Y-82000000D02*
X109000000Y-72000000D01*
X109000000Y-72000000D02*
X120000000Y-72000000D01*
X117000000Y-77000000D02*
G75*
G03X117000000Y-77000000I-2000000J0D01*
G01*
X135915476Y-64000000D02*
G75*
G03X135915476Y-64000000I-2915476J0D01*
G01*
X138000000Y-59000000D02*
X138000000Y-69000000D01*
X138000000Y-69000000D02*
X127000000Y-69000000D01*
X127000000Y-69000000D02*
X127000000Y-59000000D01*
X127000000Y-59000000D02*
X138000000Y-59000000D01*
X135000000Y-64000000D02*
G75*
G03X135000000Y-64000000I-2000000J0D01*
G01*
X135915476Y-77000000D02*
G75*
G03X135915476Y-77000000I-2915476J0D01*
G01*
X138000000Y-72000000D02*
X138000000Y-82000000D01*
X138000000Y-82000000D02*
X127000000Y-82000000D01*
X127000000Y-82000000D02*
X127000000Y-72000000D01*
X127000000Y-72000000D02*
X138000000Y-72000000D01*
X135000000Y-77000000D02*
G75*
G03X135000000Y-77000000I-2000000J0D01*
G01*
X153915476Y-64000000D02*
G75*
G03X153915476Y-64000000I-2915476J0D01*
G01*
X156000000Y-59000000D02*
X156000000Y-69000000D01*
X156000000Y-69000000D02*
X145000000Y-69000000D01*
X145000000Y-69000000D02*
X145000000Y-59000000D01*
X145000000Y-59000000D02*
X156000000Y-59000000D01*
X153000000Y-64000000D02*
G75*
G03X153000000Y-64000000I-2000000J0D01*
G01*
X153915476Y-77000000D02*
G75*
G03X153915476Y-77000000I-2915476J0D01*
G01*
X156000000Y-72000000D02*
X156000000Y-82000000D01*
X156000000Y-82000000D02*
X145000000Y-82000000D01*
X145000000Y-82000000D02*
X145000000Y-72000000D01*
X145000000Y-72000000D02*
X156000000Y-72000000D01*
X153000000Y-77000000D02*
G75*
G03X153000000Y-77000000I-2000000J0D01*
G01*
X171915476Y-64000000D02*
G75*
G03X171915476Y-64000000I-2915476J0D01*
G01*
X174000000Y-59000000D02*
X174000000Y-69000000D01*
X174000000Y-69000000D02*
X163000000Y-69000000D01*
X163000000Y-69000000D02*
X163000000Y-59000000D01*
X163000000Y-59000000D02*
X174000000Y-59000000D01*
X171000000Y-64000000D02*
G75*
G03X171000000Y-64000000I-2000000J0D01*
G01*
X171915476Y-77000000D02*
G75*
G03X171915476Y-77000000I-2915476J0D01*
G01*
X174000000Y-72000000D02*
X174000000Y-82000000D01*
X174000000Y-82000000D02*
X163000000Y-82000000D01*
X163000000Y-82000000D02*
X163000000Y-72000000D01*
X163000000Y-72000000D02*
X174000000Y-72000000D01*
X171000000Y-77000000D02*
G75*
G03X171000000Y-77000000I-2000000J0D01*
G01*
X189915476Y-64000000D02*
G75*
G03X189915476Y-64000000I-2915476J0D01*
G01*
X192000000Y-59000000D02*
X192000000Y-69000000D01*
X192000000Y-69000000D02*
X181000000Y-69000000D01*
X181000000Y-69000000D02*
X181000000Y-59000000D01*
X181000000Y-59000000D02*
X192000000Y-59000000D01*
X189000000Y-64000000D02*
G75*
G03X189000000Y-64000000I-2000000J0D01*
G01*
X189915476Y-77000000D02*
G75*
G03X189915476Y-77000000I-2915476J0D01*
G01*
X192000000Y-72000000D02*
X192000000Y-82000000D01*
X192000000Y-82000000D02*
X181000000Y-82000000D01*
X181000000Y-82000000D02*
X181000000Y-72000000D01*
X181000000Y-72000000D02*
X192000000Y-72000000D01*
X189000000Y-77000000D02*
G75*
G03X189000000Y-77000000I-2000000J0D01*
G01*
X207915476Y-64000000D02*
G75*
G03X207915476Y-64000000I-2915476J0D01*
G01*
X210000000Y-59000000D02*
X210000000Y-69000000D01*
X210000000Y-69000000D02*
X199000000Y-69000000D01*
X199000000Y-69000000D02*
X199000000Y-59000000D01*
X199000000Y-59000000D02*
X210000000Y-59000000D01*
X207000000Y-64000000D02*
G75*
G03X207000000Y-64000000I-2000000J0D01*
G01*
X207915476Y-77000000D02*
G75*
G03X207915476Y-77000000I-2915476J0D01*
G01*
X210000000Y-72000000D02*
X210000000Y-82000000D01*
X210000000Y-82000000D02*
X199000000Y-82000000D01*
X199000000Y-82000000D02*
X199000000Y-72000000D01*
X199000000Y-72000000D02*
X210000000Y-72000000D01*
X207000000Y-77000000D02*
G75*
G03X207000000Y-77000000I-2000000J0D01*
G01*
X225915476Y-64000000D02*
G75*
G03X225915476Y-64000000I-2915476J0D01*
G01*
X228000000Y-59000000D02*
X228000000Y-69000000D01*
X228000000Y-69000000D02*
X217000000Y-69000000D01*
X217000000Y-69000000D02*
X217000000Y-59000000D01*
X217000000Y-59000000D02*
X228000000Y-59000000D01*
X225000000Y-64000000D02*
G75*
G03X225000000Y-64000000I-2000000J0D01*
G01*
X225915476Y-77000000D02*
G75*
G03X225915476Y-77000000I-2915476J0D01*
G01*
X228000000Y-72000000D02*
X228000000Y-82000000D01*
X228000000Y-82000000D02*
X217000000Y-82000000D01*
X217000000Y-82000000D02*
X217000000Y-72000000D01*
X217000000Y-72000000D02*
X228000000Y-72000000D01*
X225000000Y-77000000D02*
G75*
G03X225000000Y-77000000I-2000000J0D01*
G01*
X243915476Y-64000000D02*
G75*
G03X243915476Y-64000000I-2915476J0D01*
G01*
X246000000Y-59000000D02*
X246000000Y-69000000D01*
X246000000Y-69000000D02*
X235000000Y-69000000D01*
X235000000Y-69000000D02*
X235000000Y-59000000D01*
X235000000Y-59000000D02*
X246000000Y-59000000D01*
X243000000Y-64000000D02*
G75*
G03X243000000Y-64000000I-2000000J0D01*
G01*
X243915476Y-77000000D02*
G75*
G03X243915476Y-77000000I-2915476J0D01*
G01*
X246000000Y-72000000D02*
X246000000Y-82000000D01*
X246000000Y-82000000D02*
X235000000Y-82000000D01*
X235000000Y-82000000D02*
X235000000Y-72000000D01*
X235000000Y-72000000D02*
X246000000Y-72000000D01*
X243000000Y-77000000D02*
G75*
G03X243000000Y-77000000I-2000000J0D01*
G01*
X261915476Y-77000000D02*
G75*
G03X261915476Y-77000000I-2915476J0D01*
G01*
X264000000Y-72000000D02*
X264000000Y-82000000D01*
X264000000Y-82000000D02*
X253000000Y-82000000D01*
X253000000Y-82000000D02*
X253000000Y-72000000D01*
X253000000Y-72000000D02*
X264000000Y-72000000D01*
X261000000Y-77000000D02*
G75*
G03X261000000Y-77000000I-2000000J0D01*
G01*
X261915476Y-64000000D02*
G75*
G03X261915476Y-64000000I-2915476J0D01*
G01*
X264000000Y-59000000D02*
X264000000Y-69000000D01*
X264000000Y-69000000D02*
X253000000Y-69000000D01*
X253000000Y-69000000D02*
X253000000Y-59000000D01*
X253000000Y-59000000D02*
X264000000Y-59000000D01*
X261000000Y-64000000D02*
G75*
G03X261000000Y-64000000I-2000000J0D01*
G01*
X44500000Y-72250000D02*
G75*
G03X44500000Y-72250000I-5500000J0D01*
G01*
X46500000Y-72250000D02*
G75*
G03X46500000Y-72250000I-7500000J0D01*
G01*
X66500000Y-72250000D02*
G75*
G03X66500000Y-72250000I-5500000J0D01*
G01*
X68500000Y-72250000D02*
G75*
G03X68500000Y-72250000I-7500000J0D01*
G01*
D14*
X324750000Y-57450000D02*
X327750000Y-57450000D01*
X327750000Y-57450000D02*
X327750000Y-71650000D01*
X327750000Y-71650000D02*
X315750000Y-71650000D01*
X315750000Y-71650000D02*
X315750000Y-57450000D01*
X315750000Y-57450000D02*
X318750000Y-57450000D01*
D15*
X328420000Y-59150000D02*
G75*
G03X328420000Y-59150000I-170000J0D01*
G01*
D16*
X297050000Y-87920000D02*
X297050000Y-90580000D01*
X304730000Y-87920000D02*
X297050000Y-87920000D01*
X304730000Y-90580000D02*
X297050000Y-90580000D01*
X304730000Y-87920000D02*
X304730000Y-90580000D01*
X306000000Y-87920000D02*
X307330000Y-87920000D01*
X307330000Y-87920000D02*
X307330000Y-89250000D01*
X325660000Y-90580000D02*
X325660000Y-87920000D01*
X320520000Y-90580000D02*
X325660000Y-90580000D01*
X320520000Y-87920000D02*
X325660000Y-87920000D01*
X320520000Y-90580000D02*
X320520000Y-87920000D01*
X319250000Y-90580000D02*
X317920000Y-90580000D01*
X317920000Y-90580000D02*
X317920000Y-89250000D01*
D11*
X294189500Y-57516800D02*
X309810500Y-57516800D01*
X294189500Y-85152000D02*
X309810500Y-85152000D01*
X309810500Y-85152000D02*
X309810500Y-57516800D01*
X294189500Y-85152000D02*
X294189500Y-57516800D01*
X19278572Y-67035714D02*
X19240477Y-67073810D01*
X19126191Y-67111905D01*
X19050001Y-67111905D01*
X18935715Y-67073810D01*
X18859524Y-66997619D01*
X18821429Y-66921429D01*
X18783334Y-66769048D01*
X18783334Y-66654762D01*
X18821429Y-66502381D01*
X18859524Y-66426190D01*
X18935715Y-66350000D01*
X19050001Y-66311905D01*
X19126191Y-66311905D01*
X19240477Y-66350000D01*
X19278572Y-66388095D01*
X19773810Y-66311905D02*
X19926191Y-66311905D01*
X20002382Y-66350000D01*
X20078572Y-66426190D01*
X20116667Y-66578571D01*
X20116667Y-66845238D01*
X20078572Y-66997619D01*
X20002382Y-67073810D01*
X19926191Y-67111905D01*
X19773810Y-67111905D01*
X19697620Y-67073810D01*
X19621429Y-66997619D01*
X19583334Y-66845238D01*
X19583334Y-66578571D01*
X19621429Y-66426190D01*
X19697620Y-66350000D01*
X19773810Y-66311905D01*
X20459524Y-67111905D02*
X20459524Y-66311905D01*
X20916667Y-67111905D01*
X20916667Y-66311905D01*
X21716667Y-67111905D02*
X21259524Y-67111905D01*
X21488095Y-67111905D02*
X21488095Y-66311905D01*
X21411905Y-66426190D01*
X21335714Y-66502381D01*
X21259524Y-66540476D01*
X84678571Y-77500000D02*
X85750000Y-77500000D01*
X85964286Y-77571428D01*
X86107143Y-77714285D01*
X86178571Y-77928571D01*
X86178571Y-78071428D01*
X86178571Y-76000000D02*
X86178571Y-76857143D01*
X86178571Y-76428571D02*
X84678571Y-76428571D01*
X84892857Y-76571428D01*
X85035714Y-76714286D01*
X85107143Y-76857143D01*
X84678571Y-64500000D02*
X85750000Y-64500000D01*
X85964286Y-64571428D01*
X86107143Y-64714285D01*
X86178571Y-64928571D01*
X86178571Y-65071428D01*
X84821429Y-63857143D02*
X84750000Y-63785714D01*
X84678571Y-63642857D01*
X84678571Y-63285714D01*
X84750000Y-63142857D01*
X84821429Y-63071428D01*
X84964286Y-63000000D01*
X85107143Y-63000000D01*
X85321429Y-63071428D01*
X86178571Y-63928571D01*
X86178571Y-63000000D01*
X102678571Y-64500000D02*
X103750000Y-64500000D01*
X103964286Y-64571428D01*
X104107143Y-64714285D01*
X104178571Y-64928571D01*
X104178571Y-65071428D01*
X102678571Y-63928571D02*
X102678571Y-63000000D01*
X103250000Y-63500000D01*
X103250000Y-63285714D01*
X103321429Y-63142857D01*
X103392857Y-63071428D01*
X103535714Y-63000000D01*
X103892857Y-63000000D01*
X104035714Y-63071428D01*
X104107143Y-63142857D01*
X104178571Y-63285714D01*
X104178571Y-63714286D01*
X104107143Y-63857143D01*
X104035714Y-63928571D01*
X102678571Y-77500000D02*
X103750000Y-77500000D01*
X103964286Y-77571428D01*
X104107143Y-77714285D01*
X104178571Y-77928571D01*
X104178571Y-78071428D01*
X103178571Y-76142857D02*
X104178571Y-76142857D01*
X102607143Y-76500000D02*
X103678571Y-76857143D01*
X103678571Y-75928571D01*
X120678571Y-64500000D02*
X121750000Y-64500000D01*
X121964286Y-64571428D01*
X122107143Y-64714285D01*
X122178571Y-64928571D01*
X122178571Y-65071428D01*
X120678571Y-63071428D02*
X120678571Y-63785714D01*
X121392857Y-63857143D01*
X121321429Y-63785714D01*
X121250000Y-63642857D01*
X121250000Y-63285714D01*
X121321429Y-63142857D01*
X121392857Y-63071428D01*
X121535714Y-63000000D01*
X121892857Y-63000000D01*
X122035714Y-63071428D01*
X122107143Y-63142857D01*
X122178571Y-63285714D01*
X122178571Y-63642857D01*
X122107143Y-63785714D01*
X122035714Y-63857143D01*
X120678571Y-77500000D02*
X121750000Y-77500000D01*
X121964286Y-77571428D01*
X122107143Y-77714285D01*
X122178571Y-77928571D01*
X122178571Y-78071428D01*
X120678571Y-76142857D02*
X120678571Y-76428571D01*
X120750000Y-76571428D01*
X120821429Y-76642857D01*
X121035714Y-76785714D01*
X121321429Y-76857143D01*
X121892857Y-76857143D01*
X122035714Y-76785714D01*
X122107143Y-76714286D01*
X122178571Y-76571428D01*
X122178571Y-76285714D01*
X122107143Y-76142857D01*
X122035714Y-76071428D01*
X121892857Y-76000000D01*
X121535714Y-76000000D01*
X121392857Y-76071428D01*
X121321429Y-76142857D01*
X121250000Y-76285714D01*
X121250000Y-76571428D01*
X121321429Y-76714286D01*
X121392857Y-76785714D01*
X121535714Y-76857143D01*
X138678571Y-64500000D02*
X139750000Y-64500000D01*
X139964286Y-64571428D01*
X140107143Y-64714285D01*
X140178571Y-64928571D01*
X140178571Y-65071428D01*
X138678571Y-63928571D02*
X138678571Y-62928571D01*
X140178571Y-63571428D01*
X138678571Y-77500000D02*
X139750000Y-77500000D01*
X139964286Y-77571428D01*
X140107143Y-77714285D01*
X140178571Y-77928571D01*
X140178571Y-78071428D01*
X139321429Y-76571428D02*
X139250000Y-76714286D01*
X139178571Y-76785714D01*
X139035714Y-76857143D01*
X138964286Y-76857143D01*
X138821429Y-76785714D01*
X138750000Y-76714286D01*
X138678571Y-76571428D01*
X138678571Y-76285714D01*
X138750000Y-76142857D01*
X138821429Y-76071428D01*
X138964286Y-76000000D01*
X139035714Y-76000000D01*
X139178571Y-76071428D01*
X139250000Y-76142857D01*
X139321429Y-76285714D01*
X139321429Y-76571428D01*
X139392857Y-76714286D01*
X139464286Y-76785714D01*
X139607143Y-76857143D01*
X139892857Y-76857143D01*
X140035714Y-76785714D01*
X140107143Y-76714286D01*
X140178571Y-76571428D01*
X140178571Y-76285714D01*
X140107143Y-76142857D01*
X140035714Y-76071428D01*
X139892857Y-76000000D01*
X139607143Y-76000000D01*
X139464286Y-76071428D01*
X139392857Y-76142857D01*
X139321429Y-76285714D01*
X156678571Y-64500000D02*
X157750000Y-64500000D01*
X157964286Y-64571428D01*
X158107143Y-64714285D01*
X158178571Y-64928571D01*
X158178571Y-65071428D01*
X158178571Y-63714286D02*
X158178571Y-63428571D01*
X158107143Y-63285714D01*
X158035714Y-63214286D01*
X157821429Y-63071428D01*
X157535714Y-63000000D01*
X156964286Y-63000000D01*
X156821429Y-63071428D01*
X156750000Y-63142857D01*
X156678571Y-63285714D01*
X156678571Y-63571428D01*
X156750000Y-63714286D01*
X156821429Y-63785714D01*
X156964286Y-63857143D01*
X157321429Y-63857143D01*
X157464286Y-63785714D01*
X157535714Y-63714286D01*
X157607143Y-63571428D01*
X157607143Y-63285714D01*
X157535714Y-63142857D01*
X157464286Y-63071428D01*
X157321429Y-63000000D01*
X156678571Y-78214285D02*
X157750000Y-78214285D01*
X157964286Y-78285713D01*
X158107143Y-78428570D01*
X158178571Y-78642856D01*
X158178571Y-78785713D01*
X158178571Y-76714285D02*
X158178571Y-77571428D01*
X158178571Y-77142856D02*
X156678571Y-77142856D01*
X156892857Y-77285713D01*
X157035714Y-77428571D01*
X157107143Y-77571428D01*
X156678571Y-75785714D02*
X156678571Y-75642857D01*
X156750000Y-75500000D01*
X156821429Y-75428571D01*
X156964286Y-75357142D01*
X157250000Y-75285714D01*
X157607143Y-75285714D01*
X157892857Y-75357142D01*
X158035714Y-75428571D01*
X158107143Y-75500000D01*
X158178571Y-75642857D01*
X158178571Y-75785714D01*
X158107143Y-75928571D01*
X158035714Y-76000000D01*
X157892857Y-76071428D01*
X157607143Y-76142857D01*
X157250000Y-76142857D01*
X156964286Y-76071428D01*
X156821429Y-76000000D01*
X156750000Y-75928571D01*
X156678571Y-75785714D01*
X174678571Y-65214285D02*
X175750000Y-65214285D01*
X175964286Y-65285713D01*
X176107143Y-65428570D01*
X176178571Y-65642856D01*
X176178571Y-65785713D01*
X176178571Y-63714285D02*
X176178571Y-64571428D01*
X176178571Y-64142856D02*
X174678571Y-64142856D01*
X174892857Y-64285713D01*
X175035714Y-64428571D01*
X175107143Y-64571428D01*
X176178571Y-62285714D02*
X176178571Y-63142857D01*
X176178571Y-62714285D02*
X174678571Y-62714285D01*
X174892857Y-62857142D01*
X175035714Y-63000000D01*
X175107143Y-63142857D01*
X174678571Y-78214285D02*
X175750000Y-78214285D01*
X175964286Y-78285713D01*
X176107143Y-78428570D01*
X176178571Y-78642856D01*
X176178571Y-78785713D01*
X176178571Y-76714285D02*
X176178571Y-77571428D01*
X176178571Y-77142856D02*
X174678571Y-77142856D01*
X174892857Y-77285713D01*
X175035714Y-77428571D01*
X175107143Y-77571428D01*
X174821429Y-76142857D02*
X174750000Y-76071428D01*
X174678571Y-75928571D01*
X174678571Y-75571428D01*
X174750000Y-75428571D01*
X174821429Y-75357142D01*
X174964286Y-75285714D01*
X175107143Y-75285714D01*
X175321429Y-75357142D01*
X176178571Y-76214285D01*
X176178571Y-75285714D01*
X192678571Y-65214285D02*
X193750000Y-65214285D01*
X193964286Y-65285713D01*
X194107143Y-65428570D01*
X194178571Y-65642856D01*
X194178571Y-65785713D01*
X194178571Y-63714285D02*
X194178571Y-64571428D01*
X194178571Y-64142856D02*
X192678571Y-64142856D01*
X192892857Y-64285713D01*
X193035714Y-64428571D01*
X193107143Y-64571428D01*
X192678571Y-63214285D02*
X192678571Y-62285714D01*
X193250000Y-62785714D01*
X193250000Y-62571428D01*
X193321429Y-62428571D01*
X193392857Y-62357142D01*
X193535714Y-62285714D01*
X193892857Y-62285714D01*
X194035714Y-62357142D01*
X194107143Y-62428571D01*
X194178571Y-62571428D01*
X194178571Y-63000000D01*
X194107143Y-63142857D01*
X194035714Y-63214285D01*
X192678571Y-78214285D02*
X193750000Y-78214285D01*
X193964286Y-78285713D01*
X194107143Y-78428570D01*
X194178571Y-78642856D01*
X194178571Y-78785713D01*
X194178571Y-76714285D02*
X194178571Y-77571428D01*
X194178571Y-77142856D02*
X192678571Y-77142856D01*
X192892857Y-77285713D01*
X193035714Y-77428571D01*
X193107143Y-77571428D01*
X193178571Y-75428571D02*
X194178571Y-75428571D01*
X192607143Y-75785714D02*
X193678571Y-76142857D01*
X193678571Y-75214285D01*
X210678571Y-65214285D02*
X211750000Y-65214285D01*
X211964286Y-65285713D01*
X212107143Y-65428570D01*
X212178571Y-65642856D01*
X212178571Y-65785713D01*
X212178571Y-63714285D02*
X212178571Y-64571428D01*
X212178571Y-64142856D02*
X210678571Y-64142856D01*
X210892857Y-64285713D01*
X211035714Y-64428571D01*
X211107143Y-64571428D01*
X210678571Y-62357142D02*
X210678571Y-63071428D01*
X211392857Y-63142857D01*
X211321429Y-63071428D01*
X211250000Y-62928571D01*
X211250000Y-62571428D01*
X211321429Y-62428571D01*
X211392857Y-62357142D01*
X211535714Y-62285714D01*
X211892857Y-62285714D01*
X212035714Y-62357142D01*
X212107143Y-62428571D01*
X212178571Y-62571428D01*
X212178571Y-62928571D01*
X212107143Y-63071428D01*
X212035714Y-63142857D01*
X210678571Y-78214285D02*
X211750000Y-78214285D01*
X211964286Y-78285713D01*
X212107143Y-78428570D01*
X212178571Y-78642856D01*
X212178571Y-78785713D01*
X212178571Y-76714285D02*
X212178571Y-77571428D01*
X212178571Y-77142856D02*
X210678571Y-77142856D01*
X210892857Y-77285713D01*
X211035714Y-77428571D01*
X211107143Y-77571428D01*
X210678571Y-75428571D02*
X210678571Y-75714285D01*
X210750000Y-75857142D01*
X210821429Y-75928571D01*
X211035714Y-76071428D01*
X211321429Y-76142857D01*
X211892857Y-76142857D01*
X212035714Y-76071428D01*
X212107143Y-76000000D01*
X212178571Y-75857142D01*
X212178571Y-75571428D01*
X212107143Y-75428571D01*
X212035714Y-75357142D01*
X211892857Y-75285714D01*
X211535714Y-75285714D01*
X211392857Y-75357142D01*
X211321429Y-75428571D01*
X211250000Y-75571428D01*
X211250000Y-75857142D01*
X211321429Y-76000000D01*
X211392857Y-76071428D01*
X211535714Y-76142857D01*
X228678571Y-65214285D02*
X229750000Y-65214285D01*
X229964286Y-65285713D01*
X230107143Y-65428570D01*
X230178571Y-65642856D01*
X230178571Y-65785713D01*
X230178571Y-63714285D02*
X230178571Y-64571428D01*
X230178571Y-64142856D02*
X228678571Y-64142856D01*
X228892857Y-64285713D01*
X229035714Y-64428571D01*
X229107143Y-64571428D01*
X228678571Y-63214285D02*
X228678571Y-62214285D01*
X230178571Y-62857142D01*
X228678571Y-78214285D02*
X229750000Y-78214285D01*
X229964286Y-78285713D01*
X230107143Y-78428570D01*
X230178571Y-78642856D01*
X230178571Y-78785713D01*
X230178571Y-76714285D02*
X230178571Y-77571428D01*
X230178571Y-77142856D02*
X228678571Y-77142856D01*
X228892857Y-77285713D01*
X229035714Y-77428571D01*
X229107143Y-77571428D01*
X229321429Y-75857142D02*
X229250000Y-76000000D01*
X229178571Y-76071428D01*
X229035714Y-76142857D01*
X228964286Y-76142857D01*
X228821429Y-76071428D01*
X228750000Y-76000000D01*
X228678571Y-75857142D01*
X228678571Y-75571428D01*
X228750000Y-75428571D01*
X228821429Y-75357142D01*
X228964286Y-75285714D01*
X229035714Y-75285714D01*
X229178571Y-75357142D01*
X229250000Y-75428571D01*
X229321429Y-75571428D01*
X229321429Y-75857142D01*
X229392857Y-76000000D01*
X229464286Y-76071428D01*
X229607143Y-76142857D01*
X229892857Y-76142857D01*
X230035714Y-76071428D01*
X230107143Y-76000000D01*
X230178571Y-75857142D01*
X230178571Y-75571428D01*
X230107143Y-75428571D01*
X230035714Y-75357142D01*
X229892857Y-75285714D01*
X229607143Y-75285714D01*
X229464286Y-75357142D01*
X229392857Y-75428571D01*
X229321429Y-75571428D01*
X246678571Y-65214285D02*
X247750000Y-65214285D01*
X247964286Y-65285713D01*
X248107143Y-65428570D01*
X248178571Y-65642856D01*
X248178571Y-65785713D01*
X248178571Y-63714285D02*
X248178571Y-64571428D01*
X248178571Y-64142856D02*
X246678571Y-64142856D01*
X246892857Y-64285713D01*
X247035714Y-64428571D01*
X247107143Y-64571428D01*
X248178571Y-63000000D02*
X248178571Y-62714285D01*
X248107143Y-62571428D01*
X248035714Y-62500000D01*
X247821429Y-62357142D01*
X247535714Y-62285714D01*
X246964286Y-62285714D01*
X246821429Y-62357142D01*
X246750000Y-62428571D01*
X246678571Y-62571428D01*
X246678571Y-62857142D01*
X246750000Y-63000000D01*
X246821429Y-63071428D01*
X246964286Y-63142857D01*
X247321429Y-63142857D01*
X247464286Y-63071428D01*
X247535714Y-63000000D01*
X247607143Y-62857142D01*
X247607143Y-62571428D01*
X247535714Y-62428571D01*
X247464286Y-62357142D01*
X247321429Y-62285714D01*
X246678571Y-78214285D02*
X247750000Y-78214285D01*
X247964286Y-78285713D01*
X248107143Y-78428570D01*
X248178571Y-78642856D01*
X248178571Y-78785713D01*
X246821429Y-77571428D02*
X246750000Y-77499999D01*
X246678571Y-77357142D01*
X246678571Y-76999999D01*
X246750000Y-76857142D01*
X246821429Y-76785713D01*
X246964286Y-76714285D01*
X247107143Y-76714285D01*
X247321429Y-76785713D01*
X248178571Y-77642856D01*
X248178571Y-76714285D01*
X246678571Y-75785714D02*
X246678571Y-75642857D01*
X246750000Y-75500000D01*
X246821429Y-75428571D01*
X246964286Y-75357142D01*
X247250000Y-75285714D01*
X247607143Y-75285714D01*
X247892857Y-75357142D01*
X248035714Y-75428571D01*
X248107143Y-75500000D01*
X248178571Y-75642857D01*
X248178571Y-75785714D01*
X248107143Y-75928571D01*
X248035714Y-76000000D01*
X247892857Y-76071428D01*
X247607143Y-76142857D01*
X247250000Y-76142857D01*
X246964286Y-76071428D01*
X246821429Y-76000000D01*
X246750000Y-75928571D01*
X246678571Y-75785714D01*
X264678571Y-78214285D02*
X265750000Y-78214285D01*
X265964286Y-78285713D01*
X266107143Y-78428570D01*
X266178571Y-78642856D01*
X266178571Y-78785713D01*
X264821429Y-77571428D02*
X264750000Y-77499999D01*
X264678571Y-77357142D01*
X264678571Y-76999999D01*
X264750000Y-76857142D01*
X264821429Y-76785713D01*
X264964286Y-76714285D01*
X265107143Y-76714285D01*
X265321429Y-76785713D01*
X266178571Y-77642856D01*
X266178571Y-76714285D01*
X266178571Y-75285714D02*
X266178571Y-76142857D01*
X266178571Y-75714285D02*
X264678571Y-75714285D01*
X264892857Y-75857142D01*
X265035714Y-76000000D01*
X265107143Y-76142857D01*
X264678571Y-63214285D02*
X265750000Y-63214285D01*
X265964286Y-63285713D01*
X266107143Y-63428570D01*
X266178571Y-63642856D01*
X266178571Y-63785713D01*
X264821429Y-62571428D02*
X264750000Y-62499999D01*
X264678571Y-62357142D01*
X264678571Y-61999999D01*
X264750000Y-61857142D01*
X264821429Y-61785713D01*
X264964286Y-61714285D01*
X265107143Y-61714285D01*
X265321429Y-61785713D01*
X266178571Y-62642856D01*
X266178571Y-61714285D01*
X264821429Y-61142857D02*
X264750000Y-61071428D01*
X264678571Y-60928571D01*
X264678571Y-60571428D01*
X264750000Y-60428571D01*
X264821429Y-60357142D01*
X264964286Y-60285714D01*
X265107143Y-60285714D01*
X265321429Y-60357142D01*
X266178571Y-61214285D01*
X266178571Y-60285714D01*
X38190476Y-63202381D02*
X38857143Y-64202381D01*
X38857143Y-63202381D02*
X38190476Y-64202381D01*
X39761905Y-64202381D02*
X39190476Y-64202381D01*
X39476190Y-64202381D02*
X39476190Y-63202381D01*
X39380952Y-63345238D01*
X39285714Y-63440476D01*
X39190476Y-63488095D01*
X60190476Y-63202381D02*
X60857143Y-64202381D01*
X60857143Y-63202381D02*
X60190476Y-64202381D01*
X61190476Y-63297619D02*
X61238095Y-63250000D01*
X61333333Y-63202381D01*
X61571429Y-63202381D01*
X61666667Y-63250000D01*
X61714286Y-63297619D01*
X61761905Y-63392857D01*
X61761905Y-63488095D01*
X61714286Y-63630952D01*
X61142857Y-64202381D01*
X61761905Y-64202381D01*
X308782381Y-89988095D02*
X307782381Y-89988095D01*
X307782381Y-89607142D01*
X307830000Y-89511904D01*
X307877619Y-89464285D01*
X307972857Y-89416666D01*
X308115714Y-89416666D01*
X308210952Y-89464285D01*
X308258571Y-89511904D01*
X308306190Y-89607142D01*
X308306190Y-89988095D01*
X307782381Y-88559523D02*
X307782381Y-88750000D01*
X307830000Y-88845238D01*
X307877619Y-88892857D01*
X308020476Y-88988095D01*
X308210952Y-89035714D01*
X308591905Y-89035714D01*
X308687143Y-88988095D01*
X308734762Y-88940476D01*
X308782381Y-88845238D01*
X308782381Y-88654761D01*
X308734762Y-88559523D01*
X308687143Y-88511904D01*
X308591905Y-88464285D01*
X308353810Y-88464285D01*
X308258571Y-88511904D01*
X308210952Y-88559523D01*
X308163333Y-88654761D01*
X308163333Y-88845238D01*
X308210952Y-88940476D01*
X308258571Y-88988095D01*
X308353810Y-89035714D01*
X317372381Y-89988095D02*
X316372381Y-89988095D01*
X316372381Y-89607142D01*
X316420000Y-89511904D01*
X316467619Y-89464285D01*
X316562857Y-89416666D01*
X316705714Y-89416666D01*
X316800952Y-89464285D01*
X316848571Y-89511904D01*
X316896190Y-89607142D01*
X316896190Y-89988095D01*
X316800952Y-88845238D02*
X316753333Y-88940476D01*
X316705714Y-88988095D01*
X316610476Y-89035714D01*
X316562857Y-89035714D01*
X316467619Y-88988095D01*
X316420000Y-88940476D01*
X316372381Y-88845238D01*
X316372381Y-88654761D01*
X316420000Y-88559523D01*
X316467619Y-88511904D01*
X316562857Y-88464285D01*
X316610476Y-88464285D01*
X316705714Y-88511904D01*
X316753333Y-88559523D01*
X316800952Y-88654761D01*
X316800952Y-88845238D01*
X316848571Y-88940476D01*
X316896190Y-88988095D01*
X316991429Y-89035714D01*
X317181905Y-89035714D01*
X317277143Y-88988095D01*
X317324762Y-88940476D01*
X317372381Y-88845238D01*
X317372381Y-88654761D01*
X317324762Y-88559523D01*
X317277143Y-88511904D01*
X317181905Y-88464285D01*
X316991429Y-88464285D01*
X316896190Y-88511904D01*
X316848571Y-88559523D01*
X316800952Y-88654761D01*
X305352381Y-76309523D02*
X306066667Y-76309523D01*
X306209524Y-76357143D01*
X306304762Y-76452381D01*
X306352381Y-76595238D01*
X306352381Y-76690476D01*
X305447619Y-75880952D02*
X305400000Y-75833333D01*
X305352381Y-75738095D01*
X305352381Y-75499999D01*
X305400000Y-75404761D01*
X305447619Y-75357142D01*
X305542857Y-75309523D01*
X305638095Y-75309523D01*
X305780952Y-75357142D01*
X306352381Y-75928571D01*
X306352381Y-75309523D01*
X305685714Y-74452380D02*
X306352381Y-74452380D01*
X305304762Y-74690476D02*
X306019048Y-74928571D01*
X306019048Y-74309523D01*
%LPC*%
D17*
X292000000Y-84750000D03*
X292000000Y-86250000D03*
X292000000Y-87750000D03*
X292000000Y-68250000D03*
X292000000Y-66750000D03*
D18*
X20250000Y-76060000D03*
D19*
X24060000Y-72250000D03*
D20*
X16768700Y-70023274D02*
X16111300Y-72476726D01*
D21*
X122290000Y-91770000D03*
D22*
X122290000Y-88730000D03*
X119750000Y-91770000D03*
X119750000Y-88730000D03*
X117210000Y-91770000D03*
X117210000Y-88730000D03*
D23*
X79000000Y-81700000D03*
D24*
X79000000Y-72300000D03*
D25*
X74100000Y-77000000D03*
X82300000Y-77000000D03*
D23*
X79000000Y-68700000D03*
D24*
X79000000Y-59300000D03*
D25*
X74100000Y-64000000D03*
X82300000Y-64000000D03*
D23*
X97000000Y-68700000D03*
D24*
X97000000Y-59300000D03*
D25*
X92100000Y-64000000D03*
X100300000Y-64000000D03*
D23*
X97000000Y-81700000D03*
D24*
X97000000Y-72300000D03*
D25*
X92100000Y-77000000D03*
X100300000Y-77000000D03*
D23*
X115000000Y-68700000D03*
D24*
X115000000Y-59300000D03*
D25*
X110100000Y-64000000D03*
X118300000Y-64000000D03*
D23*
X115000000Y-81700000D03*
D24*
X115000000Y-72300000D03*
D25*
X110100000Y-77000000D03*
X118300000Y-77000000D03*
D23*
X133000000Y-68700000D03*
D24*
X133000000Y-59300000D03*
D25*
X128100000Y-64000000D03*
X136300000Y-64000000D03*
D23*
X133000000Y-81700000D03*
D24*
X133000000Y-72300000D03*
D25*
X128100000Y-77000000D03*
X136300000Y-77000000D03*
D23*
X151000000Y-68700000D03*
D24*
X151000000Y-59300000D03*
D25*
X146100000Y-64000000D03*
X154300000Y-64000000D03*
D23*
X151000000Y-81700000D03*
D24*
X151000000Y-72300000D03*
D25*
X146100000Y-77000000D03*
X154300000Y-77000000D03*
D23*
X169000000Y-68700000D03*
D24*
X169000000Y-59300000D03*
D25*
X164100000Y-64000000D03*
X172300000Y-64000000D03*
D23*
X169000000Y-81700000D03*
D24*
X169000000Y-72300000D03*
D25*
X164100000Y-77000000D03*
X172300000Y-77000000D03*
D23*
X187000000Y-68700000D03*
D24*
X187000000Y-59300000D03*
D25*
X182100000Y-64000000D03*
X190300000Y-64000000D03*
D23*
X187000000Y-81700000D03*
D24*
X187000000Y-72300000D03*
D25*
X182100000Y-77000000D03*
X190300000Y-77000000D03*
D23*
X205000000Y-68700000D03*
D24*
X205000000Y-59300000D03*
D25*
X200100000Y-64000000D03*
X208300000Y-64000000D03*
D23*
X205000000Y-81700000D03*
D24*
X205000000Y-72300000D03*
D25*
X200100000Y-77000000D03*
X208300000Y-77000000D03*
D23*
X223000000Y-68700000D03*
D24*
X223000000Y-59300000D03*
D25*
X218100000Y-64000000D03*
X226300000Y-64000000D03*
D23*
X223000000Y-81700000D03*
D24*
X223000000Y-72300000D03*
D25*
X218100000Y-77000000D03*
X226300000Y-77000000D03*
D23*
X241000000Y-68700000D03*
D24*
X241000000Y-59300000D03*
D25*
X236100000Y-64000000D03*
X244300000Y-64000000D03*
D23*
X241000000Y-81700000D03*
D24*
X241000000Y-72300000D03*
D25*
X236100000Y-77000000D03*
X244300000Y-77000000D03*
D23*
X259000000Y-81700000D03*
D24*
X259000000Y-72300000D03*
D25*
X254100000Y-77000000D03*
X262300000Y-77000000D03*
D23*
X259000000Y-68700000D03*
D24*
X259000000Y-59300000D03*
D25*
X254100000Y-64000000D03*
X262300000Y-64000000D03*
D21*
X90540000Y-91770000D03*
D22*
X90540000Y-88730000D03*
X88000000Y-91770000D03*
X88000000Y-88730000D03*
X85460000Y-91770000D03*
X85460000Y-88730000D03*
D26*
X14500000Y-77000000D03*
D27*
X14500000Y-80040000D03*
D22*
X33420000Y-91520000D03*
X33420000Y-88480000D03*
X35960000Y-88480000D03*
X35960000Y-91520000D03*
D21*
X43580000Y-91520000D03*
D22*
X43580000Y-88480000D03*
X41040000Y-91520000D03*
X41040000Y-88480000D03*
X38500000Y-91520000D03*
X38500000Y-88480000D03*
D28*
X283500000Y-88500000D03*
D29*
X280960000Y-88500000D03*
X278420000Y-88500000D03*
D30*
X213750000Y-84000000D03*
X66250000Y-92000000D03*
D31*
X33500000Y-72250000D03*
X44500000Y-72250000D03*
X39000000Y-77750000D03*
D32*
X39000000Y-67750000D03*
D31*
X35110000Y-76140000D03*
X42890000Y-76140000D03*
D33*
X39000000Y-67750000D03*
D34*
X34900000Y-72250000D03*
X43100000Y-72250000D03*
D35*
X39000000Y-76350000D03*
D36*
X34968629Y-76281371D02*
X37231371Y-74018629D01*
X40768629Y-74018629D02*
X43031371Y-76281371D01*
D31*
X55500000Y-72250000D03*
X66500000Y-72250000D03*
X61000000Y-77750000D03*
D32*
X61000000Y-67750000D03*
D31*
X57110000Y-76140000D03*
X64890000Y-76140000D03*
D33*
X61000000Y-67750000D03*
D34*
X56900000Y-72250000D03*
X65100000Y-72250000D03*
D35*
X61000000Y-76350000D03*
D36*
X56968629Y-76281371D02*
X59231371Y-74018629D01*
X62768629Y-74018629D02*
X65031371Y-76281371D01*
D37*
X59080000Y-86460000D03*
D38*
X59080000Y-89000000D03*
X59080000Y-91540000D03*
D37*
X19580000Y-86460000D03*
D38*
X19580000Y-89000000D03*
X19580000Y-91540000D03*
D39*
X321750000Y-59250000D03*
D40*
X317250000Y-62750000D03*
X326750000Y-67550000D03*
D28*
X274250000Y-65500000D03*
D29*
X271710000Y-65500000D03*
X269170000Y-65500000D03*
X266630000Y-65500000D03*
D28*
X306000000Y-89250000D03*
D29*
X303460000Y-89250000D03*
X300920000Y-89250000D03*
X298380000Y-89250000D03*
D28*
X264750000Y-88500000D03*
D29*
X267290000Y-88500000D03*
X269830000Y-88500000D03*
D28*
X319250000Y-89250000D03*
D29*
X321790000Y-89250000D03*
X324330000Y-89250000D03*
D41*
X302000000Y-75500000D03*
D42*
X297250200Y-62800000D03*
X297250200Y-70420000D03*
X297250200Y-80580000D03*
X307156200Y-70420000D03*
X307156200Y-80580000D03*
D17*
X292000000Y-65250000D03*
D28*
X144500000Y-86500000D03*
D29*
X147040000Y-86500000D03*
X149580000Y-86500000D03*
M02*
