G04 #@! TF.FileFunction,Soldermask,Bot*
%FSLAX46Y46*%
G04 Gerber Fmt 4.6, Leading zero omitted, Abs format (unit mm)*
G04 Created by KiCad (PCBNEW 4.0.2-stable) date 2019-02-13 11:32:10 AM*
%MOMM*%
G01*
G04 APERTURE LIST*
%ADD10C,0.200000*%
%ADD11C,0.010000*%
%ADD12C,1.100000*%
%ADD13R,1.000000X0.900000*%
%ADD14R,1.100000X1.700000*%
%ADD15R,1.700000X1.100000*%
%ADD16R,1.700000X2.700000*%
%ADD17R,3.100000X1.700000*%
%ADD18R,0.900000X1.000000*%
%ADD19R,5.180000X2.640000*%
%ADD20O,2.640000X5.180000*%
%ADD21C,2.640000*%
%ADD22R,0.862000X0.709600*%
%ADD23R,0.709600X0.862000*%
%ADD24R,2.497760X2.497760*%
%ADD25R,1.600000X2.100000*%
%ADD26O,1.600000X2.100000*%
%ADD27O,4.100000X2.600000*%
%ADD28O,2.600000X2.100000*%
%ADD29O,1.600000X3.600000*%
%ADD30R,1.497000X1.243000*%
%ADD31R,1.243000X1.497000*%
%ADD32R,2.700000X1.900000*%
%ADD33O,2.700000X1.900000*%
%ADD34R,1.800000X1.800000*%
%ADD35O,1.800000X1.800000*%
%ADD36R,0.801040X1.100760*%
%ADD37R,1.400000X0.800000*%
%ADD38R,0.800000X1.400000*%
%ADD39R,2.900000X1.700000*%
%ADD40R,1.600000X0.550000*%
%ADD41R,1.200000X0.500000*%
%ADD42R,0.500000X1.200000*%
%ADD43C,2.600000*%
%ADD44R,2.600000X3.600000*%
%ADD45O,4.700000X1.550000*%
%ADD46O,4.400000X1.200000*%
%ADD47O,1.200000X4.400000*%
%ADD48C,1.200000*%
%ADD49R,1.900000X1.900000*%
%ADD50C,1.900000*%
%ADD51O,3.116000X1.608000*%
%ADD52O,1.608000X3.116000*%
%ADD53C,3.351200*%
%ADD54C,4.545000*%
%ADD55R,1.100760X0.801040*%
G04 APERTURE END LIST*
D10*
D11*
G36*
X313347199Y-82852528D02*
X313362043Y-82962340D01*
X313388060Y-83065105D01*
X313425305Y-83157269D01*
X313425935Y-83158524D01*
X313480600Y-83249825D01*
X313547128Y-83329712D01*
X313626004Y-83398430D01*
X313717710Y-83456225D01*
X313822730Y-83503343D01*
X313941547Y-83540032D01*
X314074646Y-83566536D01*
X314222509Y-83583102D01*
X314265284Y-83585918D01*
X314366929Y-83589195D01*
X314474115Y-83588210D01*
X314580877Y-83583231D01*
X314681252Y-83574528D01*
X314763101Y-83563419D01*
X314827333Y-83550257D01*
X314897076Y-83531843D01*
X314966693Y-83509973D01*
X315030549Y-83486442D01*
X315083010Y-83463044D01*
X315090502Y-83459148D01*
X315128643Y-83436707D01*
X315170669Y-83408698D01*
X315212131Y-83378428D01*
X315248584Y-83349201D01*
X315275583Y-83324324D01*
X315282940Y-83316083D01*
X315302647Y-83291679D01*
X315344413Y-83331319D01*
X315433535Y-83403481D01*
X315536526Y-83463961D01*
X315653361Y-83512750D01*
X315784018Y-83549837D01*
X315857139Y-83564447D01*
X315942313Y-83575997D01*
X316040171Y-83583805D01*
X316145785Y-83587870D01*
X316254227Y-83588193D01*
X316360569Y-83584774D01*
X316459884Y-83577613D01*
X316547244Y-83566711D01*
X316561051Y-83564399D01*
X316695825Y-83533958D01*
X316816348Y-83492321D01*
X316922687Y-83439433D01*
X317014911Y-83375238D01*
X317093087Y-83299682D01*
X317157282Y-83212709D01*
X317207566Y-83114264D01*
X317242406Y-83010464D01*
X317251909Y-82961932D01*
X317259111Y-82900275D01*
X317263881Y-82830382D01*
X317266084Y-82757140D01*
X317265587Y-82685438D01*
X317262258Y-82620165D01*
X317255964Y-82566208D01*
X317254695Y-82559070D01*
X317225891Y-82444854D01*
X317184594Y-82342477D01*
X317130441Y-82251646D01*
X317063073Y-82172074D01*
X316982127Y-82103468D01*
X316887241Y-82045539D01*
X316778055Y-81997997D01*
X316654206Y-81960552D01*
X316515333Y-81932913D01*
X316465679Y-81925834D01*
X316418572Y-81921405D01*
X316357908Y-81918203D01*
X316288091Y-81916229D01*
X316270338Y-81916052D01*
X316270338Y-82262994D01*
X316344368Y-82264663D01*
X316409776Y-82268255D01*
X316462746Y-82273859D01*
X316465679Y-82274297D01*
X316575545Y-82296218D01*
X316669488Y-82326362D01*
X316748044Y-82365321D01*
X316811750Y-82413685D01*
X316861142Y-82472048D01*
X316896757Y-82540999D01*
X316919131Y-82621131D01*
X316928800Y-82713035D01*
X316928309Y-82784406D01*
X316923751Y-82840397D01*
X316915836Y-82893325D01*
X316906149Y-82934085D01*
X316878111Y-83004481D01*
X316840266Y-83063284D01*
X316790912Y-83111995D01*
X316728346Y-83152115D01*
X316650866Y-83185145D01*
X316604674Y-83199855D01*
X316543188Y-83215384D01*
X316478073Y-83226978D01*
X316405938Y-83234992D01*
X316323394Y-83239778D01*
X316227048Y-83241690D01*
X316202369Y-83241760D01*
X316068556Y-83238698D01*
X315950926Y-83229185D01*
X315848550Y-83212799D01*
X315760502Y-83189119D01*
X315685851Y-83157722D01*
X315623669Y-83118186D01*
X315573029Y-83070090D01*
X315533001Y-83013012D01*
X315502657Y-82946530D01*
X315493784Y-82919750D01*
X315483303Y-82869437D01*
X315477562Y-82807598D01*
X315476501Y-82740205D01*
X315480061Y-82673229D01*
X315488181Y-82612640D01*
X315497249Y-82574915D01*
X315527769Y-82501770D01*
X315571192Y-82439131D01*
X315628264Y-82386409D01*
X315699726Y-82343015D01*
X315786324Y-82308360D01*
X315858854Y-82288396D01*
X315904459Y-82280389D01*
X315964344Y-82273774D01*
X316034690Y-82268638D01*
X316111683Y-82265070D01*
X316191505Y-82263159D01*
X316270338Y-82262994D01*
X316270338Y-81916052D01*
X316213529Y-81915484D01*
X316138630Y-81915969D01*
X316067798Y-81917685D01*
X316005442Y-81920632D01*
X315955968Y-81924813D01*
X315948607Y-81925718D01*
X315804562Y-81950250D01*
X315675862Y-81984094D01*
X315562207Y-82027373D01*
X315463301Y-82080209D01*
X315378844Y-82142724D01*
X315347714Y-82171790D01*
X315309250Y-82210293D01*
X315266072Y-82169972D01*
X315187761Y-82105646D01*
X315100779Y-82051375D01*
X315003714Y-82006665D01*
X314895158Y-81971021D01*
X314773701Y-81943952D01*
X314637932Y-81924962D01*
X314542999Y-81916829D01*
X314464923Y-81913970D01*
X314464923Y-82262486D01*
X314537316Y-82263701D01*
X314600963Y-82266821D01*
X314644282Y-82270926D01*
X314747939Y-82288539D01*
X314840351Y-82313592D01*
X314919597Y-82345426D01*
X314983757Y-82383383D01*
X314993103Y-82390458D01*
X315035681Y-82433743D01*
X315072936Y-82490749D01*
X315102776Y-82557347D01*
X315123113Y-82629406D01*
X315127818Y-82656679D01*
X315132035Y-82710740D01*
X315131650Y-82773929D01*
X315127086Y-82838502D01*
X315118763Y-82896715D01*
X315113481Y-82920417D01*
X315087839Y-82993147D01*
X315051077Y-83054544D01*
X315001865Y-83105824D01*
X314938874Y-83148207D01*
X314860775Y-83182911D01*
X314808396Y-83199894D01*
X314746919Y-83215415D01*
X314681776Y-83227003D01*
X314609580Y-83235010D01*
X314526949Y-83239789D01*
X314430496Y-83241692D01*
X314406226Y-83241760D01*
X314312517Y-83240721D01*
X314232985Y-83237326D01*
X314163775Y-83231208D01*
X314101032Y-83222002D01*
X314040899Y-83209340D01*
X314025725Y-83205567D01*
X313934474Y-83176062D01*
X313858527Y-83137679D01*
X313797241Y-83089568D01*
X313749975Y-83030878D01*
X313716087Y-82960758D01*
X313694934Y-82878359D01*
X313685876Y-82782828D01*
X313685420Y-82754643D01*
X313687438Y-82682977D01*
X313694412Y-82623536D01*
X313707377Y-82570833D01*
X313727364Y-82519380D01*
X313731363Y-82510727D01*
X313770609Y-82448545D01*
X313825629Y-82394397D01*
X313895700Y-82348771D01*
X313980098Y-82312152D01*
X314061750Y-82288660D01*
X314106050Y-82280898D01*
X314164624Y-82274340D01*
X314233634Y-82269103D01*
X314309246Y-82265304D01*
X314387621Y-82263059D01*
X314464923Y-82262486D01*
X314464923Y-81913970D01*
X314425085Y-81912510D01*
X314304565Y-81914833D01*
X314185382Y-81923398D01*
X314071481Y-81937804D01*
X313966807Y-81957650D01*
X313875304Y-81982536D01*
X313866160Y-81985582D01*
X313796259Y-82012708D01*
X313726473Y-82045776D01*
X313663514Y-82081417D01*
X313629481Y-82104332D01*
X313582236Y-82144155D01*
X313533347Y-82194108D01*
X313487821Y-82248474D01*
X313450665Y-82301535D01*
X313438693Y-82322182D01*
X313398480Y-82413908D01*
X313369170Y-82516360D01*
X313350817Y-82625983D01*
X313343476Y-82739224D01*
X313347199Y-82852528D01*
X313347199Y-82852528D01*
G37*
X313347199Y-82852528D02*
X313362043Y-82962340D01*
X313388060Y-83065105D01*
X313425305Y-83157269D01*
X313425935Y-83158524D01*
X313480600Y-83249825D01*
X313547128Y-83329712D01*
X313626004Y-83398430D01*
X313717710Y-83456225D01*
X313822730Y-83503343D01*
X313941547Y-83540032D01*
X314074646Y-83566536D01*
X314222509Y-83583102D01*
X314265284Y-83585918D01*
X314366929Y-83589195D01*
X314474115Y-83588210D01*
X314580877Y-83583231D01*
X314681252Y-83574528D01*
X314763101Y-83563419D01*
X314827333Y-83550257D01*
X314897076Y-83531843D01*
X314966693Y-83509973D01*
X315030549Y-83486442D01*
X315083010Y-83463044D01*
X315090502Y-83459148D01*
X315128643Y-83436707D01*
X315170669Y-83408698D01*
X315212131Y-83378428D01*
X315248584Y-83349201D01*
X315275583Y-83324324D01*
X315282940Y-83316083D01*
X315302647Y-83291679D01*
X315344413Y-83331319D01*
X315433535Y-83403481D01*
X315536526Y-83463961D01*
X315653361Y-83512750D01*
X315784018Y-83549837D01*
X315857139Y-83564447D01*
X315942313Y-83575997D01*
X316040171Y-83583805D01*
X316145785Y-83587870D01*
X316254227Y-83588193D01*
X316360569Y-83584774D01*
X316459884Y-83577613D01*
X316547244Y-83566711D01*
X316561051Y-83564399D01*
X316695825Y-83533958D01*
X316816348Y-83492321D01*
X316922687Y-83439433D01*
X317014911Y-83375238D01*
X317093087Y-83299682D01*
X317157282Y-83212709D01*
X317207566Y-83114264D01*
X317242406Y-83010464D01*
X317251909Y-82961932D01*
X317259111Y-82900275D01*
X317263881Y-82830382D01*
X317266084Y-82757140D01*
X317265587Y-82685438D01*
X317262258Y-82620165D01*
X317255964Y-82566208D01*
X317254695Y-82559070D01*
X317225891Y-82444854D01*
X317184594Y-82342477D01*
X317130441Y-82251646D01*
X317063073Y-82172074D01*
X316982127Y-82103468D01*
X316887241Y-82045539D01*
X316778055Y-81997997D01*
X316654206Y-81960552D01*
X316515333Y-81932913D01*
X316465679Y-81925834D01*
X316418572Y-81921405D01*
X316357908Y-81918203D01*
X316288091Y-81916229D01*
X316270338Y-81916052D01*
X316270338Y-82262994D01*
X316344368Y-82264663D01*
X316409776Y-82268255D01*
X316462746Y-82273859D01*
X316465679Y-82274297D01*
X316575545Y-82296218D01*
X316669488Y-82326362D01*
X316748044Y-82365321D01*
X316811750Y-82413685D01*
X316861142Y-82472048D01*
X316896757Y-82540999D01*
X316919131Y-82621131D01*
X316928800Y-82713035D01*
X316928309Y-82784406D01*
X316923751Y-82840397D01*
X316915836Y-82893325D01*
X316906149Y-82934085D01*
X316878111Y-83004481D01*
X316840266Y-83063284D01*
X316790912Y-83111995D01*
X316728346Y-83152115D01*
X316650866Y-83185145D01*
X316604674Y-83199855D01*
X316543188Y-83215384D01*
X316478073Y-83226978D01*
X316405938Y-83234992D01*
X316323394Y-83239778D01*
X316227048Y-83241690D01*
X316202369Y-83241760D01*
X316068556Y-83238698D01*
X315950926Y-83229185D01*
X315848550Y-83212799D01*
X315760502Y-83189119D01*
X315685851Y-83157722D01*
X315623669Y-83118186D01*
X315573029Y-83070090D01*
X315533001Y-83013012D01*
X315502657Y-82946530D01*
X315493784Y-82919750D01*
X315483303Y-82869437D01*
X315477562Y-82807598D01*
X315476501Y-82740205D01*
X315480061Y-82673229D01*
X315488181Y-82612640D01*
X315497249Y-82574915D01*
X315527769Y-82501770D01*
X315571192Y-82439131D01*
X315628264Y-82386409D01*
X315699726Y-82343015D01*
X315786324Y-82308360D01*
X315858854Y-82288396D01*
X315904459Y-82280389D01*
X315964344Y-82273774D01*
X316034690Y-82268638D01*
X316111683Y-82265070D01*
X316191505Y-82263159D01*
X316270338Y-82262994D01*
X316270338Y-81916052D01*
X316213529Y-81915484D01*
X316138630Y-81915969D01*
X316067798Y-81917685D01*
X316005442Y-81920632D01*
X315955968Y-81924813D01*
X315948607Y-81925718D01*
X315804562Y-81950250D01*
X315675862Y-81984094D01*
X315562207Y-82027373D01*
X315463301Y-82080209D01*
X315378844Y-82142724D01*
X315347714Y-82171790D01*
X315309250Y-82210293D01*
X315266072Y-82169972D01*
X315187761Y-82105646D01*
X315100779Y-82051375D01*
X315003714Y-82006665D01*
X314895158Y-81971021D01*
X314773701Y-81943952D01*
X314637932Y-81924962D01*
X314542999Y-81916829D01*
X314464923Y-81913970D01*
X314464923Y-82262486D01*
X314537316Y-82263701D01*
X314600963Y-82266821D01*
X314644282Y-82270926D01*
X314747939Y-82288539D01*
X314840351Y-82313592D01*
X314919597Y-82345426D01*
X314983757Y-82383383D01*
X314993103Y-82390458D01*
X315035681Y-82433743D01*
X315072936Y-82490749D01*
X315102776Y-82557347D01*
X315123113Y-82629406D01*
X315127818Y-82656679D01*
X315132035Y-82710740D01*
X315131650Y-82773929D01*
X315127086Y-82838502D01*
X315118763Y-82896715D01*
X315113481Y-82920417D01*
X315087839Y-82993147D01*
X315051077Y-83054544D01*
X315001865Y-83105824D01*
X314938874Y-83148207D01*
X314860775Y-83182911D01*
X314808396Y-83199894D01*
X314746919Y-83215415D01*
X314681776Y-83227003D01*
X314609580Y-83235010D01*
X314526949Y-83239789D01*
X314430496Y-83241692D01*
X314406226Y-83241760D01*
X314312517Y-83240721D01*
X314232985Y-83237326D01*
X314163775Y-83231208D01*
X314101032Y-83222002D01*
X314040899Y-83209340D01*
X314025725Y-83205567D01*
X313934474Y-83176062D01*
X313858527Y-83137679D01*
X313797241Y-83089568D01*
X313749975Y-83030878D01*
X313716087Y-82960758D01*
X313694934Y-82878359D01*
X313685876Y-82782828D01*
X313685420Y-82754643D01*
X313687438Y-82682977D01*
X313694412Y-82623536D01*
X313707377Y-82570833D01*
X313727364Y-82519380D01*
X313731363Y-82510727D01*
X313770609Y-82448545D01*
X313825629Y-82394397D01*
X313895700Y-82348771D01*
X313980098Y-82312152D01*
X314061750Y-82288660D01*
X314106050Y-82280898D01*
X314164624Y-82274340D01*
X314233634Y-82269103D01*
X314309246Y-82265304D01*
X314387621Y-82263059D01*
X314464923Y-82262486D01*
X314464923Y-81913970D01*
X314425085Y-81912510D01*
X314304565Y-81914833D01*
X314185382Y-81923398D01*
X314071481Y-81937804D01*
X313966807Y-81957650D01*
X313875304Y-81982536D01*
X313866160Y-81985582D01*
X313796259Y-82012708D01*
X313726473Y-82045776D01*
X313663514Y-82081417D01*
X313629481Y-82104332D01*
X313582236Y-82144155D01*
X313533347Y-82194108D01*
X313487821Y-82248474D01*
X313450665Y-82301535D01*
X313438693Y-82322182D01*
X313398480Y-82413908D01*
X313369170Y-82516360D01*
X313350817Y-82625983D01*
X313343476Y-82739224D01*
X313347199Y-82852528D01*
G36*
X313346936Y-84696670D02*
X313350736Y-84765612D01*
X313356912Y-84827929D01*
X313365365Y-84878714D01*
X313365916Y-84881169D01*
X313400683Y-84998194D01*
X313448945Y-85103488D01*
X313510793Y-85197117D01*
X313586324Y-85279147D01*
X313675629Y-85349644D01*
X313778803Y-85408676D01*
X313895940Y-85456309D01*
X314027134Y-85492608D01*
X314172477Y-85517640D01*
X314280522Y-85528339D01*
X314317016Y-85530184D01*
X314371567Y-85531748D01*
X314444091Y-85533029D01*
X314534506Y-85534027D01*
X314642727Y-85534741D01*
X314768672Y-85535173D01*
X314912256Y-85535319D01*
X315073397Y-85535182D01*
X315252011Y-85534759D01*
X315404321Y-85534227D01*
X315562414Y-85533581D01*
X315703435Y-85532942D01*
X315828459Y-85532290D01*
X315938558Y-85531609D01*
X316034803Y-85530878D01*
X316118269Y-85530079D01*
X316190026Y-85529193D01*
X316251148Y-85528202D01*
X316302707Y-85527086D01*
X316345775Y-85525828D01*
X316381425Y-85524407D01*
X316410730Y-85522806D01*
X316434762Y-85521006D01*
X316454593Y-85518987D01*
X316471296Y-85516732D01*
X316479286Y-85515428D01*
X316601126Y-85490668D01*
X316707799Y-85460705D01*
X316801821Y-85424382D01*
X316885712Y-85380540D01*
X316961990Y-85328021D01*
X317033172Y-85265668D01*
X317042516Y-85256445D01*
X317113160Y-85176611D01*
X317169644Y-85091764D01*
X317212642Y-85000053D01*
X317242824Y-84899626D01*
X317260862Y-84788629D01*
X317267426Y-84665211D01*
X317267394Y-84635862D01*
X317266272Y-84586499D01*
X317264083Y-84537808D01*
X317261163Y-84495969D01*
X317258439Y-84470964D01*
X317236623Y-84371714D01*
X317200898Y-84272716D01*
X317153655Y-84179523D01*
X317098085Y-84098674D01*
X317020834Y-84017189D01*
X316929168Y-83946632D01*
X316823063Y-83886992D01*
X316702496Y-83838257D01*
X316567441Y-83800413D01*
X316488357Y-83784481D01*
X316474379Y-83782611D01*
X316454149Y-83780932D01*
X316426790Y-83779437D01*
X316391424Y-83778115D01*
X316347170Y-83776957D01*
X316293152Y-83775956D01*
X316228490Y-83775101D01*
X316152306Y-83774384D01*
X316063721Y-83773796D01*
X315961857Y-83773328D01*
X315845835Y-83772970D01*
X315714777Y-83772715D01*
X315567804Y-83772553D01*
X315404037Y-83772475D01*
X315317715Y-83772466D01*
X315317715Y-84103339D01*
X315441733Y-84103397D01*
X315564039Y-84103596D01*
X315683105Y-84103936D01*
X315797404Y-84104419D01*
X315905411Y-84105044D01*
X316005598Y-84105811D01*
X316096439Y-84106722D01*
X316176408Y-84107776D01*
X316243977Y-84108973D01*
X316297620Y-84110315D01*
X316335810Y-84111801D01*
X316353592Y-84113031D01*
X316475636Y-84130534D01*
X316582218Y-84157098D01*
X316673776Y-84193051D01*
X316750750Y-84238720D01*
X316813582Y-84294433D01*
X316862709Y-84360518D01*
X316898573Y-84437302D01*
X316921613Y-84525112D01*
X316923763Y-84537821D01*
X316929351Y-84599800D01*
X316928784Y-84669938D01*
X316922586Y-84741229D01*
X316911279Y-84806670D01*
X316900873Y-84844451D01*
X316868185Y-84920711D01*
X316824423Y-84986183D01*
X316768565Y-85041594D01*
X316699590Y-85087671D01*
X316616477Y-85125141D01*
X316518203Y-85154730D01*
X316442242Y-85170712D01*
X316426744Y-85173243D01*
X316409141Y-85175502D01*
X316388316Y-85177509D01*
X316363149Y-85179285D01*
X316332524Y-85180851D01*
X316295323Y-85182228D01*
X316250426Y-85183437D01*
X316196718Y-85184500D01*
X316133078Y-85185437D01*
X316058391Y-85186268D01*
X315971537Y-85187016D01*
X315871399Y-85187701D01*
X315756859Y-85188344D01*
X315626799Y-85188966D01*
X315480100Y-85189589D01*
X315425257Y-85189808D01*
X315248781Y-85190421D01*
X315089445Y-85190782D01*
X314946248Y-85190871D01*
X314818190Y-85190664D01*
X314704269Y-85190141D01*
X314603484Y-85189279D01*
X314514834Y-85188057D01*
X314437319Y-85186453D01*
X314369936Y-85184445D01*
X314311685Y-85182011D01*
X314261565Y-85179130D01*
X314218575Y-85175779D01*
X314181714Y-85171938D01*
X314149980Y-85167584D01*
X314122374Y-85162696D01*
X314115710Y-85161326D01*
X314013582Y-85134128D01*
X313926917Y-85098622D01*
X313854652Y-85053988D01*
X313795724Y-84999404D01*
X313749070Y-84934050D01*
X313713626Y-84857104D01*
X313710545Y-84848414D01*
X313702528Y-84823305D01*
X313696894Y-84799374D01*
X313693256Y-84772676D01*
X313691226Y-84739269D01*
X313690419Y-84695209D01*
X313690416Y-84643322D01*
X313690950Y-84585957D01*
X313692271Y-84542928D01*
X313694771Y-84510433D01*
X313698842Y-84484667D01*
X313704875Y-84461829D01*
X313710869Y-84444475D01*
X313737082Y-84382955D01*
X313767224Y-84332870D01*
X313805624Y-84287518D01*
X313823560Y-84269866D01*
X313887079Y-84220414D01*
X313963751Y-84180088D01*
X314054409Y-84148585D01*
X314159887Y-84125599D01*
X314251558Y-84113530D01*
X314277058Y-84111921D01*
X314319164Y-84110449D01*
X314376349Y-84109115D01*
X314447088Y-84107918D01*
X314529853Y-84106859D01*
X314623118Y-84105938D01*
X314725357Y-84105156D01*
X314835041Y-84104513D01*
X314950646Y-84104010D01*
X315070645Y-84103646D01*
X315193509Y-84103422D01*
X315317715Y-84103339D01*
X315317715Y-83772466D01*
X315309071Y-83772464D01*
X315137467Y-83772458D01*
X314982957Y-83772469D01*
X314844496Y-83772548D01*
X314721034Y-83772742D01*
X314611525Y-83773099D01*
X314514921Y-83773667D01*
X314430174Y-83774496D01*
X314356237Y-83775633D01*
X314292062Y-83777126D01*
X314236601Y-83779025D01*
X314188808Y-83781376D01*
X314147634Y-83784229D01*
X314112032Y-83787631D01*
X314080955Y-83791632D01*
X314053354Y-83796279D01*
X314028182Y-83801620D01*
X314004391Y-83807704D01*
X313980935Y-83814579D01*
X313956765Y-83822294D01*
X313930834Y-83830896D01*
X313913067Y-83836811D01*
X313793367Y-83884087D01*
X313688342Y-83941892D01*
X313597570Y-84010694D01*
X313520627Y-84090964D01*
X313457091Y-84183169D01*
X313406538Y-84287779D01*
X313368546Y-84405263D01*
X313357432Y-84452822D01*
X313350759Y-84499180D01*
X313346850Y-84558546D01*
X313345608Y-84626012D01*
X313346936Y-84696670D01*
X313346936Y-84696670D01*
G37*
X313346936Y-84696670D02*
X313350736Y-84765612D01*
X313356912Y-84827929D01*
X313365365Y-84878714D01*
X313365916Y-84881169D01*
X313400683Y-84998194D01*
X313448945Y-85103488D01*
X313510793Y-85197117D01*
X313586324Y-85279147D01*
X313675629Y-85349644D01*
X313778803Y-85408676D01*
X313895940Y-85456309D01*
X314027134Y-85492608D01*
X314172477Y-85517640D01*
X314280522Y-85528339D01*
X314317016Y-85530184D01*
X314371567Y-85531748D01*
X314444091Y-85533029D01*
X314534506Y-85534027D01*
X314642727Y-85534741D01*
X314768672Y-85535173D01*
X314912256Y-85535319D01*
X315073397Y-85535182D01*
X315252011Y-85534759D01*
X315404321Y-85534227D01*
X315562414Y-85533581D01*
X315703435Y-85532942D01*
X315828459Y-85532290D01*
X315938558Y-85531609D01*
X316034803Y-85530878D01*
X316118269Y-85530079D01*
X316190026Y-85529193D01*
X316251148Y-85528202D01*
X316302707Y-85527086D01*
X316345775Y-85525828D01*
X316381425Y-85524407D01*
X316410730Y-85522806D01*
X316434762Y-85521006D01*
X316454593Y-85518987D01*
X316471296Y-85516732D01*
X316479286Y-85515428D01*
X316601126Y-85490668D01*
X316707799Y-85460705D01*
X316801821Y-85424382D01*
X316885712Y-85380540D01*
X316961990Y-85328021D01*
X317033172Y-85265668D01*
X317042516Y-85256445D01*
X317113160Y-85176611D01*
X317169644Y-85091764D01*
X317212642Y-85000053D01*
X317242824Y-84899626D01*
X317260862Y-84788629D01*
X317267426Y-84665211D01*
X317267394Y-84635862D01*
X317266272Y-84586499D01*
X317264083Y-84537808D01*
X317261163Y-84495969D01*
X317258439Y-84470964D01*
X317236623Y-84371714D01*
X317200898Y-84272716D01*
X317153655Y-84179523D01*
X317098085Y-84098674D01*
X317020834Y-84017189D01*
X316929168Y-83946632D01*
X316823063Y-83886992D01*
X316702496Y-83838257D01*
X316567441Y-83800413D01*
X316488357Y-83784481D01*
X316474379Y-83782611D01*
X316454149Y-83780932D01*
X316426790Y-83779437D01*
X316391424Y-83778115D01*
X316347170Y-83776957D01*
X316293152Y-83775956D01*
X316228490Y-83775101D01*
X316152306Y-83774384D01*
X316063721Y-83773796D01*
X315961857Y-83773328D01*
X315845835Y-83772970D01*
X315714777Y-83772715D01*
X315567804Y-83772553D01*
X315404037Y-83772475D01*
X315317715Y-83772466D01*
X315317715Y-84103339D01*
X315441733Y-84103397D01*
X315564039Y-84103596D01*
X315683105Y-84103936D01*
X315797404Y-84104419D01*
X315905411Y-84105044D01*
X316005598Y-84105811D01*
X316096439Y-84106722D01*
X316176408Y-84107776D01*
X316243977Y-84108973D01*
X316297620Y-84110315D01*
X316335810Y-84111801D01*
X316353592Y-84113031D01*
X316475636Y-84130534D01*
X316582218Y-84157098D01*
X316673776Y-84193051D01*
X316750750Y-84238720D01*
X316813582Y-84294433D01*
X316862709Y-84360518D01*
X316898573Y-84437302D01*
X316921613Y-84525112D01*
X316923763Y-84537821D01*
X316929351Y-84599800D01*
X316928784Y-84669938D01*
X316922586Y-84741229D01*
X316911279Y-84806670D01*
X316900873Y-84844451D01*
X316868185Y-84920711D01*
X316824423Y-84986183D01*
X316768565Y-85041594D01*
X316699590Y-85087671D01*
X316616477Y-85125141D01*
X316518203Y-85154730D01*
X316442242Y-85170712D01*
X316426744Y-85173243D01*
X316409141Y-85175502D01*
X316388316Y-85177509D01*
X316363149Y-85179285D01*
X316332524Y-85180851D01*
X316295323Y-85182228D01*
X316250426Y-85183437D01*
X316196718Y-85184500D01*
X316133078Y-85185437D01*
X316058391Y-85186268D01*
X315971537Y-85187016D01*
X315871399Y-85187701D01*
X315756859Y-85188344D01*
X315626799Y-85188966D01*
X315480100Y-85189589D01*
X315425257Y-85189808D01*
X315248781Y-85190421D01*
X315089445Y-85190782D01*
X314946248Y-85190871D01*
X314818190Y-85190664D01*
X314704269Y-85190141D01*
X314603484Y-85189279D01*
X314514834Y-85188057D01*
X314437319Y-85186453D01*
X314369936Y-85184445D01*
X314311685Y-85182011D01*
X314261565Y-85179130D01*
X314218575Y-85175779D01*
X314181714Y-85171938D01*
X314149980Y-85167584D01*
X314122374Y-85162696D01*
X314115710Y-85161326D01*
X314013582Y-85134128D01*
X313926917Y-85098622D01*
X313854652Y-85053988D01*
X313795724Y-84999404D01*
X313749070Y-84934050D01*
X313713626Y-84857104D01*
X313710545Y-84848414D01*
X313702528Y-84823305D01*
X313696894Y-84799374D01*
X313693256Y-84772676D01*
X313691226Y-84739269D01*
X313690419Y-84695209D01*
X313690416Y-84643322D01*
X313690950Y-84585957D01*
X313692271Y-84542928D01*
X313694771Y-84510433D01*
X313698842Y-84484667D01*
X313704875Y-84461829D01*
X313710869Y-84444475D01*
X313737082Y-84382955D01*
X313767224Y-84332870D01*
X313805624Y-84287518D01*
X313823560Y-84269866D01*
X313887079Y-84220414D01*
X313963751Y-84180088D01*
X314054409Y-84148585D01*
X314159887Y-84125599D01*
X314251558Y-84113530D01*
X314277058Y-84111921D01*
X314319164Y-84110449D01*
X314376349Y-84109115D01*
X314447088Y-84107918D01*
X314529853Y-84106859D01*
X314623118Y-84105938D01*
X314725357Y-84105156D01*
X314835041Y-84104513D01*
X314950646Y-84104010D01*
X315070645Y-84103646D01*
X315193509Y-84103422D01*
X315317715Y-84103339D01*
X315317715Y-83772466D01*
X315309071Y-83772464D01*
X315137467Y-83772458D01*
X314982957Y-83772469D01*
X314844496Y-83772548D01*
X314721034Y-83772742D01*
X314611525Y-83773099D01*
X314514921Y-83773667D01*
X314430174Y-83774496D01*
X314356237Y-83775633D01*
X314292062Y-83777126D01*
X314236601Y-83779025D01*
X314188808Y-83781376D01*
X314147634Y-83784229D01*
X314112032Y-83787631D01*
X314080955Y-83791632D01*
X314053354Y-83796279D01*
X314028182Y-83801620D01*
X314004391Y-83807704D01*
X313980935Y-83814579D01*
X313956765Y-83822294D01*
X313930834Y-83830896D01*
X313913067Y-83836811D01*
X313793367Y-83884087D01*
X313688342Y-83941892D01*
X313597570Y-84010694D01*
X313520627Y-84090964D01*
X313457091Y-84183169D01*
X313406538Y-84287779D01*
X313368546Y-84405263D01*
X313357432Y-84452822D01*
X313350759Y-84499180D01*
X313346850Y-84558546D01*
X313345608Y-84626012D01*
X313346936Y-84696670D01*
D12*
X292000000Y-84750000D03*
X292000000Y-86250000D03*
X292000000Y-87750000D03*
X292000000Y-68250000D03*
X292000000Y-66750000D03*
D13*
X66150000Y-79000000D03*
X67850000Y-79000000D03*
X137600000Y-93750000D03*
X135900000Y-93750000D03*
X100650000Y-86250000D03*
X102350000Y-86250000D03*
D14*
X25500000Y-77500000D03*
X28500000Y-77500000D03*
D15*
X23000000Y-86500000D03*
X23000000Y-83500000D03*
X62500000Y-83500000D03*
X62500000Y-86500000D03*
X23000000Y-91500000D03*
X23000000Y-88500000D03*
X62500000Y-92000000D03*
X62500000Y-89000000D03*
D14*
X33400000Y-83300000D03*
X30400000Y-83300000D03*
X40500000Y-83300000D03*
X43500000Y-83300000D03*
D16*
X227000000Y-92800000D03*
X227000000Y-89200000D03*
D13*
X232350000Y-93500000D03*
X230650000Y-93500000D03*
X235150000Y-92250000D03*
X236850000Y-92250000D03*
X230400000Y-86750000D03*
X232100000Y-86750000D03*
D17*
X230550000Y-81500000D03*
X234950000Y-81500000D03*
D13*
X233900000Y-85250000D03*
X235600000Y-85250000D03*
X255150000Y-93500000D03*
X256850000Y-93500000D03*
D18*
X260500000Y-87400000D03*
X260500000Y-89100000D03*
D16*
X240750000Y-92800000D03*
X240750000Y-89200000D03*
D19*
X20250000Y-76060000D03*
D20*
X24060000Y-72250000D03*
D21*
X16768700Y-70023274D02*
X16111300Y-72476726D01*
D22*
X87000000Y-63755400D03*
X87000000Y-66244600D03*
X87000000Y-59755400D03*
X87000000Y-62244600D03*
X88500000Y-75494600D03*
X88500000Y-73005400D03*
X87000000Y-73005400D03*
X87000000Y-75494600D03*
D23*
X108244600Y-61000000D03*
X105755400Y-61000000D03*
X108244600Y-73750000D03*
X105755400Y-73750000D03*
X126244600Y-61000000D03*
X123755400Y-61000000D03*
X126244600Y-73750000D03*
X123755400Y-73750000D03*
X144244600Y-60750000D03*
X141755400Y-60750000D03*
X144244600Y-73750000D03*
X141755400Y-73750000D03*
X162244600Y-60750000D03*
X159755400Y-60750000D03*
X162244600Y-73750000D03*
X159755400Y-73750000D03*
X180244600Y-60750000D03*
X177755400Y-60750000D03*
X180244600Y-73750000D03*
X177755400Y-73750000D03*
X198244600Y-60750000D03*
X195755400Y-60750000D03*
X198244600Y-73750000D03*
X195755400Y-73750000D03*
D24*
X18300000Y-80040000D03*
X22699280Y-80040000D03*
D22*
X250200000Y-68755400D03*
X250200000Y-71244600D03*
X251750000Y-66255400D03*
X251750000Y-68744600D03*
X255000000Y-88494600D03*
X255000000Y-86005400D03*
X253500000Y-86005400D03*
X253500000Y-88494600D03*
D25*
X122290000Y-91770000D03*
D26*
X122290000Y-88730000D03*
X119750000Y-91770000D03*
X119750000Y-88730000D03*
X117210000Y-91770000D03*
X117210000Y-88730000D03*
D27*
X79000000Y-81700000D03*
D28*
X79000000Y-72300000D03*
D29*
X74100000Y-77000000D03*
X82300000Y-77000000D03*
D27*
X79000000Y-68700000D03*
D28*
X79000000Y-59300000D03*
D29*
X74100000Y-64000000D03*
X82300000Y-64000000D03*
D27*
X97000000Y-68700000D03*
D28*
X97000000Y-59300000D03*
D29*
X92100000Y-64000000D03*
X100300000Y-64000000D03*
D27*
X97000000Y-81700000D03*
D28*
X97000000Y-72300000D03*
D29*
X92100000Y-77000000D03*
X100300000Y-77000000D03*
D27*
X115000000Y-68700000D03*
D28*
X115000000Y-59300000D03*
D29*
X110100000Y-64000000D03*
X118300000Y-64000000D03*
D27*
X115000000Y-81700000D03*
D28*
X115000000Y-72300000D03*
D29*
X110100000Y-77000000D03*
X118300000Y-77000000D03*
D27*
X133000000Y-68700000D03*
D28*
X133000000Y-59300000D03*
D29*
X128100000Y-64000000D03*
X136300000Y-64000000D03*
D27*
X133000000Y-81700000D03*
D28*
X133000000Y-72300000D03*
D29*
X128100000Y-77000000D03*
X136300000Y-77000000D03*
D27*
X151000000Y-68700000D03*
D28*
X151000000Y-59300000D03*
D29*
X146100000Y-64000000D03*
X154300000Y-64000000D03*
D27*
X151000000Y-81700000D03*
D28*
X151000000Y-72300000D03*
D29*
X146100000Y-77000000D03*
X154300000Y-77000000D03*
D27*
X169000000Y-68700000D03*
D28*
X169000000Y-59300000D03*
D29*
X164100000Y-64000000D03*
X172300000Y-64000000D03*
D27*
X169000000Y-81700000D03*
D28*
X169000000Y-72300000D03*
D29*
X164100000Y-77000000D03*
X172300000Y-77000000D03*
D27*
X187000000Y-68700000D03*
D28*
X187000000Y-59300000D03*
D29*
X182100000Y-64000000D03*
X190300000Y-64000000D03*
D27*
X187000000Y-81700000D03*
D28*
X187000000Y-72300000D03*
D29*
X182100000Y-77000000D03*
X190300000Y-77000000D03*
D27*
X205000000Y-68700000D03*
D28*
X205000000Y-59300000D03*
D29*
X200100000Y-64000000D03*
X208300000Y-64000000D03*
D27*
X205000000Y-81700000D03*
D28*
X205000000Y-72300000D03*
D29*
X200100000Y-77000000D03*
X208300000Y-77000000D03*
D27*
X223000000Y-68700000D03*
D28*
X223000000Y-59300000D03*
D29*
X218100000Y-64000000D03*
X226300000Y-64000000D03*
D27*
X223000000Y-81700000D03*
D28*
X223000000Y-72300000D03*
D29*
X218100000Y-77000000D03*
X226300000Y-77000000D03*
D27*
X241000000Y-68700000D03*
D28*
X241000000Y-59300000D03*
D29*
X236100000Y-64000000D03*
X244300000Y-64000000D03*
D27*
X241000000Y-81700000D03*
D28*
X241000000Y-72300000D03*
D29*
X236100000Y-77000000D03*
X244300000Y-77000000D03*
D27*
X259000000Y-81700000D03*
D28*
X259000000Y-72300000D03*
D29*
X254100000Y-77000000D03*
X262300000Y-77000000D03*
D27*
X259000000Y-68700000D03*
D28*
X259000000Y-59300000D03*
D29*
X254100000Y-64000000D03*
X262300000Y-64000000D03*
D30*
X25500000Y-79920500D03*
X25500000Y-82079500D03*
D31*
X56920500Y-81400000D03*
X59079500Y-81400000D03*
D30*
X25500000Y-91479500D03*
X25500000Y-89320500D03*
X50500000Y-88920500D03*
X50500000Y-91079500D03*
D25*
X90540000Y-91770000D03*
D26*
X90540000Y-88730000D03*
X88000000Y-91770000D03*
X88000000Y-88730000D03*
X85460000Y-91770000D03*
X85460000Y-88730000D03*
D32*
X14500000Y-77000000D03*
D33*
X14500000Y-80040000D03*
D26*
X33420000Y-91520000D03*
X33420000Y-88480000D03*
X35960000Y-88480000D03*
X35960000Y-91520000D03*
D25*
X43580000Y-91520000D03*
D26*
X43580000Y-88480000D03*
X41040000Y-91520000D03*
X41040000Y-88480000D03*
X38500000Y-91520000D03*
X38500000Y-88480000D03*
D34*
X283500000Y-88500000D03*
D35*
X280960000Y-88500000D03*
X278420000Y-88500000D03*
D36*
X106750000Y-68270000D03*
X107702500Y-65730000D03*
X105797500Y-65730000D03*
X106750000Y-81020000D03*
X107702500Y-78480000D03*
X105797500Y-78480000D03*
X124750000Y-68270000D03*
X125702500Y-65730000D03*
X123797500Y-65730000D03*
X124750000Y-81020000D03*
X125702500Y-78480000D03*
X123797500Y-78480000D03*
X142750000Y-68020000D03*
X143702500Y-65480000D03*
X141797500Y-65480000D03*
X142750000Y-81020000D03*
X143702500Y-78480000D03*
X141797500Y-78480000D03*
X160750000Y-68270000D03*
X161702500Y-65730000D03*
X159797500Y-65730000D03*
X160750000Y-81020000D03*
X161702500Y-78480000D03*
X159797500Y-78480000D03*
X178750000Y-68020000D03*
X179702500Y-65480000D03*
X177797500Y-65480000D03*
X178750000Y-81020000D03*
X179702500Y-78480000D03*
X177797500Y-78480000D03*
X196750000Y-68020000D03*
X197702500Y-65480000D03*
X195797500Y-65480000D03*
X196750000Y-81020000D03*
X197702500Y-78480000D03*
X195797500Y-78480000D03*
D13*
X253250000Y-90300000D03*
X253250000Y-92200000D03*
X251250000Y-91250000D03*
D18*
X250200000Y-88250000D03*
X248300000Y-88250000D03*
X249250000Y-86250000D03*
D13*
X76650000Y-92000000D03*
X78350000Y-92000000D03*
X67850000Y-80500000D03*
X66150000Y-80500000D03*
D18*
X48000000Y-73350000D03*
X48000000Y-71650000D03*
X88500000Y-63650000D03*
X88500000Y-65350000D03*
X88500000Y-76900000D03*
X88500000Y-78600000D03*
D13*
X107600000Y-64000000D03*
X105900000Y-64000000D03*
X107600000Y-76750000D03*
X105900000Y-76750000D03*
X125600000Y-64000000D03*
X123900000Y-64000000D03*
X125600000Y-76750000D03*
X123900000Y-76750000D03*
X105900000Y-62500000D03*
X107600000Y-62500000D03*
X105900000Y-75250000D03*
X107600000Y-75250000D03*
X123900000Y-62500000D03*
X125600000Y-62500000D03*
X123900000Y-75250000D03*
X125600000Y-75250000D03*
D18*
X104250000Y-66650000D03*
X104250000Y-68350000D03*
X104250000Y-79400000D03*
X104250000Y-81100000D03*
X122250000Y-66650000D03*
X122250000Y-68350000D03*
X122250000Y-79400000D03*
X122250000Y-81100000D03*
D13*
X143600000Y-63750000D03*
X141900000Y-63750000D03*
X143600000Y-76750000D03*
X141900000Y-76750000D03*
X161600000Y-63750000D03*
X159900000Y-63750000D03*
X161600000Y-76750000D03*
X159900000Y-76750000D03*
X141900000Y-62250000D03*
X143600000Y-62250000D03*
X141900000Y-75250000D03*
X143600000Y-75250000D03*
X159900000Y-62250000D03*
X161600000Y-62250000D03*
X159900000Y-75250000D03*
X161600000Y-75250000D03*
D18*
X140250000Y-66650000D03*
X140250000Y-68350000D03*
X140250000Y-79400000D03*
X140250000Y-81100000D03*
X158250000Y-66650000D03*
X158250000Y-68350000D03*
X158250000Y-79400000D03*
X158250000Y-81100000D03*
D13*
X179600000Y-63750000D03*
X177900000Y-63750000D03*
X179600000Y-76750000D03*
X177900000Y-76750000D03*
X197600000Y-63750000D03*
X195900000Y-63750000D03*
X197600000Y-76750000D03*
X195900000Y-76750000D03*
X177900000Y-62250000D03*
X179600000Y-62250000D03*
X177900000Y-75250000D03*
X179600000Y-75250000D03*
X195900000Y-62250000D03*
X197600000Y-62250000D03*
X195900000Y-75250000D03*
X197600000Y-75250000D03*
D18*
X176250000Y-66650000D03*
X176250000Y-68350000D03*
X176250000Y-79400000D03*
X176250000Y-81100000D03*
X194250000Y-66650000D03*
X194250000Y-68350000D03*
X194250000Y-79400000D03*
X194250000Y-81100000D03*
D13*
X221900000Y-88000000D03*
X223600000Y-88000000D03*
X221900000Y-89250000D03*
X223600000Y-89250000D03*
X223650000Y-86000000D03*
X225350000Y-86000000D03*
X228600000Y-86000000D03*
X226900000Y-86000000D03*
X230650000Y-92250000D03*
X232350000Y-92250000D03*
X238850000Y-86750000D03*
X237150000Y-86750000D03*
X235600000Y-86750000D03*
X233900000Y-86750000D03*
X230400000Y-85250000D03*
X232100000Y-85250000D03*
D18*
X251750000Y-71850000D03*
X251750000Y-70150000D03*
X251750000Y-75100000D03*
X251750000Y-73400000D03*
X254000000Y-66900000D03*
X254000000Y-68600000D03*
X275600000Y-91450000D03*
X275600000Y-93150000D03*
X255000000Y-91850000D03*
X255000000Y-90150000D03*
X252000000Y-86650000D03*
X252000000Y-88350000D03*
X275500000Y-89100000D03*
X275500000Y-87400000D03*
D37*
X249250000Y-93200000D03*
X249250000Y-91300000D03*
D38*
X249300000Y-84250000D03*
X251200000Y-84250000D03*
X253300000Y-84250000D03*
X255200000Y-84250000D03*
X253300000Y-82250000D03*
X255200000Y-82250000D03*
D39*
X213750000Y-84000000D03*
X66250000Y-92000000D03*
D40*
X106450000Y-87725000D03*
X106450000Y-88375000D03*
X106450000Y-89025000D03*
X106450000Y-89675000D03*
X106450000Y-90325000D03*
X106450000Y-90975000D03*
X106450000Y-91625000D03*
X106450000Y-92275000D03*
X100550000Y-92275000D03*
X100550000Y-91625000D03*
X100550000Y-90975000D03*
X100550000Y-90325000D03*
X100550000Y-89675000D03*
X100550000Y-89025000D03*
X100550000Y-88375000D03*
X100550000Y-87725000D03*
X131550000Y-92275000D03*
X131550000Y-91625000D03*
X131550000Y-90975000D03*
X131550000Y-90325000D03*
X131550000Y-89675000D03*
X131550000Y-89025000D03*
X131550000Y-88375000D03*
X131550000Y-87725000D03*
X137450000Y-87725000D03*
X137450000Y-88375000D03*
X137450000Y-89025000D03*
X137450000Y-89675000D03*
X137450000Y-90325000D03*
X137450000Y-90975000D03*
X137450000Y-91625000D03*
X137450000Y-92275000D03*
D41*
X230850000Y-90475000D03*
X230850000Y-89825000D03*
X230850000Y-89175000D03*
X230850000Y-88525000D03*
X235150000Y-88525000D03*
X235150000Y-89175000D03*
X235150000Y-89825000D03*
X235150000Y-90475000D03*
D42*
X256775000Y-87350000D03*
X257425000Y-87350000D03*
X258075000Y-87350000D03*
X258725000Y-87350000D03*
X258725000Y-91650000D03*
X258075000Y-91650000D03*
X257425000Y-91650000D03*
X256775000Y-91650000D03*
D43*
X33500000Y-72250000D03*
X44500000Y-72250000D03*
X39000000Y-77750000D03*
D44*
X39000000Y-67750000D03*
D43*
X35110000Y-76140000D03*
X42890000Y-76140000D03*
D45*
X39000000Y-67750000D03*
D46*
X34900000Y-72250000D03*
X43100000Y-72250000D03*
D47*
X39000000Y-76350000D03*
D48*
X34968629Y-76281371D02*
X37231371Y-74018629D01*
X40768629Y-74018629D02*
X43031371Y-76281371D01*
D43*
X55500000Y-72250000D03*
X66500000Y-72250000D03*
X61000000Y-77750000D03*
D44*
X61000000Y-67750000D03*
D43*
X57110000Y-76140000D03*
X64890000Y-76140000D03*
D45*
X61000000Y-67750000D03*
D46*
X56900000Y-72250000D03*
X65100000Y-72250000D03*
D47*
X61000000Y-76350000D03*
D48*
X56968629Y-76281371D02*
X59231371Y-74018629D01*
X62768629Y-74018629D02*
X65031371Y-76281371D01*
D49*
X59080000Y-86460000D03*
D50*
X59080000Y-89000000D03*
X59080000Y-91540000D03*
D49*
X19580000Y-86460000D03*
D50*
X19580000Y-89000000D03*
X19580000Y-91540000D03*
D51*
X321750000Y-59250000D03*
D52*
X317250000Y-62750000D03*
X326750000Y-67550000D03*
D34*
X274250000Y-65500000D03*
D35*
X271710000Y-65500000D03*
X269170000Y-65500000D03*
X266630000Y-65500000D03*
D34*
X306000000Y-89250000D03*
D35*
X303460000Y-89250000D03*
X300920000Y-89250000D03*
X298380000Y-89250000D03*
D34*
X264750000Y-88500000D03*
D35*
X267290000Y-88500000D03*
X269830000Y-88500000D03*
D34*
X319250000Y-89250000D03*
D35*
X321790000Y-89250000D03*
X324330000Y-89250000D03*
D38*
X268300000Y-62000000D03*
X270200000Y-62000000D03*
D53*
X302000000Y-75500000D03*
D54*
X297250200Y-62800000D03*
X297250200Y-70420000D03*
X297250200Y-80580000D03*
X307156200Y-70420000D03*
X307156200Y-80580000D03*
D12*
X292000000Y-65250000D03*
D34*
X144500000Y-86500000D03*
D35*
X147040000Y-86500000D03*
X149580000Y-86500000D03*
D55*
X152230000Y-86500000D03*
X154770000Y-87452500D03*
X154770000Y-85547500D03*
D13*
X158400000Y-83750000D03*
X160100000Y-83750000D03*
X160100000Y-85500000D03*
X158400000Y-85500000D03*
D18*
X156750000Y-85650000D03*
X156750000Y-87350000D03*
D13*
X156850000Y-83750000D03*
X155150000Y-83750000D03*
M02*
