G04 #@! TF.FileFunction,Soldermask,Top*
%FSLAX46Y46*%
G04 Gerber Fmt 4.6, Leading zero omitted, Abs format (unit mm)*
G04 Created by KiCad (PCBNEW 4.0.2-stable) date 2020-02-08 1:43:22 PM*
%MOMM*%
G01*
G04 APERTURE LIST*
%ADD10C,0.200000*%
%ADD11C,0.010000*%
%ADD12C,1.100000*%
%ADD13R,1.750000X4.600000*%
%ADD14R,1.800000X1.800000*%
%ADD15O,1.800000X1.800000*%
%ADD16R,2.100000X2.850000*%
%ADD17O,2.100000X2.850000*%
%ADD18C,6.450000*%
%ADD19C,3.275000*%
%ADD20C,3.351200*%
%ADD21C,4.545000*%
%ADD22O,3.600000X1.800000*%
%ADD23O,1.800000X3.600000*%
G04 APERTURE END LIST*
D10*
D11*
G36*
X319452801Y-79552528D02*
X319437957Y-79662340D01*
X319411940Y-79765105D01*
X319374695Y-79857269D01*
X319374065Y-79858524D01*
X319319400Y-79949825D01*
X319252872Y-80029712D01*
X319173996Y-80098430D01*
X319082290Y-80156225D01*
X318977270Y-80203343D01*
X318858453Y-80240032D01*
X318725354Y-80266536D01*
X318577491Y-80283102D01*
X318534716Y-80285918D01*
X318433071Y-80289195D01*
X318325885Y-80288210D01*
X318219123Y-80283231D01*
X318118748Y-80274528D01*
X318036899Y-80263419D01*
X317972667Y-80250257D01*
X317902924Y-80231843D01*
X317833307Y-80209973D01*
X317769451Y-80186442D01*
X317716990Y-80163044D01*
X317709498Y-80159148D01*
X317671357Y-80136707D01*
X317629331Y-80108698D01*
X317587869Y-80078428D01*
X317551416Y-80049201D01*
X317524417Y-80024324D01*
X317517060Y-80016083D01*
X317497353Y-79991679D01*
X317455587Y-80031319D01*
X317366465Y-80103481D01*
X317263474Y-80163961D01*
X317146639Y-80212750D01*
X317015982Y-80249837D01*
X316942861Y-80264447D01*
X316857687Y-80275997D01*
X316759829Y-80283805D01*
X316654215Y-80287870D01*
X316545773Y-80288193D01*
X316439431Y-80284774D01*
X316340116Y-80277613D01*
X316252756Y-80266711D01*
X316238949Y-80264399D01*
X316104175Y-80233958D01*
X315983652Y-80192321D01*
X315877313Y-80139433D01*
X315785089Y-80075238D01*
X315706913Y-79999682D01*
X315642718Y-79912709D01*
X315592434Y-79814264D01*
X315557594Y-79710464D01*
X315548091Y-79661932D01*
X315540889Y-79600275D01*
X315536119Y-79530382D01*
X315533916Y-79457140D01*
X315534413Y-79385438D01*
X315537742Y-79320165D01*
X315544036Y-79266208D01*
X315545305Y-79259070D01*
X315574109Y-79144854D01*
X315615406Y-79042477D01*
X315669559Y-78951646D01*
X315736927Y-78872074D01*
X315817873Y-78803468D01*
X315912759Y-78745539D01*
X316021945Y-78697997D01*
X316145794Y-78660552D01*
X316284667Y-78632913D01*
X316334321Y-78625834D01*
X316381428Y-78621405D01*
X316442092Y-78618203D01*
X316511909Y-78616229D01*
X316529662Y-78616052D01*
X316529662Y-78962994D01*
X316455632Y-78964663D01*
X316390224Y-78968255D01*
X316337254Y-78973859D01*
X316334321Y-78974297D01*
X316224455Y-78996218D01*
X316130512Y-79026362D01*
X316051956Y-79065321D01*
X315988250Y-79113685D01*
X315938858Y-79172048D01*
X315903243Y-79240999D01*
X315880869Y-79321131D01*
X315871200Y-79413035D01*
X315871691Y-79484406D01*
X315876249Y-79540397D01*
X315884164Y-79593325D01*
X315893851Y-79634085D01*
X315921889Y-79704481D01*
X315959734Y-79763284D01*
X316009088Y-79811995D01*
X316071654Y-79852115D01*
X316149134Y-79885145D01*
X316195326Y-79899855D01*
X316256812Y-79915384D01*
X316321927Y-79926978D01*
X316394062Y-79934992D01*
X316476606Y-79939778D01*
X316572952Y-79941690D01*
X316597631Y-79941760D01*
X316731444Y-79938698D01*
X316849074Y-79929185D01*
X316951450Y-79912799D01*
X317039498Y-79889119D01*
X317114149Y-79857722D01*
X317176331Y-79818186D01*
X317226971Y-79770090D01*
X317266999Y-79713012D01*
X317297343Y-79646530D01*
X317306216Y-79619750D01*
X317316697Y-79569437D01*
X317322438Y-79507598D01*
X317323499Y-79440205D01*
X317319939Y-79373229D01*
X317311819Y-79312640D01*
X317302751Y-79274915D01*
X317272231Y-79201770D01*
X317228808Y-79139131D01*
X317171736Y-79086409D01*
X317100274Y-79043015D01*
X317013676Y-79008360D01*
X316941146Y-78988396D01*
X316895541Y-78980389D01*
X316835656Y-78973774D01*
X316765310Y-78968638D01*
X316688317Y-78965070D01*
X316608495Y-78963159D01*
X316529662Y-78962994D01*
X316529662Y-78616052D01*
X316586471Y-78615484D01*
X316661370Y-78615969D01*
X316732202Y-78617685D01*
X316794558Y-78620632D01*
X316844032Y-78624813D01*
X316851393Y-78625718D01*
X316995438Y-78650250D01*
X317124138Y-78684094D01*
X317237793Y-78727373D01*
X317336699Y-78780209D01*
X317421156Y-78842724D01*
X317452286Y-78871790D01*
X317490750Y-78910293D01*
X317533928Y-78869972D01*
X317612239Y-78805646D01*
X317699221Y-78751375D01*
X317796286Y-78706665D01*
X317904842Y-78671021D01*
X318026299Y-78643952D01*
X318162068Y-78624962D01*
X318257001Y-78616829D01*
X318335077Y-78613970D01*
X318335077Y-78962486D01*
X318262684Y-78963701D01*
X318199037Y-78966821D01*
X318155718Y-78970926D01*
X318052061Y-78988539D01*
X317959649Y-79013592D01*
X317880403Y-79045426D01*
X317816243Y-79083383D01*
X317806897Y-79090458D01*
X317764319Y-79133743D01*
X317727064Y-79190749D01*
X317697224Y-79257347D01*
X317676887Y-79329406D01*
X317672182Y-79356679D01*
X317667965Y-79410740D01*
X317668350Y-79473929D01*
X317672914Y-79538502D01*
X317681237Y-79596715D01*
X317686519Y-79620417D01*
X317712161Y-79693147D01*
X317748923Y-79754544D01*
X317798135Y-79805824D01*
X317861126Y-79848207D01*
X317939225Y-79882911D01*
X317991604Y-79899894D01*
X318053081Y-79915415D01*
X318118224Y-79927003D01*
X318190420Y-79935010D01*
X318273051Y-79939789D01*
X318369504Y-79941692D01*
X318393774Y-79941760D01*
X318487483Y-79940721D01*
X318567015Y-79937326D01*
X318636225Y-79931208D01*
X318698968Y-79922002D01*
X318759101Y-79909340D01*
X318774275Y-79905567D01*
X318865526Y-79876062D01*
X318941473Y-79837679D01*
X319002759Y-79789568D01*
X319050025Y-79730878D01*
X319083913Y-79660758D01*
X319105066Y-79578359D01*
X319114124Y-79482828D01*
X319114580Y-79454643D01*
X319112562Y-79382977D01*
X319105588Y-79323536D01*
X319092623Y-79270833D01*
X319072636Y-79219380D01*
X319068637Y-79210727D01*
X319029391Y-79148545D01*
X318974371Y-79094397D01*
X318904300Y-79048771D01*
X318819902Y-79012152D01*
X318738250Y-78988660D01*
X318693950Y-78980898D01*
X318635376Y-78974340D01*
X318566366Y-78969103D01*
X318490754Y-78965304D01*
X318412379Y-78963059D01*
X318335077Y-78962486D01*
X318335077Y-78613970D01*
X318374915Y-78612510D01*
X318495435Y-78614833D01*
X318614618Y-78623398D01*
X318728519Y-78637804D01*
X318833193Y-78657650D01*
X318924696Y-78682536D01*
X318933840Y-78685582D01*
X319003741Y-78712708D01*
X319073527Y-78745776D01*
X319136486Y-78781417D01*
X319170519Y-78804332D01*
X319217764Y-78844155D01*
X319266653Y-78894108D01*
X319312179Y-78948474D01*
X319349335Y-79001535D01*
X319361307Y-79022182D01*
X319401520Y-79113908D01*
X319430830Y-79216360D01*
X319449183Y-79325983D01*
X319456524Y-79439224D01*
X319452801Y-79552528D01*
X319452801Y-79552528D01*
G37*
X319452801Y-79552528D02*
X319437957Y-79662340D01*
X319411940Y-79765105D01*
X319374695Y-79857269D01*
X319374065Y-79858524D01*
X319319400Y-79949825D01*
X319252872Y-80029712D01*
X319173996Y-80098430D01*
X319082290Y-80156225D01*
X318977270Y-80203343D01*
X318858453Y-80240032D01*
X318725354Y-80266536D01*
X318577491Y-80283102D01*
X318534716Y-80285918D01*
X318433071Y-80289195D01*
X318325885Y-80288210D01*
X318219123Y-80283231D01*
X318118748Y-80274528D01*
X318036899Y-80263419D01*
X317972667Y-80250257D01*
X317902924Y-80231843D01*
X317833307Y-80209973D01*
X317769451Y-80186442D01*
X317716990Y-80163044D01*
X317709498Y-80159148D01*
X317671357Y-80136707D01*
X317629331Y-80108698D01*
X317587869Y-80078428D01*
X317551416Y-80049201D01*
X317524417Y-80024324D01*
X317517060Y-80016083D01*
X317497353Y-79991679D01*
X317455587Y-80031319D01*
X317366465Y-80103481D01*
X317263474Y-80163961D01*
X317146639Y-80212750D01*
X317015982Y-80249837D01*
X316942861Y-80264447D01*
X316857687Y-80275997D01*
X316759829Y-80283805D01*
X316654215Y-80287870D01*
X316545773Y-80288193D01*
X316439431Y-80284774D01*
X316340116Y-80277613D01*
X316252756Y-80266711D01*
X316238949Y-80264399D01*
X316104175Y-80233958D01*
X315983652Y-80192321D01*
X315877313Y-80139433D01*
X315785089Y-80075238D01*
X315706913Y-79999682D01*
X315642718Y-79912709D01*
X315592434Y-79814264D01*
X315557594Y-79710464D01*
X315548091Y-79661932D01*
X315540889Y-79600275D01*
X315536119Y-79530382D01*
X315533916Y-79457140D01*
X315534413Y-79385438D01*
X315537742Y-79320165D01*
X315544036Y-79266208D01*
X315545305Y-79259070D01*
X315574109Y-79144854D01*
X315615406Y-79042477D01*
X315669559Y-78951646D01*
X315736927Y-78872074D01*
X315817873Y-78803468D01*
X315912759Y-78745539D01*
X316021945Y-78697997D01*
X316145794Y-78660552D01*
X316284667Y-78632913D01*
X316334321Y-78625834D01*
X316381428Y-78621405D01*
X316442092Y-78618203D01*
X316511909Y-78616229D01*
X316529662Y-78616052D01*
X316529662Y-78962994D01*
X316455632Y-78964663D01*
X316390224Y-78968255D01*
X316337254Y-78973859D01*
X316334321Y-78974297D01*
X316224455Y-78996218D01*
X316130512Y-79026362D01*
X316051956Y-79065321D01*
X315988250Y-79113685D01*
X315938858Y-79172048D01*
X315903243Y-79240999D01*
X315880869Y-79321131D01*
X315871200Y-79413035D01*
X315871691Y-79484406D01*
X315876249Y-79540397D01*
X315884164Y-79593325D01*
X315893851Y-79634085D01*
X315921889Y-79704481D01*
X315959734Y-79763284D01*
X316009088Y-79811995D01*
X316071654Y-79852115D01*
X316149134Y-79885145D01*
X316195326Y-79899855D01*
X316256812Y-79915384D01*
X316321927Y-79926978D01*
X316394062Y-79934992D01*
X316476606Y-79939778D01*
X316572952Y-79941690D01*
X316597631Y-79941760D01*
X316731444Y-79938698D01*
X316849074Y-79929185D01*
X316951450Y-79912799D01*
X317039498Y-79889119D01*
X317114149Y-79857722D01*
X317176331Y-79818186D01*
X317226971Y-79770090D01*
X317266999Y-79713012D01*
X317297343Y-79646530D01*
X317306216Y-79619750D01*
X317316697Y-79569437D01*
X317322438Y-79507598D01*
X317323499Y-79440205D01*
X317319939Y-79373229D01*
X317311819Y-79312640D01*
X317302751Y-79274915D01*
X317272231Y-79201770D01*
X317228808Y-79139131D01*
X317171736Y-79086409D01*
X317100274Y-79043015D01*
X317013676Y-79008360D01*
X316941146Y-78988396D01*
X316895541Y-78980389D01*
X316835656Y-78973774D01*
X316765310Y-78968638D01*
X316688317Y-78965070D01*
X316608495Y-78963159D01*
X316529662Y-78962994D01*
X316529662Y-78616052D01*
X316586471Y-78615484D01*
X316661370Y-78615969D01*
X316732202Y-78617685D01*
X316794558Y-78620632D01*
X316844032Y-78624813D01*
X316851393Y-78625718D01*
X316995438Y-78650250D01*
X317124138Y-78684094D01*
X317237793Y-78727373D01*
X317336699Y-78780209D01*
X317421156Y-78842724D01*
X317452286Y-78871790D01*
X317490750Y-78910293D01*
X317533928Y-78869972D01*
X317612239Y-78805646D01*
X317699221Y-78751375D01*
X317796286Y-78706665D01*
X317904842Y-78671021D01*
X318026299Y-78643952D01*
X318162068Y-78624962D01*
X318257001Y-78616829D01*
X318335077Y-78613970D01*
X318335077Y-78962486D01*
X318262684Y-78963701D01*
X318199037Y-78966821D01*
X318155718Y-78970926D01*
X318052061Y-78988539D01*
X317959649Y-79013592D01*
X317880403Y-79045426D01*
X317816243Y-79083383D01*
X317806897Y-79090458D01*
X317764319Y-79133743D01*
X317727064Y-79190749D01*
X317697224Y-79257347D01*
X317676887Y-79329406D01*
X317672182Y-79356679D01*
X317667965Y-79410740D01*
X317668350Y-79473929D01*
X317672914Y-79538502D01*
X317681237Y-79596715D01*
X317686519Y-79620417D01*
X317712161Y-79693147D01*
X317748923Y-79754544D01*
X317798135Y-79805824D01*
X317861126Y-79848207D01*
X317939225Y-79882911D01*
X317991604Y-79899894D01*
X318053081Y-79915415D01*
X318118224Y-79927003D01*
X318190420Y-79935010D01*
X318273051Y-79939789D01*
X318369504Y-79941692D01*
X318393774Y-79941760D01*
X318487483Y-79940721D01*
X318567015Y-79937326D01*
X318636225Y-79931208D01*
X318698968Y-79922002D01*
X318759101Y-79909340D01*
X318774275Y-79905567D01*
X318865526Y-79876062D01*
X318941473Y-79837679D01*
X319002759Y-79789568D01*
X319050025Y-79730878D01*
X319083913Y-79660758D01*
X319105066Y-79578359D01*
X319114124Y-79482828D01*
X319114580Y-79454643D01*
X319112562Y-79382977D01*
X319105588Y-79323536D01*
X319092623Y-79270833D01*
X319072636Y-79219380D01*
X319068637Y-79210727D01*
X319029391Y-79148545D01*
X318974371Y-79094397D01*
X318904300Y-79048771D01*
X318819902Y-79012152D01*
X318738250Y-78988660D01*
X318693950Y-78980898D01*
X318635376Y-78974340D01*
X318566366Y-78969103D01*
X318490754Y-78965304D01*
X318412379Y-78963059D01*
X318335077Y-78962486D01*
X318335077Y-78613970D01*
X318374915Y-78612510D01*
X318495435Y-78614833D01*
X318614618Y-78623398D01*
X318728519Y-78637804D01*
X318833193Y-78657650D01*
X318924696Y-78682536D01*
X318933840Y-78685582D01*
X319003741Y-78712708D01*
X319073527Y-78745776D01*
X319136486Y-78781417D01*
X319170519Y-78804332D01*
X319217764Y-78844155D01*
X319266653Y-78894108D01*
X319312179Y-78948474D01*
X319349335Y-79001535D01*
X319361307Y-79022182D01*
X319401520Y-79113908D01*
X319430830Y-79216360D01*
X319449183Y-79325983D01*
X319456524Y-79439224D01*
X319452801Y-79552528D01*
G36*
X319453064Y-81396670D02*
X319449264Y-81465612D01*
X319443088Y-81527929D01*
X319434635Y-81578714D01*
X319434084Y-81581169D01*
X319399317Y-81698194D01*
X319351055Y-81803488D01*
X319289207Y-81897117D01*
X319213676Y-81979147D01*
X319124371Y-82049644D01*
X319021197Y-82108676D01*
X318904060Y-82156309D01*
X318772866Y-82192608D01*
X318627523Y-82217640D01*
X318519478Y-82228339D01*
X318482984Y-82230184D01*
X318428433Y-82231748D01*
X318355909Y-82233029D01*
X318265494Y-82234027D01*
X318157273Y-82234741D01*
X318031328Y-82235173D01*
X317887744Y-82235319D01*
X317726603Y-82235182D01*
X317547989Y-82234759D01*
X317395679Y-82234227D01*
X317237586Y-82233581D01*
X317096565Y-82232942D01*
X316971541Y-82232290D01*
X316861442Y-82231609D01*
X316765197Y-82230878D01*
X316681731Y-82230079D01*
X316609974Y-82229193D01*
X316548852Y-82228202D01*
X316497293Y-82227086D01*
X316454225Y-82225828D01*
X316418575Y-82224407D01*
X316389270Y-82222806D01*
X316365238Y-82221006D01*
X316345407Y-82218987D01*
X316328704Y-82216732D01*
X316320714Y-82215428D01*
X316198874Y-82190668D01*
X316092201Y-82160705D01*
X315998179Y-82124382D01*
X315914288Y-82080540D01*
X315838010Y-82028021D01*
X315766828Y-81965668D01*
X315757484Y-81956445D01*
X315686840Y-81876611D01*
X315630356Y-81791764D01*
X315587358Y-81700053D01*
X315557176Y-81599626D01*
X315539138Y-81488629D01*
X315532574Y-81365211D01*
X315532606Y-81335862D01*
X315533728Y-81286499D01*
X315535917Y-81237808D01*
X315538837Y-81195969D01*
X315541561Y-81170964D01*
X315563377Y-81071714D01*
X315599102Y-80972716D01*
X315646345Y-80879523D01*
X315701915Y-80798674D01*
X315779166Y-80717189D01*
X315870832Y-80646632D01*
X315976937Y-80586992D01*
X316097504Y-80538257D01*
X316232559Y-80500413D01*
X316311643Y-80484481D01*
X316325621Y-80482611D01*
X316345851Y-80480932D01*
X316373210Y-80479437D01*
X316408576Y-80478115D01*
X316452830Y-80476957D01*
X316506848Y-80475956D01*
X316571510Y-80475101D01*
X316647694Y-80474384D01*
X316736279Y-80473796D01*
X316838143Y-80473328D01*
X316954165Y-80472970D01*
X317085223Y-80472715D01*
X317232196Y-80472553D01*
X317395963Y-80472475D01*
X317482285Y-80472466D01*
X317482285Y-80803339D01*
X317358267Y-80803397D01*
X317235961Y-80803596D01*
X317116895Y-80803936D01*
X317002596Y-80804419D01*
X316894589Y-80805044D01*
X316794402Y-80805811D01*
X316703561Y-80806722D01*
X316623592Y-80807776D01*
X316556023Y-80808973D01*
X316502380Y-80810315D01*
X316464190Y-80811801D01*
X316446408Y-80813031D01*
X316324364Y-80830534D01*
X316217782Y-80857098D01*
X316126224Y-80893051D01*
X316049250Y-80938720D01*
X315986418Y-80994433D01*
X315937291Y-81060518D01*
X315901427Y-81137302D01*
X315878387Y-81225112D01*
X315876237Y-81237821D01*
X315870649Y-81299800D01*
X315871216Y-81369938D01*
X315877414Y-81441229D01*
X315888721Y-81506670D01*
X315899127Y-81544451D01*
X315931815Y-81620711D01*
X315975577Y-81686183D01*
X316031435Y-81741594D01*
X316100410Y-81787671D01*
X316183523Y-81825141D01*
X316281797Y-81854730D01*
X316357758Y-81870712D01*
X316373256Y-81873243D01*
X316390859Y-81875502D01*
X316411684Y-81877509D01*
X316436851Y-81879285D01*
X316467476Y-81880851D01*
X316504677Y-81882228D01*
X316549574Y-81883437D01*
X316603282Y-81884500D01*
X316666922Y-81885437D01*
X316741609Y-81886268D01*
X316828463Y-81887016D01*
X316928601Y-81887701D01*
X317043141Y-81888344D01*
X317173201Y-81888966D01*
X317319900Y-81889589D01*
X317374743Y-81889808D01*
X317551219Y-81890421D01*
X317710555Y-81890782D01*
X317853752Y-81890871D01*
X317981810Y-81890664D01*
X318095731Y-81890141D01*
X318196516Y-81889279D01*
X318285166Y-81888057D01*
X318362681Y-81886453D01*
X318430064Y-81884445D01*
X318488315Y-81882011D01*
X318538435Y-81879130D01*
X318581425Y-81875779D01*
X318618286Y-81871938D01*
X318650020Y-81867584D01*
X318677626Y-81862696D01*
X318684290Y-81861326D01*
X318786418Y-81834128D01*
X318873083Y-81798622D01*
X318945348Y-81753988D01*
X319004276Y-81699404D01*
X319050930Y-81634050D01*
X319086374Y-81557104D01*
X319089455Y-81548414D01*
X319097472Y-81523305D01*
X319103106Y-81499374D01*
X319106744Y-81472676D01*
X319108774Y-81439269D01*
X319109581Y-81395209D01*
X319109584Y-81343322D01*
X319109050Y-81285957D01*
X319107729Y-81242928D01*
X319105229Y-81210433D01*
X319101158Y-81184667D01*
X319095125Y-81161829D01*
X319089131Y-81144475D01*
X319062918Y-81082955D01*
X319032776Y-81032870D01*
X318994376Y-80987518D01*
X318976440Y-80969866D01*
X318912921Y-80920414D01*
X318836249Y-80880088D01*
X318745591Y-80848585D01*
X318640113Y-80825599D01*
X318548442Y-80813530D01*
X318522942Y-80811921D01*
X318480836Y-80810449D01*
X318423651Y-80809115D01*
X318352912Y-80807918D01*
X318270147Y-80806859D01*
X318176882Y-80805938D01*
X318074643Y-80805156D01*
X317964959Y-80804513D01*
X317849354Y-80804010D01*
X317729355Y-80803646D01*
X317606491Y-80803422D01*
X317482285Y-80803339D01*
X317482285Y-80472466D01*
X317490929Y-80472464D01*
X317662533Y-80472458D01*
X317817043Y-80472469D01*
X317955504Y-80472548D01*
X318078966Y-80472742D01*
X318188475Y-80473099D01*
X318285079Y-80473667D01*
X318369826Y-80474496D01*
X318443763Y-80475633D01*
X318507938Y-80477126D01*
X318563399Y-80479025D01*
X318611192Y-80481376D01*
X318652366Y-80484229D01*
X318687968Y-80487631D01*
X318719045Y-80491632D01*
X318746646Y-80496279D01*
X318771818Y-80501620D01*
X318795609Y-80507704D01*
X318819065Y-80514579D01*
X318843235Y-80522294D01*
X318869166Y-80530896D01*
X318886933Y-80536811D01*
X319006633Y-80584087D01*
X319111658Y-80641892D01*
X319202430Y-80710694D01*
X319279373Y-80790964D01*
X319342909Y-80883169D01*
X319393462Y-80987779D01*
X319431454Y-81105263D01*
X319442568Y-81152822D01*
X319449241Y-81199180D01*
X319453150Y-81258546D01*
X319454392Y-81326012D01*
X319453064Y-81396670D01*
X319453064Y-81396670D01*
G37*
X319453064Y-81396670D02*
X319449264Y-81465612D01*
X319443088Y-81527929D01*
X319434635Y-81578714D01*
X319434084Y-81581169D01*
X319399317Y-81698194D01*
X319351055Y-81803488D01*
X319289207Y-81897117D01*
X319213676Y-81979147D01*
X319124371Y-82049644D01*
X319021197Y-82108676D01*
X318904060Y-82156309D01*
X318772866Y-82192608D01*
X318627523Y-82217640D01*
X318519478Y-82228339D01*
X318482984Y-82230184D01*
X318428433Y-82231748D01*
X318355909Y-82233029D01*
X318265494Y-82234027D01*
X318157273Y-82234741D01*
X318031328Y-82235173D01*
X317887744Y-82235319D01*
X317726603Y-82235182D01*
X317547989Y-82234759D01*
X317395679Y-82234227D01*
X317237586Y-82233581D01*
X317096565Y-82232942D01*
X316971541Y-82232290D01*
X316861442Y-82231609D01*
X316765197Y-82230878D01*
X316681731Y-82230079D01*
X316609974Y-82229193D01*
X316548852Y-82228202D01*
X316497293Y-82227086D01*
X316454225Y-82225828D01*
X316418575Y-82224407D01*
X316389270Y-82222806D01*
X316365238Y-82221006D01*
X316345407Y-82218987D01*
X316328704Y-82216732D01*
X316320714Y-82215428D01*
X316198874Y-82190668D01*
X316092201Y-82160705D01*
X315998179Y-82124382D01*
X315914288Y-82080540D01*
X315838010Y-82028021D01*
X315766828Y-81965668D01*
X315757484Y-81956445D01*
X315686840Y-81876611D01*
X315630356Y-81791764D01*
X315587358Y-81700053D01*
X315557176Y-81599626D01*
X315539138Y-81488629D01*
X315532574Y-81365211D01*
X315532606Y-81335862D01*
X315533728Y-81286499D01*
X315535917Y-81237808D01*
X315538837Y-81195969D01*
X315541561Y-81170964D01*
X315563377Y-81071714D01*
X315599102Y-80972716D01*
X315646345Y-80879523D01*
X315701915Y-80798674D01*
X315779166Y-80717189D01*
X315870832Y-80646632D01*
X315976937Y-80586992D01*
X316097504Y-80538257D01*
X316232559Y-80500413D01*
X316311643Y-80484481D01*
X316325621Y-80482611D01*
X316345851Y-80480932D01*
X316373210Y-80479437D01*
X316408576Y-80478115D01*
X316452830Y-80476957D01*
X316506848Y-80475956D01*
X316571510Y-80475101D01*
X316647694Y-80474384D01*
X316736279Y-80473796D01*
X316838143Y-80473328D01*
X316954165Y-80472970D01*
X317085223Y-80472715D01*
X317232196Y-80472553D01*
X317395963Y-80472475D01*
X317482285Y-80472466D01*
X317482285Y-80803339D01*
X317358267Y-80803397D01*
X317235961Y-80803596D01*
X317116895Y-80803936D01*
X317002596Y-80804419D01*
X316894589Y-80805044D01*
X316794402Y-80805811D01*
X316703561Y-80806722D01*
X316623592Y-80807776D01*
X316556023Y-80808973D01*
X316502380Y-80810315D01*
X316464190Y-80811801D01*
X316446408Y-80813031D01*
X316324364Y-80830534D01*
X316217782Y-80857098D01*
X316126224Y-80893051D01*
X316049250Y-80938720D01*
X315986418Y-80994433D01*
X315937291Y-81060518D01*
X315901427Y-81137302D01*
X315878387Y-81225112D01*
X315876237Y-81237821D01*
X315870649Y-81299800D01*
X315871216Y-81369938D01*
X315877414Y-81441229D01*
X315888721Y-81506670D01*
X315899127Y-81544451D01*
X315931815Y-81620711D01*
X315975577Y-81686183D01*
X316031435Y-81741594D01*
X316100410Y-81787671D01*
X316183523Y-81825141D01*
X316281797Y-81854730D01*
X316357758Y-81870712D01*
X316373256Y-81873243D01*
X316390859Y-81875502D01*
X316411684Y-81877509D01*
X316436851Y-81879285D01*
X316467476Y-81880851D01*
X316504677Y-81882228D01*
X316549574Y-81883437D01*
X316603282Y-81884500D01*
X316666922Y-81885437D01*
X316741609Y-81886268D01*
X316828463Y-81887016D01*
X316928601Y-81887701D01*
X317043141Y-81888344D01*
X317173201Y-81888966D01*
X317319900Y-81889589D01*
X317374743Y-81889808D01*
X317551219Y-81890421D01*
X317710555Y-81890782D01*
X317853752Y-81890871D01*
X317981810Y-81890664D01*
X318095731Y-81890141D01*
X318196516Y-81889279D01*
X318285166Y-81888057D01*
X318362681Y-81886453D01*
X318430064Y-81884445D01*
X318488315Y-81882011D01*
X318538435Y-81879130D01*
X318581425Y-81875779D01*
X318618286Y-81871938D01*
X318650020Y-81867584D01*
X318677626Y-81862696D01*
X318684290Y-81861326D01*
X318786418Y-81834128D01*
X318873083Y-81798622D01*
X318945348Y-81753988D01*
X319004276Y-81699404D01*
X319050930Y-81634050D01*
X319086374Y-81557104D01*
X319089455Y-81548414D01*
X319097472Y-81523305D01*
X319103106Y-81499374D01*
X319106744Y-81472676D01*
X319108774Y-81439269D01*
X319109581Y-81395209D01*
X319109584Y-81343322D01*
X319109050Y-81285957D01*
X319107729Y-81242928D01*
X319105229Y-81210433D01*
X319101158Y-81184667D01*
X319095125Y-81161829D01*
X319089131Y-81144475D01*
X319062918Y-81082955D01*
X319032776Y-81032870D01*
X318994376Y-80987518D01*
X318976440Y-80969866D01*
X318912921Y-80920414D01*
X318836249Y-80880088D01*
X318745591Y-80848585D01*
X318640113Y-80825599D01*
X318548442Y-80813530D01*
X318522942Y-80811921D01*
X318480836Y-80810449D01*
X318423651Y-80809115D01*
X318352912Y-80807918D01*
X318270147Y-80806859D01*
X318176882Y-80805938D01*
X318074643Y-80805156D01*
X317964959Y-80804513D01*
X317849354Y-80804010D01*
X317729355Y-80803646D01*
X317606491Y-80803422D01*
X317482285Y-80803339D01*
X317482285Y-80472466D01*
X317490929Y-80472464D01*
X317662533Y-80472458D01*
X317817043Y-80472469D01*
X317955504Y-80472548D01*
X318078966Y-80472742D01*
X318188475Y-80473099D01*
X318285079Y-80473667D01*
X318369826Y-80474496D01*
X318443763Y-80475633D01*
X318507938Y-80477126D01*
X318563399Y-80479025D01*
X318611192Y-80481376D01*
X318652366Y-80484229D01*
X318687968Y-80487631D01*
X318719045Y-80491632D01*
X318746646Y-80496279D01*
X318771818Y-80501620D01*
X318795609Y-80507704D01*
X318819065Y-80514579D01*
X318843235Y-80522294D01*
X318869166Y-80530896D01*
X318886933Y-80536811D01*
X319006633Y-80584087D01*
X319111658Y-80641892D01*
X319202430Y-80710694D01*
X319279373Y-80790964D01*
X319342909Y-80883169D01*
X319393462Y-80987779D01*
X319431454Y-81105263D01*
X319442568Y-81152822D01*
X319449241Y-81199180D01*
X319453150Y-81258546D01*
X319454392Y-81326012D01*
X319453064Y-81396670D01*
D12*
X333750000Y-88750000D03*
X333750000Y-87500000D03*
X333750000Y-77000000D03*
X333750000Y-64500000D03*
X333750000Y-63250000D03*
X333750000Y-62000000D03*
X333750000Y-75750000D03*
D13*
X335994026Y-66250932D03*
X340494026Y-66250932D03*
D14*
X320710000Y-88900000D03*
D15*
X318170000Y-88900000D03*
X315630000Y-88900000D03*
X313090000Y-88900000D03*
D14*
X323250000Y-88900000D03*
D15*
X325790000Y-88900000D03*
X328330000Y-88900000D03*
D16*
X336644026Y-59650932D03*
D17*
X339384026Y-59650932D03*
D14*
X338874026Y-74600932D03*
D15*
X341414026Y-74600932D03*
X343954026Y-74600932D03*
D18*
X342854026Y-86500932D03*
D19*
X343412826Y-80150932D03*
X349204026Y-84062532D03*
X336504026Y-87059732D03*
X340415626Y-92850932D03*
X347523759Y-91170665D03*
D20*
X306500000Y-75500000D03*
D21*
X301750200Y-62800000D03*
X301750200Y-70420000D03*
X301750200Y-80580000D03*
X311656200Y-70420000D03*
X311656200Y-80580000D03*
D22*
X326250000Y-59250000D03*
D23*
X321750000Y-62750000D03*
X331250000Y-67550000D03*
M02*
