G04 #@! TF.FileFunction,Profile,NP*
%FSLAX46Y46*%
G04 Gerber Fmt 4.6, Leading zero omitted, Abs format (unit mm)*
G04 Created by KiCad (PCBNEW 4.0.2-stable) date 2020-02-08 1:43:23 PM*
%MOMM*%
G01*
G04 APERTURE LIST*
%ADD10C,0.200000*%
%ADD11C,0.100000*%
G04 APERTURE END LIST*
D10*
D11*
X334250000Y-86750000D02*
X334250000Y-77750000D01*
X333250000Y-86750000D02*
X334250000Y-86750000D01*
X333250000Y-77750000D02*
X333250000Y-86750000D01*
X333250000Y-89500000D02*
X334250000Y-89500000D01*
X333250000Y-77750000D02*
X334250000Y-77750000D01*
X333250000Y-75000000D02*
X334250000Y-75000000D01*
X333250000Y-61250000D02*
X334250000Y-61250000D01*
X333250000Y-65250000D02*
X334250000Y-65250000D01*
X334250000Y-75000000D02*
X334250000Y-72000000D01*
X334250000Y-69250000D02*
X334250000Y-65250000D01*
X333250000Y-75000000D02*
X333250000Y-65250000D01*
X334250000Y-61250000D02*
X334250000Y-57500000D01*
X333250000Y-61250000D02*
X333250000Y-57500000D01*
X334250000Y-95500000D02*
X334250000Y-89500000D01*
X297000000Y-95500000D02*
X297000000Y-57500000D01*
X333250000Y-95500000D02*
X297000000Y-95500000D01*
X346754026Y-95500932D02*
X351254026Y-91000932D01*
X334254026Y-95500932D02*
X346754026Y-95500932D01*
X346754026Y-72000932D02*
X334254026Y-72000932D01*
X346754026Y-77000932D02*
X346754026Y-72000932D01*
X351254026Y-77000932D02*
X346754026Y-77000932D01*
X351254026Y-91000932D02*
X351254026Y-77000932D01*
X334244026Y-69250932D02*
X341744026Y-69250932D01*
X341744026Y-57500932D02*
X334244026Y-57500932D01*
X341744026Y-69250932D02*
X341744026Y-57500932D01*
X333250000Y-57500000D02*
X297000000Y-57500000D01*
X333250000Y-95500000D02*
X333250000Y-89500000D01*
M02*
