G04 #@! TF.FileFunction,Legend,Top*
%FSLAX46Y46*%
G04 Gerber Fmt 4.6, Leading zero omitted, Abs format (unit mm)*
G04 Created by KiCad (PCBNEW 4.0.2-stable) date 2019-06-10 2:57:16 PM*
%MOMM*%
G01*
G04 APERTURE LIST*
%ADD10C,0.200000*%
%ADD11C,0.300000*%
%ADD12C,0.150000*%
%ADD13C,1.500000*%
%ADD14C,0.010000*%
%ADD15R,5.180000X2.640000*%
%ADD16O,2.640000X5.180000*%
%ADD17C,2.640000*%
%ADD18R,1.600000X2.100000*%
%ADD19O,1.600000X2.100000*%
%ADD20O,4.100000X2.600000*%
%ADD21O,2.600000X2.100000*%
%ADD22O,1.600000X3.600000*%
%ADD23R,2.700000X1.900000*%
%ADD24O,2.700000X1.900000*%
%ADD25R,1.800000X1.800000*%
%ADD26O,1.800000X1.800000*%
%ADD27R,2.900000X1.700000*%
%ADD28C,2.600000*%
%ADD29R,2.600000X3.600000*%
%ADD30O,4.700000X1.550000*%
%ADD31O,4.400000X1.200000*%
%ADD32O,1.200000X4.400000*%
%ADD33C,1.200000*%
%ADD34R,1.900000X1.900000*%
%ADD35C,1.900000*%
G04 APERTURE END LIST*
D10*
D11*
X111750000Y-94950000D02*
X111750000Y-85550000D01*
X127750000Y-94950000D02*
X111750000Y-94950000D01*
X127750000Y-85550000D02*
X127750000Y-94950000D01*
X111750000Y-85550000D02*
X127750000Y-85550000D01*
X80000000Y-94950000D02*
X80000000Y-85550000D01*
X96000000Y-94950000D02*
X80000000Y-94950000D01*
X96000000Y-85550000D02*
X96000000Y-94950000D01*
X80000000Y-85550000D02*
X96000000Y-85550000D01*
X56700000Y-85550000D02*
X28300000Y-85550000D01*
X56700000Y-94950000D02*
X56700000Y-85550000D01*
X28300000Y-94950000D02*
X56700000Y-94950000D01*
D10*
X28300000Y-94950000D02*
X28350000Y-94950000D01*
D11*
X28300000Y-85550000D02*
X28300000Y-94950000D01*
D12*
X118773810Y-94702381D02*
X118773810Y-93702381D01*
X119202381Y-94654762D02*
X119345238Y-94702381D01*
X119583334Y-94702381D01*
X119678572Y-94654762D01*
X119726191Y-94607143D01*
X119773810Y-94511905D01*
X119773810Y-94416667D01*
X119726191Y-94321429D01*
X119678572Y-94273810D01*
X119583334Y-94226190D01*
X119392857Y-94178571D01*
X119297619Y-94130952D01*
X119250000Y-94083333D01*
X119202381Y-93988095D01*
X119202381Y-93892857D01*
X119250000Y-93797619D01*
X119297619Y-93750000D01*
X119392857Y-93702381D01*
X119630953Y-93702381D01*
X119773810Y-93750000D01*
X120202381Y-94702381D02*
X120202381Y-93702381D01*
X120583334Y-93702381D01*
X120678572Y-93750000D01*
X120726191Y-93797619D01*
X120773810Y-93892857D01*
X120773810Y-94035714D01*
X120726191Y-94130952D01*
X120678572Y-94178571D01*
X120583334Y-94226190D01*
X120202381Y-94226190D01*
X82761905Y-94702381D02*
X82761905Y-93702381D01*
X83000000Y-93702381D01*
X83142858Y-93750000D01*
X83238096Y-93845238D01*
X83285715Y-93940476D01*
X83333334Y-94130952D01*
X83333334Y-94273810D01*
X83285715Y-94464286D01*
X83238096Y-94559524D01*
X83142858Y-94654762D01*
X83000000Y-94702381D01*
X82761905Y-94702381D01*
X83761905Y-94702381D02*
X83761905Y-93702381D01*
X84238095Y-94702381D02*
X84238095Y-93702381D01*
X84809524Y-94702381D01*
X84809524Y-93702381D01*
X86047619Y-94178571D02*
X86380953Y-94178571D01*
X86523810Y-94702381D02*
X86047619Y-94702381D01*
X86047619Y-93702381D01*
X86523810Y-93702381D01*
X86857143Y-93702381D02*
X87523810Y-94702381D01*
X87523810Y-93702381D02*
X86857143Y-94702381D01*
X87904762Y-94702381D02*
X87904762Y-93702381D01*
X88285715Y-93702381D01*
X88380953Y-93750000D01*
X88428572Y-93797619D01*
X88476191Y-93892857D01*
X88476191Y-94035714D01*
X88428572Y-94130952D01*
X88380953Y-94178571D01*
X88285715Y-94226190D01*
X87904762Y-94226190D01*
X88857143Y-94416667D02*
X89333334Y-94416667D01*
X88761905Y-94702381D02*
X89095238Y-93702381D01*
X89428572Y-94702381D01*
X89761905Y-94702381D02*
X89761905Y-93702381D01*
X90333334Y-94702381D01*
X90333334Y-93702381D01*
X90809524Y-94702381D02*
X90809524Y-93702381D01*
X91047619Y-93702381D01*
X91190477Y-93750000D01*
X91285715Y-93845238D01*
X91333334Y-93940476D01*
X91380953Y-94130952D01*
X91380953Y-94273810D01*
X91333334Y-94464286D01*
X91285715Y-94559524D01*
X91190477Y-94654762D01*
X91047619Y-94702381D01*
X90809524Y-94702381D01*
X91809524Y-94178571D02*
X92142858Y-94178571D01*
X92285715Y-94702381D02*
X91809524Y-94702381D01*
X91809524Y-93702381D01*
X92285715Y-93702381D01*
X93285715Y-94702381D02*
X92952381Y-94226190D01*
X92714286Y-94702381D02*
X92714286Y-93702381D01*
X93095239Y-93702381D01*
X93190477Y-93750000D01*
X93238096Y-93797619D01*
X93285715Y-93892857D01*
X93285715Y-94035714D01*
X93238096Y-94130952D01*
X93190477Y-94178571D01*
X93095239Y-94226190D01*
X92714286Y-94226190D01*
D13*
X51400000Y-85800000D02*
X51400000Y-94550000D01*
D12*
X52538095Y-94071429D02*
X53300000Y-94071429D01*
X54300000Y-94452381D02*
X53728571Y-94452381D01*
X54014285Y-94452381D02*
X54014285Y-93452381D01*
X53919047Y-93595238D01*
X53823809Y-93690476D01*
X53728571Y-93738095D01*
X54680952Y-93547619D02*
X54728571Y-93500000D01*
X54823809Y-93452381D01*
X55061905Y-93452381D01*
X55157143Y-93500000D01*
X55204762Y-93547619D01*
X55252381Y-93642857D01*
X55252381Y-93738095D01*
X55204762Y-93880952D01*
X54633333Y-94452381D01*
X55252381Y-94452381D01*
X55538095Y-93452381D02*
X55871428Y-94452381D01*
X56204762Y-93452381D01*
X40190476Y-94452381D02*
X40190476Y-93452381D01*
X40571429Y-93452381D01*
X40666667Y-93500000D01*
X40714286Y-93547619D01*
X40761905Y-93642857D01*
X40761905Y-93785714D01*
X40714286Y-93880952D01*
X40666667Y-93928571D01*
X40571429Y-93976190D01*
X40190476Y-93976190D01*
X41380952Y-93452381D02*
X41571429Y-93452381D01*
X41666667Y-93500000D01*
X41761905Y-93595238D01*
X41809524Y-93785714D01*
X41809524Y-94119048D01*
X41761905Y-94309524D01*
X41666667Y-94404762D01*
X41571429Y-94452381D01*
X41380952Y-94452381D01*
X41285714Y-94404762D01*
X41190476Y-94309524D01*
X41142857Y-94119048D01*
X41142857Y-93785714D01*
X41190476Y-93595238D01*
X41285714Y-93500000D01*
X41380952Y-93452381D01*
X42142857Y-93452381D02*
X42380952Y-94452381D01*
X42571429Y-93738095D01*
X42761905Y-94452381D01*
X43000000Y-93452381D01*
X43380952Y-93928571D02*
X43714286Y-93928571D01*
X43857143Y-94452381D02*
X43380952Y-94452381D01*
X43380952Y-93452381D01*
X43857143Y-93452381D01*
X44857143Y-94452381D02*
X44523809Y-93976190D01*
X44285714Y-94452381D02*
X44285714Y-93452381D01*
X44666667Y-93452381D01*
X44761905Y-93500000D01*
X44809524Y-93547619D01*
X44857143Y-93642857D01*
X44857143Y-93785714D01*
X44809524Y-93880952D01*
X44761905Y-93928571D01*
X44666667Y-93976190D01*
X44285714Y-93976190D01*
X284214286Y-91654762D02*
X284357143Y-91702381D01*
X284595239Y-91702381D01*
X284690477Y-91654762D01*
X284738096Y-91607143D01*
X284785715Y-91511905D01*
X284785715Y-91416667D01*
X284738096Y-91321429D01*
X284690477Y-91273810D01*
X284595239Y-91226190D01*
X284404762Y-91178571D01*
X284309524Y-91130952D01*
X284261905Y-91083333D01*
X284214286Y-90988095D01*
X284214286Y-90892857D01*
X284261905Y-90797619D01*
X284309524Y-90750000D01*
X284404762Y-90702381D01*
X284642858Y-90702381D01*
X284785715Y-90750000D01*
X279559524Y-91702381D02*
X279226190Y-91226190D01*
X278988095Y-91702381D02*
X278988095Y-90702381D01*
X279369048Y-90702381D01*
X279464286Y-90750000D01*
X279511905Y-90797619D01*
X279559524Y-90892857D01*
X279559524Y-91035714D01*
X279511905Y-91130952D01*
X279464286Y-91178571D01*
X279369048Y-91226190D01*
X278988095Y-91226190D01*
X281714286Y-90702381D02*
X282285715Y-90702381D01*
X282000000Y-91702381D02*
X282000000Y-90702381D01*
X255335714Y-91416667D02*
X255811905Y-91416667D01*
X255240476Y-91702381D02*
X255573809Y-90702381D01*
X255907143Y-91702381D01*
X256669048Y-91035714D02*
X256669048Y-91702381D01*
X256430952Y-90654762D02*
X256192857Y-91369048D01*
X256811905Y-91369048D01*
X284333334Y-86657143D02*
X284285715Y-86704762D01*
X284142858Y-86752381D01*
X284047620Y-86752381D01*
X283904762Y-86704762D01*
X283809524Y-86609524D01*
X283761905Y-86514286D01*
X283714286Y-86323810D01*
X283714286Y-86180952D01*
X283761905Y-85990476D01*
X283809524Y-85895238D01*
X283904762Y-85800000D01*
X284047620Y-85752381D01*
X284142858Y-85752381D01*
X284285715Y-85800000D01*
X284333334Y-85847619D01*
X284666667Y-85752381D02*
X285285715Y-85752381D01*
X284952381Y-86133333D01*
X285095239Y-86133333D01*
X285190477Y-86180952D01*
X285238096Y-86228571D01*
X285285715Y-86323810D01*
X285285715Y-86561905D01*
X285238096Y-86657143D01*
X285190477Y-86704762D01*
X285095239Y-86752381D01*
X284809524Y-86752381D01*
X284714286Y-86704762D01*
X284666667Y-86657143D01*
X281833334Y-86657143D02*
X281785715Y-86704762D01*
X281642858Y-86752381D01*
X281547620Y-86752381D01*
X281404762Y-86704762D01*
X281309524Y-86609524D01*
X281261905Y-86514286D01*
X281214286Y-86323810D01*
X281214286Y-86180952D01*
X281261905Y-85990476D01*
X281309524Y-85895238D01*
X281404762Y-85800000D01*
X281547620Y-85752381D01*
X281642858Y-85752381D01*
X281785715Y-85800000D01*
X281833334Y-85847619D01*
X282214286Y-85847619D02*
X282261905Y-85800000D01*
X282357143Y-85752381D01*
X282595239Y-85752381D01*
X282690477Y-85800000D01*
X282738096Y-85847619D01*
X282785715Y-85942857D01*
X282785715Y-86038095D01*
X282738096Y-86180952D01*
X282166667Y-86752381D01*
X282785715Y-86752381D01*
X279083334Y-86657143D02*
X279035715Y-86704762D01*
X278892858Y-86752381D01*
X278797620Y-86752381D01*
X278654762Y-86704762D01*
X278559524Y-86609524D01*
X278511905Y-86514286D01*
X278464286Y-86323810D01*
X278464286Y-86180952D01*
X278511905Y-85990476D01*
X278559524Y-85895238D01*
X278654762Y-85800000D01*
X278797620Y-85752381D01*
X278892858Y-85752381D01*
X279035715Y-85800000D01*
X279083334Y-85847619D01*
X280035715Y-86752381D02*
X279464286Y-86752381D01*
X279750000Y-86752381D02*
X279750000Y-85752381D01*
X279654762Y-85895238D01*
X279559524Y-85990476D01*
X279464286Y-86038095D01*
X266445239Y-91178571D02*
X266588096Y-91226190D01*
X266635715Y-91273810D01*
X266683334Y-91369048D01*
X266683334Y-91511905D01*
X266635715Y-91607143D01*
X266588096Y-91654762D01*
X266492858Y-91702381D01*
X266111905Y-91702381D01*
X266111905Y-90702381D01*
X266445239Y-90702381D01*
X266540477Y-90750000D01*
X266588096Y-90797619D01*
X266635715Y-90892857D01*
X266635715Y-90988095D01*
X266588096Y-91083333D01*
X266540477Y-91130952D01*
X266445239Y-91178571D01*
X266111905Y-91178571D01*
X267635715Y-91702381D02*
X267064286Y-91702381D01*
X267350000Y-91702381D02*
X267350000Y-90702381D01*
X267254762Y-90845238D01*
X267159524Y-90940476D01*
X267064286Y-90988095D01*
X260335714Y-91416667D02*
X260811905Y-91416667D01*
X260240476Y-91702381D02*
X260573809Y-90702381D01*
X260907143Y-91702381D01*
X261192857Y-90797619D02*
X261240476Y-90750000D01*
X261335714Y-90702381D01*
X261573810Y-90702381D01*
X261669048Y-90750000D01*
X261716667Y-90797619D01*
X261764286Y-90892857D01*
X261764286Y-90988095D01*
X261716667Y-91130952D01*
X261145238Y-91702381D01*
X261764286Y-91702381D01*
X257835714Y-91416667D02*
X258311905Y-91416667D01*
X257740476Y-91702381D02*
X258073809Y-90702381D01*
X258407143Y-91702381D01*
X258645238Y-90702381D02*
X259264286Y-90702381D01*
X258930952Y-91083333D01*
X259073810Y-91083333D01*
X259169048Y-91130952D01*
X259216667Y-91178571D01*
X259264286Y-91273810D01*
X259264286Y-91511905D01*
X259216667Y-91607143D01*
X259169048Y-91654762D01*
X259073810Y-91702381D01*
X258788095Y-91702381D01*
X258692857Y-91654762D01*
X258645238Y-91607143D01*
X271445239Y-91178571D02*
X271588096Y-91226190D01*
X271635715Y-91273810D01*
X271683334Y-91369048D01*
X271683334Y-91511905D01*
X271635715Y-91607143D01*
X271588096Y-91654762D01*
X271492858Y-91702381D01*
X271111905Y-91702381D01*
X271111905Y-90702381D01*
X271445239Y-90702381D01*
X271540477Y-90750000D01*
X271588096Y-90797619D01*
X271635715Y-90892857D01*
X271635715Y-90988095D01*
X271588096Y-91083333D01*
X271540477Y-91130952D01*
X271445239Y-91178571D01*
X271111905Y-91178571D01*
X272016667Y-90702381D02*
X272635715Y-90702381D01*
X272302381Y-91083333D01*
X272445239Y-91083333D01*
X272540477Y-91130952D01*
X272588096Y-91178571D01*
X272635715Y-91273810D01*
X272635715Y-91511905D01*
X272588096Y-91607143D01*
X272540477Y-91654762D01*
X272445239Y-91702381D01*
X272159524Y-91702381D01*
X272064286Y-91654762D01*
X272016667Y-91607143D01*
X268945239Y-91178571D02*
X269088096Y-91226190D01*
X269135715Y-91273810D01*
X269183334Y-91369048D01*
X269183334Y-91511905D01*
X269135715Y-91607143D01*
X269088096Y-91654762D01*
X268992858Y-91702381D01*
X268611905Y-91702381D01*
X268611905Y-90702381D01*
X268945239Y-90702381D01*
X269040477Y-90750000D01*
X269088096Y-90797619D01*
X269135715Y-90892857D01*
X269135715Y-90988095D01*
X269088096Y-91083333D01*
X269040477Y-91130952D01*
X268945239Y-91178571D01*
X268611905Y-91178571D01*
X269564286Y-90797619D02*
X269611905Y-90750000D01*
X269707143Y-90702381D01*
X269945239Y-90702381D01*
X270040477Y-90750000D01*
X270088096Y-90797619D01*
X270135715Y-90892857D01*
X270135715Y-90988095D01*
X270088096Y-91130952D01*
X269516667Y-91702381D01*
X270135715Y-91702381D01*
X263085714Y-91416667D02*
X263561905Y-91416667D01*
X262990476Y-91702381D02*
X263323809Y-90702381D01*
X263657143Y-91702381D01*
X264514286Y-91702381D02*
X263942857Y-91702381D01*
X264228571Y-91702381D02*
X264228571Y-90702381D01*
X264133333Y-90845238D01*
X264038095Y-90940476D01*
X263942857Y-90988095D01*
D14*
G36*
X28358403Y-59510750D02*
X28487035Y-59512861D01*
X28606074Y-59516645D01*
X28710079Y-59522101D01*
X28793609Y-59529229D01*
X28824448Y-59533186D01*
X29138376Y-59594396D01*
X29445764Y-59682781D01*
X29744643Y-59797345D01*
X30033049Y-59937093D01*
X30309012Y-60101030D01*
X30570568Y-60288159D01*
X30815748Y-60497485D01*
X30910795Y-60589206D01*
X31131957Y-60830270D01*
X31329820Y-61087520D01*
X31503895Y-61359995D01*
X31653699Y-61646736D01*
X31778745Y-61946782D01*
X31878547Y-62259175D01*
X31952620Y-62582952D01*
X31969744Y-62682109D01*
X31980187Y-62768266D01*
X31988175Y-62876873D01*
X31993707Y-63001950D01*
X31996784Y-63137512D01*
X31997405Y-63277578D01*
X31995570Y-63416166D01*
X31991279Y-63547292D01*
X31984533Y-63664975D01*
X31975332Y-63763232D01*
X31969744Y-63803621D01*
X31903451Y-64131474D01*
X31811479Y-64447512D01*
X31694055Y-64751140D01*
X31551405Y-65041766D01*
X31397723Y-65297697D01*
X31205914Y-65564170D01*
X30994275Y-65810558D01*
X30763961Y-66036115D01*
X30516127Y-66240096D01*
X30251929Y-66421757D01*
X29972521Y-66580354D01*
X29679060Y-66715142D01*
X29372700Y-66825376D01*
X29054597Y-66910312D01*
X28827922Y-66953931D01*
X28779365Y-66959741D01*
X28709244Y-66965309D01*
X28622448Y-66970497D01*
X28523863Y-66975161D01*
X28418378Y-66979164D01*
X28310881Y-66982362D01*
X28206258Y-66984616D01*
X28109399Y-66985785D01*
X28025191Y-66985728D01*
X27958521Y-66984304D01*
X27914278Y-66981374D01*
X27907528Y-66980429D01*
X27877460Y-66976043D01*
X27827910Y-66969474D01*
X27767739Y-66961885D01*
X27743427Y-66958914D01*
X27469846Y-66913002D01*
X27192227Y-66841841D01*
X26915502Y-66747271D01*
X26644606Y-66631135D01*
X26384471Y-66495275D01*
X26202304Y-66383454D01*
X25935551Y-66191477D01*
X25688998Y-65979767D01*
X25463371Y-65749452D01*
X25259393Y-65501662D01*
X25077792Y-65237524D01*
X24919293Y-64958169D01*
X24784620Y-64664725D01*
X24674499Y-64358321D01*
X24589657Y-64040086D01*
X24544526Y-63803621D01*
X24534083Y-63717465D01*
X24526095Y-63608857D01*
X24520563Y-63483781D01*
X24517486Y-63348219D01*
X24516865Y-63208153D01*
X24518700Y-63069565D01*
X24522991Y-62938438D01*
X24529737Y-62820755D01*
X24538938Y-62722498D01*
X24544526Y-62682109D01*
X24610819Y-62354256D01*
X24620068Y-62322472D01*
X26437894Y-62322472D01*
X26446212Y-62524341D01*
X26471407Y-62703875D01*
X26513745Y-62861946D01*
X26573492Y-62999427D01*
X26650915Y-63117188D01*
X26696212Y-63168817D01*
X26730599Y-63205032D01*
X26755511Y-63232296D01*
X26765902Y-63245076D01*
X26765955Y-63245293D01*
X26756383Y-63256361D01*
X26731595Y-63280780D01*
X26705309Y-63305500D01*
X26624423Y-63398871D01*
X26557351Y-63515775D01*
X26504631Y-63654483D01*
X26466804Y-63813262D01*
X26444409Y-63990383D01*
X26437894Y-64163259D01*
X26446495Y-64370413D01*
X26472270Y-64554831D01*
X26515274Y-64716612D01*
X26575564Y-64855857D01*
X26653197Y-64972665D01*
X26748228Y-65067137D01*
X26860713Y-65139371D01*
X26990710Y-65189469D01*
X27019693Y-65197054D01*
X27085916Y-65208069D01*
X27170348Y-65214947D01*
X27262940Y-65217542D01*
X27353644Y-65215708D01*
X27432410Y-65209300D01*
X27468034Y-65203560D01*
X27595780Y-65163156D01*
X27714353Y-65098463D01*
X27819078Y-65013043D01*
X27905277Y-64910463D01*
X27948616Y-64837342D01*
X28001633Y-64707437D01*
X28041189Y-64556823D01*
X28066677Y-64390268D01*
X28077493Y-64212544D01*
X28073032Y-64028419D01*
X28064035Y-63927809D01*
X28033723Y-63748764D01*
X27985696Y-63590789D01*
X27928083Y-63470886D01*
X28356990Y-63470886D01*
X28356991Y-63665248D01*
X28357177Y-63835102D01*
X28357699Y-63982465D01*
X28358708Y-64109351D01*
X28360354Y-64217777D01*
X28362787Y-64309759D01*
X28366160Y-64387311D01*
X28370621Y-64452450D01*
X28376323Y-64507191D01*
X28383415Y-64553551D01*
X28392049Y-64593544D01*
X28402375Y-64629187D01*
X28414544Y-64662496D01*
X28428706Y-64695485D01*
X28445012Y-64730172D01*
X28463614Y-64768571D01*
X28471836Y-64785640D01*
X28547840Y-64914357D01*
X28641696Y-65021696D01*
X28752029Y-65106540D01*
X28877462Y-65167772D01*
X28977753Y-65196914D01*
X29076840Y-65211436D01*
X29190595Y-65217160D01*
X29306533Y-65214069D01*
X29412167Y-65202150D01*
X29437017Y-65197476D01*
X29547962Y-65167193D01*
X29642713Y-65123849D01*
X29730443Y-65062426D01*
X29799508Y-64999127D01*
X29885506Y-64899578D01*
X29954334Y-64788061D01*
X30009221Y-64658736D01*
X30036867Y-64569944D01*
X30042654Y-64548600D01*
X30047700Y-64527729D01*
X30052066Y-64505286D01*
X30055812Y-64479227D01*
X30059000Y-64447505D01*
X30061688Y-64408076D01*
X30063939Y-64358896D01*
X30065812Y-64297918D01*
X30067368Y-64223097D01*
X30068667Y-64132389D01*
X30069771Y-64023749D01*
X30070740Y-63895131D01*
X30071633Y-63744491D01*
X30072513Y-63569782D01*
X30073439Y-63368961D01*
X30073621Y-63328483D01*
X30074517Y-63096500D01*
X30074980Y-62891714D01*
X30074997Y-62712788D01*
X30074556Y-62558383D01*
X30073644Y-62427160D01*
X30072248Y-62317782D01*
X30070356Y-62228909D01*
X30067954Y-62159204D01*
X30065031Y-62107328D01*
X30061681Y-62072753D01*
X30029083Y-61900555D01*
X29979572Y-61750433D01*
X29912555Y-61621053D01*
X29827440Y-61511079D01*
X29800145Y-61483449D01*
X29696046Y-61398189D01*
X29583097Y-61335317D01*
X29457569Y-61293474D01*
X29315734Y-61271305D01*
X29204783Y-61266765D01*
X29041263Y-61278033D01*
X28894485Y-61312407D01*
X28764549Y-61369807D01*
X28651554Y-61450153D01*
X28555601Y-61553365D01*
X28476790Y-61679364D01*
X28415221Y-61828071D01*
X28389684Y-61915787D01*
X28357023Y-62044214D01*
X28357023Y-63250000D01*
X28356990Y-63470886D01*
X27928083Y-63470886D01*
X27920193Y-63454467D01*
X27837453Y-63340384D01*
X27814138Y-63315442D01*
X27739061Y-63239156D01*
X27815850Y-63163321D01*
X27899380Y-63061456D01*
X27967518Y-62936710D01*
X28019821Y-62790511D01*
X28055847Y-62624288D01*
X28075152Y-62439471D01*
X28078530Y-62315337D01*
X28069856Y-62118250D01*
X28044087Y-61939527D01*
X28001602Y-61780446D01*
X27942782Y-61642285D01*
X27868006Y-61526320D01*
X27831447Y-61484027D01*
X27742287Y-61403180D01*
X27645554Y-61343243D01*
X27536387Y-61302181D01*
X27409929Y-61277957D01*
X27322290Y-61270581D01*
X27155172Y-61272355D01*
X27005829Y-61296035D01*
X26874155Y-61341748D01*
X26760041Y-61409622D01*
X26663380Y-61499785D01*
X26584064Y-61612366D01*
X26521985Y-61747493D01*
X26477036Y-61905294D01*
X26449108Y-62085897D01*
X26438095Y-62289431D01*
X26437894Y-62322472D01*
X24620068Y-62322472D01*
X24702791Y-62038219D01*
X24820215Y-61734591D01*
X24962865Y-61443964D01*
X25116547Y-61188034D01*
X25306097Y-60924903D01*
X25516011Y-60680611D01*
X25744710Y-60456171D01*
X25990617Y-60252598D01*
X26252156Y-60070907D01*
X26527750Y-59912111D01*
X26815821Y-59777225D01*
X27114793Y-59667262D01*
X27423088Y-59583237D01*
X27689822Y-59533186D01*
X27761763Y-59525267D01*
X27856753Y-59519020D01*
X27969353Y-59514444D01*
X28094122Y-59511541D01*
X28225618Y-59510310D01*
X28358403Y-59510750D01*
X28358403Y-59510750D01*
G37*
X28358403Y-59510750D02*
X28487035Y-59512861D01*
X28606074Y-59516645D01*
X28710079Y-59522101D01*
X28793609Y-59529229D01*
X28824448Y-59533186D01*
X29138376Y-59594396D01*
X29445764Y-59682781D01*
X29744643Y-59797345D01*
X30033049Y-59937093D01*
X30309012Y-60101030D01*
X30570568Y-60288159D01*
X30815748Y-60497485D01*
X30910795Y-60589206D01*
X31131957Y-60830270D01*
X31329820Y-61087520D01*
X31503895Y-61359995D01*
X31653699Y-61646736D01*
X31778745Y-61946782D01*
X31878547Y-62259175D01*
X31952620Y-62582952D01*
X31969744Y-62682109D01*
X31980187Y-62768266D01*
X31988175Y-62876873D01*
X31993707Y-63001950D01*
X31996784Y-63137512D01*
X31997405Y-63277578D01*
X31995570Y-63416166D01*
X31991279Y-63547292D01*
X31984533Y-63664975D01*
X31975332Y-63763232D01*
X31969744Y-63803621D01*
X31903451Y-64131474D01*
X31811479Y-64447512D01*
X31694055Y-64751140D01*
X31551405Y-65041766D01*
X31397723Y-65297697D01*
X31205914Y-65564170D01*
X30994275Y-65810558D01*
X30763961Y-66036115D01*
X30516127Y-66240096D01*
X30251929Y-66421757D01*
X29972521Y-66580354D01*
X29679060Y-66715142D01*
X29372700Y-66825376D01*
X29054597Y-66910312D01*
X28827922Y-66953931D01*
X28779365Y-66959741D01*
X28709244Y-66965309D01*
X28622448Y-66970497D01*
X28523863Y-66975161D01*
X28418378Y-66979164D01*
X28310881Y-66982362D01*
X28206258Y-66984616D01*
X28109399Y-66985785D01*
X28025191Y-66985728D01*
X27958521Y-66984304D01*
X27914278Y-66981374D01*
X27907528Y-66980429D01*
X27877460Y-66976043D01*
X27827910Y-66969474D01*
X27767739Y-66961885D01*
X27743427Y-66958914D01*
X27469846Y-66913002D01*
X27192227Y-66841841D01*
X26915502Y-66747271D01*
X26644606Y-66631135D01*
X26384471Y-66495275D01*
X26202304Y-66383454D01*
X25935551Y-66191477D01*
X25688998Y-65979767D01*
X25463371Y-65749452D01*
X25259393Y-65501662D01*
X25077792Y-65237524D01*
X24919293Y-64958169D01*
X24784620Y-64664725D01*
X24674499Y-64358321D01*
X24589657Y-64040086D01*
X24544526Y-63803621D01*
X24534083Y-63717465D01*
X24526095Y-63608857D01*
X24520563Y-63483781D01*
X24517486Y-63348219D01*
X24516865Y-63208153D01*
X24518700Y-63069565D01*
X24522991Y-62938438D01*
X24529737Y-62820755D01*
X24538938Y-62722498D01*
X24544526Y-62682109D01*
X24610819Y-62354256D01*
X24620068Y-62322472D01*
X26437894Y-62322472D01*
X26446212Y-62524341D01*
X26471407Y-62703875D01*
X26513745Y-62861946D01*
X26573492Y-62999427D01*
X26650915Y-63117188D01*
X26696212Y-63168817D01*
X26730599Y-63205032D01*
X26755511Y-63232296D01*
X26765902Y-63245076D01*
X26765955Y-63245293D01*
X26756383Y-63256361D01*
X26731595Y-63280780D01*
X26705309Y-63305500D01*
X26624423Y-63398871D01*
X26557351Y-63515775D01*
X26504631Y-63654483D01*
X26466804Y-63813262D01*
X26444409Y-63990383D01*
X26437894Y-64163259D01*
X26446495Y-64370413D01*
X26472270Y-64554831D01*
X26515274Y-64716612D01*
X26575564Y-64855857D01*
X26653197Y-64972665D01*
X26748228Y-65067137D01*
X26860713Y-65139371D01*
X26990710Y-65189469D01*
X27019693Y-65197054D01*
X27085916Y-65208069D01*
X27170348Y-65214947D01*
X27262940Y-65217542D01*
X27353644Y-65215708D01*
X27432410Y-65209300D01*
X27468034Y-65203560D01*
X27595780Y-65163156D01*
X27714353Y-65098463D01*
X27819078Y-65013043D01*
X27905277Y-64910463D01*
X27948616Y-64837342D01*
X28001633Y-64707437D01*
X28041189Y-64556823D01*
X28066677Y-64390268D01*
X28077493Y-64212544D01*
X28073032Y-64028419D01*
X28064035Y-63927809D01*
X28033723Y-63748764D01*
X27985696Y-63590789D01*
X27928083Y-63470886D01*
X28356990Y-63470886D01*
X28356991Y-63665248D01*
X28357177Y-63835102D01*
X28357699Y-63982465D01*
X28358708Y-64109351D01*
X28360354Y-64217777D01*
X28362787Y-64309759D01*
X28366160Y-64387311D01*
X28370621Y-64452450D01*
X28376323Y-64507191D01*
X28383415Y-64553551D01*
X28392049Y-64593544D01*
X28402375Y-64629187D01*
X28414544Y-64662496D01*
X28428706Y-64695485D01*
X28445012Y-64730172D01*
X28463614Y-64768571D01*
X28471836Y-64785640D01*
X28547840Y-64914357D01*
X28641696Y-65021696D01*
X28752029Y-65106540D01*
X28877462Y-65167772D01*
X28977753Y-65196914D01*
X29076840Y-65211436D01*
X29190595Y-65217160D01*
X29306533Y-65214069D01*
X29412167Y-65202150D01*
X29437017Y-65197476D01*
X29547962Y-65167193D01*
X29642713Y-65123849D01*
X29730443Y-65062426D01*
X29799508Y-64999127D01*
X29885506Y-64899578D01*
X29954334Y-64788061D01*
X30009221Y-64658736D01*
X30036867Y-64569944D01*
X30042654Y-64548600D01*
X30047700Y-64527729D01*
X30052066Y-64505286D01*
X30055812Y-64479227D01*
X30059000Y-64447505D01*
X30061688Y-64408076D01*
X30063939Y-64358896D01*
X30065812Y-64297918D01*
X30067368Y-64223097D01*
X30068667Y-64132389D01*
X30069771Y-64023749D01*
X30070740Y-63895131D01*
X30071633Y-63744491D01*
X30072513Y-63569782D01*
X30073439Y-63368961D01*
X30073621Y-63328483D01*
X30074517Y-63096500D01*
X30074980Y-62891714D01*
X30074997Y-62712788D01*
X30074556Y-62558383D01*
X30073644Y-62427160D01*
X30072248Y-62317782D01*
X30070356Y-62228909D01*
X30067954Y-62159204D01*
X30065031Y-62107328D01*
X30061681Y-62072753D01*
X30029083Y-61900555D01*
X29979572Y-61750433D01*
X29912555Y-61621053D01*
X29827440Y-61511079D01*
X29800145Y-61483449D01*
X29696046Y-61398189D01*
X29583097Y-61335317D01*
X29457569Y-61293474D01*
X29315734Y-61271305D01*
X29204783Y-61266765D01*
X29041263Y-61278033D01*
X28894485Y-61312407D01*
X28764549Y-61369807D01*
X28651554Y-61450153D01*
X28555601Y-61553365D01*
X28476790Y-61679364D01*
X28415221Y-61828071D01*
X28389684Y-61915787D01*
X28357023Y-62044214D01*
X28357023Y-63250000D01*
X28356990Y-63470886D01*
X27928083Y-63470886D01*
X27920193Y-63454467D01*
X27837453Y-63340384D01*
X27814138Y-63315442D01*
X27739061Y-63239156D01*
X27815850Y-63163321D01*
X27899380Y-63061456D01*
X27967518Y-62936710D01*
X28019821Y-62790511D01*
X28055847Y-62624288D01*
X28075152Y-62439471D01*
X28078530Y-62315337D01*
X28069856Y-62118250D01*
X28044087Y-61939527D01*
X28001602Y-61780446D01*
X27942782Y-61642285D01*
X27868006Y-61526320D01*
X27831447Y-61484027D01*
X27742287Y-61403180D01*
X27645554Y-61343243D01*
X27536387Y-61302181D01*
X27409929Y-61277957D01*
X27322290Y-61270581D01*
X27155172Y-61272355D01*
X27005829Y-61296035D01*
X26874155Y-61341748D01*
X26760041Y-61409622D01*
X26663380Y-61499785D01*
X26584064Y-61612366D01*
X26521985Y-61747493D01*
X26477036Y-61905294D01*
X26449108Y-62085897D01*
X26438095Y-62289431D01*
X26437894Y-62322472D01*
X24620068Y-62322472D01*
X24702791Y-62038219D01*
X24820215Y-61734591D01*
X24962865Y-61443964D01*
X25116547Y-61188034D01*
X25306097Y-60924903D01*
X25516011Y-60680611D01*
X25744710Y-60456171D01*
X25990617Y-60252598D01*
X26252156Y-60070907D01*
X26527750Y-59912111D01*
X26815821Y-59777225D01*
X27114793Y-59667262D01*
X27423088Y-59583237D01*
X27689822Y-59533186D01*
X27761763Y-59525267D01*
X27856753Y-59519020D01*
X27969353Y-59514444D01*
X28094122Y-59511541D01*
X28225618Y-59510310D01*
X28358403Y-59510750D01*
G36*
X27364767Y-63332192D02*
X27452071Y-63345058D01*
X27509110Y-63361570D01*
X27599473Y-63407807D01*
X27674525Y-63470327D01*
X27735292Y-63551058D01*
X27782801Y-63651928D01*
X27818082Y-63774865D01*
X27842160Y-63921796D01*
X27850032Y-64001310D01*
X27856907Y-64161497D01*
X27851880Y-64318544D01*
X27835620Y-64466697D01*
X27808795Y-64600201D01*
X27772072Y-64713304D01*
X27765588Y-64728524D01*
X27719297Y-64805206D01*
X27653423Y-64877435D01*
X27576604Y-64936499D01*
X27538556Y-64957530D01*
X27500295Y-64974486D01*
X27464510Y-64985916D01*
X27423656Y-64993094D01*
X27370191Y-64997291D01*
X27296570Y-64999782D01*
X27286798Y-65000009D01*
X27215424Y-65000619D01*
X27150714Y-64999355D01*
X27100169Y-64996476D01*
X27072753Y-64992654D01*
X26963621Y-64951468D01*
X26869648Y-64890506D01*
X26794882Y-64812894D01*
X26754341Y-64746666D01*
X26722788Y-64674367D01*
X26698822Y-64601129D01*
X26681561Y-64521565D01*
X26670123Y-64430290D01*
X26663627Y-64321917D01*
X26661189Y-64191062D01*
X26661137Y-64177528D01*
X26661253Y-64075512D01*
X26662546Y-63996119D01*
X26665464Y-63933443D01*
X26670458Y-63881578D01*
X26677977Y-63834616D01*
X26688470Y-63786652D01*
X26691967Y-63772379D01*
X26732354Y-63644704D01*
X26784693Y-63541301D01*
X26850839Y-63459752D01*
X26932646Y-63397635D01*
X27006441Y-63361931D01*
X27078604Y-63342329D01*
X27168641Y-63330834D01*
X27267159Y-63327452D01*
X27364767Y-63332192D01*
X27364767Y-63332192D01*
G37*
X27364767Y-63332192D02*
X27452071Y-63345058D01*
X27509110Y-63361570D01*
X27599473Y-63407807D01*
X27674525Y-63470327D01*
X27735292Y-63551058D01*
X27782801Y-63651928D01*
X27818082Y-63774865D01*
X27842160Y-63921796D01*
X27850032Y-64001310D01*
X27856907Y-64161497D01*
X27851880Y-64318544D01*
X27835620Y-64466697D01*
X27808795Y-64600201D01*
X27772072Y-64713304D01*
X27765588Y-64728524D01*
X27719297Y-64805206D01*
X27653423Y-64877435D01*
X27576604Y-64936499D01*
X27538556Y-64957530D01*
X27500295Y-64974486D01*
X27464510Y-64985916D01*
X27423656Y-64993094D01*
X27370191Y-64997291D01*
X27296570Y-64999782D01*
X27286798Y-65000009D01*
X27215424Y-65000619D01*
X27150714Y-64999355D01*
X27100169Y-64996476D01*
X27072753Y-64992654D01*
X26963621Y-64951468D01*
X26869648Y-64890506D01*
X26794882Y-64812894D01*
X26754341Y-64746666D01*
X26722788Y-64674367D01*
X26698822Y-64601129D01*
X26681561Y-64521565D01*
X26670123Y-64430290D01*
X26663627Y-64321917D01*
X26661189Y-64191062D01*
X26661137Y-64177528D01*
X26661253Y-64075512D01*
X26662546Y-63996119D01*
X26665464Y-63933443D01*
X26670458Y-63881578D01*
X26677977Y-63834616D01*
X26688470Y-63786652D01*
X26691967Y-63772379D01*
X26732354Y-63644704D01*
X26784693Y-63541301D01*
X26850839Y-63459752D01*
X26932646Y-63397635D01*
X27006441Y-63361931D01*
X27078604Y-63342329D01*
X27168641Y-63330834D01*
X27267159Y-63327452D01*
X27364767Y-63332192D01*
G36*
X27344464Y-61488223D02*
X27401584Y-61489913D01*
X27443341Y-61493900D01*
X27476319Y-61501137D01*
X27507107Y-61512575D01*
X27538556Y-61527329D01*
X27624129Y-61579888D01*
X27694482Y-61647359D01*
X27750769Y-61732059D01*
X27794149Y-61836302D01*
X27825778Y-61962403D01*
X27846813Y-62112679D01*
X27850301Y-62151236D01*
X27857129Y-62303524D01*
X27853061Y-62453553D01*
X27838779Y-62595901D01*
X27814966Y-62725143D01*
X27782304Y-62835859D01*
X27756647Y-62895330D01*
X27694462Y-62987837D01*
X27612366Y-63061051D01*
X27512123Y-63114245D01*
X27395497Y-63146694D01*
X27264251Y-63157671D01*
X27140014Y-63149252D01*
X27019681Y-63121308D01*
X26916084Y-63071965D01*
X26831016Y-63002434D01*
X26766271Y-62913923D01*
X26753127Y-62888248D01*
X26721016Y-62813003D01*
X26696718Y-62737347D01*
X26679378Y-62655853D01*
X26668141Y-62563090D01*
X26662152Y-62453629D01*
X26660554Y-62322041D01*
X26660635Y-62301068D01*
X26663244Y-62167227D01*
X26670072Y-62056264D01*
X26682034Y-61962712D01*
X26700045Y-61881101D01*
X26725018Y-61805962D01*
X26754764Y-61738191D01*
X26806797Y-61658894D01*
X26878817Y-61588162D01*
X26962281Y-61533853D01*
X26991117Y-61520779D01*
X27028798Y-61506999D01*
X27065610Y-61497646D01*
X27108415Y-61491898D01*
X27164074Y-61488931D01*
X27239447Y-61487923D01*
X27265393Y-61487880D01*
X27344464Y-61488223D01*
X27344464Y-61488223D01*
G37*
X27344464Y-61488223D02*
X27401584Y-61489913D01*
X27443341Y-61493900D01*
X27476319Y-61501137D01*
X27507107Y-61512575D01*
X27538556Y-61527329D01*
X27624129Y-61579888D01*
X27694482Y-61647359D01*
X27750769Y-61732059D01*
X27794149Y-61836302D01*
X27825778Y-61962403D01*
X27846813Y-62112679D01*
X27850301Y-62151236D01*
X27857129Y-62303524D01*
X27853061Y-62453553D01*
X27838779Y-62595901D01*
X27814966Y-62725143D01*
X27782304Y-62835859D01*
X27756647Y-62895330D01*
X27694462Y-62987837D01*
X27612366Y-63061051D01*
X27512123Y-63114245D01*
X27395497Y-63146694D01*
X27264251Y-63157671D01*
X27140014Y-63149252D01*
X27019681Y-63121308D01*
X26916084Y-63071965D01*
X26831016Y-63002434D01*
X26766271Y-62913923D01*
X26753127Y-62888248D01*
X26721016Y-62813003D01*
X26696718Y-62737347D01*
X26679378Y-62655853D01*
X26668141Y-62563090D01*
X26662152Y-62453629D01*
X26660554Y-62322041D01*
X26660635Y-62301068D01*
X26663244Y-62167227D01*
X26670072Y-62056264D01*
X26682034Y-61962712D01*
X26700045Y-61881101D01*
X26725018Y-61805962D01*
X26754764Y-61738191D01*
X26806797Y-61658894D01*
X26878817Y-61588162D01*
X26962281Y-61533853D01*
X26991117Y-61520779D01*
X27028798Y-61506999D01*
X27065610Y-61497646D01*
X27108415Y-61491898D01*
X27164074Y-61488931D01*
X27239447Y-61487923D01*
X27265393Y-61487880D01*
X27344464Y-61488223D01*
G36*
X29309509Y-61486300D02*
X29436783Y-61508488D01*
X29545370Y-61550923D01*
X29636625Y-61614287D01*
X29711901Y-61699258D01*
X29762557Y-61785338D01*
X29778569Y-61818116D01*
X29792625Y-61848429D01*
X29804851Y-61878280D01*
X29815375Y-61909673D01*
X29824324Y-61944613D01*
X29831827Y-61985103D01*
X29838010Y-62033148D01*
X29843002Y-62090751D01*
X29846929Y-62159917D01*
X29849920Y-62242648D01*
X29852101Y-62340950D01*
X29853601Y-62456827D01*
X29854547Y-62592281D01*
X29855067Y-62749318D01*
X29855287Y-62929941D01*
X29855337Y-63136154D01*
X29855337Y-63242865D01*
X29855325Y-63461839D01*
X29855201Y-63654277D01*
X29854839Y-63822185D01*
X29854110Y-63967567D01*
X29852887Y-64092428D01*
X29851042Y-64198771D01*
X29848448Y-64288601D01*
X29844975Y-64363923D01*
X29840496Y-64426741D01*
X29834884Y-64479059D01*
X29828011Y-64522883D01*
X29819748Y-64560215D01*
X29809969Y-64593061D01*
X29798544Y-64623426D01*
X29785347Y-64653313D01*
X29770249Y-64684726D01*
X29762346Y-64700821D01*
X29705588Y-64789661D01*
X29629777Y-64869608D01*
X29542723Y-64933367D01*
X29480711Y-64963901D01*
X29409458Y-64983723D01*
X29320033Y-64996787D01*
X29221813Y-65002816D01*
X29124176Y-65001532D01*
X29036498Y-64992658D01*
X28976454Y-64978823D01*
X28868305Y-64930596D01*
X28777085Y-64861973D01*
X28701640Y-64771600D01*
X28640815Y-64658120D01*
X28597091Y-64533251D01*
X28592450Y-64515459D01*
X28588393Y-64495663D01*
X28584882Y-64471928D01*
X28581877Y-64442318D01*
X28579339Y-64404897D01*
X28577229Y-64357730D01*
X28575509Y-64298880D01*
X28574139Y-64226413D01*
X28573079Y-64138392D01*
X28572292Y-64032881D01*
X28571738Y-63907946D01*
X28571377Y-63761650D01*
X28571172Y-63592057D01*
X28571082Y-63397232D01*
X28571068Y-63242865D01*
X28571051Y-63023277D01*
X28571086Y-62830251D01*
X28571301Y-62661812D01*
X28571823Y-62515982D01*
X28572780Y-62390785D01*
X28574300Y-62284245D01*
X28576512Y-62194386D01*
X28579542Y-62119230D01*
X28583519Y-62056801D01*
X28588571Y-62005123D01*
X28594825Y-61962218D01*
X28602409Y-61926112D01*
X28611451Y-61894827D01*
X28622079Y-61866386D01*
X28634421Y-61838813D01*
X28648604Y-61810133D01*
X28664757Y-61778367D01*
X28665947Y-61776012D01*
X28727345Y-61676157D01*
X28800629Y-61598913D01*
X28888608Y-61542625D01*
X28994090Y-61505637D01*
X29119885Y-61486295D01*
X29162192Y-61483678D01*
X29309509Y-61486300D01*
X29309509Y-61486300D01*
G37*
X29309509Y-61486300D02*
X29436783Y-61508488D01*
X29545370Y-61550923D01*
X29636625Y-61614287D01*
X29711901Y-61699258D01*
X29762557Y-61785338D01*
X29778569Y-61818116D01*
X29792625Y-61848429D01*
X29804851Y-61878280D01*
X29815375Y-61909673D01*
X29824324Y-61944613D01*
X29831827Y-61985103D01*
X29838010Y-62033148D01*
X29843002Y-62090751D01*
X29846929Y-62159917D01*
X29849920Y-62242648D01*
X29852101Y-62340950D01*
X29853601Y-62456827D01*
X29854547Y-62592281D01*
X29855067Y-62749318D01*
X29855287Y-62929941D01*
X29855337Y-63136154D01*
X29855337Y-63242865D01*
X29855325Y-63461839D01*
X29855201Y-63654277D01*
X29854839Y-63822185D01*
X29854110Y-63967567D01*
X29852887Y-64092428D01*
X29851042Y-64198771D01*
X29848448Y-64288601D01*
X29844975Y-64363923D01*
X29840496Y-64426741D01*
X29834884Y-64479059D01*
X29828011Y-64522883D01*
X29819748Y-64560215D01*
X29809969Y-64593061D01*
X29798544Y-64623426D01*
X29785347Y-64653313D01*
X29770249Y-64684726D01*
X29762346Y-64700821D01*
X29705588Y-64789661D01*
X29629777Y-64869608D01*
X29542723Y-64933367D01*
X29480711Y-64963901D01*
X29409458Y-64983723D01*
X29320033Y-64996787D01*
X29221813Y-65002816D01*
X29124176Y-65001532D01*
X29036498Y-64992658D01*
X28976454Y-64978823D01*
X28868305Y-64930596D01*
X28777085Y-64861973D01*
X28701640Y-64771600D01*
X28640815Y-64658120D01*
X28597091Y-64533251D01*
X28592450Y-64515459D01*
X28588393Y-64495663D01*
X28584882Y-64471928D01*
X28581877Y-64442318D01*
X28579339Y-64404897D01*
X28577229Y-64357730D01*
X28575509Y-64298880D01*
X28574139Y-64226413D01*
X28573079Y-64138392D01*
X28572292Y-64032881D01*
X28571738Y-63907946D01*
X28571377Y-63761650D01*
X28571172Y-63592057D01*
X28571082Y-63397232D01*
X28571068Y-63242865D01*
X28571051Y-63023277D01*
X28571086Y-62830251D01*
X28571301Y-62661812D01*
X28571823Y-62515982D01*
X28572780Y-62390785D01*
X28574300Y-62284245D01*
X28576512Y-62194386D01*
X28579542Y-62119230D01*
X28583519Y-62056801D01*
X28588571Y-62005123D01*
X28594825Y-61962218D01*
X28602409Y-61926112D01*
X28611451Y-61894827D01*
X28622079Y-61866386D01*
X28634421Y-61838813D01*
X28648604Y-61810133D01*
X28664757Y-61778367D01*
X28665947Y-61776012D01*
X28727345Y-61676157D01*
X28800629Y-61598913D01*
X28888608Y-61542625D01*
X28994090Y-61505637D01*
X29119885Y-61486295D01*
X29162192Y-61483678D01*
X29309509Y-61486300D01*
D12*
X25000000Y-72250000D02*
G75*
G03X25000000Y-72250000I-4750000J0D01*
G01*
X81915476Y-77000000D02*
G75*
G03X81915476Y-77000000I-2915476J0D01*
G01*
X84000000Y-72000000D02*
X84000000Y-82000000D01*
X84000000Y-82000000D02*
X73000000Y-82000000D01*
X73000000Y-82000000D02*
X73000000Y-72000000D01*
X73000000Y-72000000D02*
X84000000Y-72000000D01*
X81000000Y-77000000D02*
G75*
G03X81000000Y-77000000I-2000000J0D01*
G01*
X81915476Y-64000000D02*
G75*
G03X81915476Y-64000000I-2915476J0D01*
G01*
X84000000Y-59000000D02*
X84000000Y-69000000D01*
X84000000Y-69000000D02*
X73000000Y-69000000D01*
X73000000Y-69000000D02*
X73000000Y-59000000D01*
X73000000Y-59000000D02*
X84000000Y-59000000D01*
X81000000Y-64000000D02*
G75*
G03X81000000Y-64000000I-2000000J0D01*
G01*
X99915476Y-64000000D02*
G75*
G03X99915476Y-64000000I-2915476J0D01*
G01*
X102000000Y-59000000D02*
X102000000Y-69000000D01*
X102000000Y-69000000D02*
X91000000Y-69000000D01*
X91000000Y-69000000D02*
X91000000Y-59000000D01*
X91000000Y-59000000D02*
X102000000Y-59000000D01*
X99000000Y-64000000D02*
G75*
G03X99000000Y-64000000I-2000000J0D01*
G01*
X99915476Y-77000000D02*
G75*
G03X99915476Y-77000000I-2915476J0D01*
G01*
X102000000Y-72000000D02*
X102000000Y-82000000D01*
X102000000Y-82000000D02*
X91000000Y-82000000D01*
X91000000Y-82000000D02*
X91000000Y-72000000D01*
X91000000Y-72000000D02*
X102000000Y-72000000D01*
X99000000Y-77000000D02*
G75*
G03X99000000Y-77000000I-2000000J0D01*
G01*
X117915476Y-64000000D02*
G75*
G03X117915476Y-64000000I-2915476J0D01*
G01*
X120000000Y-59000000D02*
X120000000Y-69000000D01*
X120000000Y-69000000D02*
X109000000Y-69000000D01*
X109000000Y-69000000D02*
X109000000Y-59000000D01*
X109000000Y-59000000D02*
X120000000Y-59000000D01*
X117000000Y-64000000D02*
G75*
G03X117000000Y-64000000I-2000000J0D01*
G01*
X117915476Y-77000000D02*
G75*
G03X117915476Y-77000000I-2915476J0D01*
G01*
X120000000Y-72000000D02*
X120000000Y-82000000D01*
X120000000Y-82000000D02*
X109000000Y-82000000D01*
X109000000Y-82000000D02*
X109000000Y-72000000D01*
X109000000Y-72000000D02*
X120000000Y-72000000D01*
X117000000Y-77000000D02*
G75*
G03X117000000Y-77000000I-2000000J0D01*
G01*
X135915476Y-64000000D02*
G75*
G03X135915476Y-64000000I-2915476J0D01*
G01*
X138000000Y-59000000D02*
X138000000Y-69000000D01*
X138000000Y-69000000D02*
X127000000Y-69000000D01*
X127000000Y-69000000D02*
X127000000Y-59000000D01*
X127000000Y-59000000D02*
X138000000Y-59000000D01*
X135000000Y-64000000D02*
G75*
G03X135000000Y-64000000I-2000000J0D01*
G01*
X135915476Y-77000000D02*
G75*
G03X135915476Y-77000000I-2915476J0D01*
G01*
X138000000Y-72000000D02*
X138000000Y-82000000D01*
X138000000Y-82000000D02*
X127000000Y-82000000D01*
X127000000Y-82000000D02*
X127000000Y-72000000D01*
X127000000Y-72000000D02*
X138000000Y-72000000D01*
X135000000Y-77000000D02*
G75*
G03X135000000Y-77000000I-2000000J0D01*
G01*
X153915476Y-64000000D02*
G75*
G03X153915476Y-64000000I-2915476J0D01*
G01*
X156000000Y-59000000D02*
X156000000Y-69000000D01*
X156000000Y-69000000D02*
X145000000Y-69000000D01*
X145000000Y-69000000D02*
X145000000Y-59000000D01*
X145000000Y-59000000D02*
X156000000Y-59000000D01*
X153000000Y-64000000D02*
G75*
G03X153000000Y-64000000I-2000000J0D01*
G01*
X153915476Y-77000000D02*
G75*
G03X153915476Y-77000000I-2915476J0D01*
G01*
X156000000Y-72000000D02*
X156000000Y-82000000D01*
X156000000Y-82000000D02*
X145000000Y-82000000D01*
X145000000Y-82000000D02*
X145000000Y-72000000D01*
X145000000Y-72000000D02*
X156000000Y-72000000D01*
X153000000Y-77000000D02*
G75*
G03X153000000Y-77000000I-2000000J0D01*
G01*
X171915476Y-64000000D02*
G75*
G03X171915476Y-64000000I-2915476J0D01*
G01*
X174000000Y-59000000D02*
X174000000Y-69000000D01*
X174000000Y-69000000D02*
X163000000Y-69000000D01*
X163000000Y-69000000D02*
X163000000Y-59000000D01*
X163000000Y-59000000D02*
X174000000Y-59000000D01*
X171000000Y-64000000D02*
G75*
G03X171000000Y-64000000I-2000000J0D01*
G01*
X171915476Y-77000000D02*
G75*
G03X171915476Y-77000000I-2915476J0D01*
G01*
X174000000Y-72000000D02*
X174000000Y-82000000D01*
X174000000Y-82000000D02*
X163000000Y-82000000D01*
X163000000Y-82000000D02*
X163000000Y-72000000D01*
X163000000Y-72000000D02*
X174000000Y-72000000D01*
X171000000Y-77000000D02*
G75*
G03X171000000Y-77000000I-2000000J0D01*
G01*
X189915476Y-64000000D02*
G75*
G03X189915476Y-64000000I-2915476J0D01*
G01*
X192000000Y-59000000D02*
X192000000Y-69000000D01*
X192000000Y-69000000D02*
X181000000Y-69000000D01*
X181000000Y-69000000D02*
X181000000Y-59000000D01*
X181000000Y-59000000D02*
X192000000Y-59000000D01*
X189000000Y-64000000D02*
G75*
G03X189000000Y-64000000I-2000000J0D01*
G01*
X189915476Y-77000000D02*
G75*
G03X189915476Y-77000000I-2915476J0D01*
G01*
X192000000Y-72000000D02*
X192000000Y-82000000D01*
X192000000Y-82000000D02*
X181000000Y-82000000D01*
X181000000Y-82000000D02*
X181000000Y-72000000D01*
X181000000Y-72000000D02*
X192000000Y-72000000D01*
X189000000Y-77000000D02*
G75*
G03X189000000Y-77000000I-2000000J0D01*
G01*
X207915476Y-64000000D02*
G75*
G03X207915476Y-64000000I-2915476J0D01*
G01*
X210000000Y-59000000D02*
X210000000Y-69000000D01*
X210000000Y-69000000D02*
X199000000Y-69000000D01*
X199000000Y-69000000D02*
X199000000Y-59000000D01*
X199000000Y-59000000D02*
X210000000Y-59000000D01*
X207000000Y-64000000D02*
G75*
G03X207000000Y-64000000I-2000000J0D01*
G01*
X207915476Y-77000000D02*
G75*
G03X207915476Y-77000000I-2915476J0D01*
G01*
X210000000Y-72000000D02*
X210000000Y-82000000D01*
X210000000Y-82000000D02*
X199000000Y-82000000D01*
X199000000Y-82000000D02*
X199000000Y-72000000D01*
X199000000Y-72000000D02*
X210000000Y-72000000D01*
X207000000Y-77000000D02*
G75*
G03X207000000Y-77000000I-2000000J0D01*
G01*
X225915476Y-64000000D02*
G75*
G03X225915476Y-64000000I-2915476J0D01*
G01*
X228000000Y-59000000D02*
X228000000Y-69000000D01*
X228000000Y-69000000D02*
X217000000Y-69000000D01*
X217000000Y-69000000D02*
X217000000Y-59000000D01*
X217000000Y-59000000D02*
X228000000Y-59000000D01*
X225000000Y-64000000D02*
G75*
G03X225000000Y-64000000I-2000000J0D01*
G01*
X225915476Y-77000000D02*
G75*
G03X225915476Y-77000000I-2915476J0D01*
G01*
X228000000Y-72000000D02*
X228000000Y-82000000D01*
X228000000Y-82000000D02*
X217000000Y-82000000D01*
X217000000Y-82000000D02*
X217000000Y-72000000D01*
X217000000Y-72000000D02*
X228000000Y-72000000D01*
X225000000Y-77000000D02*
G75*
G03X225000000Y-77000000I-2000000J0D01*
G01*
X243915476Y-64000000D02*
G75*
G03X243915476Y-64000000I-2915476J0D01*
G01*
X246000000Y-59000000D02*
X246000000Y-69000000D01*
X246000000Y-69000000D02*
X235000000Y-69000000D01*
X235000000Y-69000000D02*
X235000000Y-59000000D01*
X235000000Y-59000000D02*
X246000000Y-59000000D01*
X243000000Y-64000000D02*
G75*
G03X243000000Y-64000000I-2000000J0D01*
G01*
X243915476Y-77000000D02*
G75*
G03X243915476Y-77000000I-2915476J0D01*
G01*
X246000000Y-72000000D02*
X246000000Y-82000000D01*
X246000000Y-82000000D02*
X235000000Y-82000000D01*
X235000000Y-82000000D02*
X235000000Y-72000000D01*
X235000000Y-72000000D02*
X246000000Y-72000000D01*
X243000000Y-77000000D02*
G75*
G03X243000000Y-77000000I-2000000J0D01*
G01*
X261915476Y-77000000D02*
G75*
G03X261915476Y-77000000I-2915476J0D01*
G01*
X264000000Y-72000000D02*
X264000000Y-82000000D01*
X264000000Y-82000000D02*
X253000000Y-82000000D01*
X253000000Y-82000000D02*
X253000000Y-72000000D01*
X253000000Y-72000000D02*
X264000000Y-72000000D01*
X261000000Y-77000000D02*
G75*
G03X261000000Y-77000000I-2000000J0D01*
G01*
X261915476Y-64000000D02*
G75*
G03X261915476Y-64000000I-2915476J0D01*
G01*
X264000000Y-59000000D02*
X264000000Y-69000000D01*
X264000000Y-69000000D02*
X253000000Y-69000000D01*
X253000000Y-69000000D02*
X253000000Y-59000000D01*
X253000000Y-59000000D02*
X264000000Y-59000000D01*
X261000000Y-64000000D02*
G75*
G03X261000000Y-64000000I-2000000J0D01*
G01*
X44500000Y-72250000D02*
G75*
G03X44500000Y-72250000I-5500000J0D01*
G01*
X46500000Y-72250000D02*
G75*
G03X46500000Y-72250000I-7500000J0D01*
G01*
X66500000Y-72250000D02*
G75*
G03X66500000Y-72250000I-5500000J0D01*
G01*
X68500000Y-72250000D02*
G75*
G03X68500000Y-72250000I-7500000J0D01*
G01*
X19278572Y-67035714D02*
X19240477Y-67073810D01*
X19126191Y-67111905D01*
X19050001Y-67111905D01*
X18935715Y-67073810D01*
X18859524Y-66997619D01*
X18821429Y-66921429D01*
X18783334Y-66769048D01*
X18783334Y-66654762D01*
X18821429Y-66502381D01*
X18859524Y-66426190D01*
X18935715Y-66350000D01*
X19050001Y-66311905D01*
X19126191Y-66311905D01*
X19240477Y-66350000D01*
X19278572Y-66388095D01*
X19773810Y-66311905D02*
X19926191Y-66311905D01*
X20002382Y-66350000D01*
X20078572Y-66426190D01*
X20116667Y-66578571D01*
X20116667Y-66845238D01*
X20078572Y-66997619D01*
X20002382Y-67073810D01*
X19926191Y-67111905D01*
X19773810Y-67111905D01*
X19697620Y-67073810D01*
X19621429Y-66997619D01*
X19583334Y-66845238D01*
X19583334Y-66578571D01*
X19621429Y-66426190D01*
X19697620Y-66350000D01*
X19773810Y-66311905D01*
X20459524Y-67111905D02*
X20459524Y-66311905D01*
X20916667Y-67111905D01*
X20916667Y-66311905D01*
X21716667Y-67111905D02*
X21259524Y-67111905D01*
X21488095Y-67111905D02*
X21488095Y-66311905D01*
X21411905Y-66426190D01*
X21335714Y-66502381D01*
X21259524Y-66540476D01*
X84678571Y-77500000D02*
X85750000Y-77500000D01*
X85964286Y-77571428D01*
X86107143Y-77714285D01*
X86178571Y-77928571D01*
X86178571Y-78071428D01*
X86178571Y-76000000D02*
X86178571Y-76857143D01*
X86178571Y-76428571D02*
X84678571Y-76428571D01*
X84892857Y-76571428D01*
X85035714Y-76714286D01*
X85107143Y-76857143D01*
X84678571Y-64500000D02*
X85750000Y-64500000D01*
X85964286Y-64571428D01*
X86107143Y-64714285D01*
X86178571Y-64928571D01*
X86178571Y-65071428D01*
X84821429Y-63857143D02*
X84750000Y-63785714D01*
X84678571Y-63642857D01*
X84678571Y-63285714D01*
X84750000Y-63142857D01*
X84821429Y-63071428D01*
X84964286Y-63000000D01*
X85107143Y-63000000D01*
X85321429Y-63071428D01*
X86178571Y-63928571D01*
X86178571Y-63000000D01*
X102678571Y-64500000D02*
X103750000Y-64500000D01*
X103964286Y-64571428D01*
X104107143Y-64714285D01*
X104178571Y-64928571D01*
X104178571Y-65071428D01*
X102678571Y-63928571D02*
X102678571Y-63000000D01*
X103250000Y-63500000D01*
X103250000Y-63285714D01*
X103321429Y-63142857D01*
X103392857Y-63071428D01*
X103535714Y-63000000D01*
X103892857Y-63000000D01*
X104035714Y-63071428D01*
X104107143Y-63142857D01*
X104178571Y-63285714D01*
X104178571Y-63714286D01*
X104107143Y-63857143D01*
X104035714Y-63928571D01*
X102678571Y-77500000D02*
X103750000Y-77500000D01*
X103964286Y-77571428D01*
X104107143Y-77714285D01*
X104178571Y-77928571D01*
X104178571Y-78071428D01*
X103178571Y-76142857D02*
X104178571Y-76142857D01*
X102607143Y-76500000D02*
X103678571Y-76857143D01*
X103678571Y-75928571D01*
X120678571Y-64500000D02*
X121750000Y-64500000D01*
X121964286Y-64571428D01*
X122107143Y-64714285D01*
X122178571Y-64928571D01*
X122178571Y-65071428D01*
X120678571Y-63071428D02*
X120678571Y-63785714D01*
X121392857Y-63857143D01*
X121321429Y-63785714D01*
X121250000Y-63642857D01*
X121250000Y-63285714D01*
X121321429Y-63142857D01*
X121392857Y-63071428D01*
X121535714Y-63000000D01*
X121892857Y-63000000D01*
X122035714Y-63071428D01*
X122107143Y-63142857D01*
X122178571Y-63285714D01*
X122178571Y-63642857D01*
X122107143Y-63785714D01*
X122035714Y-63857143D01*
X120678571Y-77500000D02*
X121750000Y-77500000D01*
X121964286Y-77571428D01*
X122107143Y-77714285D01*
X122178571Y-77928571D01*
X122178571Y-78071428D01*
X120678571Y-76142857D02*
X120678571Y-76428571D01*
X120750000Y-76571428D01*
X120821429Y-76642857D01*
X121035714Y-76785714D01*
X121321429Y-76857143D01*
X121892857Y-76857143D01*
X122035714Y-76785714D01*
X122107143Y-76714286D01*
X122178571Y-76571428D01*
X122178571Y-76285714D01*
X122107143Y-76142857D01*
X122035714Y-76071428D01*
X121892857Y-76000000D01*
X121535714Y-76000000D01*
X121392857Y-76071428D01*
X121321429Y-76142857D01*
X121250000Y-76285714D01*
X121250000Y-76571428D01*
X121321429Y-76714286D01*
X121392857Y-76785714D01*
X121535714Y-76857143D01*
X138678571Y-64500000D02*
X139750000Y-64500000D01*
X139964286Y-64571428D01*
X140107143Y-64714285D01*
X140178571Y-64928571D01*
X140178571Y-65071428D01*
X138678571Y-63928571D02*
X138678571Y-62928571D01*
X140178571Y-63571428D01*
X138678571Y-77500000D02*
X139750000Y-77500000D01*
X139964286Y-77571428D01*
X140107143Y-77714285D01*
X140178571Y-77928571D01*
X140178571Y-78071428D01*
X139321429Y-76571428D02*
X139250000Y-76714286D01*
X139178571Y-76785714D01*
X139035714Y-76857143D01*
X138964286Y-76857143D01*
X138821429Y-76785714D01*
X138750000Y-76714286D01*
X138678571Y-76571428D01*
X138678571Y-76285714D01*
X138750000Y-76142857D01*
X138821429Y-76071428D01*
X138964286Y-76000000D01*
X139035714Y-76000000D01*
X139178571Y-76071428D01*
X139250000Y-76142857D01*
X139321429Y-76285714D01*
X139321429Y-76571428D01*
X139392857Y-76714286D01*
X139464286Y-76785714D01*
X139607143Y-76857143D01*
X139892857Y-76857143D01*
X140035714Y-76785714D01*
X140107143Y-76714286D01*
X140178571Y-76571428D01*
X140178571Y-76285714D01*
X140107143Y-76142857D01*
X140035714Y-76071428D01*
X139892857Y-76000000D01*
X139607143Y-76000000D01*
X139464286Y-76071428D01*
X139392857Y-76142857D01*
X139321429Y-76285714D01*
X156678571Y-64500000D02*
X157750000Y-64500000D01*
X157964286Y-64571428D01*
X158107143Y-64714285D01*
X158178571Y-64928571D01*
X158178571Y-65071428D01*
X158178571Y-63714286D02*
X158178571Y-63428571D01*
X158107143Y-63285714D01*
X158035714Y-63214286D01*
X157821429Y-63071428D01*
X157535714Y-63000000D01*
X156964286Y-63000000D01*
X156821429Y-63071428D01*
X156750000Y-63142857D01*
X156678571Y-63285714D01*
X156678571Y-63571428D01*
X156750000Y-63714286D01*
X156821429Y-63785714D01*
X156964286Y-63857143D01*
X157321429Y-63857143D01*
X157464286Y-63785714D01*
X157535714Y-63714286D01*
X157607143Y-63571428D01*
X157607143Y-63285714D01*
X157535714Y-63142857D01*
X157464286Y-63071428D01*
X157321429Y-63000000D01*
X156678571Y-78214285D02*
X157750000Y-78214285D01*
X157964286Y-78285713D01*
X158107143Y-78428570D01*
X158178571Y-78642856D01*
X158178571Y-78785713D01*
X158178571Y-76714285D02*
X158178571Y-77571428D01*
X158178571Y-77142856D02*
X156678571Y-77142856D01*
X156892857Y-77285713D01*
X157035714Y-77428571D01*
X157107143Y-77571428D01*
X156678571Y-75785714D02*
X156678571Y-75642857D01*
X156750000Y-75500000D01*
X156821429Y-75428571D01*
X156964286Y-75357142D01*
X157250000Y-75285714D01*
X157607143Y-75285714D01*
X157892857Y-75357142D01*
X158035714Y-75428571D01*
X158107143Y-75500000D01*
X158178571Y-75642857D01*
X158178571Y-75785714D01*
X158107143Y-75928571D01*
X158035714Y-76000000D01*
X157892857Y-76071428D01*
X157607143Y-76142857D01*
X157250000Y-76142857D01*
X156964286Y-76071428D01*
X156821429Y-76000000D01*
X156750000Y-75928571D01*
X156678571Y-75785714D01*
X174678571Y-65214285D02*
X175750000Y-65214285D01*
X175964286Y-65285713D01*
X176107143Y-65428570D01*
X176178571Y-65642856D01*
X176178571Y-65785713D01*
X176178571Y-63714285D02*
X176178571Y-64571428D01*
X176178571Y-64142856D02*
X174678571Y-64142856D01*
X174892857Y-64285713D01*
X175035714Y-64428571D01*
X175107143Y-64571428D01*
X176178571Y-62285714D02*
X176178571Y-63142857D01*
X176178571Y-62714285D02*
X174678571Y-62714285D01*
X174892857Y-62857142D01*
X175035714Y-63000000D01*
X175107143Y-63142857D01*
X174678571Y-78214285D02*
X175750000Y-78214285D01*
X175964286Y-78285713D01*
X176107143Y-78428570D01*
X176178571Y-78642856D01*
X176178571Y-78785713D01*
X176178571Y-76714285D02*
X176178571Y-77571428D01*
X176178571Y-77142856D02*
X174678571Y-77142856D01*
X174892857Y-77285713D01*
X175035714Y-77428571D01*
X175107143Y-77571428D01*
X174821429Y-76142857D02*
X174750000Y-76071428D01*
X174678571Y-75928571D01*
X174678571Y-75571428D01*
X174750000Y-75428571D01*
X174821429Y-75357142D01*
X174964286Y-75285714D01*
X175107143Y-75285714D01*
X175321429Y-75357142D01*
X176178571Y-76214285D01*
X176178571Y-75285714D01*
X192678571Y-65214285D02*
X193750000Y-65214285D01*
X193964286Y-65285713D01*
X194107143Y-65428570D01*
X194178571Y-65642856D01*
X194178571Y-65785713D01*
X194178571Y-63714285D02*
X194178571Y-64571428D01*
X194178571Y-64142856D02*
X192678571Y-64142856D01*
X192892857Y-64285713D01*
X193035714Y-64428571D01*
X193107143Y-64571428D01*
X192678571Y-63214285D02*
X192678571Y-62285714D01*
X193250000Y-62785714D01*
X193250000Y-62571428D01*
X193321429Y-62428571D01*
X193392857Y-62357142D01*
X193535714Y-62285714D01*
X193892857Y-62285714D01*
X194035714Y-62357142D01*
X194107143Y-62428571D01*
X194178571Y-62571428D01*
X194178571Y-63000000D01*
X194107143Y-63142857D01*
X194035714Y-63214285D01*
X192678571Y-78214285D02*
X193750000Y-78214285D01*
X193964286Y-78285713D01*
X194107143Y-78428570D01*
X194178571Y-78642856D01*
X194178571Y-78785713D01*
X194178571Y-76714285D02*
X194178571Y-77571428D01*
X194178571Y-77142856D02*
X192678571Y-77142856D01*
X192892857Y-77285713D01*
X193035714Y-77428571D01*
X193107143Y-77571428D01*
X193178571Y-75428571D02*
X194178571Y-75428571D01*
X192607143Y-75785714D02*
X193678571Y-76142857D01*
X193678571Y-75214285D01*
X210678571Y-65214285D02*
X211750000Y-65214285D01*
X211964286Y-65285713D01*
X212107143Y-65428570D01*
X212178571Y-65642856D01*
X212178571Y-65785713D01*
X212178571Y-63714285D02*
X212178571Y-64571428D01*
X212178571Y-64142856D02*
X210678571Y-64142856D01*
X210892857Y-64285713D01*
X211035714Y-64428571D01*
X211107143Y-64571428D01*
X210678571Y-62357142D02*
X210678571Y-63071428D01*
X211392857Y-63142857D01*
X211321429Y-63071428D01*
X211250000Y-62928571D01*
X211250000Y-62571428D01*
X211321429Y-62428571D01*
X211392857Y-62357142D01*
X211535714Y-62285714D01*
X211892857Y-62285714D01*
X212035714Y-62357142D01*
X212107143Y-62428571D01*
X212178571Y-62571428D01*
X212178571Y-62928571D01*
X212107143Y-63071428D01*
X212035714Y-63142857D01*
X210678571Y-78214285D02*
X211750000Y-78214285D01*
X211964286Y-78285713D01*
X212107143Y-78428570D01*
X212178571Y-78642856D01*
X212178571Y-78785713D01*
X212178571Y-76714285D02*
X212178571Y-77571428D01*
X212178571Y-77142856D02*
X210678571Y-77142856D01*
X210892857Y-77285713D01*
X211035714Y-77428571D01*
X211107143Y-77571428D01*
X210678571Y-75428571D02*
X210678571Y-75714285D01*
X210750000Y-75857142D01*
X210821429Y-75928571D01*
X211035714Y-76071428D01*
X211321429Y-76142857D01*
X211892857Y-76142857D01*
X212035714Y-76071428D01*
X212107143Y-76000000D01*
X212178571Y-75857142D01*
X212178571Y-75571428D01*
X212107143Y-75428571D01*
X212035714Y-75357142D01*
X211892857Y-75285714D01*
X211535714Y-75285714D01*
X211392857Y-75357142D01*
X211321429Y-75428571D01*
X211250000Y-75571428D01*
X211250000Y-75857142D01*
X211321429Y-76000000D01*
X211392857Y-76071428D01*
X211535714Y-76142857D01*
X228678571Y-65214285D02*
X229750000Y-65214285D01*
X229964286Y-65285713D01*
X230107143Y-65428570D01*
X230178571Y-65642856D01*
X230178571Y-65785713D01*
X230178571Y-63714285D02*
X230178571Y-64571428D01*
X230178571Y-64142856D02*
X228678571Y-64142856D01*
X228892857Y-64285713D01*
X229035714Y-64428571D01*
X229107143Y-64571428D01*
X228678571Y-63214285D02*
X228678571Y-62214285D01*
X230178571Y-62857142D01*
X228678571Y-78214285D02*
X229750000Y-78214285D01*
X229964286Y-78285713D01*
X230107143Y-78428570D01*
X230178571Y-78642856D01*
X230178571Y-78785713D01*
X230178571Y-76714285D02*
X230178571Y-77571428D01*
X230178571Y-77142856D02*
X228678571Y-77142856D01*
X228892857Y-77285713D01*
X229035714Y-77428571D01*
X229107143Y-77571428D01*
X229321429Y-75857142D02*
X229250000Y-76000000D01*
X229178571Y-76071428D01*
X229035714Y-76142857D01*
X228964286Y-76142857D01*
X228821429Y-76071428D01*
X228750000Y-76000000D01*
X228678571Y-75857142D01*
X228678571Y-75571428D01*
X228750000Y-75428571D01*
X228821429Y-75357142D01*
X228964286Y-75285714D01*
X229035714Y-75285714D01*
X229178571Y-75357142D01*
X229250000Y-75428571D01*
X229321429Y-75571428D01*
X229321429Y-75857142D01*
X229392857Y-76000000D01*
X229464286Y-76071428D01*
X229607143Y-76142857D01*
X229892857Y-76142857D01*
X230035714Y-76071428D01*
X230107143Y-76000000D01*
X230178571Y-75857142D01*
X230178571Y-75571428D01*
X230107143Y-75428571D01*
X230035714Y-75357142D01*
X229892857Y-75285714D01*
X229607143Y-75285714D01*
X229464286Y-75357142D01*
X229392857Y-75428571D01*
X229321429Y-75571428D01*
X246678571Y-65214285D02*
X247750000Y-65214285D01*
X247964286Y-65285713D01*
X248107143Y-65428570D01*
X248178571Y-65642856D01*
X248178571Y-65785713D01*
X248178571Y-63714285D02*
X248178571Y-64571428D01*
X248178571Y-64142856D02*
X246678571Y-64142856D01*
X246892857Y-64285713D01*
X247035714Y-64428571D01*
X247107143Y-64571428D01*
X248178571Y-63000000D02*
X248178571Y-62714285D01*
X248107143Y-62571428D01*
X248035714Y-62500000D01*
X247821429Y-62357142D01*
X247535714Y-62285714D01*
X246964286Y-62285714D01*
X246821429Y-62357142D01*
X246750000Y-62428571D01*
X246678571Y-62571428D01*
X246678571Y-62857142D01*
X246750000Y-63000000D01*
X246821429Y-63071428D01*
X246964286Y-63142857D01*
X247321429Y-63142857D01*
X247464286Y-63071428D01*
X247535714Y-63000000D01*
X247607143Y-62857142D01*
X247607143Y-62571428D01*
X247535714Y-62428571D01*
X247464286Y-62357142D01*
X247321429Y-62285714D01*
X246678571Y-78214285D02*
X247750000Y-78214285D01*
X247964286Y-78285713D01*
X248107143Y-78428570D01*
X248178571Y-78642856D01*
X248178571Y-78785713D01*
X246821429Y-77571428D02*
X246750000Y-77499999D01*
X246678571Y-77357142D01*
X246678571Y-76999999D01*
X246750000Y-76857142D01*
X246821429Y-76785713D01*
X246964286Y-76714285D01*
X247107143Y-76714285D01*
X247321429Y-76785713D01*
X248178571Y-77642856D01*
X248178571Y-76714285D01*
X246678571Y-75785714D02*
X246678571Y-75642857D01*
X246750000Y-75500000D01*
X246821429Y-75428571D01*
X246964286Y-75357142D01*
X247250000Y-75285714D01*
X247607143Y-75285714D01*
X247892857Y-75357142D01*
X248035714Y-75428571D01*
X248107143Y-75500000D01*
X248178571Y-75642857D01*
X248178571Y-75785714D01*
X248107143Y-75928571D01*
X248035714Y-76000000D01*
X247892857Y-76071428D01*
X247607143Y-76142857D01*
X247250000Y-76142857D01*
X246964286Y-76071428D01*
X246821429Y-76000000D01*
X246750000Y-75928571D01*
X246678571Y-75785714D01*
X264678571Y-78214285D02*
X265750000Y-78214285D01*
X265964286Y-78285713D01*
X266107143Y-78428570D01*
X266178571Y-78642856D01*
X266178571Y-78785713D01*
X264821429Y-77571428D02*
X264750000Y-77499999D01*
X264678571Y-77357142D01*
X264678571Y-76999999D01*
X264750000Y-76857142D01*
X264821429Y-76785713D01*
X264964286Y-76714285D01*
X265107143Y-76714285D01*
X265321429Y-76785713D01*
X266178571Y-77642856D01*
X266178571Y-76714285D01*
X266178571Y-75285714D02*
X266178571Y-76142857D01*
X266178571Y-75714285D02*
X264678571Y-75714285D01*
X264892857Y-75857142D01*
X265035714Y-76000000D01*
X265107143Y-76142857D01*
X264678571Y-63214285D02*
X265750000Y-63214285D01*
X265964286Y-63285713D01*
X266107143Y-63428570D01*
X266178571Y-63642856D01*
X266178571Y-63785713D01*
X264821429Y-62571428D02*
X264750000Y-62499999D01*
X264678571Y-62357142D01*
X264678571Y-61999999D01*
X264750000Y-61857142D01*
X264821429Y-61785713D01*
X264964286Y-61714285D01*
X265107143Y-61714285D01*
X265321429Y-61785713D01*
X266178571Y-62642856D01*
X266178571Y-61714285D01*
X264821429Y-61142857D02*
X264750000Y-61071428D01*
X264678571Y-60928571D01*
X264678571Y-60571428D01*
X264750000Y-60428571D01*
X264821429Y-60357142D01*
X264964286Y-60285714D01*
X265107143Y-60285714D01*
X265321429Y-60357142D01*
X266178571Y-61214285D01*
X266178571Y-60285714D01*
X38190476Y-63202381D02*
X38857143Y-64202381D01*
X38857143Y-63202381D02*
X38190476Y-64202381D01*
X39761905Y-64202381D02*
X39190476Y-64202381D01*
X39476190Y-64202381D02*
X39476190Y-63202381D01*
X39380952Y-63345238D01*
X39285714Y-63440476D01*
X39190476Y-63488095D01*
X60190476Y-63202381D02*
X60857143Y-64202381D01*
X60857143Y-63202381D02*
X60190476Y-64202381D01*
X61190476Y-63297619D02*
X61238095Y-63250000D01*
X61333333Y-63202381D01*
X61571429Y-63202381D01*
X61666667Y-63250000D01*
X61714286Y-63297619D01*
X61761905Y-63392857D01*
X61761905Y-63488095D01*
X61714286Y-63630952D01*
X61142857Y-64202381D01*
X61761905Y-64202381D01*
%LPC*%
D15*
X20250000Y-76060000D03*
D16*
X24060000Y-72250000D03*
D17*
X16768700Y-70023274D02*
X16111300Y-72476726D01*
D18*
X122290000Y-91770000D03*
D19*
X122290000Y-88730000D03*
X119750000Y-91770000D03*
X119750000Y-88730000D03*
X117210000Y-91770000D03*
X117210000Y-88730000D03*
D20*
X79000000Y-81700000D03*
D21*
X79000000Y-72300000D03*
D22*
X74100000Y-77000000D03*
X82300000Y-77000000D03*
D20*
X79000000Y-68700000D03*
D21*
X79000000Y-59300000D03*
D22*
X74100000Y-64000000D03*
X82300000Y-64000000D03*
D20*
X97000000Y-68700000D03*
D21*
X97000000Y-59300000D03*
D22*
X92100000Y-64000000D03*
X100300000Y-64000000D03*
D20*
X97000000Y-81700000D03*
D21*
X97000000Y-72300000D03*
D22*
X92100000Y-77000000D03*
X100300000Y-77000000D03*
D20*
X115000000Y-68700000D03*
D21*
X115000000Y-59300000D03*
D22*
X110100000Y-64000000D03*
X118300000Y-64000000D03*
D20*
X115000000Y-81700000D03*
D21*
X115000000Y-72300000D03*
D22*
X110100000Y-77000000D03*
X118300000Y-77000000D03*
D20*
X133000000Y-68700000D03*
D21*
X133000000Y-59300000D03*
D22*
X128100000Y-64000000D03*
X136300000Y-64000000D03*
D20*
X133000000Y-81700000D03*
D21*
X133000000Y-72300000D03*
D22*
X128100000Y-77000000D03*
X136300000Y-77000000D03*
D20*
X151000000Y-68700000D03*
D21*
X151000000Y-59300000D03*
D22*
X146100000Y-64000000D03*
X154300000Y-64000000D03*
D20*
X151000000Y-81700000D03*
D21*
X151000000Y-72300000D03*
D22*
X146100000Y-77000000D03*
X154300000Y-77000000D03*
D20*
X169000000Y-68700000D03*
D21*
X169000000Y-59300000D03*
D22*
X164100000Y-64000000D03*
X172300000Y-64000000D03*
D20*
X169000000Y-81700000D03*
D21*
X169000000Y-72300000D03*
D22*
X164100000Y-77000000D03*
X172300000Y-77000000D03*
D20*
X187000000Y-68700000D03*
D21*
X187000000Y-59300000D03*
D22*
X182100000Y-64000000D03*
X190300000Y-64000000D03*
D20*
X187000000Y-81700000D03*
D21*
X187000000Y-72300000D03*
D22*
X182100000Y-77000000D03*
X190300000Y-77000000D03*
D20*
X205000000Y-68700000D03*
D21*
X205000000Y-59300000D03*
D22*
X200100000Y-64000000D03*
X208300000Y-64000000D03*
D20*
X205000000Y-81700000D03*
D21*
X205000000Y-72300000D03*
D22*
X200100000Y-77000000D03*
X208300000Y-77000000D03*
D20*
X223000000Y-68700000D03*
D21*
X223000000Y-59300000D03*
D22*
X218100000Y-64000000D03*
X226300000Y-64000000D03*
D20*
X223000000Y-81700000D03*
D21*
X223000000Y-72300000D03*
D22*
X218100000Y-77000000D03*
X226300000Y-77000000D03*
D20*
X241000000Y-68700000D03*
D21*
X241000000Y-59300000D03*
D22*
X236100000Y-64000000D03*
X244300000Y-64000000D03*
D20*
X241000000Y-81700000D03*
D21*
X241000000Y-72300000D03*
D22*
X236100000Y-77000000D03*
X244300000Y-77000000D03*
D20*
X259000000Y-81700000D03*
D21*
X259000000Y-72300000D03*
D22*
X254100000Y-77000000D03*
X262300000Y-77000000D03*
D20*
X259000000Y-68700000D03*
D21*
X259000000Y-59300000D03*
D22*
X254100000Y-64000000D03*
X262300000Y-64000000D03*
D18*
X90540000Y-91770000D03*
D19*
X90540000Y-88730000D03*
X88000000Y-91770000D03*
X88000000Y-88730000D03*
X85460000Y-91770000D03*
X85460000Y-88730000D03*
D23*
X14500000Y-77000000D03*
D24*
X14500000Y-80040000D03*
D25*
X284480000Y-88900000D03*
D26*
X281940000Y-88900000D03*
X279400000Y-88900000D03*
D27*
X213750000Y-84000000D03*
X75000000Y-90750000D03*
D28*
X33500000Y-72250000D03*
X44500000Y-72250000D03*
X39000000Y-77750000D03*
D29*
X39000000Y-67750000D03*
D28*
X35110000Y-76140000D03*
X42890000Y-76140000D03*
D30*
X39000000Y-67750000D03*
D31*
X34900000Y-72250000D03*
X43100000Y-72250000D03*
D32*
X39000000Y-76350000D03*
D33*
X34968629Y-76281371D02*
X37231371Y-74018629D01*
X40768629Y-74018629D02*
X43031371Y-76281371D01*
D28*
X55500000Y-72250000D03*
X66500000Y-72250000D03*
X61000000Y-77750000D03*
D29*
X61000000Y-67750000D03*
D28*
X57110000Y-76140000D03*
X64890000Y-76140000D03*
D30*
X61000000Y-67750000D03*
D31*
X56900000Y-72250000D03*
X65100000Y-72250000D03*
D32*
X61000000Y-76350000D03*
D33*
X56968629Y-76281371D02*
X59231371Y-74018629D01*
X62768629Y-74018629D02*
X65031371Y-76281371D01*
D34*
X67530000Y-86460000D03*
D35*
X67530000Y-89000000D03*
X67530000Y-91540000D03*
D34*
X19580000Y-86460000D03*
D35*
X19580000Y-89000000D03*
X19580000Y-91540000D03*
D25*
X264160000Y-88900000D03*
D26*
X261620000Y-88900000D03*
X259080000Y-88900000D03*
X256540000Y-88900000D03*
D25*
X266700000Y-88900000D03*
D26*
X269240000Y-88900000D03*
X271780000Y-88900000D03*
D25*
X144500000Y-86500000D03*
D26*
X147040000Y-86500000D03*
X149580000Y-86500000D03*
D19*
X33610000Y-88730000D03*
X33610000Y-91770000D03*
X36150000Y-91770000D03*
X36150000Y-88730000D03*
X38690000Y-88730000D03*
X38690000Y-91770000D03*
X41230000Y-91770000D03*
X41230000Y-88730000D03*
X43770000Y-88730000D03*
X43770000Y-91770000D03*
D18*
X51390000Y-91770000D03*
D19*
X51390000Y-88730000D03*
X48850000Y-91770000D03*
X48850000Y-88730000D03*
X46310000Y-91770000D03*
X46310000Y-88730000D03*
M02*
