M48
;DRILL file {KiCad 4.0.2-stable} date 2020-03-03 5:11:42 PM
;FORMAT={2:4/ absolute / inch / suppress leading zeros}
FMAT,2
INCH,TZ
T1C0.016
T2C0.020
T3C0.025
T4C0.039
T5C0.047
T6C0.047
T7C0.053
T8C0.055
T9C0.057
T10C0.059
T11C0.079
%
G90
G05
M72
T1
X33780Y-27992
X33780Y-42953
X33780Y-57913
X33780Y-72874
X41831Y-32972
X41831Y-47933
X41831Y-62894
X41831Y-77854
X42717Y-34961
X42717Y-49921
X42717Y-64882
X42717Y-79843
X43504Y-33937
X43504Y-48898
X43504Y-63858
X43504Y-78819
X43622Y-32992
X43622Y-47953
X43622Y-62913
X43622Y-77874
X49114Y-34252
X49114Y-49213
X49114Y-64173
X49114Y-79134
X50433Y-35669
X50433Y-50630
X50433Y-65591
X50433Y-80551
X55079Y-34409
X55079Y-49370
X55079Y-64331
X55079Y-79291
X56457Y-34449
X56457Y-49409
X56457Y-64370
X56457Y-79331
X58189Y-33661
X58189Y-48622
X58189Y-63583
X58189Y-78543
X58465Y-34449
X58465Y-49409
X58465Y-64370
X58465Y-79331
X58976Y-34449
X58976Y-49409
X58976Y-64370
X58976Y-79331
X103386Y-24134
X103386Y-39094
X103386Y-54055
X103386Y-69016
X105369Y-24912
X105369Y-39873
X105369Y-54834
X105369Y-69794
X106220Y-28543
X106220Y-43504
X106220Y-58465
X106220Y-73425
T2
X5709Y-32598
X5709Y-47559
X5709Y-62520
X5709Y-77480
X6575Y-32598
X6575Y-47559
X6575Y-62520
X6575Y-77480
X7402Y-32598
X7402Y-47559
X7402Y-62520
X7402Y-77480
X8150Y-32598
X8150Y-47559
X8150Y-62520
X8150Y-77480
X11260Y-32795
X11260Y-33189
X11260Y-33583
X11260Y-47756
X11260Y-48150
X11260Y-48543
X11260Y-62717
X11260Y-63110
X11260Y-63504
X11260Y-77677
X11260Y-78071
X11260Y-78465
X11969Y-33583
X11969Y-48543
X11969Y-63504
X11969Y-78465
X15354Y-32795
X15354Y-47756
X15354Y-62717
X15354Y-77677
X34252Y-26476
X34252Y-41437
X34252Y-56398
X34252Y-71358
X34843Y-28346
X34843Y-43307
X34843Y-58268
X34843Y-73228
X39567Y-33465
X39567Y-48425
X39567Y-63386
X39567Y-78346
X40591Y-26220
X40591Y-41181
X40591Y-56142
X40591Y-71102
X40630Y-31220
X40630Y-46181
X40630Y-61142
X40630Y-76102
X40945Y-33366
X40945Y-48327
X40945Y-63287
X40945Y-78248
X42612Y-36271
X42612Y-51231
X42612Y-66192
X42612Y-81152
X47677Y-26220
X47677Y-41181
X47677Y-56142
X47677Y-71102
X48130Y-30807
X48130Y-45768
X48130Y-60728
X48130Y-75689
X51083Y-34547
X51083Y-49508
X51083Y-64469
X51083Y-79429
X53425Y-35551
X53425Y-50512
X53425Y-65472
X53425Y-80433
X54528Y-33740
X54528Y-48701
X54528Y-63661
X54528Y-78622
X54764Y-31220
X54764Y-46181
X54764Y-61142
X54764Y-76102
X54803Y-26220
X54803Y-41181
X54803Y-56142
X54803Y-71102
X55531Y-36327
X55531Y-51287
X55531Y-66248
X55531Y-81209
X56693Y-31693
X56693Y-46654
X56693Y-61614
X56693Y-76575
X61850Y-26220
X61850Y-41181
X61850Y-56142
X61850Y-71102
X61850Y-31220
X61850Y-46181
X61850Y-61142
X61850Y-76102
X68976Y-26220
X68976Y-41181
X68976Y-56142
X68976Y-71102
X68976Y-31260
X68976Y-46220
X68976Y-61181
X68976Y-76142
X76024Y-31220
X76024Y-46181
X76024Y-61142
X76024Y-76102
X76063Y-26220
X76063Y-41181
X76063Y-56142
X76063Y-71102
X90709Y-33622
X90709Y-48583
X90709Y-63543
X90709Y-78504
X91105Y-35116
X91105Y-50077
X91105Y-65038
X91105Y-79998
X92362Y-34843
X92362Y-49803
X92362Y-64764
X92362Y-79724
X92894Y-36772
X92894Y-51732
X92894Y-66693
X92894Y-81654
X93583Y-35787
X93583Y-50748
X93583Y-65709
X93583Y-80669
X98504Y-31378
X98504Y-46339
X98504Y-61299
X98504Y-76260
X98701Y-26181
X98701Y-41142
X98701Y-56102
X98701Y-71063
X104764Y-25236
X104764Y-40197
X104764Y-55157
X104764Y-70118
X105246Y-27374
X105246Y-42335
X105246Y-57296
X105246Y-72256
X106890Y-23386
X106890Y-38346
X106890Y-53307
X106890Y-68268
X107008Y-26870
X107008Y-41830
X107008Y-56791
X107008Y-71752
X108091Y-23583
X108091Y-38543
X108091Y-53504
X108091Y-68465
X109449Y-24961
X109449Y-39921
X109449Y-54882
X109449Y-69843
T4
X13232Y-35031
X13232Y-36031
X13232Y-49992
X13232Y-50992
X13232Y-64953
X13232Y-65953
X13232Y-79913
X13232Y-80913
X14232Y-35031
X14232Y-36031
X14232Y-49992
X14232Y-50992
X14232Y-64953
X14232Y-65953
X14232Y-79913
X14232Y-80913
X15232Y-35031
X15232Y-36031
X15232Y-49992
X15232Y-50992
X15232Y-64953
X15232Y-65953
X15232Y-79913
X15232Y-80913
X16232Y-35031
X16232Y-36031
X16232Y-49992
X16232Y-50992
X16232Y-64953
X16232Y-65953
X16232Y-79913
X16232Y-80913
X17232Y-35031
X17232Y-36031
X17232Y-49992
X17232Y-50992
X17232Y-64953
X17232Y-65953
X17232Y-79913
X17232Y-80913
X18232Y-35031
X18232Y-36031
X18232Y-49992
X18232Y-50992
X18232Y-64953
X18232Y-65953
X18232Y-79913
X18232Y-80913
X19232Y-35031
X19232Y-36031
X19232Y-49992
X19232Y-50992
X19232Y-64953
X19232Y-65953
X19232Y-79913
X19232Y-80913
X20232Y-35031
X20232Y-36031
X20232Y-49992
X20232Y-50992
X20232Y-64953
X20232Y-65953
X20232Y-79913
X20232Y-80913
X32646Y-35031
X32646Y-36031
X32646Y-49992
X32646Y-50992
X32646Y-64953
X32646Y-65953
X32646Y-79913
X32646Y-80913
X33646Y-35031
X33646Y-36031
X33646Y-49992
X33646Y-50992
X33646Y-64953
X33646Y-65953
X33646Y-79913
X33646Y-80913
X34646Y-35031
X34646Y-36031
X34646Y-49992
X34646Y-50992
X34646Y-64953
X34646Y-65953
X34646Y-79913
X34646Y-80913
X35646Y-35031
X35646Y-36031
X35646Y-49992
X35646Y-50992
X35646Y-64953
X35646Y-65953
X35646Y-79913
X35646Y-80913
X46146Y-35031
X46146Y-36031
X46146Y-49992
X46146Y-50992
X46146Y-64953
X46146Y-65953
X46146Y-79913
X46146Y-80913
X47146Y-35031
X47146Y-36031
X47146Y-49992
X47146Y-50992
X47146Y-64953
X47146Y-65953
X47146Y-79913
X47146Y-80913
X48146Y-35031
X48146Y-36031
X48146Y-49992
X48146Y-50992
X48146Y-64953
X48146Y-65953
X48146Y-79913
X48146Y-80913
X101000Y-35000
X101000Y-49961
X101000Y-64921
X101000Y-79882
X102000Y-35000
X102000Y-49961
X102000Y-64921
X102000Y-79882
X103000Y-35000
X103000Y-49961
X103000Y-64921
X103000Y-79882
X104000Y-35000
X104000Y-49961
X104000Y-64921
X104000Y-79882
X105000Y-35000
X105000Y-49961
X105000Y-64921
X105000Y-79882
X106000Y-35000
X106000Y-49961
X106000Y-64921
X106000Y-79882
X107000Y-35000
X107000Y-49961
X107000Y-64921
X107000Y-79882
X110000Y-35000
X110000Y-49961
X110000Y-64921
X110000Y-79882
X111000Y-35000
X111000Y-49961
X111000Y-64921
X111000Y-79882
X112000Y-35000
X112000Y-49961
X112000Y-64921
X112000Y-79882
T5
X84154Y-33071
X84154Y-48031
X84154Y-62992
X84154Y-77953
T6
X7709Y-34039
X7709Y-35039
X7709Y-36039
X7709Y-49000
X7709Y-50000
X7709Y-51000
X7709Y-63961
X7709Y-64961
X7709Y-65961
X7709Y-78921
X7709Y-79921
X7709Y-80921
X26587Y-34039
X26587Y-35039
X26587Y-36039
X26587Y-49000
X26587Y-50000
X26587Y-51000
X26587Y-63961
X26587Y-64961
X26587Y-65961
X26587Y-78921
X26587Y-79921
X26587Y-80921
T8
X13189Y-28445
X13189Y-43406
X13189Y-58366
X13189Y-73327
X13823Y-29976
X13823Y-44937
X13823Y-59898
X13823Y-74858
X15354Y-30610
X15354Y-45571
X15354Y-60531
X15354Y-75492
X16886Y-29976
X16886Y-44937
X16886Y-59898
X16886Y-74858
X17520Y-28445
X17520Y-43406
X17520Y-58366
X17520Y-73327
X21850Y-28445
X21850Y-43406
X21850Y-58366
X21850Y-73327
X22484Y-29976
X22484Y-44937
X22484Y-59898
X22484Y-74858
X24016Y-30610
X24016Y-45571
X24016Y-60531
X24016Y-75492
X25547Y-29976
X25547Y-44937
X25547Y-59898
X25547Y-74858
X26181Y-28445
X26181Y-43406
X26181Y-58366
X26181Y-73327
T9
X5709Y-30315
X5709Y-31512
X5709Y-45276
X5709Y-46472
X5709Y-60236
X5709Y-61433
X5709Y-75197
X5709Y-76394
T10
X15354Y-26673
X15354Y-41634
X15354Y-56594
X15354Y-71555
X24016Y-26673
X24016Y-41634
X24016Y-56594
X24016Y-71555
T11
X5906Y-21457
X5906Y-83661
X113583Y-21457
X113583Y-83661
T2
X29173Y-25591G85X29173Y-24803
G05
X29173Y-30709G85X29173Y-29921
G05
X29173Y-40551G85X29173Y-39764
G05
X29173Y-45669G85X29173Y-44882
G05
X29173Y-55512G85X29173Y-54724
G05
X29173Y-60630G85X29173Y-59843
G05
X29173Y-70472G85X29173Y-69685
G05
X29173Y-75591G85X29173Y-74803
G05
X32402Y-25591G85X32402Y-24803
G05
X32402Y-30709G85X32402Y-29921
G05
X32402Y-40551G85X32402Y-39764
G05
X32402Y-45669G85X32402Y-44882
G05
X32402Y-55512G85X32402Y-54724
G05
X32402Y-60630G85X32402Y-59843
G05
X32402Y-70472G85X32402Y-69685
G05
X32402Y-75591G85X32402Y-74803
G05
X36260Y-25591G85X36260Y-24803
G05
X36260Y-30709G85X36260Y-29921
G05
X36260Y-40551G85X36260Y-39764
G05
X36260Y-45669G85X36260Y-44882
G05
X36260Y-55512G85X36260Y-54724
G05
X36260Y-60630G85X36260Y-59843
G05
X36260Y-70472G85X36260Y-69685
G05
X36260Y-75591G85X36260Y-74803
G05
X39488Y-25591G85X39488Y-24803
G05
X39488Y-30709G85X39488Y-29921
G05
X39488Y-40551G85X39488Y-39764
G05
X39488Y-45669G85X39488Y-44882
G05
X39488Y-55512G85X39488Y-54724
G05
X39488Y-60630G85X39488Y-59843
G05
X39488Y-70472G85X39488Y-69685
G05
X39488Y-75591G85X39488Y-74803
G05
X43346Y-25591G85X43346Y-24803
G05
X43346Y-30709G85X43346Y-29921
G05
X43346Y-40551G85X43346Y-39764
G05
X43346Y-45669G85X43346Y-44882
G05
X43346Y-55512G85X43346Y-54724
G05
X43346Y-60630G85X43346Y-59843
G05
X43346Y-70472G85X43346Y-69685
G05
X43346Y-75591G85X43346Y-74803
G05
X46575Y-25591G85X46575Y-24803
G05
X46575Y-30709G85X46575Y-29921
G05
X46575Y-40551G85X46575Y-39764
G05
X46575Y-45669G85X46575Y-44882
G05
X46575Y-55512G85X46575Y-54724
G05
X46575Y-60630G85X46575Y-59843
G05
X46575Y-70472G85X46575Y-69685
G05
X46575Y-75591G85X46575Y-74803
G05
X50433Y-25591G85X50433Y-24803
G05
X50433Y-30709G85X50433Y-29921
G05
X50433Y-40551G85X50433Y-39764
G05
X50433Y-45669G85X50433Y-44882
G05
X50433Y-55512G85X50433Y-54724
G05
X50433Y-60630G85X50433Y-59843
G05
X50433Y-70472G85X50433Y-69685
G05
X50433Y-75591G85X50433Y-74803
G05
X53661Y-25591G85X53661Y-24803
G05
X53661Y-30709G85X53661Y-29921
G05
X53661Y-40551G85X53661Y-39764
G05
X53661Y-45669G85X53661Y-44882
G05
X53661Y-55512G85X53661Y-54724
G05
X53661Y-60630G85X53661Y-59843
G05
X53661Y-70472G85X53661Y-69685
G05
X53661Y-75591G85X53661Y-74803
G05
X57520Y-25591G85X57520Y-24803
G05
X57520Y-30709G85X57520Y-29921
G05
X57520Y-40551G85X57520Y-39764
G05
X57520Y-45669G85X57520Y-44882
G05
X57520Y-55512G85X57520Y-54724
G05
X57520Y-60630G85X57520Y-59843
G05
X57520Y-70472G85X57520Y-69685
G05
X57520Y-75591G85X57520Y-74803
G05
X60748Y-25591G85X60748Y-24803
G05
X60748Y-30709G85X60748Y-29921
G05
X60748Y-40551G85X60748Y-39764
G05
X60748Y-45669G85X60748Y-44882
G05
X60748Y-55512G85X60748Y-54724
G05
X60748Y-60630G85X60748Y-59843
G05
X60748Y-70472G85X60748Y-69685
G05
X60748Y-75591G85X60748Y-74803
G05
X64606Y-25591G85X64606Y-24803
G05
X64606Y-30709G85X64606Y-29921
G05
X64606Y-40551G85X64606Y-39764
G05
X64606Y-45669G85X64606Y-44882
G05
X64606Y-55512G85X64606Y-54724
G05
X64606Y-60630G85X64606Y-59843
G05
X64606Y-70472G85X64606Y-69685
G05
X64606Y-75591G85X64606Y-74803
G05
X67835Y-25591G85X67835Y-24803
G05
X67835Y-30709G85X67835Y-29921
G05
X67835Y-40551G85X67835Y-39764
G05
X67835Y-45669G85X67835Y-44882
G05
X67835Y-55512G85X67835Y-54724
G05
X67835Y-60630G85X67835Y-59843
G05
X67835Y-70472G85X67835Y-69685
G05
X67835Y-75591G85X67835Y-74803
G05
X71693Y-25591G85X71693Y-24803
G05
X71693Y-30709G85X71693Y-29921
G05
X71693Y-40551G85X71693Y-39764
G05
X71693Y-45669G85X71693Y-44882
G05
X71693Y-55512G85X71693Y-54724
G05
X71693Y-60630G85X71693Y-59843
G05
X71693Y-70472G85X71693Y-69685
G05
X71693Y-75591G85X71693Y-74803
G05
X74921Y-25591G85X74921Y-24803
G05
X74921Y-30709G85X74921Y-29921
G05
X74921Y-40551G85X74921Y-39764
G05
X74921Y-45669G85X74921Y-44882
G05
X74921Y-55512G85X74921Y-54724
G05
X74921Y-60630G85X74921Y-59843
G05
X74921Y-70472G85X74921Y-69685
G05
X74921Y-75591G85X74921Y-74803
G05
X78780Y-25591G85X78780Y-24803
G05
X78780Y-30709G85X78780Y-29921
G05
X78780Y-40551G85X78780Y-39764
G05
X78780Y-45669G85X78780Y-44882
G05
X78780Y-55512G85X78780Y-54724
G05
X78780Y-60630G85X78780Y-59843
G05
X78780Y-70472G85X78780Y-69685
G05
X78780Y-75591G85X78780Y-74803
G05
X82008Y-25591G85X82008Y-24803
G05
X82008Y-30709G85X82008Y-29921
G05
X82008Y-40551G85X82008Y-39764
G05
X82008Y-45669G85X82008Y-44882
G05
X82008Y-55512G85X82008Y-54724
G05
X82008Y-60630G85X82008Y-59843
G05
X82008Y-70472G85X82008Y-69685
G05
X82008Y-75591G85X82008Y-74803
G05
X85866Y-25591G85X85866Y-24803
G05
X85866Y-30709G85X85866Y-29921
G05
X85866Y-40551G85X85866Y-39764
G05
X85866Y-45669G85X85866Y-44882
G05
X85866Y-55512G85X85866Y-54724
G05
X85866Y-60630G85X85866Y-59843
G05
X85866Y-70472G85X85866Y-69685
G05
X85866Y-75591G85X85866Y-74803
G05
X89094Y-25591G85X89094Y-24803
G05
X89094Y-30709G85X89094Y-29921
G05
X89094Y-40551G85X89094Y-39764
G05
X89094Y-45669G85X89094Y-44882
G05
X89094Y-55512G85X89094Y-54724
G05
X89094Y-60630G85X89094Y-59843
G05
X89094Y-70472G85X89094Y-69685
G05
X89094Y-75591G85X89094Y-74803
G05
X92953Y-25591G85X92953Y-24803
G05
X92953Y-30709G85X92953Y-29921
G05
X92953Y-40551G85X92953Y-39764
G05
X92953Y-45669G85X92953Y-44882
G05
X92953Y-55512G85X92953Y-54724
G05
X92953Y-60630G85X92953Y-59843
G05
X92953Y-70472G85X92953Y-69685
G05
X92953Y-75591G85X92953Y-74803
G05
X96181Y-25591G85X96181Y-24803
G05
X96181Y-30709G85X96181Y-29921
G05
X96181Y-40551G85X96181Y-39764
G05
X96181Y-45669G85X96181Y-44882
G05
X96181Y-55512G85X96181Y-54724
G05
X96181Y-60630G85X96181Y-59843
G05
X96181Y-70472G85X96181Y-69685
G05
X96181Y-75591G85X96181Y-74803
G05
X100039Y-25591G85X100039Y-24803
G05
X100039Y-30709G85X100039Y-29921
G05
X100039Y-40551G85X100039Y-39764
G05
X100039Y-45669G85X100039Y-44882
G05
X100039Y-55512G85X100039Y-54724
G05
X100039Y-60630G85X100039Y-59843
G05
X100039Y-70472G85X100039Y-69685
G05
X100039Y-75591G85X100039Y-74803
G05
X103268Y-25591G85X103268Y-24803
G05
X103268Y-30709G85X103268Y-29921
G05
X103268Y-40551G85X103268Y-39764
G05
X103268Y-45669G85X103268Y-44882
G05
X103268Y-55512G85X103268Y-54724
G05
X103268Y-60630G85X103268Y-59843
G05
X103268Y-70472G85X103268Y-69685
G05
X103268Y-75591G85X103268Y-74803
G05
T3
X6602Y-27568G85X6343Y-28534
G05
X6602Y-42529G85X6343Y-43495
G05
X6602Y-57489G85X6343Y-58455
G05
X6602Y-72450G85X6343Y-73416
G05
X8472Y-29945G85X7472Y-29945
G05
X8472Y-44906G85X7472Y-44906
G05
X8472Y-59866G85X7472Y-59866
G05
X8472Y-74827G85X7472Y-74827
G05
X9472Y-27945G85X9472Y-28945
G05
X9472Y-42906G85X9472Y-43906
G05
X9472Y-57866G85X9472Y-58866
G05
X9472Y-72827G85X9472Y-73827
G05
T4
X13110Y-28445G85X14370Y-28445
G05
X13110Y-43406G85X14370Y-43406
G05
X13110Y-58366G85X14370Y-58366
G05
X13110Y-73327G85X14370Y-73327
G05
X13767Y-30032G85X14658Y-29141
G05
X13767Y-44993G85X14658Y-44102
G05
X13767Y-59953G85X14658Y-59062
G05
X13767Y-74914G85X14658Y-74023
G05
X15354Y-30689G85X15354Y-29429
G05
X15354Y-45650G85X15354Y-44390
G05
X15354Y-60610G85X15354Y-59350
G05
X15354Y-75571G85X15354Y-74311
G05
X16051Y-29141G85X16941Y-30032
G05
X16051Y-44102G85X16941Y-44993
G05
X16051Y-59062G85X16941Y-59953
G05
X16051Y-74023G85X16941Y-74914
G05
X16339Y-28445G85X17598Y-28445
G05
X16339Y-43406G85X17598Y-43406
G05
X16339Y-58366G85X17598Y-58366
G05
X16339Y-73327G85X17598Y-73327
G05
X21772Y-28445G85X23031Y-28445
G05
X21772Y-43406G85X23031Y-43406
G05
X21772Y-58366G85X23031Y-58366
G05
X21772Y-73327G85X23031Y-73327
G05
X22429Y-30032G85X23319Y-29141
G05
X22429Y-44993G85X23319Y-44102
G05
X22429Y-59953G85X23319Y-59062
G05
X22429Y-74914G85X23319Y-74023
G05
X24016Y-30689G85X24016Y-29429
G05
X24016Y-45650G85X24016Y-44390
G05
X24016Y-60610G85X24016Y-59350
G05
X24016Y-75571G85X24016Y-74311
G05
X24712Y-29141G85X25603Y-30032
G05
X24712Y-44102G85X25603Y-44993
G05
X24712Y-59062G85X25603Y-59953
G05
X24712Y-74023G85X25603Y-74914
G05
X25000Y-28445G85X26260Y-28445
G05
X25000Y-43406G85X26260Y-43406
G05
X25000Y-58366G85X26260Y-58366
G05
X25000Y-73327G85X26260Y-73327
G05
X31004Y-23346G85X31201Y-23346
G05
X30807Y-27047G85X31398Y-27047
G05
X31004Y-28465G85X31201Y-28465
G05
X30807Y-32165G85X31398Y-32165
G05
X31004Y-38307G85X31201Y-38307
G05
X30807Y-42008G85X31398Y-42008
G05
X31004Y-43425G85X31201Y-43425
G05
X30807Y-47126G85X31398Y-47126
G05
X31004Y-53268G85X31201Y-53268
G05
X30807Y-56969G85X31398Y-56969
G05
X31004Y-58386G85X31201Y-58386
G05
X30807Y-62087G85X31398Y-62087
G05
X31004Y-68228G85X31201Y-68228
G05
X30807Y-71929G85X31398Y-71929
G05
X31004Y-73346G85X31201Y-73346
G05
X30807Y-77047G85X31398Y-77047
G05
X38091Y-23346G85X38287Y-23346
G05
X37894Y-27047G85X38484Y-27047
G05
X38091Y-28465G85X38287Y-28465
G05
X37894Y-32165G85X38484Y-32165
G05
X38091Y-38307G85X38287Y-38307
G05
X37894Y-42008G85X38484Y-42008
G05
X38091Y-43425G85X38287Y-43425
G05
X37894Y-47126G85X38484Y-47126
G05
X38091Y-53268G85X38287Y-53268
G05
X37894Y-56969G85X38484Y-56969
G05
X38091Y-58386G85X38287Y-58386
G05
X37894Y-62087G85X38484Y-62087
G05
X38091Y-68228G85X38287Y-68228
G05
X37894Y-71929G85X38484Y-71929
G05
X38091Y-73346G85X38287Y-73346
G05
X37894Y-77047G85X38484Y-77047
G05
X45177Y-23346G85X45374Y-23346
G05
X44980Y-27047G85X45571Y-27047
G05
X45177Y-28465G85X45374Y-28465
G05
X44980Y-32165G85X45571Y-32165
G05
X45177Y-38307G85X45374Y-38307
G05
X44980Y-42008G85X45571Y-42008
G05
X45177Y-43425G85X45374Y-43425
G05
X44980Y-47126G85X45571Y-47126
G05
X45177Y-53268G85X45374Y-53268
G05
X44980Y-56969G85X45571Y-56969
G05
X45177Y-58386G85X45374Y-58386
G05
X44980Y-62087G85X45571Y-62087
G05
X45177Y-68228G85X45374Y-68228
G05
X44980Y-71929G85X45571Y-71929
G05
X45177Y-73346G85X45374Y-73346
G05
X44980Y-77047G85X45571Y-77047
G05
X52264Y-23346G85X52461Y-23346
G05
X52067Y-27047G85X52657Y-27047
G05
X52264Y-28465G85X52461Y-28465
G05
X52067Y-32165G85X52657Y-32165
G05
X52264Y-38307G85X52461Y-38307
G05
X52067Y-42008G85X52657Y-42008
G05
X52264Y-43425G85X52461Y-43425
G05
X52067Y-47126G85X52657Y-47126
G05
X52264Y-53268G85X52461Y-53268
G05
X52067Y-56969G85X52657Y-56969
G05
X52264Y-58386G85X52461Y-58386
G05
X52067Y-62087G85X52657Y-62087
G05
X52264Y-68228G85X52461Y-68228
G05
X52067Y-71929G85X52657Y-71929
G05
X52264Y-73346G85X52461Y-73346
G05
X52067Y-77047G85X52657Y-77047
G05
X59350Y-23346G85X59547Y-23346
G05
X59154Y-27047G85X59744Y-27047
G05
X59350Y-28465G85X59547Y-28465
G05
X59154Y-32165G85X59744Y-32165
G05
X59350Y-38307G85X59547Y-38307
G05
X59154Y-42008G85X59744Y-42008
G05
X59350Y-43425G85X59547Y-43425
G05
X59154Y-47126G85X59744Y-47126
G05
X59350Y-53268G85X59547Y-53268
G05
X59154Y-56969G85X59744Y-56969
G05
X59350Y-58386G85X59547Y-58386
G05
X59154Y-62087G85X59744Y-62087
G05
X59350Y-68228G85X59547Y-68228
G05
X59154Y-71929G85X59744Y-71929
G05
X59350Y-73346G85X59547Y-73346
G05
X59154Y-77047G85X59744Y-77047
G05
X66437Y-23346G85X66634Y-23346
G05
X66240Y-27047G85X66831Y-27047
G05
X66437Y-28465G85X66634Y-28465
G05
X66240Y-32165G85X66831Y-32165
G05
X66437Y-38307G85X66634Y-38307
G05
X66240Y-42008G85X66831Y-42008
G05
X66437Y-43425G85X66634Y-43425
G05
X66240Y-47126G85X66831Y-47126
G05
X66437Y-53268G85X66634Y-53268
G05
X66240Y-56969G85X66831Y-56969
G05
X66437Y-58386G85X66634Y-58386
G05
X66240Y-62087G85X66831Y-62087
G05
X66437Y-68228G85X66634Y-68228
G05
X66240Y-71929G85X66831Y-71929
G05
X66437Y-73346G85X66634Y-73346
G05
X66240Y-77047G85X66831Y-77047
G05
X73524Y-23346G85X73720Y-23346
G05
X73327Y-27047G85X73917Y-27047
G05
X73524Y-28465G85X73720Y-28465
G05
X73327Y-32165G85X73917Y-32165
G05
X73524Y-38307G85X73720Y-38307
G05
X73327Y-42008G85X73917Y-42008
G05
X73524Y-43425G85X73720Y-43425
G05
X73327Y-47126G85X73917Y-47126
G05
X73524Y-53268G85X73720Y-53268
G05
X73327Y-56969G85X73917Y-56969
G05
X73524Y-58386G85X73720Y-58386
G05
X73327Y-62087G85X73917Y-62087
G05
X73524Y-68228G85X73720Y-68228
G05
X73327Y-71929G85X73917Y-71929
G05
X73524Y-73346G85X73720Y-73346
G05
X73327Y-77047G85X73917Y-77047
G05
X80610Y-23346G85X80807Y-23346
G05
X80413Y-27047G85X81004Y-27047
G05
X80610Y-28465G85X80807Y-28465
G05
X80413Y-32165G85X81004Y-32165
G05
X80610Y-38307G85X80807Y-38307
G05
X80413Y-42008G85X81004Y-42008
G05
X80610Y-43425G85X80807Y-43425
G05
X80413Y-47126G85X81004Y-47126
G05
X80610Y-53268G85X80807Y-53268
G05
X80413Y-56969G85X81004Y-56969
G05
X80610Y-58386G85X80807Y-58386
G05
X80413Y-62087G85X81004Y-62087
G05
X80610Y-68228G85X80807Y-68228
G05
X80413Y-71929G85X81004Y-71929
G05
X80610Y-73346G85X80807Y-73346
G05
X80413Y-77047G85X81004Y-77047
G05
X87697Y-23346G85X87894Y-23346
G05
X87500Y-27047G85X88091Y-27047
G05
X87697Y-28465G85X87894Y-28465
G05
X87500Y-32165G85X88091Y-32165
G05
X87697Y-38307G85X87894Y-38307
G05
X87500Y-42008G85X88091Y-42008
G05
X87697Y-43425G85X87894Y-43425
G05
X87500Y-47126G85X88091Y-47126
G05
X87697Y-53268G85X87894Y-53268
G05
X87500Y-56969G85X88091Y-56969
G05
X87697Y-58386G85X87894Y-58386
G05
X87500Y-62087G85X88091Y-62087
G05
X87697Y-68228G85X87894Y-68228
G05
X87500Y-71929G85X88091Y-71929
G05
X87697Y-73346G85X87894Y-73346
G05
X87500Y-77047G85X88091Y-77047
G05
X94783Y-23346G85X94980Y-23346
G05
X94587Y-27047G85X95177Y-27047
G05
X94783Y-28465G85X94980Y-28465
G05
X94587Y-32165G85X95177Y-32165
G05
X94783Y-38307G85X94980Y-38307
G05
X94587Y-42008G85X95177Y-42008
G05
X94783Y-43425G85X94980Y-43425
G05
X94587Y-47126G85X95177Y-47126
G05
X94783Y-53268G85X94980Y-53268
G05
X94587Y-56969G85X95177Y-56969
G05
X94783Y-58386G85X94980Y-58386
G05
X94587Y-62087G85X95177Y-62087
G05
X94783Y-68228G85X94980Y-68228
G05
X94587Y-71929G85X95177Y-71929
G05
X94783Y-73346G85X94980Y-73346
G05
X94587Y-77047G85X95177Y-77047
G05
X101870Y-23346G85X102067Y-23346
G05
X101673Y-27047G85X102264Y-27047
G05
X101870Y-28465G85X102067Y-28465
G05
X101673Y-32165G85X102264Y-32165
G05
X101870Y-38307G85X102067Y-38307
G05
X101673Y-42008G85X102264Y-42008
G05
X101870Y-43425G85X102067Y-43425
G05
X101673Y-47126G85X102264Y-47126
G05
X101870Y-53268G85X102067Y-53268
G05
X101673Y-56969G85X102264Y-56969
G05
X101870Y-58386G85X102067Y-58386
G05
X101673Y-62087G85X102264Y-62087
G05
X101870Y-68228G85X102067Y-68228
G05
X101673Y-71929G85X102264Y-71929
G05
X101870Y-73346G85X102067Y-73346
G05
X101673Y-77047G85X102264Y-77047
G05
T7
X14734Y-26673G85X15974Y-26673
G05
X14734Y-41634G85X15974Y-41634
G05
X14734Y-56594G85X15974Y-56594
G05
X14734Y-71555G85X15974Y-71555
G05
X23396Y-26673G85X24636Y-26673
G05
X23396Y-41634G85X24636Y-41634
G05
X23396Y-56594G85X24636Y-56594
G05
X23396Y-71555G85X24636Y-71555
G05
T0
M30
