G04 #@! TF.FileFunction,Soldermask,Top*
%FSLAX46Y46*%
G04 Gerber Fmt 4.6, Leading zero omitted, Abs format (unit mm)*
G04 Created by KiCad (PCBNEW 4.0.2-stable) date 2020-03-03 5:11:40 PM*
%MOMM*%
G01*
G04 APERTURE LIST*
%ADD10C,0.200000*%
%ADD11C,2.100000*%
%ADD12R,1.800000X1.800000*%
%ADD13O,1.800000X1.800000*%
%ADD14R,2.900000X1.700000*%
%ADD15R,1.900000X1.900000*%
%ADD16C,1.900000*%
%ADD17O,1.600000X2.100000*%
%ADD18R,1.600000X2.100000*%
%ADD19R,2.700000X2.100000*%
%ADD20O,4.100000X2.600000*%
%ADD21O,2.600000X2.100000*%
%ADD22O,1.600000X3.600000*%
%ADD23R,5.180000X2.640000*%
%ADD24O,2.640000X5.180000*%
%ADD25C,2.640000*%
%ADD26C,2.600000*%
%ADD27R,2.600000X3.600000*%
%ADD28O,4.700000X1.550000*%
%ADD29O,4.400000X1.200000*%
%ADD30O,1.200000X4.400000*%
%ADD31C,1.200000*%
G04 APERTURE END LIST*
D10*
D11*
X15000000Y-212500000D03*
X288500000Y-212500000D03*
X288500000Y-54500000D03*
D12*
X264160000Y-202900000D03*
D13*
X261620000Y-202900000D03*
X259080000Y-202900000D03*
X256540000Y-202900000D03*
D12*
X266700000Y-202900000D03*
D13*
X269240000Y-202900000D03*
X271780000Y-202900000D03*
D12*
X284480000Y-202900000D03*
D13*
X281940000Y-202900000D03*
X279400000Y-202900000D03*
D14*
X213750000Y-160000000D03*
X213750000Y-198000000D03*
D12*
X264160000Y-164900000D03*
D13*
X261620000Y-164900000D03*
X259080000Y-164900000D03*
X256540000Y-164900000D03*
D12*
X266700000Y-164900000D03*
D13*
X269240000Y-164900000D03*
X271780000Y-164900000D03*
D12*
X284480000Y-164900000D03*
D13*
X281940000Y-164900000D03*
X279400000Y-164900000D03*
D15*
X67530000Y-200460000D03*
D16*
X67530000Y-203000000D03*
X67530000Y-205540000D03*
D15*
X67530000Y-162460000D03*
D16*
X67530000Y-165000000D03*
X67530000Y-167540000D03*
D17*
X82920000Y-202730000D03*
X82920000Y-205770000D03*
D18*
X90540000Y-205770000D03*
D17*
X90540000Y-202730000D03*
X88000000Y-205770000D03*
X88000000Y-202730000D03*
X85460000Y-205770000D03*
X85460000Y-202730000D03*
X82920000Y-164730000D03*
X82920000Y-167770000D03*
D18*
X90540000Y-167770000D03*
D17*
X90540000Y-164730000D03*
X88000000Y-167770000D03*
X88000000Y-164730000D03*
X85460000Y-167770000D03*
X85460000Y-164730000D03*
D18*
X122290000Y-205770000D03*
D17*
X122290000Y-202730000D03*
X119750000Y-205770000D03*
X119750000Y-202730000D03*
X117210000Y-205770000D03*
X117210000Y-202730000D03*
D18*
X122290000Y-167770000D03*
D17*
X122290000Y-164730000D03*
X119750000Y-167770000D03*
X119750000Y-164730000D03*
X117210000Y-167770000D03*
X117210000Y-164730000D03*
D15*
X19580000Y-200460000D03*
D16*
X19580000Y-203000000D03*
X19580000Y-205540000D03*
D19*
X14500000Y-190900000D03*
X14500000Y-194140000D03*
X14500000Y-152900000D03*
X14500000Y-156140000D03*
D15*
X19580000Y-162460000D03*
D16*
X19580000Y-165000000D03*
X19580000Y-167540000D03*
D17*
X33610000Y-202730000D03*
X33610000Y-205770000D03*
X36150000Y-205770000D03*
X36150000Y-202730000D03*
X38690000Y-202730000D03*
X38690000Y-205770000D03*
X41230000Y-205770000D03*
X41230000Y-202730000D03*
X43770000Y-202730000D03*
X43770000Y-205770000D03*
D18*
X51390000Y-205770000D03*
D17*
X51390000Y-202730000D03*
X48850000Y-205770000D03*
X48850000Y-202730000D03*
X46310000Y-205770000D03*
X46310000Y-202730000D03*
X33610000Y-164730000D03*
X33610000Y-167770000D03*
X36150000Y-167770000D03*
X36150000Y-164730000D03*
X38690000Y-164730000D03*
X38690000Y-167770000D03*
X41230000Y-167770000D03*
X41230000Y-164730000D03*
X43770000Y-164730000D03*
X43770000Y-167770000D03*
D18*
X51390000Y-167770000D03*
D17*
X51390000Y-164730000D03*
X48850000Y-167770000D03*
X48850000Y-164730000D03*
X46310000Y-167770000D03*
X46310000Y-164730000D03*
D20*
X79000000Y-195700000D03*
D21*
X79000000Y-186300000D03*
D22*
X74100000Y-191000000D03*
X82300000Y-191000000D03*
D23*
X20250000Y-190060000D03*
D24*
X24060000Y-186250000D03*
D25*
X16768700Y-184023274D02*
X16111300Y-186476726D01*
D26*
X33500000Y-186250000D03*
X44500000Y-186250000D03*
X39000000Y-191750000D03*
D27*
X39000000Y-181750000D03*
D26*
X35110000Y-190140000D03*
X42890000Y-190140000D03*
D28*
X39000000Y-181750000D03*
D29*
X34900000Y-186250000D03*
X43100000Y-186250000D03*
D30*
X39000000Y-190350000D03*
D31*
X34968629Y-190281371D02*
X37231371Y-188018629D01*
X40768629Y-188018629D02*
X43031371Y-190281371D01*
D26*
X55500000Y-186250000D03*
X66500000Y-186250000D03*
X61000000Y-191750000D03*
D27*
X61000000Y-181750000D03*
D26*
X57110000Y-190140000D03*
X64890000Y-190140000D03*
D28*
X61000000Y-181750000D03*
D29*
X56900000Y-186250000D03*
X65100000Y-186250000D03*
D30*
X61000000Y-190350000D03*
D31*
X56968629Y-190281371D02*
X59231371Y-188018629D01*
X62768629Y-188018629D02*
X65031371Y-190281371D01*
D20*
X79000000Y-182700000D03*
D21*
X79000000Y-173300000D03*
D22*
X74100000Y-178000000D03*
X82300000Y-178000000D03*
D20*
X97000000Y-157700000D03*
D21*
X97000000Y-148300000D03*
D22*
X92100000Y-153000000D03*
X100300000Y-153000000D03*
D20*
X97000000Y-144700000D03*
D21*
X97000000Y-135300000D03*
D22*
X92100000Y-140000000D03*
X100300000Y-140000000D03*
D20*
X133000000Y-144700000D03*
D21*
X133000000Y-135300000D03*
D22*
X128100000Y-140000000D03*
X136300000Y-140000000D03*
D20*
X133000000Y-157700000D03*
D21*
X133000000Y-148300000D03*
D22*
X128100000Y-153000000D03*
X136300000Y-153000000D03*
D20*
X115000000Y-157700000D03*
D21*
X115000000Y-148300000D03*
D22*
X110100000Y-153000000D03*
X118300000Y-153000000D03*
D20*
X115000000Y-144700000D03*
D21*
X115000000Y-135300000D03*
D22*
X110100000Y-140000000D03*
X118300000Y-140000000D03*
D20*
X133000000Y-182700000D03*
D21*
X133000000Y-173300000D03*
D22*
X128100000Y-178000000D03*
X136300000Y-178000000D03*
D20*
X133000000Y-195700000D03*
D21*
X133000000Y-186300000D03*
D22*
X128100000Y-191000000D03*
X136300000Y-191000000D03*
D20*
X97000000Y-182700000D03*
D21*
X97000000Y-173300000D03*
D22*
X92100000Y-178000000D03*
X100300000Y-178000000D03*
D20*
X115000000Y-195700000D03*
D21*
X115000000Y-186300000D03*
D22*
X110100000Y-191000000D03*
X118300000Y-191000000D03*
D20*
X115000000Y-182700000D03*
D21*
X115000000Y-173300000D03*
D22*
X110100000Y-178000000D03*
X118300000Y-178000000D03*
D20*
X97000000Y-195700000D03*
D21*
X97000000Y-186300000D03*
D22*
X92100000Y-191000000D03*
X100300000Y-191000000D03*
D23*
X20250000Y-152060000D03*
D24*
X24060000Y-148250000D03*
D25*
X16768700Y-146023274D02*
X16111300Y-148476726D01*
D26*
X33500000Y-148250000D03*
X44500000Y-148250000D03*
X39000000Y-153750000D03*
D27*
X39000000Y-143750000D03*
D26*
X35110000Y-152140000D03*
X42890000Y-152140000D03*
D28*
X39000000Y-143750000D03*
D29*
X34900000Y-148250000D03*
X43100000Y-148250000D03*
D30*
X39000000Y-152350000D03*
D31*
X34968629Y-152281371D02*
X37231371Y-150018629D01*
X40768629Y-150018629D02*
X43031371Y-152281371D01*
D26*
X55500000Y-148250000D03*
X66500000Y-148250000D03*
X61000000Y-153750000D03*
D27*
X61000000Y-143750000D03*
D26*
X57110000Y-152140000D03*
X64890000Y-152140000D03*
D28*
X61000000Y-143750000D03*
D29*
X56900000Y-148250000D03*
X65100000Y-148250000D03*
D30*
X61000000Y-152350000D03*
D31*
X56968629Y-152281371D02*
X59231371Y-150018629D01*
X62768629Y-150018629D02*
X65031371Y-152281371D01*
D20*
X79000000Y-144700000D03*
D21*
X79000000Y-135300000D03*
D22*
X74100000Y-140000000D03*
X82300000Y-140000000D03*
D20*
X79000000Y-157700000D03*
D21*
X79000000Y-148300000D03*
D22*
X74100000Y-153000000D03*
X82300000Y-153000000D03*
D20*
X241000000Y-144700000D03*
D21*
X241000000Y-135300000D03*
D22*
X236100000Y-140000000D03*
X244300000Y-140000000D03*
D20*
X259000000Y-144700000D03*
D21*
X259000000Y-135300000D03*
D22*
X254100000Y-140000000D03*
X262300000Y-140000000D03*
D20*
X223000000Y-144700000D03*
D21*
X223000000Y-135300000D03*
D22*
X218100000Y-140000000D03*
X226300000Y-140000000D03*
D20*
X259000000Y-157700000D03*
D21*
X259000000Y-148300000D03*
D22*
X254100000Y-153000000D03*
X262300000Y-153000000D03*
D20*
X223000000Y-157700000D03*
D21*
X223000000Y-148300000D03*
D22*
X218100000Y-153000000D03*
X226300000Y-153000000D03*
D20*
X169000000Y-144700000D03*
D21*
X169000000Y-135300000D03*
D22*
X164100000Y-140000000D03*
X172300000Y-140000000D03*
D20*
X205000000Y-144700000D03*
D21*
X205000000Y-135300000D03*
D22*
X200100000Y-140000000D03*
X208300000Y-140000000D03*
D20*
X187000000Y-157700000D03*
D21*
X187000000Y-148300000D03*
D22*
X182100000Y-153000000D03*
X190300000Y-153000000D03*
D20*
X187000000Y-144700000D03*
D21*
X187000000Y-135300000D03*
D22*
X182100000Y-140000000D03*
X190300000Y-140000000D03*
D20*
X169000000Y-157700000D03*
D21*
X169000000Y-148300000D03*
D22*
X164100000Y-153000000D03*
X172300000Y-153000000D03*
D20*
X223000000Y-182700000D03*
D21*
X223000000Y-173300000D03*
D22*
X218100000Y-178000000D03*
X226300000Y-178000000D03*
D20*
X187000000Y-195700000D03*
D21*
X187000000Y-186300000D03*
D22*
X182100000Y-191000000D03*
X190300000Y-191000000D03*
D20*
X205000000Y-182700000D03*
D21*
X205000000Y-173300000D03*
D22*
X200100000Y-178000000D03*
X208300000Y-178000000D03*
D20*
X187000000Y-182700000D03*
D21*
X187000000Y-173300000D03*
D22*
X182100000Y-178000000D03*
X190300000Y-178000000D03*
D20*
X205000000Y-195700000D03*
D21*
X205000000Y-186300000D03*
D22*
X200100000Y-191000000D03*
X208300000Y-191000000D03*
D20*
X223000000Y-195700000D03*
D21*
X223000000Y-186300000D03*
D22*
X218100000Y-191000000D03*
X226300000Y-191000000D03*
D20*
X205000000Y-157700000D03*
D21*
X205000000Y-148300000D03*
D22*
X200100000Y-153000000D03*
X208300000Y-153000000D03*
D20*
X169000000Y-182700000D03*
D21*
X169000000Y-173300000D03*
D22*
X164100000Y-178000000D03*
X172300000Y-178000000D03*
D20*
X151000000Y-144700000D03*
D21*
X151000000Y-135300000D03*
D22*
X146100000Y-140000000D03*
X154300000Y-140000000D03*
D20*
X151000000Y-182700000D03*
D21*
X151000000Y-173300000D03*
D22*
X146100000Y-178000000D03*
X154300000Y-178000000D03*
D20*
X169000000Y-195700000D03*
D21*
X169000000Y-186300000D03*
D22*
X164100000Y-191000000D03*
X172300000Y-191000000D03*
D20*
X151000000Y-195700000D03*
D21*
X151000000Y-186300000D03*
D22*
X146100000Y-191000000D03*
X154300000Y-191000000D03*
D20*
X151000000Y-157700000D03*
D21*
X151000000Y-148300000D03*
D22*
X146100000Y-153000000D03*
X154300000Y-153000000D03*
D20*
X259000000Y-195700000D03*
D21*
X259000000Y-186300000D03*
D22*
X254100000Y-191000000D03*
X262300000Y-191000000D03*
D20*
X241000000Y-195700000D03*
D21*
X241000000Y-186300000D03*
D22*
X236100000Y-191000000D03*
X244300000Y-191000000D03*
D20*
X241000000Y-182700000D03*
D21*
X241000000Y-173300000D03*
D22*
X236100000Y-178000000D03*
X244300000Y-178000000D03*
D20*
X259000000Y-182700000D03*
D21*
X259000000Y-173300000D03*
D22*
X254100000Y-178000000D03*
X262300000Y-178000000D03*
D20*
X241000000Y-157700000D03*
D21*
X241000000Y-148300000D03*
D22*
X236100000Y-153000000D03*
X244300000Y-153000000D03*
D19*
X14500000Y-114900000D03*
X14500000Y-118140000D03*
D15*
X19580000Y-124460000D03*
D16*
X19580000Y-127000000D03*
X19580000Y-129540000D03*
D17*
X33610000Y-126730000D03*
X33610000Y-129770000D03*
X36150000Y-129770000D03*
X36150000Y-126730000D03*
X38690000Y-126730000D03*
X38690000Y-129770000D03*
X41230000Y-129770000D03*
X41230000Y-126730000D03*
X43770000Y-126730000D03*
X43770000Y-129770000D03*
D18*
X51390000Y-129770000D03*
D17*
X51390000Y-126730000D03*
X48850000Y-129770000D03*
X48850000Y-126730000D03*
X46310000Y-129770000D03*
X46310000Y-126730000D03*
D15*
X67530000Y-124460000D03*
D16*
X67530000Y-127000000D03*
X67530000Y-129540000D03*
D17*
X82920000Y-126730000D03*
X82920000Y-129770000D03*
D18*
X90540000Y-129770000D03*
D17*
X90540000Y-126730000D03*
X88000000Y-129770000D03*
X88000000Y-126730000D03*
X85460000Y-129770000D03*
X85460000Y-126730000D03*
D18*
X122290000Y-129770000D03*
D17*
X122290000Y-126730000D03*
X119750000Y-129770000D03*
X119750000Y-126730000D03*
X117210000Y-129770000D03*
X117210000Y-126730000D03*
D14*
X213750000Y-122000000D03*
D12*
X264160000Y-126900000D03*
D13*
X261620000Y-126900000D03*
X259080000Y-126900000D03*
X256540000Y-126900000D03*
D12*
X266700000Y-126900000D03*
D13*
X269240000Y-126900000D03*
X271780000Y-126900000D03*
D12*
X284480000Y-126900000D03*
D13*
X281940000Y-126900000D03*
X279400000Y-126900000D03*
D20*
X205000000Y-119700000D03*
D21*
X205000000Y-110300000D03*
D22*
X200100000Y-115000000D03*
X208300000Y-115000000D03*
D20*
X205000000Y-106700000D03*
D21*
X205000000Y-97300000D03*
D22*
X200100000Y-102000000D03*
X208300000Y-102000000D03*
D20*
X187000000Y-119700000D03*
D21*
X187000000Y-110300000D03*
D22*
X182100000Y-115000000D03*
X190300000Y-115000000D03*
D20*
X187000000Y-106700000D03*
D21*
X187000000Y-97300000D03*
D22*
X182100000Y-102000000D03*
X190300000Y-102000000D03*
D20*
X169000000Y-119700000D03*
D21*
X169000000Y-110300000D03*
D22*
X164100000Y-115000000D03*
X172300000Y-115000000D03*
D20*
X169000000Y-106700000D03*
D21*
X169000000Y-97300000D03*
D22*
X164100000Y-102000000D03*
X172300000Y-102000000D03*
D20*
X115000000Y-106700000D03*
D21*
X115000000Y-97300000D03*
D22*
X110100000Y-102000000D03*
X118300000Y-102000000D03*
D20*
X133000000Y-106700000D03*
D21*
X133000000Y-97300000D03*
D22*
X128100000Y-102000000D03*
X136300000Y-102000000D03*
D20*
X151000000Y-106700000D03*
D21*
X151000000Y-97300000D03*
D22*
X146100000Y-102000000D03*
X154300000Y-102000000D03*
D20*
X133000000Y-119700000D03*
D21*
X133000000Y-110300000D03*
D22*
X128100000Y-115000000D03*
X136300000Y-115000000D03*
D20*
X115000000Y-119700000D03*
D21*
X115000000Y-110300000D03*
D22*
X110100000Y-115000000D03*
X118300000Y-115000000D03*
D20*
X151000000Y-119700000D03*
D21*
X151000000Y-110300000D03*
D22*
X146100000Y-115000000D03*
X154300000Y-115000000D03*
D26*
X55500000Y-110250000D03*
X66500000Y-110250000D03*
X61000000Y-115750000D03*
D27*
X61000000Y-105750000D03*
D26*
X57110000Y-114140000D03*
X64890000Y-114140000D03*
D28*
X61000000Y-105750000D03*
D29*
X56900000Y-110250000D03*
X65100000Y-110250000D03*
D30*
X61000000Y-114350000D03*
D31*
X56968629Y-114281371D02*
X59231371Y-112018629D01*
X62768629Y-112018629D02*
X65031371Y-114281371D01*
D20*
X79000000Y-106700000D03*
D21*
X79000000Y-97300000D03*
D22*
X74100000Y-102000000D03*
X82300000Y-102000000D03*
D20*
X97000000Y-119700000D03*
D21*
X97000000Y-110300000D03*
D22*
X92100000Y-115000000D03*
X100300000Y-115000000D03*
D20*
X97000000Y-106700000D03*
D21*
X97000000Y-97300000D03*
D22*
X92100000Y-102000000D03*
X100300000Y-102000000D03*
D20*
X79000000Y-119700000D03*
D21*
X79000000Y-110300000D03*
D22*
X74100000Y-115000000D03*
X82300000Y-115000000D03*
D23*
X20250000Y-114060000D03*
D24*
X24060000Y-110250000D03*
D25*
X16768700Y-108023274D02*
X16111300Y-110476726D01*
D26*
X33500000Y-110250000D03*
X44500000Y-110250000D03*
X39000000Y-115750000D03*
D27*
X39000000Y-105750000D03*
D26*
X35110000Y-114140000D03*
X42890000Y-114140000D03*
D28*
X39000000Y-105750000D03*
D29*
X34900000Y-110250000D03*
X43100000Y-110250000D03*
D30*
X39000000Y-114350000D03*
D31*
X34968629Y-114281371D02*
X37231371Y-112018629D01*
X40768629Y-112018629D02*
X43031371Y-114281371D01*
D20*
X259000000Y-106700000D03*
D21*
X259000000Y-97300000D03*
D22*
X254100000Y-102000000D03*
X262300000Y-102000000D03*
D20*
X241000000Y-119700000D03*
D21*
X241000000Y-110300000D03*
D22*
X236100000Y-115000000D03*
X244300000Y-115000000D03*
D20*
X241000000Y-106700000D03*
D21*
X241000000Y-97300000D03*
D22*
X236100000Y-102000000D03*
X244300000Y-102000000D03*
D20*
X223000000Y-119700000D03*
D21*
X223000000Y-110300000D03*
D22*
X218100000Y-115000000D03*
X226300000Y-115000000D03*
D20*
X223000000Y-106700000D03*
D21*
X223000000Y-97300000D03*
D22*
X218100000Y-102000000D03*
X226300000Y-102000000D03*
D20*
X259000000Y-119700000D03*
D21*
X259000000Y-110300000D03*
D22*
X254100000Y-115000000D03*
X262300000Y-115000000D03*
D23*
X20250000Y-76060000D03*
D24*
X24060000Y-72250000D03*
D25*
X16768700Y-70023274D02*
X16111300Y-72476726D01*
D18*
X122290000Y-91770000D03*
D17*
X122290000Y-88730000D03*
X119750000Y-91770000D03*
X119750000Y-88730000D03*
X117210000Y-91770000D03*
X117210000Y-88730000D03*
D20*
X79000000Y-81700000D03*
D21*
X79000000Y-72300000D03*
D22*
X74100000Y-77000000D03*
X82300000Y-77000000D03*
D20*
X79000000Y-68700000D03*
D21*
X79000000Y-59300000D03*
D22*
X74100000Y-64000000D03*
X82300000Y-64000000D03*
D20*
X97000000Y-68700000D03*
D21*
X97000000Y-59300000D03*
D22*
X92100000Y-64000000D03*
X100300000Y-64000000D03*
D20*
X97000000Y-81700000D03*
D21*
X97000000Y-72300000D03*
D22*
X92100000Y-77000000D03*
X100300000Y-77000000D03*
D20*
X115000000Y-68700000D03*
D21*
X115000000Y-59300000D03*
D22*
X110100000Y-64000000D03*
X118300000Y-64000000D03*
D20*
X115000000Y-81700000D03*
D21*
X115000000Y-72300000D03*
D22*
X110100000Y-77000000D03*
X118300000Y-77000000D03*
D20*
X133000000Y-68700000D03*
D21*
X133000000Y-59300000D03*
D22*
X128100000Y-64000000D03*
X136300000Y-64000000D03*
D20*
X133000000Y-81700000D03*
D21*
X133000000Y-72300000D03*
D22*
X128100000Y-77000000D03*
X136300000Y-77000000D03*
D20*
X151000000Y-68700000D03*
D21*
X151000000Y-59300000D03*
D22*
X146100000Y-64000000D03*
X154300000Y-64000000D03*
D20*
X151000000Y-81700000D03*
D21*
X151000000Y-72300000D03*
D22*
X146100000Y-77000000D03*
X154300000Y-77000000D03*
D20*
X169000000Y-68700000D03*
D21*
X169000000Y-59300000D03*
D22*
X164100000Y-64000000D03*
X172300000Y-64000000D03*
D20*
X169000000Y-81700000D03*
D21*
X169000000Y-72300000D03*
D22*
X164100000Y-77000000D03*
X172300000Y-77000000D03*
D20*
X187000000Y-68700000D03*
D21*
X187000000Y-59300000D03*
D22*
X182100000Y-64000000D03*
X190300000Y-64000000D03*
D20*
X187000000Y-81700000D03*
D21*
X187000000Y-72300000D03*
D22*
X182100000Y-77000000D03*
X190300000Y-77000000D03*
D20*
X205000000Y-68700000D03*
D21*
X205000000Y-59300000D03*
D22*
X200100000Y-64000000D03*
X208300000Y-64000000D03*
D20*
X205000000Y-81700000D03*
D21*
X205000000Y-72300000D03*
D22*
X200100000Y-77000000D03*
X208300000Y-77000000D03*
D20*
X223000000Y-68700000D03*
D21*
X223000000Y-59300000D03*
D22*
X218100000Y-64000000D03*
X226300000Y-64000000D03*
D20*
X223000000Y-81700000D03*
D21*
X223000000Y-72300000D03*
D22*
X218100000Y-77000000D03*
X226300000Y-77000000D03*
D20*
X241000000Y-68700000D03*
D21*
X241000000Y-59300000D03*
D22*
X236100000Y-64000000D03*
X244300000Y-64000000D03*
D20*
X241000000Y-81700000D03*
D21*
X241000000Y-72300000D03*
D22*
X236100000Y-77000000D03*
X244300000Y-77000000D03*
D20*
X259000000Y-81700000D03*
D21*
X259000000Y-72300000D03*
D22*
X254100000Y-77000000D03*
X262300000Y-77000000D03*
D20*
X259000000Y-68700000D03*
D21*
X259000000Y-59300000D03*
D22*
X254100000Y-64000000D03*
X262300000Y-64000000D03*
D19*
X14500000Y-76900000D03*
X14500000Y-80140000D03*
D12*
X284480000Y-88900000D03*
D13*
X281940000Y-88900000D03*
X279400000Y-88900000D03*
D14*
X213750000Y-84000000D03*
D26*
X33500000Y-72250000D03*
X44500000Y-72250000D03*
X39000000Y-77750000D03*
D27*
X39000000Y-67750000D03*
D26*
X35110000Y-76140000D03*
X42890000Y-76140000D03*
D28*
X39000000Y-67750000D03*
D29*
X34900000Y-72250000D03*
X43100000Y-72250000D03*
D30*
X39000000Y-76350000D03*
D31*
X34968629Y-76281371D02*
X37231371Y-74018629D01*
X40768629Y-74018629D02*
X43031371Y-76281371D01*
D26*
X55500000Y-72250000D03*
X66500000Y-72250000D03*
X61000000Y-77750000D03*
D27*
X61000000Y-67750000D03*
D26*
X57110000Y-76140000D03*
X64890000Y-76140000D03*
D28*
X61000000Y-67750000D03*
D29*
X56900000Y-72250000D03*
X65100000Y-72250000D03*
D30*
X61000000Y-76350000D03*
D31*
X56968629Y-76281371D02*
X59231371Y-74018629D01*
X62768629Y-74018629D02*
X65031371Y-76281371D01*
D15*
X67530000Y-86460000D03*
D16*
X67530000Y-89000000D03*
X67530000Y-91540000D03*
D15*
X19580000Y-86460000D03*
D16*
X19580000Y-89000000D03*
X19580000Y-91540000D03*
D12*
X264160000Y-88900000D03*
D13*
X261620000Y-88900000D03*
X259080000Y-88900000D03*
X256540000Y-88900000D03*
D12*
X266700000Y-88900000D03*
D13*
X269240000Y-88900000D03*
X271780000Y-88900000D03*
D17*
X33610000Y-88730000D03*
X33610000Y-91770000D03*
X36150000Y-91770000D03*
X36150000Y-88730000D03*
X38690000Y-88730000D03*
X38690000Y-91770000D03*
X41230000Y-91770000D03*
X41230000Y-88730000D03*
X43770000Y-88730000D03*
X43770000Y-91770000D03*
D18*
X51390000Y-91770000D03*
D17*
X51390000Y-88730000D03*
X48850000Y-91770000D03*
X48850000Y-88730000D03*
X46310000Y-91770000D03*
X46310000Y-88730000D03*
X82920000Y-88730000D03*
X82920000Y-91770000D03*
D18*
X90540000Y-91770000D03*
D17*
X90540000Y-88730000D03*
X88000000Y-91770000D03*
X88000000Y-88730000D03*
X85460000Y-91770000D03*
X85460000Y-88730000D03*
D11*
X15000000Y-54500000D03*
M02*
