G04 #@! TF.FileFunction,Profile,NP*
%FSLAX46Y46*%
G04 Gerber Fmt 4.6, Leading zero omitted, Abs format (unit mm)*
G04 Created by KiCad (PCBNEW 4.0.2-stable) date 2020-03-03 5:11:40 PM*
%MOMM*%
G01*
G04 APERTURE LIST*
%ADD10C,0.200000*%
%ADD11C,0.100000*%
G04 APERTURE END LIST*
D10*
D11*
X293500000Y-95500000D02*
X10000000Y-95500000D01*
X293500000Y-209500000D02*
X10000000Y-209500000D01*
X293500000Y-171500000D02*
X10000000Y-171500000D01*
X293500000Y-133500000D02*
X10000000Y-133500000D01*
X293500000Y-57500000D02*
X10000000Y-57500000D01*
X291500000Y-215500000D02*
X12000000Y-215500000D01*
X291500000Y-215500000D02*
X291500000Y-51500000D01*
X291500000Y-51500000D02*
X12000000Y-51500000D01*
D10*
X276500000Y-145000000D02*
X272500000Y-149000000D01*
X276500000Y-145000000D02*
X288500000Y-145000000D01*
X288500000Y-145000000D02*
X288500000Y-161000000D01*
X272500000Y-161000000D02*
X272500000Y-149000000D01*
X288500000Y-161000000D02*
X272500000Y-161000000D01*
X276500000Y-183000000D02*
X272500000Y-187000000D01*
X272500000Y-199000000D02*
X272500000Y-187000000D01*
X288500000Y-199000000D02*
X272500000Y-199000000D01*
X288500000Y-183000000D02*
X288500000Y-199000000D01*
X276500000Y-183000000D02*
X288500000Y-183000000D01*
X272500000Y-123000000D02*
X272500000Y-111000000D01*
X276500000Y-107000000D02*
X288500000Y-107000000D01*
X276500000Y-107000000D02*
X272500000Y-111000000D01*
X288500000Y-123000000D02*
X272500000Y-123000000D01*
X288500000Y-107000000D02*
X288500000Y-123000000D01*
X276500000Y-69000000D02*
X272500000Y-73000000D01*
X272500000Y-85000000D02*
X272500000Y-73000000D01*
X288500000Y-85000000D02*
X272500000Y-85000000D01*
X288500000Y-69000000D02*
X288500000Y-85000000D01*
X276500000Y-69000000D02*
X288500000Y-69000000D01*
D11*
X12000000Y-215500000D02*
X12000000Y-51500000D01*
M02*
