G04 #@! TF.FileFunction,Copper,L2,Inr,Signal*
%FSLAX46Y46*%
G04 Gerber Fmt 4.6, Leading zero omitted, Abs format (unit mm)*
G04 Created by KiCad (PCBNEW 4.0.2-stable) date 2020-03-03 5:11:40 PM*
%MOMM*%
G01*
G04 APERTURE LIST*
%ADD10C,0.200000*%
%ADD11R,1.700000X1.700000*%
%ADD12O,1.700000X1.700000*%
%ADD13R,2.800000X1.600000*%
%ADD14R,1.800000X1.800000*%
%ADD15C,1.800000*%
%ADD16O,1.500000X2.000000*%
%ADD17R,1.500000X2.000000*%
%ADD18R,2.600000X2.000000*%
%ADD19O,4.000000X2.500000*%
%ADD20O,2.500000X2.000000*%
%ADD21O,1.500000X3.500000*%
%ADD22R,5.080000X2.540000*%
%ADD23O,2.540000X5.080000*%
%ADD24C,2.540000*%
%ADD25C,2.500000*%
%ADD26R,2.500000X3.500000*%
%ADD27O,4.600000X1.450000*%
%ADD28O,4.300000X1.100000*%
%ADD29O,1.100000X4.300000*%
%ADD30C,1.100000*%
%ADD31C,1.000000*%
%ADD32C,0.800000*%
%ADD33C,1.000000*%
%ADD34C,0.250000*%
G04 APERTURE END LIST*
D10*
D11*
X264160000Y-202900000D03*
D12*
X261620000Y-202900000D03*
X259080000Y-202900000D03*
X256540000Y-202900000D03*
D11*
X266700000Y-202900000D03*
D12*
X269240000Y-202900000D03*
X271780000Y-202900000D03*
D11*
X284480000Y-202900000D03*
D12*
X281940000Y-202900000D03*
X279400000Y-202900000D03*
D13*
X213750000Y-160000000D03*
X213750000Y-198000000D03*
D11*
X264160000Y-164900000D03*
D12*
X261620000Y-164900000D03*
X259080000Y-164900000D03*
X256540000Y-164900000D03*
D11*
X266700000Y-164900000D03*
D12*
X269240000Y-164900000D03*
X271780000Y-164900000D03*
D11*
X284480000Y-164900000D03*
D12*
X281940000Y-164900000D03*
X279400000Y-164900000D03*
D14*
X67530000Y-200460000D03*
D15*
X67530000Y-203000000D03*
X67530000Y-205540000D03*
D14*
X67530000Y-162460000D03*
D15*
X67530000Y-165000000D03*
X67530000Y-167540000D03*
D16*
X82920000Y-202730000D03*
X82920000Y-205770000D03*
D17*
X90540000Y-205770000D03*
D16*
X90540000Y-202730000D03*
X88000000Y-205770000D03*
X88000000Y-202730000D03*
X85460000Y-205770000D03*
X85460000Y-202730000D03*
X82920000Y-164730000D03*
X82920000Y-167770000D03*
D17*
X90540000Y-167770000D03*
D16*
X90540000Y-164730000D03*
X88000000Y-167770000D03*
X88000000Y-164730000D03*
X85460000Y-167770000D03*
X85460000Y-164730000D03*
D17*
X122290000Y-205770000D03*
D16*
X122290000Y-202730000D03*
X119750000Y-205770000D03*
X119750000Y-202730000D03*
X117210000Y-205770000D03*
X117210000Y-202730000D03*
D17*
X122290000Y-167770000D03*
D16*
X122290000Y-164730000D03*
X119750000Y-167770000D03*
X119750000Y-164730000D03*
X117210000Y-167770000D03*
X117210000Y-164730000D03*
D14*
X19580000Y-200460000D03*
D15*
X19580000Y-203000000D03*
X19580000Y-205540000D03*
D18*
X14500000Y-190900000D03*
X14500000Y-194140000D03*
X14500000Y-152900000D03*
X14500000Y-156140000D03*
D14*
X19580000Y-162460000D03*
D15*
X19580000Y-165000000D03*
X19580000Y-167540000D03*
D16*
X33610000Y-202730000D03*
X33610000Y-205770000D03*
X36150000Y-205770000D03*
X36150000Y-202730000D03*
X38690000Y-202730000D03*
X38690000Y-205770000D03*
X41230000Y-205770000D03*
X41230000Y-202730000D03*
X43770000Y-202730000D03*
X43770000Y-205770000D03*
D17*
X51390000Y-205770000D03*
D16*
X51390000Y-202730000D03*
X48850000Y-205770000D03*
X48850000Y-202730000D03*
X46310000Y-205770000D03*
X46310000Y-202730000D03*
X33610000Y-164730000D03*
X33610000Y-167770000D03*
X36150000Y-167770000D03*
X36150000Y-164730000D03*
X38690000Y-164730000D03*
X38690000Y-167770000D03*
X41230000Y-167770000D03*
X41230000Y-164730000D03*
X43770000Y-164730000D03*
X43770000Y-167770000D03*
D17*
X51390000Y-167770000D03*
D16*
X51390000Y-164730000D03*
X48850000Y-167770000D03*
X48850000Y-164730000D03*
X46310000Y-167770000D03*
X46310000Y-164730000D03*
D19*
X79000000Y-195700000D03*
D20*
X79000000Y-186300000D03*
D21*
X74100000Y-191000000D03*
X82300000Y-191000000D03*
D22*
X20250000Y-190060000D03*
D23*
X24060000Y-186250000D03*
D24*
X16768700Y-184023274D02*
X16111300Y-186476726D01*
D25*
X33500000Y-186250000D03*
X44500000Y-186250000D03*
X39000000Y-191750000D03*
D26*
X39000000Y-181750000D03*
D25*
X35110000Y-190140000D03*
X42890000Y-190140000D03*
D27*
X39000000Y-181750000D03*
D28*
X34900000Y-186250000D03*
X43100000Y-186250000D03*
D29*
X39000000Y-190350000D03*
D30*
X34968629Y-190281371D02*
X37231371Y-188018629D01*
X40768629Y-188018629D02*
X43031371Y-190281371D01*
D25*
X55500000Y-186250000D03*
X66500000Y-186250000D03*
X61000000Y-191750000D03*
D26*
X61000000Y-181750000D03*
D25*
X57110000Y-190140000D03*
X64890000Y-190140000D03*
D27*
X61000000Y-181750000D03*
D28*
X56900000Y-186250000D03*
X65100000Y-186250000D03*
D29*
X61000000Y-190350000D03*
D30*
X56968629Y-190281371D02*
X59231371Y-188018629D01*
X62768629Y-188018629D02*
X65031371Y-190281371D01*
D19*
X79000000Y-182700000D03*
D20*
X79000000Y-173300000D03*
D21*
X74100000Y-178000000D03*
X82300000Y-178000000D03*
D19*
X97000000Y-157700000D03*
D20*
X97000000Y-148300000D03*
D21*
X92100000Y-153000000D03*
X100300000Y-153000000D03*
D19*
X97000000Y-144700000D03*
D20*
X97000000Y-135300000D03*
D21*
X92100000Y-140000000D03*
X100300000Y-140000000D03*
D19*
X133000000Y-144700000D03*
D20*
X133000000Y-135300000D03*
D21*
X128100000Y-140000000D03*
X136300000Y-140000000D03*
D19*
X133000000Y-157700000D03*
D20*
X133000000Y-148300000D03*
D21*
X128100000Y-153000000D03*
X136300000Y-153000000D03*
D19*
X115000000Y-157700000D03*
D20*
X115000000Y-148300000D03*
D21*
X110100000Y-153000000D03*
X118300000Y-153000000D03*
D19*
X115000000Y-144700000D03*
D20*
X115000000Y-135300000D03*
D21*
X110100000Y-140000000D03*
X118300000Y-140000000D03*
D19*
X133000000Y-182700000D03*
D20*
X133000000Y-173300000D03*
D21*
X128100000Y-178000000D03*
X136300000Y-178000000D03*
D19*
X133000000Y-195700000D03*
D20*
X133000000Y-186300000D03*
D21*
X128100000Y-191000000D03*
X136300000Y-191000000D03*
D19*
X97000000Y-182700000D03*
D20*
X97000000Y-173300000D03*
D21*
X92100000Y-178000000D03*
X100300000Y-178000000D03*
D19*
X115000000Y-195700000D03*
D20*
X115000000Y-186300000D03*
D21*
X110100000Y-191000000D03*
X118300000Y-191000000D03*
D19*
X115000000Y-182700000D03*
D20*
X115000000Y-173300000D03*
D21*
X110100000Y-178000000D03*
X118300000Y-178000000D03*
D19*
X97000000Y-195700000D03*
D20*
X97000000Y-186300000D03*
D21*
X92100000Y-191000000D03*
X100300000Y-191000000D03*
D22*
X20250000Y-152060000D03*
D23*
X24060000Y-148250000D03*
D24*
X16768700Y-146023274D02*
X16111300Y-148476726D01*
D25*
X33500000Y-148250000D03*
X44500000Y-148250000D03*
X39000000Y-153750000D03*
D26*
X39000000Y-143750000D03*
D25*
X35110000Y-152140000D03*
X42890000Y-152140000D03*
D27*
X39000000Y-143750000D03*
D28*
X34900000Y-148250000D03*
X43100000Y-148250000D03*
D29*
X39000000Y-152350000D03*
D30*
X34968629Y-152281371D02*
X37231371Y-150018629D01*
X40768629Y-150018629D02*
X43031371Y-152281371D01*
D25*
X55500000Y-148250000D03*
X66500000Y-148250000D03*
X61000000Y-153750000D03*
D26*
X61000000Y-143750000D03*
D25*
X57110000Y-152140000D03*
X64890000Y-152140000D03*
D27*
X61000000Y-143750000D03*
D28*
X56900000Y-148250000D03*
X65100000Y-148250000D03*
D29*
X61000000Y-152350000D03*
D30*
X56968629Y-152281371D02*
X59231371Y-150018629D01*
X62768629Y-150018629D02*
X65031371Y-152281371D01*
D19*
X79000000Y-144700000D03*
D20*
X79000000Y-135300000D03*
D21*
X74100000Y-140000000D03*
X82300000Y-140000000D03*
D19*
X79000000Y-157700000D03*
D20*
X79000000Y-148300000D03*
D21*
X74100000Y-153000000D03*
X82300000Y-153000000D03*
D19*
X241000000Y-144700000D03*
D20*
X241000000Y-135300000D03*
D21*
X236100000Y-140000000D03*
X244300000Y-140000000D03*
D19*
X259000000Y-144700000D03*
D20*
X259000000Y-135300000D03*
D21*
X254100000Y-140000000D03*
X262300000Y-140000000D03*
D19*
X223000000Y-144700000D03*
D20*
X223000000Y-135300000D03*
D21*
X218100000Y-140000000D03*
X226300000Y-140000000D03*
D19*
X259000000Y-157700000D03*
D20*
X259000000Y-148300000D03*
D21*
X254100000Y-153000000D03*
X262300000Y-153000000D03*
D19*
X223000000Y-157700000D03*
D20*
X223000000Y-148300000D03*
D21*
X218100000Y-153000000D03*
X226300000Y-153000000D03*
D19*
X169000000Y-144700000D03*
D20*
X169000000Y-135300000D03*
D21*
X164100000Y-140000000D03*
X172300000Y-140000000D03*
D19*
X205000000Y-144700000D03*
D20*
X205000000Y-135300000D03*
D21*
X200100000Y-140000000D03*
X208300000Y-140000000D03*
D19*
X187000000Y-157700000D03*
D20*
X187000000Y-148300000D03*
D21*
X182100000Y-153000000D03*
X190300000Y-153000000D03*
D19*
X187000000Y-144700000D03*
D20*
X187000000Y-135300000D03*
D21*
X182100000Y-140000000D03*
X190300000Y-140000000D03*
D19*
X169000000Y-157700000D03*
D20*
X169000000Y-148300000D03*
D21*
X164100000Y-153000000D03*
X172300000Y-153000000D03*
D19*
X223000000Y-182700000D03*
D20*
X223000000Y-173300000D03*
D21*
X218100000Y-178000000D03*
X226300000Y-178000000D03*
D19*
X187000000Y-195700000D03*
D20*
X187000000Y-186300000D03*
D21*
X182100000Y-191000000D03*
X190300000Y-191000000D03*
D19*
X205000000Y-182700000D03*
D20*
X205000000Y-173300000D03*
D21*
X200100000Y-178000000D03*
X208300000Y-178000000D03*
D19*
X187000000Y-182700000D03*
D20*
X187000000Y-173300000D03*
D21*
X182100000Y-178000000D03*
X190300000Y-178000000D03*
D19*
X205000000Y-195700000D03*
D20*
X205000000Y-186300000D03*
D21*
X200100000Y-191000000D03*
X208300000Y-191000000D03*
D19*
X223000000Y-195700000D03*
D20*
X223000000Y-186300000D03*
D21*
X218100000Y-191000000D03*
X226300000Y-191000000D03*
D19*
X205000000Y-157700000D03*
D20*
X205000000Y-148300000D03*
D21*
X200100000Y-153000000D03*
X208300000Y-153000000D03*
D19*
X169000000Y-182700000D03*
D20*
X169000000Y-173300000D03*
D21*
X164100000Y-178000000D03*
X172300000Y-178000000D03*
D19*
X151000000Y-144700000D03*
D20*
X151000000Y-135300000D03*
D21*
X146100000Y-140000000D03*
X154300000Y-140000000D03*
D19*
X151000000Y-182700000D03*
D20*
X151000000Y-173300000D03*
D21*
X146100000Y-178000000D03*
X154300000Y-178000000D03*
D19*
X169000000Y-195700000D03*
D20*
X169000000Y-186300000D03*
D21*
X164100000Y-191000000D03*
X172300000Y-191000000D03*
D19*
X151000000Y-195700000D03*
D20*
X151000000Y-186300000D03*
D21*
X146100000Y-191000000D03*
X154300000Y-191000000D03*
D19*
X151000000Y-157700000D03*
D20*
X151000000Y-148300000D03*
D21*
X146100000Y-153000000D03*
X154300000Y-153000000D03*
D19*
X259000000Y-195700000D03*
D20*
X259000000Y-186300000D03*
D21*
X254100000Y-191000000D03*
X262300000Y-191000000D03*
D19*
X241000000Y-195700000D03*
D20*
X241000000Y-186300000D03*
D21*
X236100000Y-191000000D03*
X244300000Y-191000000D03*
D19*
X241000000Y-182700000D03*
D20*
X241000000Y-173300000D03*
D21*
X236100000Y-178000000D03*
X244300000Y-178000000D03*
D19*
X259000000Y-182700000D03*
D20*
X259000000Y-173300000D03*
D21*
X254100000Y-178000000D03*
X262300000Y-178000000D03*
D19*
X241000000Y-157700000D03*
D20*
X241000000Y-148300000D03*
D21*
X236100000Y-153000000D03*
X244300000Y-153000000D03*
D18*
X14500000Y-114900000D03*
X14500000Y-118140000D03*
D14*
X19580000Y-124460000D03*
D15*
X19580000Y-127000000D03*
X19580000Y-129540000D03*
D16*
X33610000Y-126730000D03*
X33610000Y-129770000D03*
X36150000Y-129770000D03*
X36150000Y-126730000D03*
X38690000Y-126730000D03*
X38690000Y-129770000D03*
X41230000Y-129770000D03*
X41230000Y-126730000D03*
X43770000Y-126730000D03*
X43770000Y-129770000D03*
D17*
X51390000Y-129770000D03*
D16*
X51390000Y-126730000D03*
X48850000Y-129770000D03*
X48850000Y-126730000D03*
X46310000Y-129770000D03*
X46310000Y-126730000D03*
D14*
X67530000Y-124460000D03*
D15*
X67530000Y-127000000D03*
X67530000Y-129540000D03*
D16*
X82920000Y-126730000D03*
X82920000Y-129770000D03*
D17*
X90540000Y-129770000D03*
D16*
X90540000Y-126730000D03*
X88000000Y-129770000D03*
X88000000Y-126730000D03*
X85460000Y-129770000D03*
X85460000Y-126730000D03*
D17*
X122290000Y-129770000D03*
D16*
X122290000Y-126730000D03*
X119750000Y-129770000D03*
X119750000Y-126730000D03*
X117210000Y-129770000D03*
X117210000Y-126730000D03*
D13*
X213750000Y-122000000D03*
D11*
X264160000Y-126900000D03*
D12*
X261620000Y-126900000D03*
X259080000Y-126900000D03*
X256540000Y-126900000D03*
D11*
X266700000Y-126900000D03*
D12*
X269240000Y-126900000D03*
X271780000Y-126900000D03*
D11*
X284480000Y-126900000D03*
D12*
X281940000Y-126900000D03*
X279400000Y-126900000D03*
D19*
X205000000Y-119700000D03*
D20*
X205000000Y-110300000D03*
D21*
X200100000Y-115000000D03*
X208300000Y-115000000D03*
D19*
X205000000Y-106700000D03*
D20*
X205000000Y-97300000D03*
D21*
X200100000Y-102000000D03*
X208300000Y-102000000D03*
D19*
X187000000Y-119700000D03*
D20*
X187000000Y-110300000D03*
D21*
X182100000Y-115000000D03*
X190300000Y-115000000D03*
D19*
X187000000Y-106700000D03*
D20*
X187000000Y-97300000D03*
D21*
X182100000Y-102000000D03*
X190300000Y-102000000D03*
D19*
X169000000Y-119700000D03*
D20*
X169000000Y-110300000D03*
D21*
X164100000Y-115000000D03*
X172300000Y-115000000D03*
D19*
X169000000Y-106700000D03*
D20*
X169000000Y-97300000D03*
D21*
X164100000Y-102000000D03*
X172300000Y-102000000D03*
D19*
X115000000Y-106700000D03*
D20*
X115000000Y-97300000D03*
D21*
X110100000Y-102000000D03*
X118300000Y-102000000D03*
D19*
X133000000Y-106700000D03*
D20*
X133000000Y-97300000D03*
D21*
X128100000Y-102000000D03*
X136300000Y-102000000D03*
D19*
X151000000Y-106700000D03*
D20*
X151000000Y-97300000D03*
D21*
X146100000Y-102000000D03*
X154300000Y-102000000D03*
D19*
X133000000Y-119700000D03*
D20*
X133000000Y-110300000D03*
D21*
X128100000Y-115000000D03*
X136300000Y-115000000D03*
D19*
X115000000Y-119700000D03*
D20*
X115000000Y-110300000D03*
D21*
X110100000Y-115000000D03*
X118300000Y-115000000D03*
D19*
X151000000Y-119700000D03*
D20*
X151000000Y-110300000D03*
D21*
X146100000Y-115000000D03*
X154300000Y-115000000D03*
D25*
X55500000Y-110250000D03*
X66500000Y-110250000D03*
X61000000Y-115750000D03*
D26*
X61000000Y-105750000D03*
D25*
X57110000Y-114140000D03*
X64890000Y-114140000D03*
D27*
X61000000Y-105750000D03*
D28*
X56900000Y-110250000D03*
X65100000Y-110250000D03*
D29*
X61000000Y-114350000D03*
D30*
X56968629Y-114281371D02*
X59231371Y-112018629D01*
X62768629Y-112018629D02*
X65031371Y-114281371D01*
D19*
X79000000Y-106700000D03*
D20*
X79000000Y-97300000D03*
D21*
X74100000Y-102000000D03*
X82300000Y-102000000D03*
D19*
X97000000Y-119700000D03*
D20*
X97000000Y-110300000D03*
D21*
X92100000Y-115000000D03*
X100300000Y-115000000D03*
D19*
X97000000Y-106700000D03*
D20*
X97000000Y-97300000D03*
D21*
X92100000Y-102000000D03*
X100300000Y-102000000D03*
D19*
X79000000Y-119700000D03*
D20*
X79000000Y-110300000D03*
D21*
X74100000Y-115000000D03*
X82300000Y-115000000D03*
D22*
X20250000Y-114060000D03*
D23*
X24060000Y-110250000D03*
D24*
X16768700Y-108023274D02*
X16111300Y-110476726D01*
D25*
X33500000Y-110250000D03*
X44500000Y-110250000D03*
X39000000Y-115750000D03*
D26*
X39000000Y-105750000D03*
D25*
X35110000Y-114140000D03*
X42890000Y-114140000D03*
D27*
X39000000Y-105750000D03*
D28*
X34900000Y-110250000D03*
X43100000Y-110250000D03*
D29*
X39000000Y-114350000D03*
D30*
X34968629Y-114281371D02*
X37231371Y-112018629D01*
X40768629Y-112018629D02*
X43031371Y-114281371D01*
D19*
X259000000Y-106700000D03*
D20*
X259000000Y-97300000D03*
D21*
X254100000Y-102000000D03*
X262300000Y-102000000D03*
D19*
X241000000Y-119700000D03*
D20*
X241000000Y-110300000D03*
D21*
X236100000Y-115000000D03*
X244300000Y-115000000D03*
D19*
X241000000Y-106700000D03*
D20*
X241000000Y-97300000D03*
D21*
X236100000Y-102000000D03*
X244300000Y-102000000D03*
D19*
X223000000Y-119700000D03*
D20*
X223000000Y-110300000D03*
D21*
X218100000Y-115000000D03*
X226300000Y-115000000D03*
D19*
X223000000Y-106700000D03*
D20*
X223000000Y-97300000D03*
D21*
X218100000Y-102000000D03*
X226300000Y-102000000D03*
D19*
X259000000Y-119700000D03*
D20*
X259000000Y-110300000D03*
D21*
X254100000Y-115000000D03*
X262300000Y-115000000D03*
D22*
X20250000Y-76060000D03*
D23*
X24060000Y-72250000D03*
D24*
X16768700Y-70023274D02*
X16111300Y-72476726D01*
D17*
X122290000Y-91770000D03*
D16*
X122290000Y-88730000D03*
X119750000Y-91770000D03*
X119750000Y-88730000D03*
X117210000Y-91770000D03*
X117210000Y-88730000D03*
D19*
X79000000Y-81700000D03*
D20*
X79000000Y-72300000D03*
D21*
X74100000Y-77000000D03*
X82300000Y-77000000D03*
D19*
X79000000Y-68700000D03*
D20*
X79000000Y-59300000D03*
D21*
X74100000Y-64000000D03*
X82300000Y-64000000D03*
D19*
X97000000Y-68700000D03*
D20*
X97000000Y-59300000D03*
D21*
X92100000Y-64000000D03*
X100300000Y-64000000D03*
D19*
X97000000Y-81700000D03*
D20*
X97000000Y-72300000D03*
D21*
X92100000Y-77000000D03*
X100300000Y-77000000D03*
D19*
X115000000Y-68700000D03*
D20*
X115000000Y-59300000D03*
D21*
X110100000Y-64000000D03*
X118300000Y-64000000D03*
D19*
X115000000Y-81700000D03*
D20*
X115000000Y-72300000D03*
D21*
X110100000Y-77000000D03*
X118300000Y-77000000D03*
D19*
X133000000Y-68700000D03*
D20*
X133000000Y-59300000D03*
D21*
X128100000Y-64000000D03*
X136300000Y-64000000D03*
D19*
X133000000Y-81700000D03*
D20*
X133000000Y-72300000D03*
D21*
X128100000Y-77000000D03*
X136300000Y-77000000D03*
D19*
X151000000Y-68700000D03*
D20*
X151000000Y-59300000D03*
D21*
X146100000Y-64000000D03*
X154300000Y-64000000D03*
D19*
X151000000Y-81700000D03*
D20*
X151000000Y-72300000D03*
D21*
X146100000Y-77000000D03*
X154300000Y-77000000D03*
D19*
X169000000Y-68700000D03*
D20*
X169000000Y-59300000D03*
D21*
X164100000Y-64000000D03*
X172300000Y-64000000D03*
D19*
X169000000Y-81700000D03*
D20*
X169000000Y-72300000D03*
D21*
X164100000Y-77000000D03*
X172300000Y-77000000D03*
D19*
X187000000Y-68700000D03*
D20*
X187000000Y-59300000D03*
D21*
X182100000Y-64000000D03*
X190300000Y-64000000D03*
D19*
X187000000Y-81700000D03*
D20*
X187000000Y-72300000D03*
D21*
X182100000Y-77000000D03*
X190300000Y-77000000D03*
D19*
X205000000Y-68700000D03*
D20*
X205000000Y-59300000D03*
D21*
X200100000Y-64000000D03*
X208300000Y-64000000D03*
D19*
X205000000Y-81700000D03*
D20*
X205000000Y-72300000D03*
D21*
X200100000Y-77000000D03*
X208300000Y-77000000D03*
D19*
X223000000Y-68700000D03*
D20*
X223000000Y-59300000D03*
D21*
X218100000Y-64000000D03*
X226300000Y-64000000D03*
D19*
X223000000Y-81700000D03*
D20*
X223000000Y-72300000D03*
D21*
X218100000Y-77000000D03*
X226300000Y-77000000D03*
D19*
X241000000Y-68700000D03*
D20*
X241000000Y-59300000D03*
D21*
X236100000Y-64000000D03*
X244300000Y-64000000D03*
D19*
X241000000Y-81700000D03*
D20*
X241000000Y-72300000D03*
D21*
X236100000Y-77000000D03*
X244300000Y-77000000D03*
D19*
X259000000Y-81700000D03*
D20*
X259000000Y-72300000D03*
D21*
X254100000Y-77000000D03*
X262300000Y-77000000D03*
D19*
X259000000Y-68700000D03*
D20*
X259000000Y-59300000D03*
D21*
X254100000Y-64000000D03*
X262300000Y-64000000D03*
D18*
X14500000Y-76900000D03*
X14500000Y-80140000D03*
D11*
X284480000Y-88900000D03*
D12*
X281940000Y-88900000D03*
X279400000Y-88900000D03*
D13*
X213750000Y-84000000D03*
D25*
X33500000Y-72250000D03*
X44500000Y-72250000D03*
X39000000Y-77750000D03*
D26*
X39000000Y-67750000D03*
D25*
X35110000Y-76140000D03*
X42890000Y-76140000D03*
D27*
X39000000Y-67750000D03*
D28*
X34900000Y-72250000D03*
X43100000Y-72250000D03*
D29*
X39000000Y-76350000D03*
D30*
X34968629Y-76281371D02*
X37231371Y-74018629D01*
X40768629Y-74018629D02*
X43031371Y-76281371D01*
D25*
X55500000Y-72250000D03*
X66500000Y-72250000D03*
X61000000Y-77750000D03*
D26*
X61000000Y-67750000D03*
D25*
X57110000Y-76140000D03*
X64890000Y-76140000D03*
D27*
X61000000Y-67750000D03*
D28*
X56900000Y-72250000D03*
X65100000Y-72250000D03*
D29*
X61000000Y-76350000D03*
D30*
X56968629Y-76281371D02*
X59231371Y-74018629D01*
X62768629Y-74018629D02*
X65031371Y-76281371D01*
D14*
X67530000Y-86460000D03*
D15*
X67530000Y-89000000D03*
X67530000Y-91540000D03*
D14*
X19580000Y-86460000D03*
D15*
X19580000Y-89000000D03*
X19580000Y-91540000D03*
D11*
X264160000Y-88900000D03*
D12*
X261620000Y-88900000D03*
X259080000Y-88900000D03*
X256540000Y-88900000D03*
D11*
X266700000Y-88900000D03*
D12*
X269240000Y-88900000D03*
X271780000Y-88900000D03*
D16*
X33610000Y-88730000D03*
X33610000Y-91770000D03*
X36150000Y-91770000D03*
X36150000Y-88730000D03*
X38690000Y-88730000D03*
X38690000Y-91770000D03*
X41230000Y-91770000D03*
X41230000Y-88730000D03*
X43770000Y-88730000D03*
X43770000Y-91770000D03*
D17*
X51390000Y-91770000D03*
D16*
X51390000Y-88730000D03*
X48850000Y-91770000D03*
X48850000Y-88730000D03*
X46310000Y-91770000D03*
X46310000Y-88730000D03*
X82920000Y-88730000D03*
X82920000Y-91770000D03*
D17*
X90540000Y-91770000D03*
D16*
X90540000Y-88730000D03*
X88000000Y-91770000D03*
X88000000Y-88730000D03*
X85460000Y-91770000D03*
X85460000Y-88730000D03*
D31*
X231406705Y-165195709D03*
X237700000Y-166900000D03*
X234600000Y-164500000D03*
X231406705Y-203195709D03*
X237700000Y-204900000D03*
X234600000Y-202500000D03*
X266100000Y-178100000D03*
X266100000Y-140100000D03*
X14500000Y-196800000D03*
X16700000Y-196800000D03*
X20700000Y-196800000D03*
X18800000Y-196800000D03*
X28600000Y-160300000D03*
X39000000Y-159300000D03*
X28600000Y-159300000D03*
X30400000Y-161300000D03*
X28600000Y-161300000D03*
X28600000Y-198300000D03*
X30400000Y-199300000D03*
X28600000Y-197300000D03*
X28600000Y-199300000D03*
X39000000Y-197300000D03*
X16700000Y-158800000D03*
X18800000Y-158800000D03*
X20700000Y-158800000D03*
X14500000Y-158800000D03*
X266100000Y-102100000D03*
X234600000Y-126500000D03*
X231406705Y-127195709D03*
X237700000Y-128900000D03*
X14500000Y-120800000D03*
X18800000Y-120800000D03*
X16700000Y-120800000D03*
X20700000Y-120800000D03*
X28600000Y-121300000D03*
X28600000Y-123300000D03*
X28600000Y-122300000D03*
X39000000Y-121300000D03*
X30400000Y-123300000D03*
X39000000Y-83300000D03*
X237700000Y-90900000D03*
X266100000Y-64100000D03*
X231406705Y-89195709D03*
X234600000Y-88500000D03*
X16700000Y-82800000D03*
X18800000Y-82800000D03*
X20700000Y-82800000D03*
X14500000Y-82800000D03*
X28600000Y-84300000D03*
X28600000Y-85300000D03*
X30400000Y-85300000D03*
X28600000Y-83300000D03*
X157100004Y-193300000D03*
X157100000Y-180600000D03*
X175199994Y-180600000D03*
X175199996Y-193400000D03*
X193100000Y-193299998D03*
X193199992Y-180600000D03*
X139200000Y-142600004D03*
X121100000Y-142600000D03*
X141048912Y-168269981D03*
X193100000Y-155299998D03*
X193199992Y-142600000D03*
X157100004Y-155300000D03*
X175199996Y-155400000D03*
X157100000Y-142600000D03*
X175199994Y-142600000D03*
X139100000Y-155300000D03*
X122250000Y-192250000D03*
X138500000Y-199700000D03*
X139100000Y-193300000D03*
X141048912Y-206269981D03*
X139200000Y-180600004D03*
X122250000Y-154250000D03*
X138500000Y-161700000D03*
X121100000Y-180600000D03*
X87000000Y-143250000D03*
X88500000Y-148000000D03*
X103199998Y-155300000D03*
X103100000Y-142600008D03*
X100500000Y-161000000D03*
X103100000Y-180600008D03*
X100500000Y-199000000D03*
X103199998Y-193300000D03*
X88500000Y-186000000D03*
X87000000Y-181250000D03*
X157100000Y-104600000D03*
X193199992Y-104600000D03*
X157100004Y-117300000D03*
X193100000Y-117299998D03*
X175199996Y-117400000D03*
X175199994Y-104600000D03*
X103100000Y-104600008D03*
X100500000Y-123000000D03*
X88500000Y-110000000D03*
X103199998Y-117300000D03*
X87000000Y-105250000D03*
X122250000Y-116250000D03*
X139200000Y-104600004D03*
X139100000Y-117300000D03*
X121100000Y-104600000D03*
X138500000Y-123700000D03*
X141048912Y-130269981D03*
X138500000Y-85700000D03*
X141048912Y-92269981D03*
X175199996Y-79400000D03*
X193100000Y-79299998D03*
X157100004Y-79300000D03*
X139100000Y-79300000D03*
X103199998Y-79300000D03*
X193199992Y-66600000D03*
X175199994Y-66600000D03*
X157100000Y-66600000D03*
X139200000Y-66600004D03*
X121100000Y-66600000D03*
X103100000Y-66600008D03*
X87000000Y-67250000D03*
X100500000Y-85000000D03*
X88500000Y-72000000D03*
X122250000Y-78250000D03*
X250200006Y-155700000D03*
X235950000Y-169400000D03*
X274550000Y-173900000D03*
X271500002Y-173400000D03*
X235950000Y-207400000D03*
X250200006Y-193700000D03*
X271500002Y-135400000D03*
X274550000Y-135900000D03*
X274550000Y-97900000D03*
X271500002Y-97400000D03*
X250200006Y-117700000D03*
X235950000Y-131400000D03*
X250200006Y-79700000D03*
X271500002Y-59400000D03*
X235950000Y-93400000D03*
X274550000Y-59900000D03*
X230400000Y-161400000D03*
X278000000Y-177400000D03*
X271800000Y-182249402D03*
X230400000Y-199400000D03*
X267324980Y-183530678D03*
X250699998Y-180500000D03*
X278000000Y-139400000D03*
X271800000Y-144249402D03*
X250699998Y-142500000D03*
X267324980Y-145530678D03*
X278000000Y-101400000D03*
X271800000Y-106249402D03*
X267324980Y-107530678D03*
X250699998Y-104500000D03*
X230400000Y-123400000D03*
X250699998Y-66500000D03*
X230400000Y-85400000D03*
X278000000Y-63400000D03*
X267324980Y-69530678D03*
X271800000Y-68249402D03*
D32*
X143400000Y-201500000D03*
X149800000Y-201500000D03*
X143400000Y-163500000D03*
X149800000Y-163500000D03*
X143400000Y-125500000D03*
X149800000Y-125500000D03*
X149800000Y-87500000D03*
X143400000Y-87500000D03*
X108500000Y-164800013D03*
X108500000Y-202800013D03*
X108500000Y-126800013D03*
X108500000Y-88800013D03*
X128100000Y-166600000D03*
X128100000Y-204600000D03*
X124750000Y-201000000D03*
X110500000Y-162200002D03*
X110500000Y-200200002D03*
X124750000Y-163000000D03*
X110500000Y-124200002D03*
X124750000Y-125000000D03*
X128100000Y-128600000D03*
X128100000Y-90600000D03*
X110500000Y-86200002D03*
X124750000Y-87000000D03*
X147800000Y-161500000D03*
X147800000Y-199500000D03*
X147800000Y-123500000D03*
X147800000Y-85500000D03*
X262600000Y-175300000D03*
X262600000Y-137300000D03*
X262600000Y-99300000D03*
X262600000Y-61300000D03*
X110800000Y-159800000D03*
X106250000Y-159750000D03*
X106250000Y-197750000D03*
X110800000Y-197800000D03*
X110800000Y-121800000D03*
X106250000Y-121750000D03*
X110800000Y-83800000D03*
X106250000Y-83750000D03*
X267637228Y-177277366D03*
X269800000Y-186500000D03*
X269800000Y-148500000D03*
X267637228Y-139277366D03*
X269800000Y-110500000D03*
X267637228Y-101277366D03*
X267637228Y-63277366D03*
X269800000Y-72500000D03*
D31*
X135700000Y-166300000D03*
X129750000Y-163750000D03*
D32*
X139899998Y-163400000D03*
D31*
X144000000Y-156500000D03*
X129750000Y-201750000D03*
D32*
X139899998Y-201400000D03*
D31*
X135700000Y-204300000D03*
X144000000Y-194500000D03*
D32*
X148500000Y-201500000D03*
D31*
X108234288Y-168127290D03*
X108234288Y-206127290D03*
D32*
X148500000Y-163500000D03*
X85800000Y-147100000D03*
D31*
X104000000Y-160750000D03*
X104000000Y-198750000D03*
D32*
X85800000Y-185100000D03*
D31*
X104000000Y-122750000D03*
D32*
X85800000Y-109100000D03*
D31*
X108234288Y-130127290D03*
X144000000Y-118500000D03*
D32*
X148500000Y-125500000D03*
D31*
X129750000Y-125750000D03*
D32*
X139899998Y-125400000D03*
D31*
X135700000Y-128300000D03*
D32*
X85800000Y-71100000D03*
X139899998Y-87400000D03*
X148500000Y-87500000D03*
D31*
X108234288Y-92127290D03*
X104000000Y-84750000D03*
X135700000Y-90300000D03*
X144000000Y-80500000D03*
X129750000Y-87750000D03*
D33*
X41230000Y-202980000D02*
X41230000Y-201270000D01*
X70800000Y-197400000D02*
X74500000Y-201100000D01*
X41230000Y-201270000D02*
X45100000Y-197400000D01*
X41230000Y-205520000D02*
X41230000Y-202980000D01*
X41230000Y-167520000D02*
X41230000Y-164980000D01*
X45100000Y-197400000D02*
X70800000Y-197400000D01*
X74500000Y-201100000D02*
X74500000Y-204700000D01*
X143300000Y-208000000D02*
X143900000Y-207400000D01*
X74500000Y-204700000D02*
X77800000Y-208000000D01*
X74500000Y-163100000D02*
X74500000Y-166700000D01*
X143300000Y-170000000D02*
X143900000Y-169400000D01*
X77800000Y-170000000D02*
X143300000Y-170000000D01*
X74500000Y-166700000D02*
X77800000Y-170000000D01*
X77800000Y-208000000D02*
X143300000Y-208000000D01*
X239800000Y-207400000D02*
X250200000Y-197000000D01*
X235950000Y-169400000D02*
X239800000Y-169400000D01*
X143900000Y-207400000D02*
X235950000Y-207400000D01*
X239800000Y-169400000D02*
X250200000Y-159000000D01*
X250200000Y-159000000D02*
X250200000Y-155700006D01*
X143900000Y-169400000D02*
X235950000Y-169400000D01*
X235950000Y-207400000D02*
X239800000Y-207400000D01*
X41230000Y-164980000D02*
X41230000Y-163270000D01*
X70800000Y-159400000D02*
X74500000Y-163100000D01*
X41230000Y-163270000D02*
X45100000Y-159400000D01*
X45100000Y-159400000D02*
X70800000Y-159400000D01*
X250200000Y-155700006D02*
X250200006Y-155700000D01*
X264700000Y-184900000D02*
X264700000Y-175900000D01*
X267200000Y-173400000D02*
X271500002Y-173400000D01*
X271500002Y-173400000D02*
X274050000Y-173400000D01*
X264700000Y-175900000D02*
X267200000Y-173400000D01*
X274050000Y-173400000D02*
X274550000Y-173900000D01*
X250200006Y-155700000D02*
X255900000Y-155700000D01*
X255900000Y-155700000D02*
X264700000Y-146900000D01*
X264700000Y-137900000D02*
X267200000Y-135400000D01*
X274050000Y-135400000D02*
X274550000Y-135900000D01*
X271500002Y-135400000D02*
X274050000Y-135400000D01*
X267200000Y-135400000D02*
X271500002Y-135400000D01*
X255900000Y-193700000D02*
X264700000Y-184900000D01*
X264700000Y-146900000D02*
X264700000Y-137900000D01*
X250200000Y-197000000D02*
X250200000Y-193700006D01*
X250200006Y-193700000D02*
X255900000Y-193700000D01*
X250200000Y-193700006D02*
X250200006Y-193700000D01*
X264700000Y-108900000D02*
X264700000Y-99900000D01*
X255900000Y-117700000D02*
X264700000Y-108900000D01*
X77800000Y-132000000D02*
X143300000Y-132000000D01*
X74500000Y-125100000D02*
X74500000Y-128700000D01*
X74500000Y-128700000D02*
X77800000Y-132000000D01*
X70800000Y-121400000D02*
X74500000Y-125100000D01*
X45100000Y-121400000D02*
X70800000Y-121400000D01*
X41230000Y-126980000D02*
X41230000Y-125270000D01*
X41230000Y-129520000D02*
X41230000Y-126980000D01*
X41230000Y-125270000D02*
X45100000Y-121400000D01*
X267200000Y-97400000D02*
X271500002Y-97400000D01*
X264700000Y-99900000D02*
X267200000Y-97400000D01*
X271500002Y-97400000D02*
X274050000Y-97400000D01*
X274050000Y-97400000D02*
X274550000Y-97900000D01*
X239800000Y-131400000D02*
X250200000Y-121000000D01*
X235950000Y-131400000D02*
X239800000Y-131400000D01*
X143300000Y-132000000D02*
X143900000Y-131400000D01*
X250200000Y-121000000D02*
X250200000Y-117700006D01*
X143900000Y-131400000D02*
X235950000Y-131400000D01*
X250200006Y-117700000D02*
X255900000Y-117700000D01*
X250200000Y-117700006D02*
X250200006Y-117700000D01*
X250200006Y-79700000D02*
X255900000Y-79700000D01*
X255900000Y-79700000D02*
X264700000Y-70900000D01*
X264700000Y-70900000D02*
X264700000Y-61900000D01*
X264700000Y-61900000D02*
X267200000Y-59400000D01*
X267200000Y-59400000D02*
X271500002Y-59400000D01*
X41230000Y-91520000D02*
X41230000Y-88980000D01*
X235950000Y-93400000D02*
X239800000Y-93400000D01*
X239800000Y-93400000D02*
X250200000Y-83000000D01*
X250200000Y-83000000D02*
X250200000Y-79700006D01*
X250200000Y-79700006D02*
X250200006Y-79700000D01*
X41230000Y-88980000D02*
X41230000Y-87270000D01*
X45100000Y-83400000D02*
X70800000Y-83400000D01*
X143300000Y-94000000D02*
X143900000Y-93400000D01*
X41230000Y-87270000D02*
X45100000Y-83400000D01*
X70800000Y-83400000D02*
X74500000Y-87100000D01*
X74500000Y-87100000D02*
X74500000Y-90700000D01*
X74500000Y-90700000D02*
X77800000Y-94000000D01*
X77800000Y-94000000D02*
X143300000Y-94000000D01*
X143900000Y-93400000D02*
X235950000Y-93400000D01*
X271500002Y-59400000D02*
X274050000Y-59400000D01*
X274050000Y-59400000D02*
X274550000Y-59900000D01*
D34*
X254100000Y-153000000D02*
X255100000Y-153000000D01*
X255100000Y-153000000D02*
X256000000Y-152100000D01*
X256000000Y-152100000D02*
X256000000Y-142000000D01*
X256000000Y-190100000D02*
X256000000Y-180000000D01*
X256000000Y-180000000D02*
X260700000Y-175300000D01*
X255100000Y-191000000D02*
X256000000Y-190100000D01*
X260700000Y-175300000D02*
X262600000Y-175300000D01*
X256000000Y-142000000D02*
X260700000Y-137300000D01*
X260700000Y-137300000D02*
X262600000Y-137300000D01*
X254100000Y-191000000D02*
X255100000Y-191000000D01*
X260700000Y-99300000D02*
X262600000Y-99300000D01*
X256000000Y-114100000D02*
X256000000Y-104000000D01*
X255100000Y-115000000D02*
X256000000Y-114100000D01*
X256000000Y-104000000D02*
X260700000Y-99300000D01*
X254100000Y-115000000D02*
X255100000Y-115000000D01*
X254100000Y-77000000D02*
X255100000Y-77000000D01*
X255100000Y-77000000D02*
X256000000Y-76100000D01*
X256000000Y-76100000D02*
X256000000Y-66000000D01*
X256000000Y-66000000D02*
X260700000Y-61300000D01*
X260700000Y-61300000D02*
X262600000Y-61300000D01*
X267637228Y-179537228D02*
X269800000Y-181700000D01*
X269800000Y-181700000D02*
X269800000Y-186500000D01*
X267637228Y-177277366D02*
X267637228Y-179537228D01*
X269800000Y-143700000D02*
X269800000Y-148500000D01*
X267637228Y-141537228D02*
X269800000Y-143700000D01*
X267637228Y-139277366D02*
X267637228Y-141537228D01*
X267637228Y-101277366D02*
X267637228Y-103537228D01*
X269800000Y-105700000D02*
X269800000Y-110500000D01*
X267637228Y-103537228D02*
X269800000Y-105700000D01*
X267637228Y-65537228D02*
X269800000Y-67700000D01*
X269800000Y-67700000D02*
X269800000Y-72500000D01*
X267637228Y-63277366D02*
X267637228Y-65537228D01*
X259080000Y-163020000D02*
X259080000Y-164900000D01*
X262300000Y-159800000D02*
X259080000Y-163020000D01*
X262300000Y-153000000D02*
X262300000Y-159800000D01*
X262300000Y-197800000D02*
X259080000Y-201020000D01*
X262300000Y-191000000D02*
X262300000Y-197800000D01*
X259080000Y-201020000D02*
X259080000Y-202900000D01*
X259080000Y-125020000D02*
X259080000Y-126900000D01*
X262300000Y-115000000D02*
X262300000Y-121800000D01*
X262300000Y-121800000D02*
X259080000Y-125020000D01*
X262300000Y-77000000D02*
X262300000Y-83800000D01*
X262300000Y-83800000D02*
X259080000Y-87020000D01*
X259080000Y-87020000D02*
X259080000Y-88900000D01*
M02*
